G04 #@! TF.GenerationSoftware,KiCad,Pcbnew,5.1.6-c6e7f7d~87~ubuntu20.04.1*
G04 #@! TF.CreationDate,2020-09-30T23:59:15+01:00*
G04 #@! TF.ProjectId,motor_board,6d6f746f-725f-4626-9f61-72642e6b6963,1.0*
G04 #@! TF.SameCoordinates,PX55d4a80PY5f5e100*
G04 #@! TF.FileFunction,Soldermask,Top*
G04 #@! TF.FilePolarity,Negative*
%FSLAX46Y46*%
G04 Gerber Fmt 4.6, Leading zero omitted, Abs format (unit mm)*
G04 Created by KiCad (PCBNEW 5.1.6-c6e7f7d~87~ubuntu20.04.1) date 2020-09-30 23:59:15*
%MOMM*%
%LPD*%
G01*
G04 APERTURE LIST*
%ADD10O,1.800000X1.800000*%
%ADD11R,1.800000X1.800000*%
%ADD12R,0.750000X1.160000*%
%ADD13R,0.750000X0.500000*%
%ADD14C,2.100000*%
%ADD15O,2.180000X3.700000*%
%ADD16R,2.895000X0.840000*%
%ADD17O,2.290000X1.840000*%
%ADD18C,3.300000*%
%ADD19R,1.000000X0.900000*%
G04 APERTURE END LIST*
G36*
G01*
X25700000Y17781250D02*
X25700000Y17218750D01*
G75*
G02*
X25456250Y16975000I-243750J0D01*
G01*
X24968750Y16975000D01*
G75*
G02*
X24725000Y17218750I0J243750D01*
G01*
X24725000Y17781250D01*
G75*
G02*
X24968750Y18025000I243750J0D01*
G01*
X25456250Y18025000D01*
G75*
G02*
X25700000Y17781250I0J-243750D01*
G01*
G37*
G36*
G01*
X27275000Y17781250D02*
X27275000Y17218750D01*
G75*
G02*
X27031250Y16975000I-243750J0D01*
G01*
X26543750Y16975000D01*
G75*
G02*
X26300000Y17218750I0J243750D01*
G01*
X26300000Y17781250D01*
G75*
G02*
X26543750Y18025000I243750J0D01*
G01*
X27031250Y18025000D01*
G75*
G02*
X27275000Y17781250I0J-243750D01*
G01*
G37*
G36*
G01*
X25700000Y13281250D02*
X25700000Y12718750D01*
G75*
G02*
X25456250Y12475000I-243750J0D01*
G01*
X24968750Y12475000D01*
G75*
G02*
X24725000Y12718750I0J243750D01*
G01*
X24725000Y13281250D01*
G75*
G02*
X24968750Y13525000I243750J0D01*
G01*
X25456250Y13525000D01*
G75*
G02*
X25700000Y13281250I0J-243750D01*
G01*
G37*
G36*
G01*
X27275000Y13281250D02*
X27275000Y12718750D01*
G75*
G02*
X27031250Y12475000I-243750J0D01*
G01*
X26543750Y12475000D01*
G75*
G02*
X26300000Y12718750I0J243750D01*
G01*
X26300000Y13281250D01*
G75*
G02*
X26543750Y13525000I243750J0D01*
G01*
X27031250Y13525000D01*
G75*
G02*
X27275000Y13281250I0J-243750D01*
G01*
G37*
D10*
X54000000Y11440000D03*
X54000000Y13980000D03*
X54000000Y16520000D03*
X54000000Y19060000D03*
X54000000Y21600000D03*
X54000000Y24140000D03*
X54000000Y26680000D03*
X54000000Y29220000D03*
X54000000Y31760000D03*
X54000000Y34300000D03*
X54000000Y36840000D03*
X54000000Y39380000D03*
X54000000Y41920000D03*
X54000000Y44460000D03*
D11*
X54000000Y47000000D03*
D12*
X3550000Y24100000D03*
X5450000Y24100000D03*
X5450000Y21900000D03*
X4500000Y21900000D03*
X3550000Y21900000D03*
G36*
G01*
X41700000Y13230000D02*
X41700000Y13580000D01*
G75*
G02*
X41875000Y13755000I175000J0D01*
G01*
X43575000Y13755000D01*
G75*
G02*
X43750000Y13580000I0J-175000D01*
G01*
X43750000Y13230000D01*
G75*
G02*
X43575000Y13055000I-175000J0D01*
G01*
X41875000Y13055000D01*
G75*
G02*
X41700000Y13230000I0J175000D01*
G01*
G37*
G36*
G01*
X41700000Y11960000D02*
X41700000Y12310000D01*
G75*
G02*
X41875000Y12485000I175000J0D01*
G01*
X43575000Y12485000D01*
G75*
G02*
X43750000Y12310000I0J-175000D01*
G01*
X43750000Y11960000D01*
G75*
G02*
X43575000Y11785000I-175000J0D01*
G01*
X41875000Y11785000D01*
G75*
G02*
X41700000Y11960000I0J175000D01*
G01*
G37*
G36*
G01*
X41700000Y10690000D02*
X41700000Y11040000D01*
G75*
G02*
X41875000Y11215000I175000J0D01*
G01*
X43575000Y11215000D01*
G75*
G02*
X43750000Y11040000I0J-175000D01*
G01*
X43750000Y10690000D01*
G75*
G02*
X43575000Y10515000I-175000J0D01*
G01*
X41875000Y10515000D01*
G75*
G02*
X41700000Y10690000I0J175000D01*
G01*
G37*
G36*
G01*
X41700000Y9420000D02*
X41700000Y9770000D01*
G75*
G02*
X41875000Y9945000I175000J0D01*
G01*
X43575000Y9945000D01*
G75*
G02*
X43750000Y9770000I0J-175000D01*
G01*
X43750000Y9420000D01*
G75*
G02*
X43575000Y9245000I-175000J0D01*
G01*
X41875000Y9245000D01*
G75*
G02*
X41700000Y9420000I0J175000D01*
G01*
G37*
G36*
G01*
X36750000Y9420000D02*
X36750000Y9770000D01*
G75*
G02*
X36925000Y9945000I175000J0D01*
G01*
X38625000Y9945000D01*
G75*
G02*
X38800000Y9770000I0J-175000D01*
G01*
X38800000Y9420000D01*
G75*
G02*
X38625000Y9245000I-175000J0D01*
G01*
X36925000Y9245000D01*
G75*
G02*
X36750000Y9420000I0J175000D01*
G01*
G37*
G36*
G01*
X36750000Y10690000D02*
X36750000Y11040000D01*
G75*
G02*
X36925000Y11215000I175000J0D01*
G01*
X38625000Y11215000D01*
G75*
G02*
X38800000Y11040000I0J-175000D01*
G01*
X38800000Y10690000D01*
G75*
G02*
X38625000Y10515000I-175000J0D01*
G01*
X36925000Y10515000D01*
G75*
G02*
X36750000Y10690000I0J175000D01*
G01*
G37*
G36*
G01*
X36750000Y11960000D02*
X36750000Y12310000D01*
G75*
G02*
X36925000Y12485000I175000J0D01*
G01*
X38625000Y12485000D01*
G75*
G02*
X38800000Y12310000I0J-175000D01*
G01*
X38800000Y11960000D01*
G75*
G02*
X38625000Y11785000I-175000J0D01*
G01*
X36925000Y11785000D01*
G75*
G02*
X36750000Y11960000I0J175000D01*
G01*
G37*
G36*
G01*
X36750000Y13230000D02*
X36750000Y13580000D01*
G75*
G02*
X36925000Y13755000I175000J0D01*
G01*
X38625000Y13755000D01*
G75*
G02*
X38800000Y13580000I0J-175000D01*
G01*
X38800000Y13230000D01*
G75*
G02*
X38625000Y13055000I-175000J0D01*
G01*
X36925000Y13055000D01*
G75*
G02*
X36750000Y13230000I0J175000D01*
G01*
G37*
G36*
G01*
X40025000Y28600000D02*
X41325000Y28600000D01*
G75*
G02*
X41475000Y28450000I0J-150000D01*
G01*
X41475000Y28150000D01*
G75*
G02*
X41325000Y28000000I-150000J0D01*
G01*
X40025000Y28000000D01*
G75*
G02*
X39875000Y28150000I0J150000D01*
G01*
X39875000Y28450000D01*
G75*
G02*
X40025000Y28600000I150000J0D01*
G01*
G37*
G36*
G01*
X40025000Y27800000D02*
X41325000Y27800000D01*
G75*
G02*
X41475000Y27650000I0J-150000D01*
G01*
X41475000Y27350000D01*
G75*
G02*
X41325000Y27200000I-150000J0D01*
G01*
X40025000Y27200000D01*
G75*
G02*
X39875000Y27350000I0J150000D01*
G01*
X39875000Y27650000D01*
G75*
G02*
X40025000Y27800000I150000J0D01*
G01*
G37*
G36*
G01*
X40025000Y27000000D02*
X41325000Y27000000D01*
G75*
G02*
X41475000Y26850000I0J-150000D01*
G01*
X41475000Y26550000D01*
G75*
G02*
X41325000Y26400000I-150000J0D01*
G01*
X40025000Y26400000D01*
G75*
G02*
X39875000Y26550000I0J150000D01*
G01*
X39875000Y26850000D01*
G75*
G02*
X40025000Y27000000I150000J0D01*
G01*
G37*
G36*
G01*
X40025000Y26200000D02*
X41325000Y26200000D01*
G75*
G02*
X41475000Y26050000I0J-150000D01*
G01*
X41475000Y25750000D01*
G75*
G02*
X41325000Y25600000I-150000J0D01*
G01*
X40025000Y25600000D01*
G75*
G02*
X39875000Y25750000I0J150000D01*
G01*
X39875000Y26050000D01*
G75*
G02*
X40025000Y26200000I150000J0D01*
G01*
G37*
G36*
G01*
X40025000Y25400000D02*
X41325000Y25400000D01*
G75*
G02*
X41475000Y25250000I0J-150000D01*
G01*
X41475000Y24950000D01*
G75*
G02*
X41325000Y24800000I-150000J0D01*
G01*
X40025000Y24800000D01*
G75*
G02*
X39875000Y24950000I0J150000D01*
G01*
X39875000Y25250000D01*
G75*
G02*
X40025000Y25400000I150000J0D01*
G01*
G37*
G36*
G01*
X40025000Y24600000D02*
X41325000Y24600000D01*
G75*
G02*
X41475000Y24450000I0J-150000D01*
G01*
X41475000Y24150000D01*
G75*
G02*
X41325000Y24000000I-150000J0D01*
G01*
X40025000Y24000000D01*
G75*
G02*
X39875000Y24150000I0J150000D01*
G01*
X39875000Y24450000D01*
G75*
G02*
X40025000Y24600000I150000J0D01*
G01*
G37*
G36*
G01*
X40025000Y23800000D02*
X41325000Y23800000D01*
G75*
G02*
X41475000Y23650000I0J-150000D01*
G01*
X41475000Y23350000D01*
G75*
G02*
X41325000Y23200000I-150000J0D01*
G01*
X40025000Y23200000D01*
G75*
G02*
X39875000Y23350000I0J150000D01*
G01*
X39875000Y23650000D01*
G75*
G02*
X40025000Y23800000I150000J0D01*
G01*
G37*
G36*
G01*
X40025000Y23000000D02*
X41325000Y23000000D01*
G75*
G02*
X41475000Y22850000I0J-150000D01*
G01*
X41475000Y22550000D01*
G75*
G02*
X41325000Y22400000I-150000J0D01*
G01*
X40025000Y22400000D01*
G75*
G02*
X39875000Y22550000I0J150000D01*
G01*
X39875000Y22850000D01*
G75*
G02*
X40025000Y23000000I150000J0D01*
G01*
G37*
G36*
G01*
X39150000Y22125000D02*
X39450000Y22125000D01*
G75*
G02*
X39600000Y21975000I0J-150000D01*
G01*
X39600000Y20675000D01*
G75*
G02*
X39450000Y20525000I-150000J0D01*
G01*
X39150000Y20525000D01*
G75*
G02*
X39000000Y20675000I0J150000D01*
G01*
X39000000Y21975000D01*
G75*
G02*
X39150000Y22125000I150000J0D01*
G01*
G37*
G36*
G01*
X38350000Y22125000D02*
X38650000Y22125000D01*
G75*
G02*
X38800000Y21975000I0J-150000D01*
G01*
X38800000Y20675000D01*
G75*
G02*
X38650000Y20525000I-150000J0D01*
G01*
X38350000Y20525000D01*
G75*
G02*
X38200000Y20675000I0J150000D01*
G01*
X38200000Y21975000D01*
G75*
G02*
X38350000Y22125000I150000J0D01*
G01*
G37*
G36*
G01*
X37550000Y22125000D02*
X37850000Y22125000D01*
G75*
G02*
X38000000Y21975000I0J-150000D01*
G01*
X38000000Y20675000D01*
G75*
G02*
X37850000Y20525000I-150000J0D01*
G01*
X37550000Y20525000D01*
G75*
G02*
X37400000Y20675000I0J150000D01*
G01*
X37400000Y21975000D01*
G75*
G02*
X37550000Y22125000I150000J0D01*
G01*
G37*
G36*
G01*
X36750000Y22125000D02*
X37050000Y22125000D01*
G75*
G02*
X37200000Y21975000I0J-150000D01*
G01*
X37200000Y20675000D01*
G75*
G02*
X37050000Y20525000I-150000J0D01*
G01*
X36750000Y20525000D01*
G75*
G02*
X36600000Y20675000I0J150000D01*
G01*
X36600000Y21975000D01*
G75*
G02*
X36750000Y22125000I150000J0D01*
G01*
G37*
G36*
G01*
X35950000Y22125000D02*
X36250000Y22125000D01*
G75*
G02*
X36400000Y21975000I0J-150000D01*
G01*
X36400000Y20675000D01*
G75*
G02*
X36250000Y20525000I-150000J0D01*
G01*
X35950000Y20525000D01*
G75*
G02*
X35800000Y20675000I0J150000D01*
G01*
X35800000Y21975000D01*
G75*
G02*
X35950000Y22125000I150000J0D01*
G01*
G37*
G36*
G01*
X35150000Y22125000D02*
X35450000Y22125000D01*
G75*
G02*
X35600000Y21975000I0J-150000D01*
G01*
X35600000Y20675000D01*
G75*
G02*
X35450000Y20525000I-150000J0D01*
G01*
X35150000Y20525000D01*
G75*
G02*
X35000000Y20675000I0J150000D01*
G01*
X35000000Y21975000D01*
G75*
G02*
X35150000Y22125000I150000J0D01*
G01*
G37*
G36*
G01*
X34350000Y22125000D02*
X34650000Y22125000D01*
G75*
G02*
X34800000Y21975000I0J-150000D01*
G01*
X34800000Y20675000D01*
G75*
G02*
X34650000Y20525000I-150000J0D01*
G01*
X34350000Y20525000D01*
G75*
G02*
X34200000Y20675000I0J150000D01*
G01*
X34200000Y21975000D01*
G75*
G02*
X34350000Y22125000I150000J0D01*
G01*
G37*
G36*
G01*
X33550000Y22125000D02*
X33850000Y22125000D01*
G75*
G02*
X34000000Y21975000I0J-150000D01*
G01*
X34000000Y20675000D01*
G75*
G02*
X33850000Y20525000I-150000J0D01*
G01*
X33550000Y20525000D01*
G75*
G02*
X33400000Y20675000I0J150000D01*
G01*
X33400000Y21975000D01*
G75*
G02*
X33550000Y22125000I150000J0D01*
G01*
G37*
G36*
G01*
X31675000Y23000000D02*
X32975000Y23000000D01*
G75*
G02*
X33125000Y22850000I0J-150000D01*
G01*
X33125000Y22550000D01*
G75*
G02*
X32975000Y22400000I-150000J0D01*
G01*
X31675000Y22400000D01*
G75*
G02*
X31525000Y22550000I0J150000D01*
G01*
X31525000Y22850000D01*
G75*
G02*
X31675000Y23000000I150000J0D01*
G01*
G37*
G36*
G01*
X31675000Y23800000D02*
X32975000Y23800000D01*
G75*
G02*
X33125000Y23650000I0J-150000D01*
G01*
X33125000Y23350000D01*
G75*
G02*
X32975000Y23200000I-150000J0D01*
G01*
X31675000Y23200000D01*
G75*
G02*
X31525000Y23350000I0J150000D01*
G01*
X31525000Y23650000D01*
G75*
G02*
X31675000Y23800000I150000J0D01*
G01*
G37*
G36*
G01*
X31675000Y24600000D02*
X32975000Y24600000D01*
G75*
G02*
X33125000Y24450000I0J-150000D01*
G01*
X33125000Y24150000D01*
G75*
G02*
X32975000Y24000000I-150000J0D01*
G01*
X31675000Y24000000D01*
G75*
G02*
X31525000Y24150000I0J150000D01*
G01*
X31525000Y24450000D01*
G75*
G02*
X31675000Y24600000I150000J0D01*
G01*
G37*
G36*
G01*
X31675000Y25400000D02*
X32975000Y25400000D01*
G75*
G02*
X33125000Y25250000I0J-150000D01*
G01*
X33125000Y24950000D01*
G75*
G02*
X32975000Y24800000I-150000J0D01*
G01*
X31675000Y24800000D01*
G75*
G02*
X31525000Y24950000I0J150000D01*
G01*
X31525000Y25250000D01*
G75*
G02*
X31675000Y25400000I150000J0D01*
G01*
G37*
G36*
G01*
X31675000Y26200000D02*
X32975000Y26200000D01*
G75*
G02*
X33125000Y26050000I0J-150000D01*
G01*
X33125000Y25750000D01*
G75*
G02*
X32975000Y25600000I-150000J0D01*
G01*
X31675000Y25600000D01*
G75*
G02*
X31525000Y25750000I0J150000D01*
G01*
X31525000Y26050000D01*
G75*
G02*
X31675000Y26200000I150000J0D01*
G01*
G37*
G36*
G01*
X31675000Y27000000D02*
X32975000Y27000000D01*
G75*
G02*
X33125000Y26850000I0J-150000D01*
G01*
X33125000Y26550000D01*
G75*
G02*
X32975000Y26400000I-150000J0D01*
G01*
X31675000Y26400000D01*
G75*
G02*
X31525000Y26550000I0J150000D01*
G01*
X31525000Y26850000D01*
G75*
G02*
X31675000Y27000000I150000J0D01*
G01*
G37*
G36*
G01*
X31675000Y27800000D02*
X32975000Y27800000D01*
G75*
G02*
X33125000Y27650000I0J-150000D01*
G01*
X33125000Y27350000D01*
G75*
G02*
X32975000Y27200000I-150000J0D01*
G01*
X31675000Y27200000D01*
G75*
G02*
X31525000Y27350000I0J150000D01*
G01*
X31525000Y27650000D01*
G75*
G02*
X31675000Y27800000I150000J0D01*
G01*
G37*
G36*
G01*
X31675000Y28600000D02*
X32975000Y28600000D01*
G75*
G02*
X33125000Y28450000I0J-150000D01*
G01*
X33125000Y28150000D01*
G75*
G02*
X32975000Y28000000I-150000J0D01*
G01*
X31675000Y28000000D01*
G75*
G02*
X31525000Y28150000I0J150000D01*
G01*
X31525000Y28450000D01*
G75*
G02*
X31675000Y28600000I150000J0D01*
G01*
G37*
G36*
G01*
X33550000Y30475000D02*
X33850000Y30475000D01*
G75*
G02*
X34000000Y30325000I0J-150000D01*
G01*
X34000000Y29025000D01*
G75*
G02*
X33850000Y28875000I-150000J0D01*
G01*
X33550000Y28875000D01*
G75*
G02*
X33400000Y29025000I0J150000D01*
G01*
X33400000Y30325000D01*
G75*
G02*
X33550000Y30475000I150000J0D01*
G01*
G37*
G36*
G01*
X34350000Y30475000D02*
X34650000Y30475000D01*
G75*
G02*
X34800000Y30325000I0J-150000D01*
G01*
X34800000Y29025000D01*
G75*
G02*
X34650000Y28875000I-150000J0D01*
G01*
X34350000Y28875000D01*
G75*
G02*
X34200000Y29025000I0J150000D01*
G01*
X34200000Y30325000D01*
G75*
G02*
X34350000Y30475000I150000J0D01*
G01*
G37*
G36*
G01*
X35150000Y30475000D02*
X35450000Y30475000D01*
G75*
G02*
X35600000Y30325000I0J-150000D01*
G01*
X35600000Y29025000D01*
G75*
G02*
X35450000Y28875000I-150000J0D01*
G01*
X35150000Y28875000D01*
G75*
G02*
X35000000Y29025000I0J150000D01*
G01*
X35000000Y30325000D01*
G75*
G02*
X35150000Y30475000I150000J0D01*
G01*
G37*
G36*
G01*
X35950000Y30475000D02*
X36250000Y30475000D01*
G75*
G02*
X36400000Y30325000I0J-150000D01*
G01*
X36400000Y29025000D01*
G75*
G02*
X36250000Y28875000I-150000J0D01*
G01*
X35950000Y28875000D01*
G75*
G02*
X35800000Y29025000I0J150000D01*
G01*
X35800000Y30325000D01*
G75*
G02*
X35950000Y30475000I150000J0D01*
G01*
G37*
G36*
G01*
X36750000Y30475000D02*
X37050000Y30475000D01*
G75*
G02*
X37200000Y30325000I0J-150000D01*
G01*
X37200000Y29025000D01*
G75*
G02*
X37050000Y28875000I-150000J0D01*
G01*
X36750000Y28875000D01*
G75*
G02*
X36600000Y29025000I0J150000D01*
G01*
X36600000Y30325000D01*
G75*
G02*
X36750000Y30475000I150000J0D01*
G01*
G37*
G36*
G01*
X37550000Y30475000D02*
X37850000Y30475000D01*
G75*
G02*
X38000000Y30325000I0J-150000D01*
G01*
X38000000Y29025000D01*
G75*
G02*
X37850000Y28875000I-150000J0D01*
G01*
X37550000Y28875000D01*
G75*
G02*
X37400000Y29025000I0J150000D01*
G01*
X37400000Y30325000D01*
G75*
G02*
X37550000Y30475000I150000J0D01*
G01*
G37*
G36*
G01*
X38350000Y30475000D02*
X38650000Y30475000D01*
G75*
G02*
X38800000Y30325000I0J-150000D01*
G01*
X38800000Y29025000D01*
G75*
G02*
X38650000Y28875000I-150000J0D01*
G01*
X38350000Y28875000D01*
G75*
G02*
X38200000Y29025000I0J150000D01*
G01*
X38200000Y30325000D01*
G75*
G02*
X38350000Y30475000I150000J0D01*
G01*
G37*
G36*
G01*
X39150000Y30475000D02*
X39450000Y30475000D01*
G75*
G02*
X39600000Y30325000I0J-150000D01*
G01*
X39600000Y29025000D01*
G75*
G02*
X39450000Y28875000I-150000J0D01*
G01*
X39150000Y28875000D01*
G75*
G02*
X39000000Y29025000I0J150000D01*
G01*
X39000000Y30325000D01*
G75*
G02*
X39150000Y30475000I150000J0D01*
G01*
G37*
D13*
X25050000Y14600000D03*
X25050000Y15900000D03*
X26950000Y15250000D03*
X26950000Y15900000D03*
X26950000Y14600000D03*
X25050000Y19100000D03*
X25050000Y20400000D03*
X26950000Y19750000D03*
X26950000Y20400000D03*
X26950000Y19100000D03*
D14*
X35000000Y37750000D03*
X35000000Y42250000D03*
X41500000Y37750000D03*
X41500000Y42250000D03*
G36*
G01*
X44531250Y36800000D02*
X43968750Y36800000D01*
G75*
G02*
X43725000Y37043750I0J243750D01*
G01*
X43725000Y37531250D01*
G75*
G02*
X43968750Y37775000I243750J0D01*
G01*
X44531250Y37775000D01*
G75*
G02*
X44775000Y37531250I0J-243750D01*
G01*
X44775000Y37043750D01*
G75*
G02*
X44531250Y36800000I-243750J0D01*
G01*
G37*
G36*
G01*
X44531250Y35225000D02*
X43968750Y35225000D01*
G75*
G02*
X43725000Y35468750I0J243750D01*
G01*
X43725000Y35956250D01*
G75*
G02*
X43968750Y36200000I243750J0D01*
G01*
X44531250Y36200000D01*
G75*
G02*
X44775000Y35956250I0J-243750D01*
G01*
X44775000Y35468750D01*
G75*
G02*
X44531250Y35225000I-243750J0D01*
G01*
G37*
G36*
G01*
X33531250Y16050000D02*
X32968750Y16050000D01*
G75*
G02*
X32725000Y16293750I0J243750D01*
G01*
X32725000Y16781250D01*
G75*
G02*
X32968750Y17025000I243750J0D01*
G01*
X33531250Y17025000D01*
G75*
G02*
X33775000Y16781250I0J-243750D01*
G01*
X33775000Y16293750D01*
G75*
G02*
X33531250Y16050000I-243750J0D01*
G01*
G37*
G36*
G01*
X33531250Y14475000D02*
X32968750Y14475000D01*
G75*
G02*
X32725000Y14718750I0J243750D01*
G01*
X32725000Y15206250D01*
G75*
G02*
X32968750Y15450000I243750J0D01*
G01*
X33531250Y15450000D01*
G75*
G02*
X33775000Y15206250I0J-243750D01*
G01*
X33775000Y14718750D01*
G75*
G02*
X33531250Y14475000I-243750J0D01*
G01*
G37*
G36*
G01*
X31031250Y16050000D02*
X30468750Y16050000D01*
G75*
G02*
X30225000Y16293750I0J243750D01*
G01*
X30225000Y16781250D01*
G75*
G02*
X30468750Y17025000I243750J0D01*
G01*
X31031250Y17025000D01*
G75*
G02*
X31275000Y16781250I0J-243750D01*
G01*
X31275000Y16293750D01*
G75*
G02*
X31031250Y16050000I-243750J0D01*
G01*
G37*
G36*
G01*
X31031250Y14475000D02*
X30468750Y14475000D01*
G75*
G02*
X30225000Y14718750I0J243750D01*
G01*
X30225000Y15206250D01*
G75*
G02*
X30468750Y15450000I243750J0D01*
G01*
X31031250Y15450000D01*
G75*
G02*
X31275000Y15206250I0J-243750D01*
G01*
X31275000Y14718750D01*
G75*
G02*
X31031250Y14475000I-243750J0D01*
G01*
G37*
G36*
G01*
X14875000Y35851250D02*
X14875000Y35288750D01*
G75*
G02*
X14631250Y35045000I-243750J0D01*
G01*
X14143750Y35045000D01*
G75*
G02*
X13900000Y35288750I0J243750D01*
G01*
X13900000Y35851250D01*
G75*
G02*
X14143750Y36095000I243750J0D01*
G01*
X14631250Y36095000D01*
G75*
G02*
X14875000Y35851250I0J-243750D01*
G01*
G37*
G36*
G01*
X16450000Y35851250D02*
X16450000Y35288750D01*
G75*
G02*
X16206250Y35045000I-243750J0D01*
G01*
X15718750Y35045000D01*
G75*
G02*
X15475000Y35288750I0J243750D01*
G01*
X15475000Y35851250D01*
G75*
G02*
X15718750Y36095000I243750J0D01*
G01*
X16206250Y36095000D01*
G75*
G02*
X16450000Y35851250I0J-243750D01*
G01*
G37*
G36*
G01*
X14875000Y38391250D02*
X14875000Y37828750D01*
G75*
G02*
X14631250Y37585000I-243750J0D01*
G01*
X14143750Y37585000D01*
G75*
G02*
X13900000Y37828750I0J243750D01*
G01*
X13900000Y38391250D01*
G75*
G02*
X14143750Y38635000I243750J0D01*
G01*
X14631250Y38635000D01*
G75*
G02*
X14875000Y38391250I0J-243750D01*
G01*
G37*
G36*
G01*
X16450000Y38391250D02*
X16450000Y37828750D01*
G75*
G02*
X16206250Y37585000I-243750J0D01*
G01*
X15718750Y37585000D01*
G75*
G02*
X15475000Y37828750I0J243750D01*
G01*
X15475000Y38391250D01*
G75*
G02*
X15718750Y38635000I243750J0D01*
G01*
X16206250Y38635000D01*
G75*
G02*
X16450000Y38391250I0J-243750D01*
G01*
G37*
G36*
G01*
X14875000Y40931250D02*
X14875000Y40368750D01*
G75*
G02*
X14631250Y40125000I-243750J0D01*
G01*
X14143750Y40125000D01*
G75*
G02*
X13900000Y40368750I0J243750D01*
G01*
X13900000Y40931250D01*
G75*
G02*
X14143750Y41175000I243750J0D01*
G01*
X14631250Y41175000D01*
G75*
G02*
X14875000Y40931250I0J-243750D01*
G01*
G37*
G36*
G01*
X16450000Y40931250D02*
X16450000Y40368750D01*
G75*
G02*
X16206250Y40125000I-243750J0D01*
G01*
X15718750Y40125000D01*
G75*
G02*
X15475000Y40368750I0J243750D01*
G01*
X15475000Y40931250D01*
G75*
G02*
X15718750Y41175000I243750J0D01*
G01*
X16206250Y41175000D01*
G75*
G02*
X16450000Y40931250I0J-243750D01*
G01*
G37*
G36*
G01*
X14875000Y43471250D02*
X14875000Y42908750D01*
G75*
G02*
X14631250Y42665000I-243750J0D01*
G01*
X14143750Y42665000D01*
G75*
G02*
X13900000Y42908750I0J243750D01*
G01*
X13900000Y43471250D01*
G75*
G02*
X14143750Y43715000I243750J0D01*
G01*
X14631250Y43715000D01*
G75*
G02*
X14875000Y43471250I0J-243750D01*
G01*
G37*
G36*
G01*
X16450000Y43471250D02*
X16450000Y42908750D01*
G75*
G02*
X16206250Y42665000I-243750J0D01*
G01*
X15718750Y42665000D01*
G75*
G02*
X15475000Y42908750I0J243750D01*
G01*
X15475000Y43471250D01*
G75*
G02*
X15718750Y43715000I243750J0D01*
G01*
X16206250Y43715000D01*
G75*
G02*
X16450000Y43471250I0J-243750D01*
G01*
G37*
D15*
X49080000Y3500000D03*
G36*
G01*
X42910000Y1912018D02*
X42910000Y5087982D01*
G75*
G02*
X43172018Y5350000I262018J0D01*
G01*
X44827982Y5350000D01*
G75*
G02*
X45090000Y5087982I0J-262018D01*
G01*
X45090000Y1912018D01*
G75*
G02*
X44827982Y1650000I-262018J0D01*
G01*
X43172018Y1650000D01*
G75*
G02*
X42910000Y1912018I0J262018D01*
G01*
G37*
D10*
X47650000Y46250000D03*
X45110000Y46250000D03*
X42570000Y46250000D03*
X40030000Y46250000D03*
X37490000Y46250000D03*
D11*
X34950000Y46250000D03*
D10*
X6920000Y13980000D03*
X4380000Y13980000D03*
D11*
X1840000Y13980000D03*
D10*
X6920000Y16520000D03*
X4380000Y16520000D03*
D11*
X1840000Y16520000D03*
D15*
X35740000Y3500000D03*
X30660000Y3500000D03*
X25580000Y3500000D03*
G36*
G01*
X19410000Y1912018D02*
X19410000Y5087982D01*
G75*
G02*
X19672018Y5350000I262018J0D01*
G01*
X21327982Y5350000D01*
G75*
G02*
X21590000Y5087982I0J-262018D01*
G01*
X21590000Y1912018D01*
G75*
G02*
X21327982Y1650000I-262018J0D01*
G01*
X19672018Y1650000D01*
G75*
G02*
X19410000Y1912018I0J262018D01*
G01*
G37*
D10*
X12000000Y11440000D03*
X12000000Y13980000D03*
X12000000Y16520000D03*
X12000000Y19060000D03*
X12000000Y21600000D03*
X12000000Y24140000D03*
X12000000Y26680000D03*
X12000000Y29220000D03*
X12000000Y31760000D03*
X12000000Y34300000D03*
X12000000Y36840000D03*
X12000000Y39380000D03*
X12000000Y41920000D03*
X12000000Y44460000D03*
D11*
X12000000Y47000000D03*
D16*
X45968000Y19790000D03*
X50032000Y19790000D03*
X45968000Y18520000D03*
X50032000Y18520000D03*
X45968000Y17250000D03*
X50032000Y17250000D03*
X45968000Y15980000D03*
X50032000Y15980000D03*
X45968000Y14710000D03*
X50032000Y14710000D03*
D10*
X6920000Y33030000D03*
X4380000Y33030000D03*
D11*
X1840000Y33030000D03*
D10*
X6920000Y35570000D03*
X4380000Y35570000D03*
D11*
X1840000Y35570000D03*
D17*
X61620000Y22870000D03*
X61620000Y25410000D03*
X61620000Y27950000D03*
X61620000Y30490000D03*
X61620000Y33030000D03*
G36*
G01*
X60739367Y36490000D02*
X62500633Y36490000D01*
G75*
G02*
X62765000Y36225633I0J-264367D01*
G01*
X62765000Y34914367D01*
G75*
G02*
X62500633Y34650000I-264367J0D01*
G01*
X60739367Y34650000D01*
G75*
G02*
X60475000Y34914367I0J264367D01*
G01*
X60475000Y36225633D01*
G75*
G02*
X60739367Y36490000I264367J0D01*
G01*
G37*
D10*
X6920000Y38110000D03*
X4380000Y38110000D03*
D11*
X1840000Y38110000D03*
D10*
X6920000Y40650000D03*
X4380000Y40650000D03*
D11*
X1840000Y40650000D03*
D18*
X62000000Y4000000D03*
X4000000Y46000000D03*
X4000000Y4000000D03*
X62000000Y46000000D03*
G36*
G01*
X33531250Y12550000D02*
X32968750Y12550000D01*
G75*
G02*
X32725000Y12793750I0J243750D01*
G01*
X32725000Y13281250D01*
G75*
G02*
X32968750Y13525000I243750J0D01*
G01*
X33531250Y13525000D01*
G75*
G02*
X33775000Y13281250I0J-243750D01*
G01*
X33775000Y12793750D01*
G75*
G02*
X33531250Y12550000I-243750J0D01*
G01*
G37*
G36*
G01*
X33531250Y10975000D02*
X32968750Y10975000D01*
G75*
G02*
X32725000Y11218750I0J243750D01*
G01*
X32725000Y11706250D01*
G75*
G02*
X32968750Y11950000I243750J0D01*
G01*
X33531250Y11950000D01*
G75*
G02*
X33775000Y11706250I0J-243750D01*
G01*
X33775000Y11218750D01*
G75*
G02*
X33531250Y10975000I-243750J0D01*
G01*
G37*
G36*
G01*
X31031250Y12550000D02*
X30468750Y12550000D01*
G75*
G02*
X30225000Y12793750I0J243750D01*
G01*
X30225000Y13281250D01*
G75*
G02*
X30468750Y13525000I243750J0D01*
G01*
X31031250Y13525000D01*
G75*
G02*
X31275000Y13281250I0J-243750D01*
G01*
X31275000Y12793750D01*
G75*
G02*
X31031250Y12550000I-243750J0D01*
G01*
G37*
G36*
G01*
X31031250Y10975000D02*
X30468750Y10975000D01*
G75*
G02*
X30225000Y11218750I0J243750D01*
G01*
X30225000Y11706250D01*
G75*
G02*
X30468750Y11950000I243750J0D01*
G01*
X31031250Y11950000D01*
G75*
G02*
X31275000Y11706250I0J-243750D01*
G01*
X31275000Y11218750D01*
G75*
G02*
X31031250Y10975000I-243750J0D01*
G01*
G37*
D19*
X19985000Y35570000D03*
X17985000Y34620000D03*
X17985000Y36520000D03*
X23795000Y38110000D03*
X21795000Y37160000D03*
X21795000Y39060000D03*
X19985000Y40650000D03*
X17985000Y39700000D03*
X17985000Y41600000D03*
X23795000Y43190000D03*
X21795000Y42240000D03*
X21795000Y44140000D03*
G36*
G01*
X4800000Y27218750D02*
X4800000Y27781250D01*
G75*
G02*
X5043750Y28025000I243750J0D01*
G01*
X5531250Y28025000D01*
G75*
G02*
X5775000Y27781250I0J-243750D01*
G01*
X5775000Y27218750D01*
G75*
G02*
X5531250Y26975000I-243750J0D01*
G01*
X5043750Y26975000D01*
G75*
G02*
X4800000Y27218750I0J243750D01*
G01*
G37*
G36*
G01*
X3225000Y27218750D02*
X3225000Y27781250D01*
G75*
G02*
X3468750Y28025000I243750J0D01*
G01*
X3956250Y28025000D01*
G75*
G02*
X4200000Y27781250I0J-243750D01*
G01*
X4200000Y27218750D01*
G75*
G02*
X3956250Y26975000I-243750J0D01*
G01*
X3468750Y26975000D01*
G75*
G02*
X3225000Y27218750I0J243750D01*
G01*
G37*
G36*
G01*
X6550000Y25468750D02*
X6550000Y26031250D01*
G75*
G02*
X6793750Y26275000I243750J0D01*
G01*
X7281250Y26275000D01*
G75*
G02*
X7525000Y26031250I0J-243750D01*
G01*
X7525000Y25468750D01*
G75*
G02*
X7281250Y25225000I-243750J0D01*
G01*
X6793750Y25225000D01*
G75*
G02*
X6550000Y25468750I0J243750D01*
G01*
G37*
G36*
G01*
X4975000Y25468750D02*
X4975000Y26031250D01*
G75*
G02*
X5218750Y26275000I243750J0D01*
G01*
X5706250Y26275000D01*
G75*
G02*
X5950000Y26031250I0J-243750D01*
G01*
X5950000Y25468750D01*
G75*
G02*
X5706250Y25225000I-243750J0D01*
G01*
X5218750Y25225000D01*
G75*
G02*
X4975000Y25468750I0J243750D01*
G01*
G37*
G36*
G01*
X4800000Y19968750D02*
X4800000Y20531250D01*
G75*
G02*
X5043750Y20775000I243750J0D01*
G01*
X5531250Y20775000D01*
G75*
G02*
X5775000Y20531250I0J-243750D01*
G01*
X5775000Y19968750D01*
G75*
G02*
X5531250Y19725000I-243750J0D01*
G01*
X5043750Y19725000D01*
G75*
G02*
X4800000Y19968750I0J243750D01*
G01*
G37*
G36*
G01*
X3225000Y19968750D02*
X3225000Y20531250D01*
G75*
G02*
X3468750Y20775000I243750J0D01*
G01*
X3956250Y20775000D01*
G75*
G02*
X4200000Y20531250I0J-243750D01*
G01*
X4200000Y19968750D01*
G75*
G02*
X3956250Y19725000I-243750J0D01*
G01*
X3468750Y19725000D01*
G75*
G02*
X3225000Y19968750I0J243750D01*
G01*
G37*
G36*
G01*
X41800000Y14968750D02*
X41800000Y15531250D01*
G75*
G02*
X42043750Y15775000I243750J0D01*
G01*
X42531250Y15775000D01*
G75*
G02*
X42775000Y15531250I0J-243750D01*
G01*
X42775000Y14968750D01*
G75*
G02*
X42531250Y14725000I-243750J0D01*
G01*
X42043750Y14725000D01*
G75*
G02*
X41800000Y14968750I0J243750D01*
G01*
G37*
G36*
G01*
X40225000Y14968750D02*
X40225000Y15531250D01*
G75*
G02*
X40468750Y15775000I243750J0D01*
G01*
X40956250Y15775000D01*
G75*
G02*
X41200000Y15531250I0J-243750D01*
G01*
X41200000Y14968750D01*
G75*
G02*
X40956250Y14725000I-243750J0D01*
G01*
X40468750Y14725000D01*
G75*
G02*
X40225000Y14968750I0J243750D01*
G01*
G37*
G36*
G01*
X32781250Y40050000D02*
X32218750Y40050000D01*
G75*
G02*
X31975000Y40293750I0J243750D01*
G01*
X31975000Y40781250D01*
G75*
G02*
X32218750Y41025000I243750J0D01*
G01*
X32781250Y41025000D01*
G75*
G02*
X33025000Y40781250I0J-243750D01*
G01*
X33025000Y40293750D01*
G75*
G02*
X32781250Y40050000I-243750J0D01*
G01*
G37*
G36*
G01*
X32781250Y38475000D02*
X32218750Y38475000D01*
G75*
G02*
X31975000Y38718750I0J243750D01*
G01*
X31975000Y39206250D01*
G75*
G02*
X32218750Y39450000I243750J0D01*
G01*
X32781250Y39450000D01*
G75*
G02*
X33025000Y39206250I0J-243750D01*
G01*
X33025000Y38718750D01*
G75*
G02*
X32781250Y38475000I-243750J0D01*
G01*
G37*
G36*
G01*
X38550000Y32718750D02*
X38550000Y33281250D01*
G75*
G02*
X38793750Y33525000I243750J0D01*
G01*
X39281250Y33525000D01*
G75*
G02*
X39525000Y33281250I0J-243750D01*
G01*
X39525000Y32718750D01*
G75*
G02*
X39281250Y32475000I-243750J0D01*
G01*
X38793750Y32475000D01*
G75*
G02*
X38550000Y32718750I0J243750D01*
G01*
G37*
G36*
G01*
X36975000Y32718750D02*
X36975000Y33281250D01*
G75*
G02*
X37218750Y33525000I243750J0D01*
G01*
X37706250Y33525000D01*
G75*
G02*
X37950000Y33281250I0J-243750D01*
G01*
X37950000Y32718750D01*
G75*
G02*
X37706250Y32475000I-243750J0D01*
G01*
X37218750Y32475000D01*
G75*
G02*
X36975000Y32718750I0J243750D01*
G01*
G37*
G36*
G01*
X38650000Y34518750D02*
X38650000Y35481250D01*
G75*
G02*
X38918750Y35750000I268750J0D01*
G01*
X39456250Y35750000D01*
G75*
G02*
X39725000Y35481250I0J-268750D01*
G01*
X39725000Y34518750D01*
G75*
G02*
X39456250Y34250000I-268750J0D01*
G01*
X38918750Y34250000D01*
G75*
G02*
X38650000Y34518750I0J268750D01*
G01*
G37*
G36*
G01*
X36775000Y34518750D02*
X36775000Y35481250D01*
G75*
G02*
X37043750Y35750000I268750J0D01*
G01*
X37581250Y35750000D01*
G75*
G02*
X37850000Y35481250I0J-268750D01*
G01*
X37850000Y34518750D01*
G75*
G02*
X37581250Y34250000I-268750J0D01*
G01*
X37043750Y34250000D01*
G75*
G02*
X36775000Y34518750I0J268750D01*
G01*
G37*
M02*
