M48
; DRILL file {KiCad 5.1.6-c6e7f7d~87~ubuntu20.04.1} date Wed Sep 30 23:55:42 2020
; FORMAT={-:-/ absolute / metric / decimal}
; #@! TF.CreationDate,2020-09-30T23:55:42+01:00
; #@! TF.GenerationSoftware,Kicad,Pcbnew,5.1.6-c6e7f7d~87~ubuntu20.04.1
FMAT,2
METRIC
T1C0.400
T2C1.000
T3C1.100
T4C1.190
T5C1.400
T6C3.200
%
G90
G05
T1
X6.5Y27.5
X6.5Y20.25
X7.0Y24.25
X10.0Y28.0
X14.0Y28.0
X16.826Y41.92
X16.826Y39.38
X16.826Y36.84
X16.826Y34.3
X17.5Y44.0
X17.5Y17.75
X17.715Y15.25
X17.715Y12.71
X20.382Y44.206
X20.382Y42.174
X20.382Y39.38
X20.382Y36.84
X20.5Y9.75
X27.5Y21.75
X27.987Y16.013
X28.0Y17.5
X28.0Y14.5
X28.0Y13.0
X28.225Y19.25
X28.25Y32.25
X29.25Y31.45
X30.75Y10.25
X32.25Y31.45
X33.25Y10.25
X34.5Y20.0
X34.75Y32.25
X36.025Y31.25
X36.25Y35.0
X36.25Y33.0
X39.0Y23.0
X40.5Y16.5
X42.25Y23.0
X42.75Y8.25
X46.25Y27.0
X51.5Y21.0
X52.25Y15.25
T2
X1.84Y35.57
X4.38Y35.57
X6.92Y35.57
X12.0Y47.0
X12.0Y44.46
X12.0Y41.92
X12.0Y39.38
X12.0Y36.84
X12.0Y34.3
X12.0Y31.76
X12.0Y29.22
X12.0Y26.68
X12.0Y24.14
X12.0Y21.6
X12.0Y19.06
X12.0Y16.52
X12.0Y13.98
X12.0Y11.44
X1.84Y38.11
X4.38Y38.11
X6.92Y38.11
X1.84Y16.52
X4.38Y16.52
X6.92Y16.52
X1.84Y33.03
X4.38Y33.03
X6.92Y33.03
X1.84Y40.65
X4.38Y40.65
X6.92Y40.65
X54.0Y47.0
X54.0Y44.46
X54.0Y41.92
X54.0Y39.38
X54.0Y36.84
X54.0Y34.3
X54.0Y31.76
X54.0Y29.22
X54.0Y26.68
X54.0Y24.14
X54.0Y21.6
X54.0Y19.06
X54.0Y16.52
X54.0Y13.98
X54.0Y11.44
X34.95Y46.25
X37.49Y46.25
X40.03Y46.25
X42.57Y46.25
X45.11Y46.25
X47.65Y46.25
X1.84Y13.98
X4.38Y13.98
X6.92Y13.98
T3
X35.0Y42.25
X35.0Y37.75
X41.5Y42.25
X41.5Y37.75
T4
X61.62Y35.57
X61.62Y33.03
X61.62Y30.49
X61.62Y27.95
X61.62Y25.41
X61.62Y22.87
T5
X44.0Y3.5
X49.08Y3.5
X20.5Y3.5
X25.58Y3.5
X30.66Y3.5
X35.74Y3.5
T6
X4.0Y46.0
X62.0Y4.0
X4.0Y4.0
X62.0Y46.0
T0
M30
