G04 #@! TF.GenerationSoftware,KiCad,Pcbnew,5.1.6-c6e7f7d~87~ubuntu20.04.1*
G04 #@! TF.CreationDate,2020-09-30T23:59:15+01:00*
G04 #@! TF.ProjectId,motor_board,6d6f746f-725f-4626-9f61-72642e6b6963,1.0*
G04 #@! TF.SameCoordinates,PX55d4a80PY5f5e100*
G04 #@! TF.FileFunction,Copper,L1,Top*
G04 #@! TF.FilePolarity,Positive*
%FSLAX46Y46*%
G04 Gerber Fmt 4.6, Leading zero omitted, Abs format (unit mm)*
G04 Created by KiCad (PCBNEW 5.1.6-c6e7f7d~87~ubuntu20.04.1) date 2020-09-30 23:59:15*
%MOMM*%
%LPD*%
G01*
G04 APERTURE LIST*
G04 #@! TA.AperFunction,ComponentPad*
%ADD10O,1.700000X1.700000*%
G04 #@! TD*
G04 #@! TA.AperFunction,ComponentPad*
%ADD11R,1.700000X1.700000*%
G04 #@! TD*
G04 #@! TA.AperFunction,SMDPad,CuDef*
%ADD12R,0.650000X1.060000*%
G04 #@! TD*
G04 #@! TA.AperFunction,SMDPad,CuDef*
%ADD13R,0.650000X0.400000*%
G04 #@! TD*
G04 #@! TA.AperFunction,ComponentPad*
%ADD14C,2.000000*%
G04 #@! TD*
G04 #@! TA.AperFunction,ComponentPad*
%ADD15O,2.080000X3.600000*%
G04 #@! TD*
G04 #@! TA.AperFunction,SMDPad,CuDef*
%ADD16R,2.795000X0.740000*%
G04 #@! TD*
G04 #@! TA.AperFunction,ComponentPad*
%ADD17O,2.190000X1.740000*%
G04 #@! TD*
G04 #@! TA.AperFunction,SMDPad,CuDef*
%ADD18R,0.900000X0.800000*%
G04 #@! TD*
G04 #@! TA.AperFunction,ViaPad*
%ADD19C,0.800000*%
G04 #@! TD*
G04 #@! TA.AperFunction,Conductor*
%ADD20C,0.400000*%
G04 #@! TD*
G04 #@! TA.AperFunction,Conductor*
%ADD21C,2.300000*%
G04 #@! TD*
G04 #@! TA.AperFunction,Conductor*
%ADD22C,0.250000*%
G04 #@! TD*
G04 #@! TA.AperFunction,Conductor*
%ADD23C,0.254000*%
G04 #@! TD*
G04 APERTURE END LIST*
G04 #@! TA.AperFunction,SMDPad,CuDef*
G36*
G01*
X25650000Y17756250D02*
X25650000Y17243750D01*
G75*
G02*
X25431250Y17025000I-218750J0D01*
G01*
X24993750Y17025000D01*
G75*
G02*
X24775000Y17243750I0J218750D01*
G01*
X24775000Y17756250D01*
G75*
G02*
X24993750Y17975000I218750J0D01*
G01*
X25431250Y17975000D01*
G75*
G02*
X25650000Y17756250I0J-218750D01*
G01*
G37*
G04 #@! TD.AperFunction*
G04 #@! TA.AperFunction,SMDPad,CuDef*
G36*
G01*
X27225000Y17756250D02*
X27225000Y17243750D01*
G75*
G02*
X27006250Y17025000I-218750J0D01*
G01*
X26568750Y17025000D01*
G75*
G02*
X26350000Y17243750I0J218750D01*
G01*
X26350000Y17756250D01*
G75*
G02*
X26568750Y17975000I218750J0D01*
G01*
X27006250Y17975000D01*
G75*
G02*
X27225000Y17756250I0J-218750D01*
G01*
G37*
G04 #@! TD.AperFunction*
G04 #@! TA.AperFunction,SMDPad,CuDef*
G36*
G01*
X25650000Y13256250D02*
X25650000Y12743750D01*
G75*
G02*
X25431250Y12525000I-218750J0D01*
G01*
X24993750Y12525000D01*
G75*
G02*
X24775000Y12743750I0J218750D01*
G01*
X24775000Y13256250D01*
G75*
G02*
X24993750Y13475000I218750J0D01*
G01*
X25431250Y13475000D01*
G75*
G02*
X25650000Y13256250I0J-218750D01*
G01*
G37*
G04 #@! TD.AperFunction*
G04 #@! TA.AperFunction,SMDPad,CuDef*
G36*
G01*
X27225000Y13256250D02*
X27225000Y12743750D01*
G75*
G02*
X27006250Y12525000I-218750J0D01*
G01*
X26568750Y12525000D01*
G75*
G02*
X26350000Y12743750I0J218750D01*
G01*
X26350000Y13256250D01*
G75*
G02*
X26568750Y13475000I218750J0D01*
G01*
X27006250Y13475000D01*
G75*
G02*
X27225000Y13256250I0J-218750D01*
G01*
G37*
G04 #@! TD.AperFunction*
D10*
X54000000Y11440000D03*
X54000000Y13980000D03*
X54000000Y16520000D03*
X54000000Y19060000D03*
X54000000Y21600000D03*
X54000000Y24140000D03*
X54000000Y26680000D03*
X54000000Y29220000D03*
X54000000Y31760000D03*
X54000000Y34300000D03*
X54000000Y36840000D03*
X54000000Y39380000D03*
X54000000Y41920000D03*
X54000000Y44460000D03*
D11*
X54000000Y47000000D03*
D12*
X3550000Y24100000D03*
X5450000Y24100000D03*
X5450000Y21900000D03*
X4500000Y21900000D03*
X3550000Y21900000D03*
G04 #@! TA.AperFunction,SMDPad,CuDef*
G36*
G01*
X41750000Y13255000D02*
X41750000Y13555000D01*
G75*
G02*
X41900000Y13705000I150000J0D01*
G01*
X43550000Y13705000D01*
G75*
G02*
X43700000Y13555000I0J-150000D01*
G01*
X43700000Y13255000D01*
G75*
G02*
X43550000Y13105000I-150000J0D01*
G01*
X41900000Y13105000D01*
G75*
G02*
X41750000Y13255000I0J150000D01*
G01*
G37*
G04 #@! TD.AperFunction*
G04 #@! TA.AperFunction,SMDPad,CuDef*
G36*
G01*
X41750000Y11985000D02*
X41750000Y12285000D01*
G75*
G02*
X41900000Y12435000I150000J0D01*
G01*
X43550000Y12435000D01*
G75*
G02*
X43700000Y12285000I0J-150000D01*
G01*
X43700000Y11985000D01*
G75*
G02*
X43550000Y11835000I-150000J0D01*
G01*
X41900000Y11835000D01*
G75*
G02*
X41750000Y11985000I0J150000D01*
G01*
G37*
G04 #@! TD.AperFunction*
G04 #@! TA.AperFunction,SMDPad,CuDef*
G36*
G01*
X41750000Y10715000D02*
X41750000Y11015000D01*
G75*
G02*
X41900000Y11165000I150000J0D01*
G01*
X43550000Y11165000D01*
G75*
G02*
X43700000Y11015000I0J-150000D01*
G01*
X43700000Y10715000D01*
G75*
G02*
X43550000Y10565000I-150000J0D01*
G01*
X41900000Y10565000D01*
G75*
G02*
X41750000Y10715000I0J150000D01*
G01*
G37*
G04 #@! TD.AperFunction*
G04 #@! TA.AperFunction,SMDPad,CuDef*
G36*
G01*
X41750000Y9445000D02*
X41750000Y9745000D01*
G75*
G02*
X41900000Y9895000I150000J0D01*
G01*
X43550000Y9895000D01*
G75*
G02*
X43700000Y9745000I0J-150000D01*
G01*
X43700000Y9445000D01*
G75*
G02*
X43550000Y9295000I-150000J0D01*
G01*
X41900000Y9295000D01*
G75*
G02*
X41750000Y9445000I0J150000D01*
G01*
G37*
G04 #@! TD.AperFunction*
G04 #@! TA.AperFunction,SMDPad,CuDef*
G36*
G01*
X36800000Y9445000D02*
X36800000Y9745000D01*
G75*
G02*
X36950000Y9895000I150000J0D01*
G01*
X38600000Y9895000D01*
G75*
G02*
X38750000Y9745000I0J-150000D01*
G01*
X38750000Y9445000D01*
G75*
G02*
X38600000Y9295000I-150000J0D01*
G01*
X36950000Y9295000D01*
G75*
G02*
X36800000Y9445000I0J150000D01*
G01*
G37*
G04 #@! TD.AperFunction*
G04 #@! TA.AperFunction,SMDPad,CuDef*
G36*
G01*
X36800000Y10715000D02*
X36800000Y11015000D01*
G75*
G02*
X36950000Y11165000I150000J0D01*
G01*
X38600000Y11165000D01*
G75*
G02*
X38750000Y11015000I0J-150000D01*
G01*
X38750000Y10715000D01*
G75*
G02*
X38600000Y10565000I-150000J0D01*
G01*
X36950000Y10565000D01*
G75*
G02*
X36800000Y10715000I0J150000D01*
G01*
G37*
G04 #@! TD.AperFunction*
G04 #@! TA.AperFunction,SMDPad,CuDef*
G36*
G01*
X36800000Y11985000D02*
X36800000Y12285000D01*
G75*
G02*
X36950000Y12435000I150000J0D01*
G01*
X38600000Y12435000D01*
G75*
G02*
X38750000Y12285000I0J-150000D01*
G01*
X38750000Y11985000D01*
G75*
G02*
X38600000Y11835000I-150000J0D01*
G01*
X36950000Y11835000D01*
G75*
G02*
X36800000Y11985000I0J150000D01*
G01*
G37*
G04 #@! TD.AperFunction*
G04 #@! TA.AperFunction,SMDPad,CuDef*
G36*
G01*
X36800000Y13255000D02*
X36800000Y13555000D01*
G75*
G02*
X36950000Y13705000I150000J0D01*
G01*
X38600000Y13705000D01*
G75*
G02*
X38750000Y13555000I0J-150000D01*
G01*
X38750000Y13255000D01*
G75*
G02*
X38600000Y13105000I-150000J0D01*
G01*
X36950000Y13105000D01*
G75*
G02*
X36800000Y13255000I0J150000D01*
G01*
G37*
G04 #@! TD.AperFunction*
G04 #@! TA.AperFunction,SMDPad,CuDef*
G36*
G01*
X40050000Y28550000D02*
X41300000Y28550000D01*
G75*
G02*
X41425000Y28425000I0J-125000D01*
G01*
X41425000Y28175000D01*
G75*
G02*
X41300000Y28050000I-125000J0D01*
G01*
X40050000Y28050000D01*
G75*
G02*
X39925000Y28175000I0J125000D01*
G01*
X39925000Y28425000D01*
G75*
G02*
X40050000Y28550000I125000J0D01*
G01*
G37*
G04 #@! TD.AperFunction*
G04 #@! TA.AperFunction,SMDPad,CuDef*
G36*
G01*
X40050000Y27750000D02*
X41300000Y27750000D01*
G75*
G02*
X41425000Y27625000I0J-125000D01*
G01*
X41425000Y27375000D01*
G75*
G02*
X41300000Y27250000I-125000J0D01*
G01*
X40050000Y27250000D01*
G75*
G02*
X39925000Y27375000I0J125000D01*
G01*
X39925000Y27625000D01*
G75*
G02*
X40050000Y27750000I125000J0D01*
G01*
G37*
G04 #@! TD.AperFunction*
G04 #@! TA.AperFunction,SMDPad,CuDef*
G36*
G01*
X40050000Y26950000D02*
X41300000Y26950000D01*
G75*
G02*
X41425000Y26825000I0J-125000D01*
G01*
X41425000Y26575000D01*
G75*
G02*
X41300000Y26450000I-125000J0D01*
G01*
X40050000Y26450000D01*
G75*
G02*
X39925000Y26575000I0J125000D01*
G01*
X39925000Y26825000D01*
G75*
G02*
X40050000Y26950000I125000J0D01*
G01*
G37*
G04 #@! TD.AperFunction*
G04 #@! TA.AperFunction,SMDPad,CuDef*
G36*
G01*
X40050000Y26150000D02*
X41300000Y26150000D01*
G75*
G02*
X41425000Y26025000I0J-125000D01*
G01*
X41425000Y25775000D01*
G75*
G02*
X41300000Y25650000I-125000J0D01*
G01*
X40050000Y25650000D01*
G75*
G02*
X39925000Y25775000I0J125000D01*
G01*
X39925000Y26025000D01*
G75*
G02*
X40050000Y26150000I125000J0D01*
G01*
G37*
G04 #@! TD.AperFunction*
G04 #@! TA.AperFunction,SMDPad,CuDef*
G36*
G01*
X40050000Y25350000D02*
X41300000Y25350000D01*
G75*
G02*
X41425000Y25225000I0J-125000D01*
G01*
X41425000Y24975000D01*
G75*
G02*
X41300000Y24850000I-125000J0D01*
G01*
X40050000Y24850000D01*
G75*
G02*
X39925000Y24975000I0J125000D01*
G01*
X39925000Y25225000D01*
G75*
G02*
X40050000Y25350000I125000J0D01*
G01*
G37*
G04 #@! TD.AperFunction*
G04 #@! TA.AperFunction,SMDPad,CuDef*
G36*
G01*
X40050000Y24550000D02*
X41300000Y24550000D01*
G75*
G02*
X41425000Y24425000I0J-125000D01*
G01*
X41425000Y24175000D01*
G75*
G02*
X41300000Y24050000I-125000J0D01*
G01*
X40050000Y24050000D01*
G75*
G02*
X39925000Y24175000I0J125000D01*
G01*
X39925000Y24425000D01*
G75*
G02*
X40050000Y24550000I125000J0D01*
G01*
G37*
G04 #@! TD.AperFunction*
G04 #@! TA.AperFunction,SMDPad,CuDef*
G36*
G01*
X40050000Y23750000D02*
X41300000Y23750000D01*
G75*
G02*
X41425000Y23625000I0J-125000D01*
G01*
X41425000Y23375000D01*
G75*
G02*
X41300000Y23250000I-125000J0D01*
G01*
X40050000Y23250000D01*
G75*
G02*
X39925000Y23375000I0J125000D01*
G01*
X39925000Y23625000D01*
G75*
G02*
X40050000Y23750000I125000J0D01*
G01*
G37*
G04 #@! TD.AperFunction*
G04 #@! TA.AperFunction,SMDPad,CuDef*
G36*
G01*
X40050000Y22950000D02*
X41300000Y22950000D01*
G75*
G02*
X41425000Y22825000I0J-125000D01*
G01*
X41425000Y22575000D01*
G75*
G02*
X41300000Y22450000I-125000J0D01*
G01*
X40050000Y22450000D01*
G75*
G02*
X39925000Y22575000I0J125000D01*
G01*
X39925000Y22825000D01*
G75*
G02*
X40050000Y22950000I125000J0D01*
G01*
G37*
G04 #@! TD.AperFunction*
G04 #@! TA.AperFunction,SMDPad,CuDef*
G36*
G01*
X39175000Y22075000D02*
X39425000Y22075000D01*
G75*
G02*
X39550000Y21950000I0J-125000D01*
G01*
X39550000Y20700000D01*
G75*
G02*
X39425000Y20575000I-125000J0D01*
G01*
X39175000Y20575000D01*
G75*
G02*
X39050000Y20700000I0J125000D01*
G01*
X39050000Y21950000D01*
G75*
G02*
X39175000Y22075000I125000J0D01*
G01*
G37*
G04 #@! TD.AperFunction*
G04 #@! TA.AperFunction,SMDPad,CuDef*
G36*
G01*
X38375000Y22075000D02*
X38625000Y22075000D01*
G75*
G02*
X38750000Y21950000I0J-125000D01*
G01*
X38750000Y20700000D01*
G75*
G02*
X38625000Y20575000I-125000J0D01*
G01*
X38375000Y20575000D01*
G75*
G02*
X38250000Y20700000I0J125000D01*
G01*
X38250000Y21950000D01*
G75*
G02*
X38375000Y22075000I125000J0D01*
G01*
G37*
G04 #@! TD.AperFunction*
G04 #@! TA.AperFunction,SMDPad,CuDef*
G36*
G01*
X37575000Y22075000D02*
X37825000Y22075000D01*
G75*
G02*
X37950000Y21950000I0J-125000D01*
G01*
X37950000Y20700000D01*
G75*
G02*
X37825000Y20575000I-125000J0D01*
G01*
X37575000Y20575000D01*
G75*
G02*
X37450000Y20700000I0J125000D01*
G01*
X37450000Y21950000D01*
G75*
G02*
X37575000Y22075000I125000J0D01*
G01*
G37*
G04 #@! TD.AperFunction*
G04 #@! TA.AperFunction,SMDPad,CuDef*
G36*
G01*
X36775000Y22075000D02*
X37025000Y22075000D01*
G75*
G02*
X37150000Y21950000I0J-125000D01*
G01*
X37150000Y20700000D01*
G75*
G02*
X37025000Y20575000I-125000J0D01*
G01*
X36775000Y20575000D01*
G75*
G02*
X36650000Y20700000I0J125000D01*
G01*
X36650000Y21950000D01*
G75*
G02*
X36775000Y22075000I125000J0D01*
G01*
G37*
G04 #@! TD.AperFunction*
G04 #@! TA.AperFunction,SMDPad,CuDef*
G36*
G01*
X35975000Y22075000D02*
X36225000Y22075000D01*
G75*
G02*
X36350000Y21950000I0J-125000D01*
G01*
X36350000Y20700000D01*
G75*
G02*
X36225000Y20575000I-125000J0D01*
G01*
X35975000Y20575000D01*
G75*
G02*
X35850000Y20700000I0J125000D01*
G01*
X35850000Y21950000D01*
G75*
G02*
X35975000Y22075000I125000J0D01*
G01*
G37*
G04 #@! TD.AperFunction*
G04 #@! TA.AperFunction,SMDPad,CuDef*
G36*
G01*
X35175000Y22075000D02*
X35425000Y22075000D01*
G75*
G02*
X35550000Y21950000I0J-125000D01*
G01*
X35550000Y20700000D01*
G75*
G02*
X35425000Y20575000I-125000J0D01*
G01*
X35175000Y20575000D01*
G75*
G02*
X35050000Y20700000I0J125000D01*
G01*
X35050000Y21950000D01*
G75*
G02*
X35175000Y22075000I125000J0D01*
G01*
G37*
G04 #@! TD.AperFunction*
G04 #@! TA.AperFunction,SMDPad,CuDef*
G36*
G01*
X34375000Y22075000D02*
X34625000Y22075000D01*
G75*
G02*
X34750000Y21950000I0J-125000D01*
G01*
X34750000Y20700000D01*
G75*
G02*
X34625000Y20575000I-125000J0D01*
G01*
X34375000Y20575000D01*
G75*
G02*
X34250000Y20700000I0J125000D01*
G01*
X34250000Y21950000D01*
G75*
G02*
X34375000Y22075000I125000J0D01*
G01*
G37*
G04 #@! TD.AperFunction*
G04 #@! TA.AperFunction,SMDPad,CuDef*
G36*
G01*
X33575000Y22075000D02*
X33825000Y22075000D01*
G75*
G02*
X33950000Y21950000I0J-125000D01*
G01*
X33950000Y20700000D01*
G75*
G02*
X33825000Y20575000I-125000J0D01*
G01*
X33575000Y20575000D01*
G75*
G02*
X33450000Y20700000I0J125000D01*
G01*
X33450000Y21950000D01*
G75*
G02*
X33575000Y22075000I125000J0D01*
G01*
G37*
G04 #@! TD.AperFunction*
G04 #@! TA.AperFunction,SMDPad,CuDef*
G36*
G01*
X31700000Y22950000D02*
X32950000Y22950000D01*
G75*
G02*
X33075000Y22825000I0J-125000D01*
G01*
X33075000Y22575000D01*
G75*
G02*
X32950000Y22450000I-125000J0D01*
G01*
X31700000Y22450000D01*
G75*
G02*
X31575000Y22575000I0J125000D01*
G01*
X31575000Y22825000D01*
G75*
G02*
X31700000Y22950000I125000J0D01*
G01*
G37*
G04 #@! TD.AperFunction*
G04 #@! TA.AperFunction,SMDPad,CuDef*
G36*
G01*
X31700000Y23750000D02*
X32950000Y23750000D01*
G75*
G02*
X33075000Y23625000I0J-125000D01*
G01*
X33075000Y23375000D01*
G75*
G02*
X32950000Y23250000I-125000J0D01*
G01*
X31700000Y23250000D01*
G75*
G02*
X31575000Y23375000I0J125000D01*
G01*
X31575000Y23625000D01*
G75*
G02*
X31700000Y23750000I125000J0D01*
G01*
G37*
G04 #@! TD.AperFunction*
G04 #@! TA.AperFunction,SMDPad,CuDef*
G36*
G01*
X31700000Y24550000D02*
X32950000Y24550000D01*
G75*
G02*
X33075000Y24425000I0J-125000D01*
G01*
X33075000Y24175000D01*
G75*
G02*
X32950000Y24050000I-125000J0D01*
G01*
X31700000Y24050000D01*
G75*
G02*
X31575000Y24175000I0J125000D01*
G01*
X31575000Y24425000D01*
G75*
G02*
X31700000Y24550000I125000J0D01*
G01*
G37*
G04 #@! TD.AperFunction*
G04 #@! TA.AperFunction,SMDPad,CuDef*
G36*
G01*
X31700000Y25350000D02*
X32950000Y25350000D01*
G75*
G02*
X33075000Y25225000I0J-125000D01*
G01*
X33075000Y24975000D01*
G75*
G02*
X32950000Y24850000I-125000J0D01*
G01*
X31700000Y24850000D01*
G75*
G02*
X31575000Y24975000I0J125000D01*
G01*
X31575000Y25225000D01*
G75*
G02*
X31700000Y25350000I125000J0D01*
G01*
G37*
G04 #@! TD.AperFunction*
G04 #@! TA.AperFunction,SMDPad,CuDef*
G36*
G01*
X31700000Y26150000D02*
X32950000Y26150000D01*
G75*
G02*
X33075000Y26025000I0J-125000D01*
G01*
X33075000Y25775000D01*
G75*
G02*
X32950000Y25650000I-125000J0D01*
G01*
X31700000Y25650000D01*
G75*
G02*
X31575000Y25775000I0J125000D01*
G01*
X31575000Y26025000D01*
G75*
G02*
X31700000Y26150000I125000J0D01*
G01*
G37*
G04 #@! TD.AperFunction*
G04 #@! TA.AperFunction,SMDPad,CuDef*
G36*
G01*
X31700000Y26950000D02*
X32950000Y26950000D01*
G75*
G02*
X33075000Y26825000I0J-125000D01*
G01*
X33075000Y26575000D01*
G75*
G02*
X32950000Y26450000I-125000J0D01*
G01*
X31700000Y26450000D01*
G75*
G02*
X31575000Y26575000I0J125000D01*
G01*
X31575000Y26825000D01*
G75*
G02*
X31700000Y26950000I125000J0D01*
G01*
G37*
G04 #@! TD.AperFunction*
G04 #@! TA.AperFunction,SMDPad,CuDef*
G36*
G01*
X31700000Y27750000D02*
X32950000Y27750000D01*
G75*
G02*
X33075000Y27625000I0J-125000D01*
G01*
X33075000Y27375000D01*
G75*
G02*
X32950000Y27250000I-125000J0D01*
G01*
X31700000Y27250000D01*
G75*
G02*
X31575000Y27375000I0J125000D01*
G01*
X31575000Y27625000D01*
G75*
G02*
X31700000Y27750000I125000J0D01*
G01*
G37*
G04 #@! TD.AperFunction*
G04 #@! TA.AperFunction,SMDPad,CuDef*
G36*
G01*
X31700000Y28550000D02*
X32950000Y28550000D01*
G75*
G02*
X33075000Y28425000I0J-125000D01*
G01*
X33075000Y28175000D01*
G75*
G02*
X32950000Y28050000I-125000J0D01*
G01*
X31700000Y28050000D01*
G75*
G02*
X31575000Y28175000I0J125000D01*
G01*
X31575000Y28425000D01*
G75*
G02*
X31700000Y28550000I125000J0D01*
G01*
G37*
G04 #@! TD.AperFunction*
G04 #@! TA.AperFunction,SMDPad,CuDef*
G36*
G01*
X33575000Y30425000D02*
X33825000Y30425000D01*
G75*
G02*
X33950000Y30300000I0J-125000D01*
G01*
X33950000Y29050000D01*
G75*
G02*
X33825000Y28925000I-125000J0D01*
G01*
X33575000Y28925000D01*
G75*
G02*
X33450000Y29050000I0J125000D01*
G01*
X33450000Y30300000D01*
G75*
G02*
X33575000Y30425000I125000J0D01*
G01*
G37*
G04 #@! TD.AperFunction*
G04 #@! TA.AperFunction,SMDPad,CuDef*
G36*
G01*
X34375000Y30425000D02*
X34625000Y30425000D01*
G75*
G02*
X34750000Y30300000I0J-125000D01*
G01*
X34750000Y29050000D01*
G75*
G02*
X34625000Y28925000I-125000J0D01*
G01*
X34375000Y28925000D01*
G75*
G02*
X34250000Y29050000I0J125000D01*
G01*
X34250000Y30300000D01*
G75*
G02*
X34375000Y30425000I125000J0D01*
G01*
G37*
G04 #@! TD.AperFunction*
G04 #@! TA.AperFunction,SMDPad,CuDef*
G36*
G01*
X35175000Y30425000D02*
X35425000Y30425000D01*
G75*
G02*
X35550000Y30300000I0J-125000D01*
G01*
X35550000Y29050000D01*
G75*
G02*
X35425000Y28925000I-125000J0D01*
G01*
X35175000Y28925000D01*
G75*
G02*
X35050000Y29050000I0J125000D01*
G01*
X35050000Y30300000D01*
G75*
G02*
X35175000Y30425000I125000J0D01*
G01*
G37*
G04 #@! TD.AperFunction*
G04 #@! TA.AperFunction,SMDPad,CuDef*
G36*
G01*
X35975000Y30425000D02*
X36225000Y30425000D01*
G75*
G02*
X36350000Y30300000I0J-125000D01*
G01*
X36350000Y29050000D01*
G75*
G02*
X36225000Y28925000I-125000J0D01*
G01*
X35975000Y28925000D01*
G75*
G02*
X35850000Y29050000I0J125000D01*
G01*
X35850000Y30300000D01*
G75*
G02*
X35975000Y30425000I125000J0D01*
G01*
G37*
G04 #@! TD.AperFunction*
G04 #@! TA.AperFunction,SMDPad,CuDef*
G36*
G01*
X36775000Y30425000D02*
X37025000Y30425000D01*
G75*
G02*
X37150000Y30300000I0J-125000D01*
G01*
X37150000Y29050000D01*
G75*
G02*
X37025000Y28925000I-125000J0D01*
G01*
X36775000Y28925000D01*
G75*
G02*
X36650000Y29050000I0J125000D01*
G01*
X36650000Y30300000D01*
G75*
G02*
X36775000Y30425000I125000J0D01*
G01*
G37*
G04 #@! TD.AperFunction*
G04 #@! TA.AperFunction,SMDPad,CuDef*
G36*
G01*
X37575000Y30425000D02*
X37825000Y30425000D01*
G75*
G02*
X37950000Y30300000I0J-125000D01*
G01*
X37950000Y29050000D01*
G75*
G02*
X37825000Y28925000I-125000J0D01*
G01*
X37575000Y28925000D01*
G75*
G02*
X37450000Y29050000I0J125000D01*
G01*
X37450000Y30300000D01*
G75*
G02*
X37575000Y30425000I125000J0D01*
G01*
G37*
G04 #@! TD.AperFunction*
G04 #@! TA.AperFunction,SMDPad,CuDef*
G36*
G01*
X38375000Y30425000D02*
X38625000Y30425000D01*
G75*
G02*
X38750000Y30300000I0J-125000D01*
G01*
X38750000Y29050000D01*
G75*
G02*
X38625000Y28925000I-125000J0D01*
G01*
X38375000Y28925000D01*
G75*
G02*
X38250000Y29050000I0J125000D01*
G01*
X38250000Y30300000D01*
G75*
G02*
X38375000Y30425000I125000J0D01*
G01*
G37*
G04 #@! TD.AperFunction*
G04 #@! TA.AperFunction,SMDPad,CuDef*
G36*
G01*
X39175000Y30425000D02*
X39425000Y30425000D01*
G75*
G02*
X39550000Y30300000I0J-125000D01*
G01*
X39550000Y29050000D01*
G75*
G02*
X39425000Y28925000I-125000J0D01*
G01*
X39175000Y28925000D01*
G75*
G02*
X39050000Y29050000I0J125000D01*
G01*
X39050000Y30300000D01*
G75*
G02*
X39175000Y30425000I125000J0D01*
G01*
G37*
G04 #@! TD.AperFunction*
D13*
X25050000Y14600000D03*
X25050000Y15900000D03*
X26950000Y15250000D03*
X26950000Y15900000D03*
X26950000Y14600000D03*
X25050000Y19100000D03*
X25050000Y20400000D03*
X26950000Y19750000D03*
X26950000Y20400000D03*
X26950000Y19100000D03*
D14*
X35000000Y37750000D03*
X35000000Y42250000D03*
X41500000Y37750000D03*
X41500000Y42250000D03*
G04 #@! TA.AperFunction,SMDPad,CuDef*
G36*
G01*
X44506250Y36850000D02*
X43993750Y36850000D01*
G75*
G02*
X43775000Y37068750I0J218750D01*
G01*
X43775000Y37506250D01*
G75*
G02*
X43993750Y37725000I218750J0D01*
G01*
X44506250Y37725000D01*
G75*
G02*
X44725000Y37506250I0J-218750D01*
G01*
X44725000Y37068750D01*
G75*
G02*
X44506250Y36850000I-218750J0D01*
G01*
G37*
G04 #@! TD.AperFunction*
G04 #@! TA.AperFunction,SMDPad,CuDef*
G36*
G01*
X44506250Y35275000D02*
X43993750Y35275000D01*
G75*
G02*
X43775000Y35493750I0J218750D01*
G01*
X43775000Y35931250D01*
G75*
G02*
X43993750Y36150000I218750J0D01*
G01*
X44506250Y36150000D01*
G75*
G02*
X44725000Y35931250I0J-218750D01*
G01*
X44725000Y35493750D01*
G75*
G02*
X44506250Y35275000I-218750J0D01*
G01*
G37*
G04 #@! TD.AperFunction*
G04 #@! TA.AperFunction,SMDPad,CuDef*
G36*
G01*
X33506250Y16100000D02*
X32993750Y16100000D01*
G75*
G02*
X32775000Y16318750I0J218750D01*
G01*
X32775000Y16756250D01*
G75*
G02*
X32993750Y16975000I218750J0D01*
G01*
X33506250Y16975000D01*
G75*
G02*
X33725000Y16756250I0J-218750D01*
G01*
X33725000Y16318750D01*
G75*
G02*
X33506250Y16100000I-218750J0D01*
G01*
G37*
G04 #@! TD.AperFunction*
G04 #@! TA.AperFunction,SMDPad,CuDef*
G36*
G01*
X33506250Y14525000D02*
X32993750Y14525000D01*
G75*
G02*
X32775000Y14743750I0J218750D01*
G01*
X32775000Y15181250D01*
G75*
G02*
X32993750Y15400000I218750J0D01*
G01*
X33506250Y15400000D01*
G75*
G02*
X33725000Y15181250I0J-218750D01*
G01*
X33725000Y14743750D01*
G75*
G02*
X33506250Y14525000I-218750J0D01*
G01*
G37*
G04 #@! TD.AperFunction*
G04 #@! TA.AperFunction,SMDPad,CuDef*
G36*
G01*
X31006250Y16100000D02*
X30493750Y16100000D01*
G75*
G02*
X30275000Y16318750I0J218750D01*
G01*
X30275000Y16756250D01*
G75*
G02*
X30493750Y16975000I218750J0D01*
G01*
X31006250Y16975000D01*
G75*
G02*
X31225000Y16756250I0J-218750D01*
G01*
X31225000Y16318750D01*
G75*
G02*
X31006250Y16100000I-218750J0D01*
G01*
G37*
G04 #@! TD.AperFunction*
G04 #@! TA.AperFunction,SMDPad,CuDef*
G36*
G01*
X31006250Y14525000D02*
X30493750Y14525000D01*
G75*
G02*
X30275000Y14743750I0J218750D01*
G01*
X30275000Y15181250D01*
G75*
G02*
X30493750Y15400000I218750J0D01*
G01*
X31006250Y15400000D01*
G75*
G02*
X31225000Y15181250I0J-218750D01*
G01*
X31225000Y14743750D01*
G75*
G02*
X31006250Y14525000I-218750J0D01*
G01*
G37*
G04 #@! TD.AperFunction*
G04 #@! TA.AperFunction,SMDPad,CuDef*
G36*
G01*
X14825000Y35826250D02*
X14825000Y35313750D01*
G75*
G02*
X14606250Y35095000I-218750J0D01*
G01*
X14168750Y35095000D01*
G75*
G02*
X13950000Y35313750I0J218750D01*
G01*
X13950000Y35826250D01*
G75*
G02*
X14168750Y36045000I218750J0D01*
G01*
X14606250Y36045000D01*
G75*
G02*
X14825000Y35826250I0J-218750D01*
G01*
G37*
G04 #@! TD.AperFunction*
G04 #@! TA.AperFunction,SMDPad,CuDef*
G36*
G01*
X16400000Y35826250D02*
X16400000Y35313750D01*
G75*
G02*
X16181250Y35095000I-218750J0D01*
G01*
X15743750Y35095000D01*
G75*
G02*
X15525000Y35313750I0J218750D01*
G01*
X15525000Y35826250D01*
G75*
G02*
X15743750Y36045000I218750J0D01*
G01*
X16181250Y36045000D01*
G75*
G02*
X16400000Y35826250I0J-218750D01*
G01*
G37*
G04 #@! TD.AperFunction*
G04 #@! TA.AperFunction,SMDPad,CuDef*
G36*
G01*
X14825000Y38366250D02*
X14825000Y37853750D01*
G75*
G02*
X14606250Y37635000I-218750J0D01*
G01*
X14168750Y37635000D01*
G75*
G02*
X13950000Y37853750I0J218750D01*
G01*
X13950000Y38366250D01*
G75*
G02*
X14168750Y38585000I218750J0D01*
G01*
X14606250Y38585000D01*
G75*
G02*
X14825000Y38366250I0J-218750D01*
G01*
G37*
G04 #@! TD.AperFunction*
G04 #@! TA.AperFunction,SMDPad,CuDef*
G36*
G01*
X16400000Y38366250D02*
X16400000Y37853750D01*
G75*
G02*
X16181250Y37635000I-218750J0D01*
G01*
X15743750Y37635000D01*
G75*
G02*
X15525000Y37853750I0J218750D01*
G01*
X15525000Y38366250D01*
G75*
G02*
X15743750Y38585000I218750J0D01*
G01*
X16181250Y38585000D01*
G75*
G02*
X16400000Y38366250I0J-218750D01*
G01*
G37*
G04 #@! TD.AperFunction*
G04 #@! TA.AperFunction,SMDPad,CuDef*
G36*
G01*
X14825000Y40906250D02*
X14825000Y40393750D01*
G75*
G02*
X14606250Y40175000I-218750J0D01*
G01*
X14168750Y40175000D01*
G75*
G02*
X13950000Y40393750I0J218750D01*
G01*
X13950000Y40906250D01*
G75*
G02*
X14168750Y41125000I218750J0D01*
G01*
X14606250Y41125000D01*
G75*
G02*
X14825000Y40906250I0J-218750D01*
G01*
G37*
G04 #@! TD.AperFunction*
G04 #@! TA.AperFunction,SMDPad,CuDef*
G36*
G01*
X16400000Y40906250D02*
X16400000Y40393750D01*
G75*
G02*
X16181250Y40175000I-218750J0D01*
G01*
X15743750Y40175000D01*
G75*
G02*
X15525000Y40393750I0J218750D01*
G01*
X15525000Y40906250D01*
G75*
G02*
X15743750Y41125000I218750J0D01*
G01*
X16181250Y41125000D01*
G75*
G02*
X16400000Y40906250I0J-218750D01*
G01*
G37*
G04 #@! TD.AperFunction*
G04 #@! TA.AperFunction,SMDPad,CuDef*
G36*
G01*
X14825000Y43446250D02*
X14825000Y42933750D01*
G75*
G02*
X14606250Y42715000I-218750J0D01*
G01*
X14168750Y42715000D01*
G75*
G02*
X13950000Y42933750I0J218750D01*
G01*
X13950000Y43446250D01*
G75*
G02*
X14168750Y43665000I218750J0D01*
G01*
X14606250Y43665000D01*
G75*
G02*
X14825000Y43446250I0J-218750D01*
G01*
G37*
G04 #@! TD.AperFunction*
G04 #@! TA.AperFunction,SMDPad,CuDef*
G36*
G01*
X16400000Y43446250D02*
X16400000Y42933750D01*
G75*
G02*
X16181250Y42715000I-218750J0D01*
G01*
X15743750Y42715000D01*
G75*
G02*
X15525000Y42933750I0J218750D01*
G01*
X15525000Y43446250D01*
G75*
G02*
X15743750Y43665000I218750J0D01*
G01*
X16181250Y43665000D01*
G75*
G02*
X16400000Y43446250I0J-218750D01*
G01*
G37*
G04 #@! TD.AperFunction*
D15*
X49080000Y3500000D03*
G04 #@! TA.AperFunction,ComponentPad*
G36*
G01*
X42960000Y1949999D02*
X42960000Y5050001D01*
G75*
G02*
X43209999Y5300000I249999J0D01*
G01*
X44790001Y5300000D01*
G75*
G02*
X45040000Y5050001I0J-249999D01*
G01*
X45040000Y1949999D01*
G75*
G02*
X44790001Y1700000I-249999J0D01*
G01*
X43209999Y1700000D01*
G75*
G02*
X42960000Y1949999I0J249999D01*
G01*
G37*
G04 #@! TD.AperFunction*
D10*
X47650000Y46250000D03*
X45110000Y46250000D03*
X42570000Y46250000D03*
X40030000Y46250000D03*
X37490000Y46250000D03*
D11*
X34950000Y46250000D03*
D10*
X6920000Y13980000D03*
X4380000Y13980000D03*
D11*
X1840000Y13980000D03*
D10*
X6920000Y16520000D03*
X4380000Y16520000D03*
D11*
X1840000Y16520000D03*
D15*
X35740000Y3500000D03*
X30660000Y3500000D03*
X25580000Y3500000D03*
G04 #@! TA.AperFunction,ComponentPad*
G36*
G01*
X19460000Y1949999D02*
X19460000Y5050001D01*
G75*
G02*
X19709999Y5300000I249999J0D01*
G01*
X21290001Y5300000D01*
G75*
G02*
X21540000Y5050001I0J-249999D01*
G01*
X21540000Y1949999D01*
G75*
G02*
X21290001Y1700000I-249999J0D01*
G01*
X19709999Y1700000D01*
G75*
G02*
X19460000Y1949999I0J249999D01*
G01*
G37*
G04 #@! TD.AperFunction*
D10*
X12000000Y11440000D03*
X12000000Y13980000D03*
X12000000Y16520000D03*
X12000000Y19060000D03*
X12000000Y21600000D03*
X12000000Y24140000D03*
X12000000Y26680000D03*
X12000000Y29220000D03*
X12000000Y31760000D03*
X12000000Y34300000D03*
X12000000Y36840000D03*
X12000000Y39380000D03*
X12000000Y41920000D03*
X12000000Y44460000D03*
D11*
X12000000Y47000000D03*
D16*
X45968000Y19790000D03*
X50032000Y19790000D03*
X45968000Y18520000D03*
X50032000Y18520000D03*
X45968000Y17250000D03*
X50032000Y17250000D03*
X45968000Y15980000D03*
X50032000Y15980000D03*
X45968000Y14710000D03*
X50032000Y14710000D03*
D10*
X6920000Y33030000D03*
X4380000Y33030000D03*
D11*
X1840000Y33030000D03*
D10*
X6920000Y35570000D03*
X4380000Y35570000D03*
D11*
X1840000Y35570000D03*
D17*
X61620000Y22870000D03*
X61620000Y25410000D03*
X61620000Y27950000D03*
X61620000Y30490000D03*
X61620000Y33030000D03*
G04 #@! TA.AperFunction,ComponentPad*
G36*
G01*
X60774999Y36440000D02*
X62465001Y36440000D01*
G75*
G02*
X62715000Y36190001I0J-249999D01*
G01*
X62715000Y34949999D01*
G75*
G02*
X62465001Y34700000I-249999J0D01*
G01*
X60774999Y34700000D01*
G75*
G02*
X60525000Y34949999I0J249999D01*
G01*
X60525000Y36190001D01*
G75*
G02*
X60774999Y36440000I249999J0D01*
G01*
G37*
G04 #@! TD.AperFunction*
D10*
X6920000Y38110000D03*
X4380000Y38110000D03*
D11*
X1840000Y38110000D03*
D10*
X6920000Y40650000D03*
X4380000Y40650000D03*
D11*
X1840000Y40650000D03*
G04 #@! TA.AperFunction,SMDPad,CuDef*
G36*
G01*
X33506250Y12600000D02*
X32993750Y12600000D01*
G75*
G02*
X32775000Y12818750I0J218750D01*
G01*
X32775000Y13256250D01*
G75*
G02*
X32993750Y13475000I218750J0D01*
G01*
X33506250Y13475000D01*
G75*
G02*
X33725000Y13256250I0J-218750D01*
G01*
X33725000Y12818750D01*
G75*
G02*
X33506250Y12600000I-218750J0D01*
G01*
G37*
G04 #@! TD.AperFunction*
G04 #@! TA.AperFunction,SMDPad,CuDef*
G36*
G01*
X33506250Y11025000D02*
X32993750Y11025000D01*
G75*
G02*
X32775000Y11243750I0J218750D01*
G01*
X32775000Y11681250D01*
G75*
G02*
X32993750Y11900000I218750J0D01*
G01*
X33506250Y11900000D01*
G75*
G02*
X33725000Y11681250I0J-218750D01*
G01*
X33725000Y11243750D01*
G75*
G02*
X33506250Y11025000I-218750J0D01*
G01*
G37*
G04 #@! TD.AperFunction*
G04 #@! TA.AperFunction,SMDPad,CuDef*
G36*
G01*
X31006250Y12600000D02*
X30493750Y12600000D01*
G75*
G02*
X30275000Y12818750I0J218750D01*
G01*
X30275000Y13256250D01*
G75*
G02*
X30493750Y13475000I218750J0D01*
G01*
X31006250Y13475000D01*
G75*
G02*
X31225000Y13256250I0J-218750D01*
G01*
X31225000Y12818750D01*
G75*
G02*
X31006250Y12600000I-218750J0D01*
G01*
G37*
G04 #@! TD.AperFunction*
G04 #@! TA.AperFunction,SMDPad,CuDef*
G36*
G01*
X31006250Y11025000D02*
X30493750Y11025000D01*
G75*
G02*
X30275000Y11243750I0J218750D01*
G01*
X30275000Y11681250D01*
G75*
G02*
X30493750Y11900000I218750J0D01*
G01*
X31006250Y11900000D01*
G75*
G02*
X31225000Y11681250I0J-218750D01*
G01*
X31225000Y11243750D01*
G75*
G02*
X31006250Y11025000I-218750J0D01*
G01*
G37*
G04 #@! TD.AperFunction*
D18*
X19985000Y35570000D03*
X17985000Y34620000D03*
X17985000Y36520000D03*
X23795000Y38110000D03*
X21795000Y37160000D03*
X21795000Y39060000D03*
X19985000Y40650000D03*
X17985000Y39700000D03*
X17985000Y41600000D03*
X23795000Y43190000D03*
X21795000Y42240000D03*
X21795000Y44140000D03*
G04 #@! TA.AperFunction,SMDPad,CuDef*
G36*
G01*
X4850000Y27243750D02*
X4850000Y27756250D01*
G75*
G02*
X5068750Y27975000I218750J0D01*
G01*
X5506250Y27975000D01*
G75*
G02*
X5725000Y27756250I0J-218750D01*
G01*
X5725000Y27243750D01*
G75*
G02*
X5506250Y27025000I-218750J0D01*
G01*
X5068750Y27025000D01*
G75*
G02*
X4850000Y27243750I0J218750D01*
G01*
G37*
G04 #@! TD.AperFunction*
G04 #@! TA.AperFunction,SMDPad,CuDef*
G36*
G01*
X3275000Y27243750D02*
X3275000Y27756250D01*
G75*
G02*
X3493750Y27975000I218750J0D01*
G01*
X3931250Y27975000D01*
G75*
G02*
X4150000Y27756250I0J-218750D01*
G01*
X4150000Y27243750D01*
G75*
G02*
X3931250Y27025000I-218750J0D01*
G01*
X3493750Y27025000D01*
G75*
G02*
X3275000Y27243750I0J218750D01*
G01*
G37*
G04 #@! TD.AperFunction*
G04 #@! TA.AperFunction,SMDPad,CuDef*
G36*
G01*
X6600000Y25493750D02*
X6600000Y26006250D01*
G75*
G02*
X6818750Y26225000I218750J0D01*
G01*
X7256250Y26225000D01*
G75*
G02*
X7475000Y26006250I0J-218750D01*
G01*
X7475000Y25493750D01*
G75*
G02*
X7256250Y25275000I-218750J0D01*
G01*
X6818750Y25275000D01*
G75*
G02*
X6600000Y25493750I0J218750D01*
G01*
G37*
G04 #@! TD.AperFunction*
G04 #@! TA.AperFunction,SMDPad,CuDef*
G36*
G01*
X5025000Y25493750D02*
X5025000Y26006250D01*
G75*
G02*
X5243750Y26225000I218750J0D01*
G01*
X5681250Y26225000D01*
G75*
G02*
X5900000Y26006250I0J-218750D01*
G01*
X5900000Y25493750D01*
G75*
G02*
X5681250Y25275000I-218750J0D01*
G01*
X5243750Y25275000D01*
G75*
G02*
X5025000Y25493750I0J218750D01*
G01*
G37*
G04 #@! TD.AperFunction*
G04 #@! TA.AperFunction,SMDPad,CuDef*
G36*
G01*
X4850000Y19993750D02*
X4850000Y20506250D01*
G75*
G02*
X5068750Y20725000I218750J0D01*
G01*
X5506250Y20725000D01*
G75*
G02*
X5725000Y20506250I0J-218750D01*
G01*
X5725000Y19993750D01*
G75*
G02*
X5506250Y19775000I-218750J0D01*
G01*
X5068750Y19775000D01*
G75*
G02*
X4850000Y19993750I0J218750D01*
G01*
G37*
G04 #@! TD.AperFunction*
G04 #@! TA.AperFunction,SMDPad,CuDef*
G36*
G01*
X3275000Y19993750D02*
X3275000Y20506250D01*
G75*
G02*
X3493750Y20725000I218750J0D01*
G01*
X3931250Y20725000D01*
G75*
G02*
X4150000Y20506250I0J-218750D01*
G01*
X4150000Y19993750D01*
G75*
G02*
X3931250Y19775000I-218750J0D01*
G01*
X3493750Y19775000D01*
G75*
G02*
X3275000Y19993750I0J218750D01*
G01*
G37*
G04 #@! TD.AperFunction*
G04 #@! TA.AperFunction,SMDPad,CuDef*
G36*
G01*
X41850000Y14993750D02*
X41850000Y15506250D01*
G75*
G02*
X42068750Y15725000I218750J0D01*
G01*
X42506250Y15725000D01*
G75*
G02*
X42725000Y15506250I0J-218750D01*
G01*
X42725000Y14993750D01*
G75*
G02*
X42506250Y14775000I-218750J0D01*
G01*
X42068750Y14775000D01*
G75*
G02*
X41850000Y14993750I0J218750D01*
G01*
G37*
G04 #@! TD.AperFunction*
G04 #@! TA.AperFunction,SMDPad,CuDef*
G36*
G01*
X40275000Y14993750D02*
X40275000Y15506250D01*
G75*
G02*
X40493750Y15725000I218750J0D01*
G01*
X40931250Y15725000D01*
G75*
G02*
X41150000Y15506250I0J-218750D01*
G01*
X41150000Y14993750D01*
G75*
G02*
X40931250Y14775000I-218750J0D01*
G01*
X40493750Y14775000D01*
G75*
G02*
X40275000Y14993750I0J218750D01*
G01*
G37*
G04 #@! TD.AperFunction*
G04 #@! TA.AperFunction,SMDPad,CuDef*
G36*
G01*
X32756250Y40100000D02*
X32243750Y40100000D01*
G75*
G02*
X32025000Y40318750I0J218750D01*
G01*
X32025000Y40756250D01*
G75*
G02*
X32243750Y40975000I218750J0D01*
G01*
X32756250Y40975000D01*
G75*
G02*
X32975000Y40756250I0J-218750D01*
G01*
X32975000Y40318750D01*
G75*
G02*
X32756250Y40100000I-218750J0D01*
G01*
G37*
G04 #@! TD.AperFunction*
G04 #@! TA.AperFunction,SMDPad,CuDef*
G36*
G01*
X32756250Y38525000D02*
X32243750Y38525000D01*
G75*
G02*
X32025000Y38743750I0J218750D01*
G01*
X32025000Y39181250D01*
G75*
G02*
X32243750Y39400000I218750J0D01*
G01*
X32756250Y39400000D01*
G75*
G02*
X32975000Y39181250I0J-218750D01*
G01*
X32975000Y38743750D01*
G75*
G02*
X32756250Y38525000I-218750J0D01*
G01*
G37*
G04 #@! TD.AperFunction*
G04 #@! TA.AperFunction,SMDPad,CuDef*
G36*
G01*
X38600000Y32743750D02*
X38600000Y33256250D01*
G75*
G02*
X38818750Y33475000I218750J0D01*
G01*
X39256250Y33475000D01*
G75*
G02*
X39475000Y33256250I0J-218750D01*
G01*
X39475000Y32743750D01*
G75*
G02*
X39256250Y32525000I-218750J0D01*
G01*
X38818750Y32525000D01*
G75*
G02*
X38600000Y32743750I0J218750D01*
G01*
G37*
G04 #@! TD.AperFunction*
G04 #@! TA.AperFunction,SMDPad,CuDef*
G36*
G01*
X37025000Y32743750D02*
X37025000Y33256250D01*
G75*
G02*
X37243750Y33475000I218750J0D01*
G01*
X37681250Y33475000D01*
G75*
G02*
X37900000Y33256250I0J-218750D01*
G01*
X37900000Y32743750D01*
G75*
G02*
X37681250Y32525000I-218750J0D01*
G01*
X37243750Y32525000D01*
G75*
G02*
X37025000Y32743750I0J218750D01*
G01*
G37*
G04 #@! TD.AperFunction*
G04 #@! TA.AperFunction,SMDPad,CuDef*
G36*
G01*
X38700000Y34543750D02*
X38700000Y35456250D01*
G75*
G02*
X38943750Y35700000I243750J0D01*
G01*
X39431250Y35700000D01*
G75*
G02*
X39675000Y35456250I0J-243750D01*
G01*
X39675000Y34543750D01*
G75*
G02*
X39431250Y34300000I-243750J0D01*
G01*
X38943750Y34300000D01*
G75*
G02*
X38700000Y34543750I0J243750D01*
G01*
G37*
G04 #@! TD.AperFunction*
G04 #@! TA.AperFunction,SMDPad,CuDef*
G36*
G01*
X36825000Y34543750D02*
X36825000Y35456250D01*
G75*
G02*
X37068750Y35700000I243750J0D01*
G01*
X37556250Y35700000D01*
G75*
G02*
X37800000Y35456250I0J-243750D01*
G01*
X37800000Y34543750D01*
G75*
G02*
X37556250Y34300000I-243750J0D01*
G01*
X37068750Y34300000D01*
G75*
G02*
X36825000Y34543750I0J243750D01*
G01*
G37*
G04 #@! TD.AperFunction*
D19*
X28249992Y32250000D03*
X34750000Y32250000D03*
X10000012Y28000000D03*
X14000000Y28000000D03*
X40500000Y16500000D03*
X42750000Y8250000D03*
X20382000Y44206000D03*
X20382000Y42174000D03*
X16826000Y41920000D03*
X16826000Y39380000D03*
X16826000Y36840000D03*
X16826000Y34300000D03*
X20382000Y39380000D03*
X20382000Y36840000D03*
X33250000Y10250000D03*
X30750000Y10250000D03*
X6500000Y20250000D03*
X7000000Y24250000D03*
X6500000Y27500000D03*
X36025000Y31250000D03*
X36250000Y33000000D03*
X36250000Y35000000D03*
X51500000Y21000000D03*
X52250000Y15250000D03*
X27500000Y21750000D03*
X28225010Y19250000D03*
X27987347Y16012653D03*
X28000000Y14500000D03*
X28000000Y17500000D03*
X28000000Y13000000D03*
X39000000Y23000000D03*
X42250000Y23000000D03*
X20500000Y9750000D03*
X46250000Y27000000D03*
X34500000Y20000000D03*
X17500000Y17750000D03*
X29250000Y31449990D03*
X32250000Y31449990D03*
X17500000Y44000000D03*
X17715000Y15250000D03*
X17715000Y12710000D03*
D20*
X3550000Y27337500D02*
X3712500Y27500000D01*
X3550000Y24100000D02*
X3550000Y27337500D01*
D21*
X1840000Y40650000D02*
X1840000Y38110000D01*
X1840000Y38110000D02*
X1840000Y35570000D01*
X1840000Y35570000D02*
X1840000Y33030000D01*
D20*
X39187500Y33150000D02*
X39037500Y33000000D01*
X39187500Y35000000D02*
X39187500Y33150000D01*
X39037500Y33000000D02*
X39037500Y32787500D01*
X36900000Y30650000D02*
X36900000Y29675000D01*
X65000000Y13500000D02*
X52500000Y1000000D01*
X65000000Y24500000D02*
X65000000Y13500000D01*
X64090000Y25410000D02*
X65000000Y24500000D01*
X9500000Y2500000D02*
X9500000Y26500000D01*
X11000000Y1000000D02*
X9500000Y2500000D01*
X61620000Y25410000D02*
X64090000Y25410000D01*
X50032000Y14710000D02*
X50032000Y8718000D01*
X52000000Y6750000D02*
X52000000Y1000000D01*
X50032000Y8718000D02*
X52000000Y6750000D01*
X52500000Y1000000D02*
X52000000Y1000000D01*
X41750000Y13405000D02*
X40750000Y12405000D01*
X42725000Y13405000D02*
X41750000Y13405000D01*
X40750000Y12405000D02*
X40750000Y1000000D01*
X40750000Y1000000D02*
X11000000Y1000000D01*
X52000000Y1000000D02*
X40750000Y1000000D01*
X42287500Y13842500D02*
X42725000Y13405000D01*
X42287500Y15250000D02*
X42287500Y13842500D01*
X39900000Y35712500D02*
X39187500Y35000000D01*
X44250000Y35712500D02*
X39900000Y35712500D01*
X9500000Y26500000D02*
X7875000Y28125000D01*
X37750000Y31500000D02*
X36900000Y30650000D01*
X39037500Y32787500D02*
X37750000Y31500000D01*
X34899999Y32100001D02*
X34750000Y32250000D01*
X37750000Y31500000D02*
X37149999Y32100001D01*
X37149999Y32100001D02*
X34899999Y32100001D01*
X8000000Y28000000D02*
X10000012Y28000000D01*
X7875000Y28125000D02*
X8000000Y28000000D01*
X23999992Y28000000D02*
X14000000Y28000000D01*
X28249992Y32250000D02*
X23999992Y28000000D01*
X1840000Y29160000D02*
X1840000Y33030000D01*
X2250000Y28750000D02*
X1840000Y29160000D01*
X7250000Y28750000D02*
X2250000Y28750000D01*
X7875000Y28125000D02*
X7250000Y28750000D01*
X3500000Y27500000D02*
X1840000Y29160000D01*
D22*
X40712500Y16287500D02*
X40500000Y16500000D01*
X40712500Y15250000D02*
X40712500Y16287500D01*
X42725000Y8275000D02*
X42750000Y8250000D01*
X42725000Y9595000D02*
X42725000Y8275000D01*
X20448000Y44140000D02*
X20382000Y44206000D01*
X21795000Y44140000D02*
X20448000Y44140000D01*
X20448000Y42240000D02*
X20382000Y42174000D01*
X21795000Y42240000D02*
X20448000Y42240000D01*
X17146000Y41600000D02*
X16826000Y41920000D01*
X17985000Y41600000D02*
X17146000Y41600000D01*
X17146000Y39700000D02*
X16826000Y39380000D01*
X17985000Y39700000D02*
X17146000Y39700000D01*
X17146000Y36520000D02*
X16826000Y36840000D01*
X17985000Y36520000D02*
X17146000Y36520000D01*
X17146000Y34620000D02*
X16826000Y34300000D01*
X17985000Y34620000D02*
X17146000Y34620000D01*
X20702000Y39060000D02*
X20382000Y39380000D01*
X21795000Y39060000D02*
X20702000Y39060000D01*
X20702000Y37160000D02*
X20382000Y36840000D01*
X21795000Y37160000D02*
X20702000Y37160000D01*
X33250000Y11462500D02*
X33250000Y10250000D01*
X30750000Y11462500D02*
X30750000Y10250000D01*
D20*
X4500000Y21037500D02*
X5287500Y20250000D01*
X4500000Y21900000D02*
X4500000Y21037500D01*
X5287500Y20250000D02*
X6500000Y20250000D01*
X7037500Y24287500D02*
X7000000Y24250000D01*
X7037500Y25750000D02*
X7037500Y24287500D01*
X5287500Y27500000D02*
X6500000Y27500000D01*
D22*
X36100000Y31175000D02*
X36025000Y31250000D01*
X36100000Y29675000D02*
X36100000Y31175000D01*
D20*
X37462500Y33000000D02*
X36250000Y33000000D01*
X37312500Y35000000D02*
X36250000Y35000000D01*
D22*
X50290000Y19790000D02*
X51500000Y21000000D01*
X50032000Y19790000D02*
X50290000Y19790000D01*
X50032000Y17250000D02*
X50032000Y15980000D01*
X51520000Y15980000D02*
X52250000Y15250000D01*
X50032000Y15980000D02*
X51520000Y15980000D01*
X33287500Y40537500D02*
X35000000Y42250000D01*
X32500000Y40537500D02*
X33287500Y40537500D01*
X26950000Y21200000D02*
X27500000Y21750000D01*
X26950000Y20400000D02*
X26950000Y21200000D01*
X28075010Y19100000D02*
X28225010Y19250000D01*
X26950000Y19100000D02*
X28075010Y19100000D01*
D21*
X12000000Y13980000D02*
X12000000Y11440000D01*
D22*
X27874694Y15900000D02*
X27987347Y16012653D01*
X26950000Y15900000D02*
X27874694Y15900000D01*
X27900000Y14600000D02*
X28000000Y14500000D01*
X26950000Y14600000D02*
X27900000Y14600000D01*
X26787500Y17500000D02*
X28000000Y17500000D01*
X26787500Y13000000D02*
X28000000Y13000000D01*
X41500000Y37750000D02*
X35000000Y37750000D01*
X41962500Y37287500D02*
X41500000Y37750000D01*
X44250000Y37287500D02*
X41962500Y37287500D01*
X33787500Y38962500D02*
X32500000Y38962500D01*
X35000000Y37750000D02*
X33787500Y38962500D01*
X35300000Y26700000D02*
X39000000Y23000000D01*
X35300000Y29675000D02*
X35300000Y26700000D01*
X45460000Y19790000D02*
X45968000Y19790000D01*
X42250000Y23000000D02*
X45460000Y19790000D01*
X35300000Y30376998D02*
X33024999Y32651999D01*
X33024999Y32651999D02*
X33024999Y35774999D01*
X35300000Y29675000D02*
X35300000Y30376998D01*
X33024999Y35774999D02*
X35000000Y37750000D01*
D21*
X1840000Y16520000D02*
X1840000Y13980000D01*
D20*
X3712500Y21737500D02*
X3550000Y21900000D01*
X3712500Y20250000D02*
X3712500Y21737500D01*
X3550000Y22525002D02*
X4024998Y23000000D01*
X3550000Y21900000D02*
X3550000Y22525002D01*
X4975002Y23000000D02*
X5450000Y22525002D01*
X5450000Y22525002D02*
X5450000Y21900000D01*
X4024998Y23000000D02*
X4975002Y23000000D01*
X1840000Y17627500D02*
X3712500Y19500000D01*
X1840000Y16520000D02*
X1840000Y17627500D01*
X3712500Y19500000D02*
X3712500Y20250000D01*
X21500000Y13000000D02*
X25212500Y13000000D01*
X20500000Y12000000D02*
X21500000Y13000000D01*
X20500000Y9750000D02*
X20500000Y12000000D01*
X25212500Y14437500D02*
X25050000Y14600000D01*
X25212500Y13000000D02*
X25212500Y14437500D01*
X25050000Y17892476D02*
X25327488Y17614988D01*
X25050000Y19100000D02*
X25050000Y17892476D01*
X25212500Y17500000D02*
X25250000Y17500000D01*
X25250000Y17500000D02*
X26000000Y16750000D01*
X26000000Y16750000D02*
X26000000Y15250000D01*
X25350000Y14600000D02*
X25050000Y14600000D01*
X26000000Y15250000D02*
X25350000Y14600000D01*
X5450000Y25737500D02*
X5462500Y25750000D01*
X5450000Y24100000D02*
X5450000Y25737500D01*
D22*
X23795000Y43190000D02*
X15962500Y43190000D01*
X23795000Y40955000D02*
X23795000Y43190000D01*
X31524999Y33225001D02*
X23795000Y40955000D01*
X31524999Y30777001D02*
X31524999Y33225001D01*
X32627000Y29675000D02*
X31524999Y30777001D01*
X33700000Y29675000D02*
X32627000Y29675000D01*
X19985000Y40650000D02*
X15962500Y40650000D01*
X23350000Y40650000D02*
X19985000Y40650000D01*
X31050000Y30490000D02*
X31050000Y32950000D01*
X32325000Y29215000D02*
X31050000Y30490000D01*
X31050000Y32950000D02*
X23350000Y40650000D01*
X32325000Y28300000D02*
X32325000Y29215000D01*
X23795000Y38110000D02*
X15962500Y38110000D01*
X25140000Y38110000D02*
X23795000Y38110000D01*
X30542000Y28533000D02*
X30542000Y32708000D01*
X31575000Y27500000D02*
X30542000Y28533000D01*
X30542000Y32708000D02*
X25140000Y38110000D01*
X32325000Y27500000D02*
X31575000Y27500000D01*
X19985000Y35570000D02*
X15962500Y35570000D01*
X29975001Y32638589D02*
X27043590Y35570000D01*
X29975001Y28262999D02*
X29975001Y32638589D01*
X31538000Y26700000D02*
X29975001Y28262999D01*
X32325000Y26700000D02*
X31538000Y26700000D01*
X27043590Y35570000D02*
X19985000Y35570000D01*
X30750000Y14962500D02*
X30750000Y13037500D01*
X33250000Y14962500D02*
X33250000Y13037500D01*
X6920000Y43190000D02*
X4380000Y40650000D01*
X14387500Y43190000D02*
X6920000Y43190000D01*
X14387500Y40650000D02*
X10730000Y40650000D01*
X10730000Y40650000D02*
X9460000Y39380000D01*
X5650000Y39380000D02*
X4380000Y38110000D01*
X9460000Y39380000D02*
X5650000Y39380000D01*
X44750000Y26000000D02*
X53320000Y26000000D01*
X43850000Y25100000D02*
X44750000Y26000000D01*
X53320000Y26000000D02*
X54000000Y26680000D01*
X40675000Y25100000D02*
X43850000Y25100000D01*
X54000000Y31760000D02*
X52730000Y31760000D01*
X52730000Y31760000D02*
X48920000Y27950000D01*
X48920000Y27950000D02*
X45700000Y27950000D01*
X43650000Y25900000D02*
X40675000Y25900000D01*
X45700000Y27950000D02*
X43650000Y25900000D01*
X44300000Y24300000D02*
X40675000Y24300000D01*
X45410000Y25410000D02*
X44300000Y24300000D01*
X56540000Y25410000D02*
X45410000Y25410000D01*
X59080000Y27950000D02*
X56540000Y25410000D01*
X61620000Y27950000D02*
X59080000Y27950000D01*
X61620000Y30490000D02*
X59990000Y30490000D01*
X59990000Y30490000D02*
X57500000Y28000000D01*
X57500000Y28000000D02*
X52000000Y28000000D01*
X51000000Y27000000D02*
X46250000Y27000000D01*
X52000000Y28000000D02*
X51000000Y27000000D01*
X34500000Y20000000D02*
X34500000Y21325000D01*
X5650000Y36840000D02*
X4380000Y35570000D01*
X9460000Y36840000D02*
X5650000Y36840000D01*
X10730000Y38110000D02*
X9460000Y36840000D01*
X14387500Y38110000D02*
X10730000Y38110000D01*
X5555001Y34205001D02*
X4380000Y33030000D01*
X9599502Y34205001D02*
X5555001Y34205001D01*
X10964501Y35570000D02*
X9599502Y34205001D01*
X14387500Y35570000D02*
X10964501Y35570000D01*
X44320500Y15980000D02*
X43000000Y17300500D01*
X45968000Y15980000D02*
X44320500Y15980000D01*
X43000000Y20375000D02*
X40675000Y22700000D01*
X43000000Y17300500D02*
X43000000Y20375000D01*
X39300000Y21325000D02*
X39300000Y20364090D01*
X44954090Y14710000D02*
X45968000Y14710000D01*
X39300000Y20364090D02*
X44954090Y14710000D01*
X17500000Y17750000D02*
X21750000Y22000000D01*
X21750000Y22000000D02*
X26500000Y22000000D01*
X30400000Y25900000D02*
X32325000Y25900000D01*
X26500000Y22000000D02*
X30400000Y25900000D01*
D21*
X12000000Y31760000D02*
X12000000Y29220000D01*
X12000000Y26680000D02*
X12000000Y24140000D01*
X12000000Y24140000D02*
X12000000Y21600000D01*
X12000000Y21600000D02*
X14400000Y21600000D01*
X14400000Y21600000D02*
X15500000Y20500000D01*
X15500000Y20500000D02*
X15500000Y9500000D01*
X15500000Y9500000D02*
X17500000Y7500000D01*
X17500000Y7500000D02*
X34250000Y7500000D01*
X35740000Y6010000D02*
X35740000Y3500000D01*
X34250000Y7500000D02*
X35740000Y6010000D01*
X12000008Y26680008D02*
X12000000Y26680000D01*
X12000000Y29220000D02*
X12000008Y29219992D01*
X12000008Y29219992D02*
X12000008Y26680008D01*
D22*
X12000000Y34300000D02*
X12849999Y33450001D01*
X34500000Y29675000D02*
X34500000Y30540585D01*
X34500000Y30540585D02*
X33590595Y31449990D01*
X28373003Y33450001D02*
X29250000Y32573004D01*
X12849999Y33450001D02*
X28373003Y33450001D01*
X29250000Y32573004D02*
X29250000Y31449990D01*
X33590595Y31449990D02*
X32250000Y31449990D01*
X22250000Y48750000D02*
X17500000Y44000000D01*
X48750000Y48750000D02*
X22250000Y48750000D01*
X51000000Y46500000D02*
X48750000Y48750000D01*
X51000000Y35750000D02*
X51000000Y46500000D01*
X41950000Y26700000D02*
X51000000Y35750000D01*
X40675000Y26700000D02*
X41950000Y26700000D01*
X22865000Y20400000D02*
X17715000Y15250000D01*
X25050000Y20400000D02*
X22865000Y20400000D01*
X20905000Y15900000D02*
X20752500Y15747500D01*
X25050000Y15900000D02*
X20905000Y15900000D01*
X20752500Y15747500D02*
X17715000Y12710000D01*
X41050000Y28300000D02*
X40675000Y28300000D01*
X47750000Y35000000D02*
X41050000Y28300000D01*
X47750000Y42000000D02*
X47750000Y35000000D01*
X45110000Y44640000D02*
X47750000Y42000000D01*
X45110000Y46250000D02*
X45110000Y44640000D01*
X42570000Y44680000D02*
X42570000Y46250000D01*
X46000000Y41250000D02*
X42570000Y44680000D01*
X46000000Y34250000D02*
X46000000Y41250000D01*
X41425000Y29675000D02*
X46000000Y34250000D01*
X39300000Y29675000D02*
X41425000Y29675000D01*
X42725000Y12135000D02*
X46115000Y12135000D01*
X49080000Y9170000D02*
X49080000Y3500000D01*
X46115000Y12135000D02*
X49080000Y9170000D01*
X42725000Y10865000D02*
X44135000Y10865000D01*
X44135000Y10865000D02*
X46000000Y9000000D01*
X46000000Y9000000D02*
X46000000Y8250000D01*
X44000000Y6250000D02*
X44000000Y3500000D01*
X46000000Y8250000D02*
X44000000Y6250000D01*
X29500000Y22500000D02*
X29500000Y17787500D01*
X30500000Y23500000D02*
X29500000Y22500000D01*
X29500000Y17787500D02*
X30750000Y16537500D01*
X32325000Y23500000D02*
X30500000Y23500000D01*
X32325000Y22700000D02*
X30950000Y22700000D01*
X30950000Y22700000D02*
X30250000Y22000000D01*
X30250000Y22000000D02*
X30250000Y18250000D01*
X30250000Y18250000D02*
X30750000Y17750000D01*
X30750000Y17750000D02*
X32500000Y17750000D01*
X33250000Y17000000D02*
X33250000Y16537500D01*
X32500000Y17750000D02*
X33250000Y17000000D01*
X27525000Y19750000D02*
X28500000Y20725000D01*
X26950000Y19750000D02*
X27525000Y19750000D01*
X28500000Y20725000D02*
X28500000Y23000000D01*
X30600000Y25100000D02*
X32325000Y25100000D01*
X28500000Y23000000D02*
X30600000Y25100000D01*
X28950010Y15950010D02*
X28250000Y15250000D01*
X28250000Y15250000D02*
X26950000Y15250000D01*
X28950010Y22700010D02*
X28950010Y15950010D01*
X30550000Y24300000D02*
X28950010Y22700010D01*
X32325000Y24300000D02*
X30550000Y24300000D01*
X37775000Y10865000D02*
X38865000Y10865000D01*
X38865000Y10865000D02*
X39075010Y11075010D01*
X38500000Y20000000D02*
X38500000Y21325000D01*
X39250000Y19250000D02*
X38500000Y20000000D01*
X39250000Y11250000D02*
X39250000Y19250000D01*
X39075010Y11075010D02*
X39250000Y11250000D01*
X38885000Y12135000D02*
X37775000Y12135000D01*
X39250000Y12500000D02*
X38885000Y12135000D01*
X39250000Y11250000D02*
X39250000Y12500000D01*
X36900000Y14280000D02*
X37775000Y13405000D01*
X36900000Y21325000D02*
X36900000Y14280000D01*
X35300000Y21325000D02*
X35300000Y10700000D01*
X36405000Y9595000D02*
X37775000Y9595000D01*
X35300000Y10700000D02*
X36405000Y9595000D01*
D23*
G36*
X53227788Y42937072D02*
G01*
X53044205Y42766878D01*
X52897353Y42564139D01*
X52792875Y42336646D01*
X52764842Y42244213D01*
X52836662Y42047000D01*
X53873000Y42047000D01*
X53873000Y42067000D01*
X54127000Y42067000D01*
X54127000Y42047000D01*
X55163338Y42047000D01*
X55235158Y42244213D01*
X55207125Y42336646D01*
X55102647Y42564139D01*
X54955795Y42766878D01*
X54772212Y42937072D01*
X54567379Y43063000D01*
X59027394Y43063000D01*
X65303000Y36787394D01*
X65303000Y34427000D01*
X63043340Y34427000D01*
X63071755Y34461624D01*
X63111405Y34535804D01*
X63135822Y34616293D01*
X63144066Y34700000D01*
X63142000Y35336250D01*
X63035250Y35443000D01*
X61747000Y35443000D01*
X61747000Y35423000D01*
X61493000Y35423000D01*
X61493000Y35443000D01*
X60204750Y35443000D01*
X60098000Y35336250D01*
X60095934Y34700000D01*
X60104178Y34616293D01*
X60128595Y34535804D01*
X60168245Y34461624D01*
X60196660Y34427000D01*
X57810000Y34427000D01*
X57785224Y34424560D01*
X57761399Y34417333D01*
X57739443Y34405597D01*
X57717738Y34387274D01*
X56553966Y33157000D01*
X54567379Y33157000D01*
X54772212Y33282928D01*
X54955795Y33453122D01*
X55102647Y33655861D01*
X55207125Y33883354D01*
X55235158Y33975787D01*
X55163338Y34173000D01*
X54127000Y34173000D01*
X54127000Y34153000D01*
X53873000Y34153000D01*
X53873000Y34173000D01*
X52836662Y34173000D01*
X52764842Y33975787D01*
X52792875Y33883354D01*
X52897353Y33655861D01*
X53044205Y33453122D01*
X53227788Y33282928D01*
X53432621Y33157000D01*
X51587000Y33157000D01*
X51587000Y34624213D01*
X52764842Y34624213D01*
X52836662Y34427000D01*
X53873000Y34427000D01*
X53873000Y35463925D01*
X54127000Y35463925D01*
X54127000Y34427000D01*
X55163338Y34427000D01*
X55235158Y34624213D01*
X55207125Y34716646D01*
X55102647Y34944139D01*
X54955795Y35146878D01*
X54772212Y35317072D01*
X54558953Y35448180D01*
X54324214Y35535164D01*
X54127000Y35463925D01*
X53873000Y35463925D01*
X53675786Y35535164D01*
X53441047Y35448180D01*
X53227788Y35317072D01*
X53044205Y35146878D01*
X52897353Y34944139D01*
X52792875Y34716646D01*
X52764842Y34624213D01*
X51587000Y34624213D01*
X51587000Y35267267D01*
X51634974Y35325724D01*
X51705546Y35457753D01*
X51749003Y35601014D01*
X51760000Y35712667D01*
X51760000Y35712675D01*
X51763676Y35750000D01*
X51760000Y35787325D01*
X51760000Y36515787D01*
X52764842Y36515787D01*
X52792875Y36423354D01*
X52897353Y36195861D01*
X53044205Y35993122D01*
X53227788Y35822928D01*
X53441047Y35691820D01*
X53675786Y35604836D01*
X53873000Y35676075D01*
X53873000Y36713000D01*
X54127000Y36713000D01*
X54127000Y35676075D01*
X54324214Y35604836D01*
X54558953Y35691820D01*
X54772212Y35822928D01*
X54955795Y35993122D01*
X55102647Y36195861D01*
X55207125Y36423354D01*
X55212173Y36440000D01*
X60095934Y36440000D01*
X60098000Y35803750D01*
X60204750Y35697000D01*
X61493000Y35697000D01*
X61493000Y36760250D01*
X61747000Y36760250D01*
X61747000Y35697000D01*
X63035250Y35697000D01*
X63142000Y35803750D01*
X63144066Y36440000D01*
X63135822Y36523707D01*
X63111405Y36604196D01*
X63071755Y36678376D01*
X63018395Y36743395D01*
X62953376Y36796755D01*
X62879196Y36836405D01*
X62798707Y36860822D01*
X62715000Y36869066D01*
X61853750Y36867000D01*
X61747000Y36760250D01*
X61493000Y36760250D01*
X61386250Y36867000D01*
X60525000Y36869066D01*
X60441293Y36860822D01*
X60360804Y36836405D01*
X60286624Y36796755D01*
X60221605Y36743395D01*
X60168245Y36678376D01*
X60128595Y36604196D01*
X60104178Y36523707D01*
X60095934Y36440000D01*
X55212173Y36440000D01*
X55235158Y36515787D01*
X55163338Y36713000D01*
X54127000Y36713000D01*
X53873000Y36713000D01*
X52836662Y36713000D01*
X52764842Y36515787D01*
X51760000Y36515787D01*
X51760000Y37164213D01*
X52764842Y37164213D01*
X52836662Y36967000D01*
X53873000Y36967000D01*
X53873000Y38003925D01*
X54127000Y38003925D01*
X54127000Y36967000D01*
X55163338Y36967000D01*
X55235158Y37164213D01*
X55207125Y37256646D01*
X55102647Y37484139D01*
X54955795Y37686878D01*
X54772212Y37857072D01*
X54558953Y37988180D01*
X54324214Y38075164D01*
X54127000Y38003925D01*
X53873000Y38003925D01*
X53675786Y38075164D01*
X53441047Y37988180D01*
X53227788Y37857072D01*
X53044205Y37686878D01*
X52897353Y37484139D01*
X52792875Y37256646D01*
X52764842Y37164213D01*
X51760000Y37164213D01*
X51760000Y39055787D01*
X52764842Y39055787D01*
X52792875Y38963354D01*
X52897353Y38735861D01*
X53044205Y38533122D01*
X53227788Y38362928D01*
X53441047Y38231820D01*
X53675786Y38144836D01*
X53873000Y38216075D01*
X53873000Y39253000D01*
X54127000Y39253000D01*
X54127000Y38216075D01*
X54324214Y38144836D01*
X54558953Y38231820D01*
X54772212Y38362928D01*
X54955795Y38533122D01*
X55102647Y38735861D01*
X55207125Y38963354D01*
X55235158Y39055787D01*
X55163338Y39253000D01*
X54127000Y39253000D01*
X53873000Y39253000D01*
X52836662Y39253000D01*
X52764842Y39055787D01*
X51760000Y39055787D01*
X51760000Y39704213D01*
X52764842Y39704213D01*
X52836662Y39507000D01*
X53873000Y39507000D01*
X53873000Y40543925D01*
X54127000Y40543925D01*
X54127000Y39507000D01*
X55163338Y39507000D01*
X55235158Y39704213D01*
X55207125Y39796646D01*
X55102647Y40024139D01*
X54955795Y40226878D01*
X54772212Y40397072D01*
X54558953Y40528180D01*
X54324214Y40615164D01*
X54127000Y40543925D01*
X53873000Y40543925D01*
X53675786Y40615164D01*
X53441047Y40528180D01*
X53227788Y40397072D01*
X53044205Y40226878D01*
X52897353Y40024139D01*
X52792875Y39796646D01*
X52764842Y39704213D01*
X51760000Y39704213D01*
X51760000Y41595787D01*
X52764842Y41595787D01*
X52792875Y41503354D01*
X52897353Y41275861D01*
X53044205Y41073122D01*
X53227788Y40902928D01*
X53441047Y40771820D01*
X53675786Y40684836D01*
X53873000Y40756075D01*
X53873000Y41793000D01*
X54127000Y41793000D01*
X54127000Y40756075D01*
X54324214Y40684836D01*
X54558953Y40771820D01*
X54772212Y40902928D01*
X54955795Y41073122D01*
X55102647Y41275861D01*
X55207125Y41503354D01*
X55235158Y41595787D01*
X55163338Y41793000D01*
X54127000Y41793000D01*
X53873000Y41793000D01*
X52836662Y41793000D01*
X52764842Y41595787D01*
X51760000Y41595787D01*
X51760000Y43063000D01*
X53432621Y43063000D01*
X53227788Y42937072D01*
G37*
X53227788Y42937072D02*
X53044205Y42766878D01*
X52897353Y42564139D01*
X52792875Y42336646D01*
X52764842Y42244213D01*
X52836662Y42047000D01*
X53873000Y42047000D01*
X53873000Y42067000D01*
X54127000Y42067000D01*
X54127000Y42047000D01*
X55163338Y42047000D01*
X55235158Y42244213D01*
X55207125Y42336646D01*
X55102647Y42564139D01*
X54955795Y42766878D01*
X54772212Y42937072D01*
X54567379Y43063000D01*
X59027394Y43063000D01*
X65303000Y36787394D01*
X65303000Y34427000D01*
X63043340Y34427000D01*
X63071755Y34461624D01*
X63111405Y34535804D01*
X63135822Y34616293D01*
X63144066Y34700000D01*
X63142000Y35336250D01*
X63035250Y35443000D01*
X61747000Y35443000D01*
X61747000Y35423000D01*
X61493000Y35423000D01*
X61493000Y35443000D01*
X60204750Y35443000D01*
X60098000Y35336250D01*
X60095934Y34700000D01*
X60104178Y34616293D01*
X60128595Y34535804D01*
X60168245Y34461624D01*
X60196660Y34427000D01*
X57810000Y34427000D01*
X57785224Y34424560D01*
X57761399Y34417333D01*
X57739443Y34405597D01*
X57717738Y34387274D01*
X56553966Y33157000D01*
X54567379Y33157000D01*
X54772212Y33282928D01*
X54955795Y33453122D01*
X55102647Y33655861D01*
X55207125Y33883354D01*
X55235158Y33975787D01*
X55163338Y34173000D01*
X54127000Y34173000D01*
X54127000Y34153000D01*
X53873000Y34153000D01*
X53873000Y34173000D01*
X52836662Y34173000D01*
X52764842Y33975787D01*
X52792875Y33883354D01*
X52897353Y33655861D01*
X53044205Y33453122D01*
X53227788Y33282928D01*
X53432621Y33157000D01*
X51587000Y33157000D01*
X51587000Y34624213D01*
X52764842Y34624213D01*
X52836662Y34427000D01*
X53873000Y34427000D01*
X53873000Y35463925D01*
X54127000Y35463925D01*
X54127000Y34427000D01*
X55163338Y34427000D01*
X55235158Y34624213D01*
X55207125Y34716646D01*
X55102647Y34944139D01*
X54955795Y35146878D01*
X54772212Y35317072D01*
X54558953Y35448180D01*
X54324214Y35535164D01*
X54127000Y35463925D01*
X53873000Y35463925D01*
X53675786Y35535164D01*
X53441047Y35448180D01*
X53227788Y35317072D01*
X53044205Y35146878D01*
X52897353Y34944139D01*
X52792875Y34716646D01*
X52764842Y34624213D01*
X51587000Y34624213D01*
X51587000Y35267267D01*
X51634974Y35325724D01*
X51705546Y35457753D01*
X51749003Y35601014D01*
X51760000Y35712667D01*
X51760000Y35712675D01*
X51763676Y35750000D01*
X51760000Y35787325D01*
X51760000Y36515787D01*
X52764842Y36515787D01*
X52792875Y36423354D01*
X52897353Y36195861D01*
X53044205Y35993122D01*
X53227788Y35822928D01*
X53441047Y35691820D01*
X53675786Y35604836D01*
X53873000Y35676075D01*
X53873000Y36713000D01*
X54127000Y36713000D01*
X54127000Y35676075D01*
X54324214Y35604836D01*
X54558953Y35691820D01*
X54772212Y35822928D01*
X54955795Y35993122D01*
X55102647Y36195861D01*
X55207125Y36423354D01*
X55212173Y36440000D01*
X60095934Y36440000D01*
X60098000Y35803750D01*
X60204750Y35697000D01*
X61493000Y35697000D01*
X61493000Y36760250D01*
X61747000Y36760250D01*
X61747000Y35697000D01*
X63035250Y35697000D01*
X63142000Y35803750D01*
X63144066Y36440000D01*
X63135822Y36523707D01*
X63111405Y36604196D01*
X63071755Y36678376D01*
X63018395Y36743395D01*
X62953376Y36796755D01*
X62879196Y36836405D01*
X62798707Y36860822D01*
X62715000Y36869066D01*
X61853750Y36867000D01*
X61747000Y36760250D01*
X61493000Y36760250D01*
X61386250Y36867000D01*
X60525000Y36869066D01*
X60441293Y36860822D01*
X60360804Y36836405D01*
X60286624Y36796755D01*
X60221605Y36743395D01*
X60168245Y36678376D01*
X60128595Y36604196D01*
X60104178Y36523707D01*
X60095934Y36440000D01*
X55212173Y36440000D01*
X55235158Y36515787D01*
X55163338Y36713000D01*
X54127000Y36713000D01*
X53873000Y36713000D01*
X52836662Y36713000D01*
X52764842Y36515787D01*
X51760000Y36515787D01*
X51760000Y37164213D01*
X52764842Y37164213D01*
X52836662Y36967000D01*
X53873000Y36967000D01*
X53873000Y38003925D01*
X54127000Y38003925D01*
X54127000Y36967000D01*
X55163338Y36967000D01*
X55235158Y37164213D01*
X55207125Y37256646D01*
X55102647Y37484139D01*
X54955795Y37686878D01*
X54772212Y37857072D01*
X54558953Y37988180D01*
X54324214Y38075164D01*
X54127000Y38003925D01*
X53873000Y38003925D01*
X53675786Y38075164D01*
X53441047Y37988180D01*
X53227788Y37857072D01*
X53044205Y37686878D01*
X52897353Y37484139D01*
X52792875Y37256646D01*
X52764842Y37164213D01*
X51760000Y37164213D01*
X51760000Y39055787D01*
X52764842Y39055787D01*
X52792875Y38963354D01*
X52897353Y38735861D01*
X53044205Y38533122D01*
X53227788Y38362928D01*
X53441047Y38231820D01*
X53675786Y38144836D01*
X53873000Y38216075D01*
X53873000Y39253000D01*
X54127000Y39253000D01*
X54127000Y38216075D01*
X54324214Y38144836D01*
X54558953Y38231820D01*
X54772212Y38362928D01*
X54955795Y38533122D01*
X55102647Y38735861D01*
X55207125Y38963354D01*
X55235158Y39055787D01*
X55163338Y39253000D01*
X54127000Y39253000D01*
X53873000Y39253000D01*
X52836662Y39253000D01*
X52764842Y39055787D01*
X51760000Y39055787D01*
X51760000Y39704213D01*
X52764842Y39704213D01*
X52836662Y39507000D01*
X53873000Y39507000D01*
X53873000Y40543925D01*
X54127000Y40543925D01*
X54127000Y39507000D01*
X55163338Y39507000D01*
X55235158Y39704213D01*
X55207125Y39796646D01*
X55102647Y40024139D01*
X54955795Y40226878D01*
X54772212Y40397072D01*
X54558953Y40528180D01*
X54324214Y40615164D01*
X54127000Y40543925D01*
X53873000Y40543925D01*
X53675786Y40615164D01*
X53441047Y40528180D01*
X53227788Y40397072D01*
X53044205Y40226878D01*
X52897353Y40024139D01*
X52792875Y39796646D01*
X52764842Y39704213D01*
X51760000Y39704213D01*
X51760000Y41595787D01*
X52764842Y41595787D01*
X52792875Y41503354D01*
X52897353Y41275861D01*
X53044205Y41073122D01*
X53227788Y40902928D01*
X53441047Y40771820D01*
X53675786Y40684836D01*
X53873000Y40756075D01*
X53873000Y41793000D01*
X54127000Y41793000D01*
X54127000Y40756075D01*
X54324214Y40684836D01*
X54558953Y40771820D01*
X54772212Y40902928D01*
X54955795Y41073122D01*
X55102647Y41275861D01*
X55207125Y41503354D01*
X55235158Y41595787D01*
X55163338Y41793000D01*
X54127000Y41793000D01*
X53873000Y41793000D01*
X52836662Y41793000D01*
X52764842Y41595787D01*
X51760000Y41595787D01*
X51760000Y43063000D01*
X53432621Y43063000D01*
X53227788Y42937072D01*
G36*
X57720197Y24050197D02*
G01*
X57739443Y24034403D01*
X57761399Y24022667D01*
X57785224Y24015440D01*
X57810000Y24013000D01*
X60770223Y24013000D01*
X60583310Y23892451D01*
X60399436Y23714452D01*
X60253821Y23504001D01*
X60152061Y23269186D01*
X60139992Y23197357D01*
X60211545Y22997000D01*
X61493000Y22997000D01*
X61493000Y23017000D01*
X61747000Y23017000D01*
X61747000Y22997000D01*
X63028455Y22997000D01*
X63100008Y23197357D01*
X63087939Y23269186D01*
X62986179Y23504001D01*
X62840564Y23714452D01*
X62656690Y23892451D01*
X62469777Y24013000D01*
X64165000Y24013000D01*
X64165000Y20514606D01*
X59027394Y15377000D01*
X54567379Y15377000D01*
X54772212Y15502928D01*
X54955795Y15673122D01*
X55102647Y15875861D01*
X55207125Y16103354D01*
X55235158Y16195787D01*
X55163338Y16393000D01*
X54127000Y16393000D01*
X54127000Y16373000D01*
X53873000Y16373000D01*
X53873000Y16393000D01*
X52836662Y16393000D01*
X52764842Y16195787D01*
X52781962Y16139338D01*
X52740256Y16167205D01*
X52551898Y16245226D01*
X52351939Y16285000D01*
X52289801Y16285000D01*
X52083803Y16490998D01*
X52060001Y16520001D01*
X52035373Y16540213D01*
X52019002Y16594180D01*
X52007873Y16615000D01*
X52019002Y16635820D01*
X52055312Y16755518D01*
X52064047Y16844213D01*
X52764842Y16844213D01*
X52836662Y16647000D01*
X53873000Y16647000D01*
X53873000Y17683925D01*
X54127000Y17683925D01*
X54127000Y16647000D01*
X55163338Y16647000D01*
X55235158Y16844213D01*
X55207125Y16936646D01*
X55102647Y17164139D01*
X54955795Y17366878D01*
X54772212Y17537072D01*
X54558953Y17668180D01*
X54324214Y17755164D01*
X54127000Y17683925D01*
X53873000Y17683925D01*
X53675786Y17755164D01*
X53441047Y17668180D01*
X53227788Y17537072D01*
X53044205Y17366878D01*
X52897353Y17164139D01*
X52792875Y16936646D01*
X52764842Y16844213D01*
X52064047Y16844213D01*
X52067572Y16880000D01*
X52067572Y17620000D01*
X52055312Y17744482D01*
X52019002Y17864180D01*
X52007873Y17885000D01*
X52019002Y17905820D01*
X52055312Y18025518D01*
X52067572Y18150000D01*
X52067572Y18735787D01*
X52764842Y18735787D01*
X52792875Y18643354D01*
X52897353Y18415861D01*
X53044205Y18213122D01*
X53227788Y18042928D01*
X53441047Y17911820D01*
X53675786Y17824836D01*
X53873000Y17896075D01*
X53873000Y18933000D01*
X54127000Y18933000D01*
X54127000Y17896075D01*
X54324214Y17824836D01*
X54558953Y17911820D01*
X54772212Y18042928D01*
X54955795Y18213122D01*
X55102647Y18415861D01*
X55207125Y18643354D01*
X55235158Y18735787D01*
X55163338Y18933000D01*
X54127000Y18933000D01*
X53873000Y18933000D01*
X52836662Y18933000D01*
X52764842Y18735787D01*
X52067572Y18735787D01*
X52067572Y18890000D01*
X52055312Y19014482D01*
X52019002Y19134180D01*
X52007873Y19155000D01*
X52019002Y19175820D01*
X52055312Y19295518D01*
X52064047Y19384213D01*
X52764842Y19384213D01*
X52836662Y19187000D01*
X53873000Y19187000D01*
X53873000Y20223925D01*
X54127000Y20223925D01*
X54127000Y19187000D01*
X55163338Y19187000D01*
X55235158Y19384213D01*
X55207125Y19476646D01*
X55102647Y19704139D01*
X54955795Y19906878D01*
X54772212Y20077072D01*
X54558953Y20208180D01*
X54324214Y20295164D01*
X54127000Y20223925D01*
X53873000Y20223925D01*
X53675786Y20295164D01*
X53441047Y20208180D01*
X53227788Y20077072D01*
X53044205Y19906878D01*
X52897353Y19704139D01*
X52792875Y19476646D01*
X52764842Y19384213D01*
X52064047Y19384213D01*
X52067572Y19420000D01*
X52067572Y20134456D01*
X52159774Y20196063D01*
X52303937Y20340226D01*
X52417205Y20509744D01*
X52495226Y20698102D01*
X52535000Y20898061D01*
X52535000Y21101939D01*
X52500420Y21275787D01*
X52764842Y21275787D01*
X52792875Y21183354D01*
X52897353Y20955861D01*
X53044205Y20753122D01*
X53227788Y20582928D01*
X53441047Y20451820D01*
X53675786Y20364836D01*
X53873000Y20436075D01*
X53873000Y21473000D01*
X54127000Y21473000D01*
X54127000Y20436075D01*
X54324214Y20364836D01*
X54558953Y20451820D01*
X54772212Y20582928D01*
X54955795Y20753122D01*
X55102647Y20955861D01*
X55207125Y21183354D01*
X55235158Y21275787D01*
X55163338Y21473000D01*
X54127000Y21473000D01*
X53873000Y21473000D01*
X52836662Y21473000D01*
X52764842Y21275787D01*
X52500420Y21275787D01*
X52495226Y21301898D01*
X52417205Y21490256D01*
X52303937Y21659774D01*
X52159774Y21803937D01*
X51990256Y21917205D01*
X51973338Y21924213D01*
X52764842Y21924213D01*
X52836662Y21727000D01*
X53873000Y21727000D01*
X53873000Y22763925D01*
X54127000Y22763925D01*
X54127000Y21727000D01*
X55163338Y21727000D01*
X55235158Y21924213D01*
X55207125Y22016646D01*
X55102647Y22244139D01*
X54955795Y22446878D01*
X54852497Y22542643D01*
X60139992Y22542643D01*
X60152061Y22470814D01*
X60253821Y22235999D01*
X60399436Y22025548D01*
X60583310Y21847549D01*
X60798377Y21708842D01*
X61036372Y21614758D01*
X61288149Y21568912D01*
X61493000Y21674965D01*
X61493000Y22743000D01*
X61747000Y22743000D01*
X61747000Y21674965D01*
X61951851Y21568912D01*
X62203628Y21614758D01*
X62441623Y21708842D01*
X62656690Y21847549D01*
X62840564Y22025548D01*
X62986179Y22235999D01*
X63087939Y22470814D01*
X63100008Y22542643D01*
X63028455Y22743000D01*
X61747000Y22743000D01*
X61493000Y22743000D01*
X60211545Y22743000D01*
X60139992Y22542643D01*
X54852497Y22542643D01*
X54772212Y22617072D01*
X54558953Y22748180D01*
X54324214Y22835164D01*
X54127000Y22763925D01*
X53873000Y22763925D01*
X53675786Y22835164D01*
X53441047Y22748180D01*
X53227788Y22617072D01*
X53044205Y22446878D01*
X52897353Y22244139D01*
X52792875Y22016646D01*
X52764842Y21924213D01*
X51973338Y21924213D01*
X51801898Y21995226D01*
X51601939Y22035000D01*
X51587000Y22035000D01*
X51587000Y23815787D01*
X52764842Y23815787D01*
X52792875Y23723354D01*
X52897353Y23495861D01*
X53044205Y23293122D01*
X53227788Y23122928D01*
X53441047Y22991820D01*
X53675786Y22904836D01*
X53873000Y22976075D01*
X53873000Y24013000D01*
X54127000Y24013000D01*
X54127000Y22976075D01*
X54324214Y22904836D01*
X54558953Y22991820D01*
X54772212Y23122928D01*
X54955795Y23293122D01*
X55102647Y23495861D01*
X55207125Y23723354D01*
X55235158Y23815787D01*
X55163338Y24013000D01*
X54127000Y24013000D01*
X53873000Y24013000D01*
X52836662Y24013000D01*
X52764842Y23815787D01*
X51587000Y23815787D01*
X51587000Y24650000D01*
X52835749Y24650000D01*
X52792875Y24556646D01*
X52764842Y24464213D01*
X52836662Y24267000D01*
X53873000Y24267000D01*
X53873000Y24287000D01*
X54127000Y24287000D01*
X54127000Y24267000D01*
X55163338Y24267000D01*
X55235158Y24464213D01*
X55207125Y24556646D01*
X55164251Y24650000D01*
X56502678Y24650000D01*
X56540000Y24646324D01*
X56577322Y24650000D01*
X56577333Y24650000D01*
X56688986Y24660997D01*
X56832247Y24704454D01*
X56964276Y24775026D01*
X56981353Y24789041D01*
X57720197Y24050197D01*
G37*
X57720197Y24050197D02*
X57739443Y24034403D01*
X57761399Y24022667D01*
X57785224Y24015440D01*
X57810000Y24013000D01*
X60770223Y24013000D01*
X60583310Y23892451D01*
X60399436Y23714452D01*
X60253821Y23504001D01*
X60152061Y23269186D01*
X60139992Y23197357D01*
X60211545Y22997000D01*
X61493000Y22997000D01*
X61493000Y23017000D01*
X61747000Y23017000D01*
X61747000Y22997000D01*
X63028455Y22997000D01*
X63100008Y23197357D01*
X63087939Y23269186D01*
X62986179Y23504001D01*
X62840564Y23714452D01*
X62656690Y23892451D01*
X62469777Y24013000D01*
X64165000Y24013000D01*
X64165000Y20514606D01*
X59027394Y15377000D01*
X54567379Y15377000D01*
X54772212Y15502928D01*
X54955795Y15673122D01*
X55102647Y15875861D01*
X55207125Y16103354D01*
X55235158Y16195787D01*
X55163338Y16393000D01*
X54127000Y16393000D01*
X54127000Y16373000D01*
X53873000Y16373000D01*
X53873000Y16393000D01*
X52836662Y16393000D01*
X52764842Y16195787D01*
X52781962Y16139338D01*
X52740256Y16167205D01*
X52551898Y16245226D01*
X52351939Y16285000D01*
X52289801Y16285000D01*
X52083803Y16490998D01*
X52060001Y16520001D01*
X52035373Y16540213D01*
X52019002Y16594180D01*
X52007873Y16615000D01*
X52019002Y16635820D01*
X52055312Y16755518D01*
X52064047Y16844213D01*
X52764842Y16844213D01*
X52836662Y16647000D01*
X53873000Y16647000D01*
X53873000Y17683925D01*
X54127000Y17683925D01*
X54127000Y16647000D01*
X55163338Y16647000D01*
X55235158Y16844213D01*
X55207125Y16936646D01*
X55102647Y17164139D01*
X54955795Y17366878D01*
X54772212Y17537072D01*
X54558953Y17668180D01*
X54324214Y17755164D01*
X54127000Y17683925D01*
X53873000Y17683925D01*
X53675786Y17755164D01*
X53441047Y17668180D01*
X53227788Y17537072D01*
X53044205Y17366878D01*
X52897353Y17164139D01*
X52792875Y16936646D01*
X52764842Y16844213D01*
X52064047Y16844213D01*
X52067572Y16880000D01*
X52067572Y17620000D01*
X52055312Y17744482D01*
X52019002Y17864180D01*
X52007873Y17885000D01*
X52019002Y17905820D01*
X52055312Y18025518D01*
X52067572Y18150000D01*
X52067572Y18735787D01*
X52764842Y18735787D01*
X52792875Y18643354D01*
X52897353Y18415861D01*
X53044205Y18213122D01*
X53227788Y18042928D01*
X53441047Y17911820D01*
X53675786Y17824836D01*
X53873000Y17896075D01*
X53873000Y18933000D01*
X54127000Y18933000D01*
X54127000Y17896075D01*
X54324214Y17824836D01*
X54558953Y17911820D01*
X54772212Y18042928D01*
X54955795Y18213122D01*
X55102647Y18415861D01*
X55207125Y18643354D01*
X55235158Y18735787D01*
X55163338Y18933000D01*
X54127000Y18933000D01*
X53873000Y18933000D01*
X52836662Y18933000D01*
X52764842Y18735787D01*
X52067572Y18735787D01*
X52067572Y18890000D01*
X52055312Y19014482D01*
X52019002Y19134180D01*
X52007873Y19155000D01*
X52019002Y19175820D01*
X52055312Y19295518D01*
X52064047Y19384213D01*
X52764842Y19384213D01*
X52836662Y19187000D01*
X53873000Y19187000D01*
X53873000Y20223925D01*
X54127000Y20223925D01*
X54127000Y19187000D01*
X55163338Y19187000D01*
X55235158Y19384213D01*
X55207125Y19476646D01*
X55102647Y19704139D01*
X54955795Y19906878D01*
X54772212Y20077072D01*
X54558953Y20208180D01*
X54324214Y20295164D01*
X54127000Y20223925D01*
X53873000Y20223925D01*
X53675786Y20295164D01*
X53441047Y20208180D01*
X53227788Y20077072D01*
X53044205Y19906878D01*
X52897353Y19704139D01*
X52792875Y19476646D01*
X52764842Y19384213D01*
X52064047Y19384213D01*
X52067572Y19420000D01*
X52067572Y20134456D01*
X52159774Y20196063D01*
X52303937Y20340226D01*
X52417205Y20509744D01*
X52495226Y20698102D01*
X52535000Y20898061D01*
X52535000Y21101939D01*
X52500420Y21275787D01*
X52764842Y21275787D01*
X52792875Y21183354D01*
X52897353Y20955861D01*
X53044205Y20753122D01*
X53227788Y20582928D01*
X53441047Y20451820D01*
X53675786Y20364836D01*
X53873000Y20436075D01*
X53873000Y21473000D01*
X54127000Y21473000D01*
X54127000Y20436075D01*
X54324214Y20364836D01*
X54558953Y20451820D01*
X54772212Y20582928D01*
X54955795Y20753122D01*
X55102647Y20955861D01*
X55207125Y21183354D01*
X55235158Y21275787D01*
X55163338Y21473000D01*
X54127000Y21473000D01*
X53873000Y21473000D01*
X52836662Y21473000D01*
X52764842Y21275787D01*
X52500420Y21275787D01*
X52495226Y21301898D01*
X52417205Y21490256D01*
X52303937Y21659774D01*
X52159774Y21803937D01*
X51990256Y21917205D01*
X51973338Y21924213D01*
X52764842Y21924213D01*
X52836662Y21727000D01*
X53873000Y21727000D01*
X53873000Y22763925D01*
X54127000Y22763925D01*
X54127000Y21727000D01*
X55163338Y21727000D01*
X55235158Y21924213D01*
X55207125Y22016646D01*
X55102647Y22244139D01*
X54955795Y22446878D01*
X54852497Y22542643D01*
X60139992Y22542643D01*
X60152061Y22470814D01*
X60253821Y22235999D01*
X60399436Y22025548D01*
X60583310Y21847549D01*
X60798377Y21708842D01*
X61036372Y21614758D01*
X61288149Y21568912D01*
X61493000Y21674965D01*
X61493000Y22743000D01*
X61747000Y22743000D01*
X61747000Y21674965D01*
X61951851Y21568912D01*
X62203628Y21614758D01*
X62441623Y21708842D01*
X62656690Y21847549D01*
X62840564Y22025548D01*
X62986179Y22235999D01*
X63087939Y22470814D01*
X63100008Y22542643D01*
X63028455Y22743000D01*
X61747000Y22743000D01*
X61493000Y22743000D01*
X60211545Y22743000D01*
X60139992Y22542643D01*
X54852497Y22542643D01*
X54772212Y22617072D01*
X54558953Y22748180D01*
X54324214Y22835164D01*
X54127000Y22763925D01*
X53873000Y22763925D01*
X53675786Y22835164D01*
X53441047Y22748180D01*
X53227788Y22617072D01*
X53044205Y22446878D01*
X52897353Y22244139D01*
X52792875Y22016646D01*
X52764842Y21924213D01*
X51973338Y21924213D01*
X51801898Y21995226D01*
X51601939Y22035000D01*
X51587000Y22035000D01*
X51587000Y23815787D01*
X52764842Y23815787D01*
X52792875Y23723354D01*
X52897353Y23495861D01*
X53044205Y23293122D01*
X53227788Y23122928D01*
X53441047Y22991820D01*
X53675786Y22904836D01*
X53873000Y22976075D01*
X53873000Y24013000D01*
X54127000Y24013000D01*
X54127000Y22976075D01*
X54324214Y22904836D01*
X54558953Y22991820D01*
X54772212Y23122928D01*
X54955795Y23293122D01*
X55102647Y23495861D01*
X55207125Y23723354D01*
X55235158Y23815787D01*
X55163338Y24013000D01*
X54127000Y24013000D01*
X53873000Y24013000D01*
X52836662Y24013000D01*
X52764842Y23815787D01*
X51587000Y23815787D01*
X51587000Y24650000D01*
X52835749Y24650000D01*
X52792875Y24556646D01*
X52764842Y24464213D01*
X52836662Y24267000D01*
X53873000Y24267000D01*
X53873000Y24287000D01*
X54127000Y24287000D01*
X54127000Y24267000D01*
X55163338Y24267000D01*
X55235158Y24464213D01*
X55207125Y24556646D01*
X55164251Y24650000D01*
X56502678Y24650000D01*
X56540000Y24646324D01*
X56577322Y24650000D01*
X56577333Y24650000D01*
X56688986Y24660997D01*
X56832247Y24704454D01*
X56964276Y24775026D01*
X56981353Y24789041D01*
X57720197Y24050197D01*
M02*
