G04 #@! TF.GenerationSoftware,KiCad,Pcbnew,5.1.6-c6e7f7d~87~ubuntu20.04.1*
G04 #@! TF.CreationDate,2020-09-30T23:59:15+01:00*
G04 #@! TF.ProjectId,motor_board,6d6f746f-725f-4626-9f61-72642e6b6963,1.0*
G04 #@! TF.SameCoordinates,PX55d4a80PY5f5e100*
G04 #@! TF.FileFunction,Copper,L2,Bot*
G04 #@! TF.FilePolarity,Positive*
%FSLAX46Y46*%
G04 Gerber Fmt 4.6, Leading zero omitted, Abs format (unit mm)*
G04 Created by KiCad (PCBNEW 5.1.6-c6e7f7d~87~ubuntu20.04.1) date 2020-09-30 23:59:15*
%MOMM*%
%LPD*%
G01*
G04 APERTURE LIST*
G04 #@! TA.AperFunction,ComponentPad*
%ADD10O,1.700000X1.700000*%
G04 #@! TD*
G04 #@! TA.AperFunction,ComponentPad*
%ADD11R,1.700000X1.700000*%
G04 #@! TD*
G04 #@! TA.AperFunction,ComponentPad*
%ADD12C,2.000000*%
G04 #@! TD*
G04 #@! TA.AperFunction,ComponentPad*
%ADD13O,2.080000X3.600000*%
G04 #@! TD*
G04 #@! TA.AperFunction,ComponentPad*
%ADD14O,2.190000X1.740000*%
G04 #@! TD*
G04 #@! TA.AperFunction,ViaPad*
%ADD15C,0.800000*%
G04 #@! TD*
G04 #@! TA.AperFunction,Conductor*
%ADD16C,0.400000*%
G04 #@! TD*
G04 #@! TA.AperFunction,Conductor*
%ADD17C,0.250000*%
G04 #@! TD*
G04 #@! TA.AperFunction,Conductor*
%ADD18C,2.300000*%
G04 #@! TD*
G04 #@! TA.AperFunction,Conductor*
%ADD19C,0.254000*%
G04 #@! TD*
G04 APERTURE END LIST*
D10*
X54000000Y11440000D03*
X54000000Y13980000D03*
X54000000Y16520000D03*
X54000000Y19060000D03*
X54000000Y21600000D03*
X54000000Y24140000D03*
X54000000Y26680000D03*
X54000000Y29220000D03*
X54000000Y31760000D03*
X54000000Y34300000D03*
X54000000Y36840000D03*
X54000000Y39380000D03*
X54000000Y41920000D03*
X54000000Y44460000D03*
D11*
X54000000Y47000000D03*
D12*
X35000000Y37750000D03*
X35000000Y42250000D03*
X41500000Y37750000D03*
X41500000Y42250000D03*
D13*
X49080000Y3500000D03*
G04 #@! TA.AperFunction,ComponentPad*
G36*
G01*
X42960000Y1949999D02*
X42960000Y5050001D01*
G75*
G02*
X43209999Y5300000I249999J0D01*
G01*
X44790001Y5300000D01*
G75*
G02*
X45040000Y5050001I0J-249999D01*
G01*
X45040000Y1949999D01*
G75*
G02*
X44790001Y1700000I-249999J0D01*
G01*
X43209999Y1700000D01*
G75*
G02*
X42960000Y1949999I0J249999D01*
G01*
G37*
G04 #@! TD.AperFunction*
D10*
X47650000Y46250000D03*
X45110000Y46250000D03*
X42570000Y46250000D03*
X40030000Y46250000D03*
X37490000Y46250000D03*
D11*
X34950000Y46250000D03*
D10*
X6920000Y13980000D03*
X4380000Y13980000D03*
D11*
X1840000Y13980000D03*
D10*
X6920000Y16520000D03*
X4380000Y16520000D03*
D11*
X1840000Y16520000D03*
D13*
X35740000Y3500000D03*
X30660000Y3500000D03*
X25580000Y3500000D03*
G04 #@! TA.AperFunction,ComponentPad*
G36*
G01*
X19460000Y1949999D02*
X19460000Y5050001D01*
G75*
G02*
X19709999Y5300000I249999J0D01*
G01*
X21290001Y5300000D01*
G75*
G02*
X21540000Y5050001I0J-249999D01*
G01*
X21540000Y1949999D01*
G75*
G02*
X21290001Y1700000I-249999J0D01*
G01*
X19709999Y1700000D01*
G75*
G02*
X19460000Y1949999I0J249999D01*
G01*
G37*
G04 #@! TD.AperFunction*
D10*
X12000000Y11440000D03*
X12000000Y13980000D03*
X12000000Y16520000D03*
X12000000Y19060000D03*
X12000000Y21600000D03*
X12000000Y24140000D03*
X12000000Y26680000D03*
X12000000Y29220000D03*
X12000000Y31760000D03*
X12000000Y34300000D03*
X12000000Y36840000D03*
X12000000Y39380000D03*
X12000000Y41920000D03*
X12000000Y44460000D03*
D11*
X12000000Y47000000D03*
D10*
X6920000Y33030000D03*
X4380000Y33030000D03*
D11*
X1840000Y33030000D03*
D10*
X6920000Y35570000D03*
X4380000Y35570000D03*
D11*
X1840000Y35570000D03*
D14*
X61620000Y22870000D03*
X61620000Y25410000D03*
X61620000Y27950000D03*
X61620000Y30490000D03*
X61620000Y33030000D03*
G04 #@! TA.AperFunction,ComponentPad*
G36*
G01*
X60774999Y36440000D02*
X62465001Y36440000D01*
G75*
G02*
X62715000Y36190001I0J-249999D01*
G01*
X62715000Y34949999D01*
G75*
G02*
X62465001Y34700000I-249999J0D01*
G01*
X60774999Y34700000D01*
G75*
G02*
X60525000Y34949999I0J249999D01*
G01*
X60525000Y36190001D01*
G75*
G02*
X60774999Y36440000I249999J0D01*
G01*
G37*
G04 #@! TD.AperFunction*
D10*
X6920000Y38110000D03*
X4380000Y38110000D03*
D11*
X1840000Y38110000D03*
D10*
X6920000Y40650000D03*
X4380000Y40650000D03*
D11*
X1840000Y40650000D03*
D15*
X28249992Y32250000D03*
X34750000Y32250000D03*
X10000012Y28000000D03*
X14000000Y28000000D03*
X40500000Y16500000D03*
X42750000Y8250000D03*
X20382000Y44206000D03*
X20382000Y42174000D03*
X16826000Y41920000D03*
X16826000Y39380000D03*
X16826000Y36840000D03*
X16826000Y34300000D03*
X20382000Y39380000D03*
X20382000Y36840000D03*
X33250000Y10250000D03*
X30750000Y10250000D03*
X6500000Y20250000D03*
X7000000Y24250000D03*
X6500000Y27500000D03*
X36025000Y31250000D03*
X36250000Y33000000D03*
X36250000Y35000000D03*
X51500000Y21000000D03*
X52250000Y15250000D03*
X27500000Y21750000D03*
X28225010Y19250000D03*
X27987347Y16012653D03*
X28000000Y14500000D03*
X28000000Y17500000D03*
X28000000Y13000000D03*
X39000000Y23000000D03*
X42250000Y23000000D03*
X20500000Y9750000D03*
X46250000Y27000000D03*
X34500000Y20000000D03*
X17500000Y17750000D03*
X29250000Y31449990D03*
X32250000Y31449990D03*
X17500000Y44000000D03*
X17715000Y15250000D03*
X17715000Y12710000D03*
D16*
X28249992Y32250000D02*
X34750000Y32250000D01*
X10000012Y28000000D02*
X10030013Y27969999D01*
X10030013Y27969999D02*
X13969999Y27969999D01*
X13969999Y27969999D02*
X14000000Y28000000D01*
D17*
X39000000Y23000000D02*
X42250000Y23000000D01*
D18*
X1840000Y13160000D02*
X1840000Y13980000D01*
X11500000Y3500000D02*
X1840000Y13160000D01*
X20500000Y3500000D02*
X11500000Y3500000D01*
X20500000Y3500000D02*
X20500000Y9750000D01*
D17*
X46250000Y27000000D02*
X38000000Y27000000D01*
X34500000Y23500000D02*
X34500000Y20000000D01*
X38000000Y27000000D02*
X34500000Y23500000D01*
X16270000Y16520000D02*
X17500000Y17750000D01*
X12000000Y16520000D02*
X16270000Y16520000D01*
X29250000Y31449990D02*
X32250000Y31449990D01*
X12880000Y39380000D02*
X12000000Y39380000D01*
X17500000Y44000000D02*
X12880000Y39380000D01*
X5744999Y15155001D02*
X4380000Y16520000D01*
X17809999Y15155001D02*
X5744999Y15155001D01*
X17715000Y15250000D02*
X17809999Y15155001D01*
X5650000Y12710000D02*
X4380000Y13980000D01*
X17715000Y12710000D02*
X5650000Y12710000D01*
D19*
G36*
X63453893Y49292330D02*
G01*
X63890498Y49160511D01*
X64293185Y48946400D01*
X64646612Y48658152D01*
X64937327Y48306739D01*
X65154242Y47905561D01*
X65289106Y47469887D01*
X65340000Y46985656D01*
X65340001Y3032289D01*
X65292330Y2546106D01*
X65160512Y2109503D01*
X64946399Y1706814D01*
X64658150Y1353387D01*
X64306739Y1062673D01*
X63905564Y845760D01*
X63469886Y710894D01*
X62985664Y660000D01*
X3032279Y660000D01*
X2546106Y707670D01*
X2109503Y839488D01*
X1706814Y1053601D01*
X1353387Y1341850D01*
X1062673Y1693261D01*
X845760Y2094436D01*
X710894Y2530114D01*
X660000Y3014336D01*
X660000Y4220128D01*
X1765000Y4220128D01*
X1765000Y3779872D01*
X1850890Y3348075D01*
X2019369Y2941331D01*
X2263962Y2575271D01*
X2575271Y2263962D01*
X2941331Y2019369D01*
X3348075Y1850890D01*
X3779872Y1765000D01*
X4220128Y1765000D01*
X4651925Y1850890D01*
X5058669Y2019369D01*
X5424729Y2263962D01*
X5736038Y2575271D01*
X5980631Y2941331D01*
X6149110Y3348075D01*
X6235000Y3779872D01*
X6235000Y4220128D01*
X6149110Y4651925D01*
X5980631Y5058669D01*
X5736038Y5424729D01*
X5424729Y5736038D01*
X5058669Y5980631D01*
X4651925Y6149110D01*
X4220128Y6235000D01*
X3779872Y6235000D01*
X3348075Y6149110D01*
X2941331Y5980631D01*
X2575271Y5736038D01*
X2263962Y5424729D01*
X2019369Y5058669D01*
X1850890Y4651925D01*
X1765000Y4220128D01*
X660000Y4220128D01*
X660000Y11815630D01*
X10175813Y2299816D01*
X10231708Y2231708D01*
X10503509Y2008646D01*
X10813605Y1842896D01*
X11150079Y1740828D01*
X11412317Y1715000D01*
X11412324Y1715000D01*
X11499999Y1706365D01*
X11587675Y1715000D01*
X18857722Y1715000D01*
X18889528Y1610149D01*
X18971595Y1456613D01*
X19082038Y1322038D01*
X19216613Y1211595D01*
X19370149Y1129528D01*
X19536745Y1078992D01*
X19709999Y1061928D01*
X21290001Y1061928D01*
X21463255Y1078992D01*
X21629851Y1129528D01*
X21783387Y1211595D01*
X21917962Y1322038D01*
X22028405Y1456613D01*
X22110472Y1610149D01*
X22161008Y1776745D01*
X22178072Y1949999D01*
X22178072Y2882727D01*
X22259172Y3150079D01*
X22281127Y3373000D01*
X23905000Y3373000D01*
X23905000Y2613000D01*
X23961961Y2288664D01*
X24081102Y1981673D01*
X24257845Y1703824D01*
X24485398Y1465794D01*
X24755016Y1276731D01*
X25056337Y1143901D01*
X25193290Y1110252D01*
X25453000Y1229078D01*
X25453000Y3373000D01*
X25707000Y3373000D01*
X25707000Y1229078D01*
X25966710Y1110252D01*
X26103663Y1143901D01*
X26404984Y1276731D01*
X26674602Y1465794D01*
X26902155Y1703824D01*
X27078898Y1981673D01*
X27198039Y2288664D01*
X27255000Y2613000D01*
X27255000Y3373000D01*
X28985000Y3373000D01*
X28985000Y2613000D01*
X29041961Y2288664D01*
X29161102Y1981673D01*
X29337845Y1703824D01*
X29565398Y1465794D01*
X29835016Y1276731D01*
X30136337Y1143901D01*
X30273290Y1110252D01*
X30533000Y1229078D01*
X30533000Y3373000D01*
X30787000Y3373000D01*
X30787000Y1229078D01*
X31046710Y1110252D01*
X31183663Y1143901D01*
X31484984Y1276731D01*
X31754602Y1465794D01*
X31982155Y1703824D01*
X32158898Y1981673D01*
X32278039Y2288664D01*
X32335000Y2613000D01*
X32335000Y3373000D01*
X30787000Y3373000D01*
X30533000Y3373000D01*
X28985000Y3373000D01*
X27255000Y3373000D01*
X25707000Y3373000D01*
X25453000Y3373000D01*
X23905000Y3373000D01*
X22281127Y3373000D01*
X22293636Y3500000D01*
X22285000Y3587683D01*
X22285000Y4387000D01*
X23905000Y4387000D01*
X23905000Y3627000D01*
X25453000Y3627000D01*
X25453000Y5770922D01*
X25707000Y5770922D01*
X25707000Y3627000D01*
X27255000Y3627000D01*
X27255000Y4387000D01*
X28985000Y4387000D01*
X28985000Y3627000D01*
X30533000Y3627000D01*
X30533000Y5770922D01*
X30787000Y5770922D01*
X30787000Y3627000D01*
X32335000Y3627000D01*
X32335000Y4342281D01*
X34065000Y4342281D01*
X34065000Y2657718D01*
X34089236Y2411643D01*
X34185016Y2095904D01*
X34340551Y1804918D01*
X34549867Y1549866D01*
X34804919Y1340550D01*
X35095905Y1185015D01*
X35411644Y1089236D01*
X35740000Y1056896D01*
X36068357Y1089236D01*
X36384096Y1185015D01*
X36675082Y1340550D01*
X36930134Y1549866D01*
X37139450Y1804918D01*
X37294985Y2095904D01*
X37390764Y2411643D01*
X37415000Y2657718D01*
X37415000Y4342282D01*
X37390764Y4588357D01*
X37294985Y4904096D01*
X37216998Y5050001D01*
X42321928Y5050001D01*
X42321928Y1949999D01*
X42338992Y1776745D01*
X42389528Y1610149D01*
X42471595Y1456613D01*
X42582038Y1322038D01*
X42716613Y1211595D01*
X42870149Y1129528D01*
X43036745Y1078992D01*
X43209999Y1061928D01*
X44790001Y1061928D01*
X44963255Y1078992D01*
X45129851Y1129528D01*
X45283387Y1211595D01*
X45417962Y1322038D01*
X45528405Y1456613D01*
X45610472Y1610149D01*
X45661008Y1776745D01*
X45678072Y1949999D01*
X45678072Y4342281D01*
X47405000Y4342281D01*
X47405000Y2657718D01*
X47429236Y2411643D01*
X47525016Y2095904D01*
X47680551Y1804918D01*
X47889867Y1549866D01*
X48144919Y1340550D01*
X48435905Y1185015D01*
X48751644Y1089236D01*
X49080000Y1056896D01*
X49408357Y1089236D01*
X49724096Y1185015D01*
X50015082Y1340550D01*
X50270134Y1549866D01*
X50479450Y1804918D01*
X50634985Y2095904D01*
X50730764Y2411643D01*
X50755000Y2657718D01*
X50755000Y4220128D01*
X59765000Y4220128D01*
X59765000Y3779872D01*
X59850890Y3348075D01*
X60019369Y2941331D01*
X60263962Y2575271D01*
X60575271Y2263962D01*
X60941331Y2019369D01*
X61348075Y1850890D01*
X61779872Y1765000D01*
X62220128Y1765000D01*
X62651925Y1850890D01*
X63058669Y2019369D01*
X63424729Y2263962D01*
X63736038Y2575271D01*
X63980631Y2941331D01*
X64149110Y3348075D01*
X64235000Y3779872D01*
X64235000Y4220128D01*
X64149110Y4651925D01*
X63980631Y5058669D01*
X63736038Y5424729D01*
X63424729Y5736038D01*
X63058669Y5980631D01*
X62651925Y6149110D01*
X62220128Y6235000D01*
X61779872Y6235000D01*
X61348075Y6149110D01*
X60941331Y5980631D01*
X60575271Y5736038D01*
X60263962Y5424729D01*
X60019369Y5058669D01*
X59850890Y4651925D01*
X59765000Y4220128D01*
X50755000Y4220128D01*
X50755000Y4342282D01*
X50730764Y4588357D01*
X50634985Y4904096D01*
X50479450Y5195082D01*
X50270134Y5450134D01*
X50015081Y5659450D01*
X49724095Y5814985D01*
X49408356Y5910764D01*
X49080000Y5943104D01*
X48751643Y5910764D01*
X48435904Y5814985D01*
X48144918Y5659450D01*
X47889866Y5450134D01*
X47680550Y5195081D01*
X47525015Y4904095D01*
X47429236Y4588356D01*
X47405000Y4342281D01*
X45678072Y4342281D01*
X45678072Y5050001D01*
X45661008Y5223255D01*
X45610472Y5389851D01*
X45528405Y5543387D01*
X45417962Y5677962D01*
X45283387Y5788405D01*
X45129851Y5870472D01*
X44963255Y5921008D01*
X44790001Y5938072D01*
X43209999Y5938072D01*
X43036745Y5921008D01*
X42870149Y5870472D01*
X42716613Y5788405D01*
X42582038Y5677962D01*
X42471595Y5543387D01*
X42389528Y5389851D01*
X42338992Y5223255D01*
X42321928Y5050001D01*
X37216998Y5050001D01*
X37139450Y5195082D01*
X36930134Y5450134D01*
X36675081Y5659450D01*
X36384095Y5814985D01*
X36068356Y5910764D01*
X35740000Y5943104D01*
X35411643Y5910764D01*
X35095904Y5814985D01*
X34804918Y5659450D01*
X34549866Y5450134D01*
X34340550Y5195081D01*
X34185015Y4904095D01*
X34089236Y4588356D01*
X34065000Y4342281D01*
X32335000Y4342281D01*
X32335000Y4387000D01*
X32278039Y4711336D01*
X32158898Y5018327D01*
X31982155Y5296176D01*
X31754602Y5534206D01*
X31484984Y5723269D01*
X31183663Y5856099D01*
X31046710Y5889748D01*
X30787000Y5770922D01*
X30533000Y5770922D01*
X30273290Y5889748D01*
X30136337Y5856099D01*
X29835016Y5723269D01*
X29565398Y5534206D01*
X29337845Y5296176D01*
X29161102Y5018327D01*
X29041961Y4711336D01*
X28985000Y4387000D01*
X27255000Y4387000D01*
X27198039Y4711336D01*
X27078898Y5018327D01*
X26902155Y5296176D01*
X26674602Y5534206D01*
X26404984Y5723269D01*
X26103663Y5856099D01*
X25966710Y5889748D01*
X25707000Y5770922D01*
X25453000Y5770922D01*
X25193290Y5889748D01*
X25056337Y5856099D01*
X24755016Y5723269D01*
X24485398Y5534206D01*
X24257845Y5296176D01*
X24081102Y5018327D01*
X23961961Y4711336D01*
X23905000Y4387000D01*
X22285000Y4387000D01*
X22285000Y9837683D01*
X22259172Y10099921D01*
X22157104Y10436395D01*
X21991354Y10746491D01*
X21768292Y11018292D01*
X21689312Y11083110D01*
X52558524Y11083110D01*
X52603175Y10935901D01*
X52728359Y10673080D01*
X52902412Y10439731D01*
X53118645Y10244822D01*
X53368748Y10095843D01*
X53643109Y9998519D01*
X53873000Y10119186D01*
X53873000Y11313000D01*
X54127000Y11313000D01*
X54127000Y10119186D01*
X54356891Y9998519D01*
X54631252Y10095843D01*
X54881355Y10244822D01*
X55097588Y10439731D01*
X55271641Y10673080D01*
X55396825Y10935901D01*
X55441476Y11083110D01*
X55320155Y11313000D01*
X54127000Y11313000D01*
X53873000Y11313000D01*
X52679845Y11313000D01*
X52558524Y11083110D01*
X21689312Y11083110D01*
X21496491Y11241354D01*
X21186395Y11407104D01*
X20849921Y11509172D01*
X20500000Y11543636D01*
X20150080Y11509172D01*
X19813606Y11407104D01*
X19503510Y11241354D01*
X19231709Y11018292D01*
X19008647Y10746491D01*
X18842897Y10436395D01*
X18740829Y10099921D01*
X18715001Y9837683D01*
X18715000Y5285000D01*
X12239371Y5285000D01*
X6441261Y11083110D01*
X10558524Y11083110D01*
X10603175Y10935901D01*
X10728359Y10673080D01*
X10902412Y10439731D01*
X11118645Y10244822D01*
X11368748Y10095843D01*
X11643109Y9998519D01*
X11873000Y10119186D01*
X11873000Y11313000D01*
X12127000Y11313000D01*
X12127000Y10119186D01*
X12356891Y9998519D01*
X12631252Y10095843D01*
X12881355Y10244822D01*
X13097588Y10439731D01*
X13271641Y10673080D01*
X13396825Y10935901D01*
X13441476Y11083110D01*
X13320155Y11313000D01*
X12127000Y11313000D01*
X11873000Y11313000D01*
X10679845Y11313000D01*
X10558524Y11083110D01*
X6441261Y11083110D01*
X5570186Y11954184D01*
X5612667Y11950000D01*
X5612676Y11950000D01*
X5649999Y11946324D01*
X5687322Y11950000D01*
X10605986Y11950000D01*
X10603175Y11944099D01*
X10558524Y11796890D01*
X10679845Y11567000D01*
X11873000Y11567000D01*
X11873000Y11587000D01*
X12127000Y11587000D01*
X12127000Y11567000D01*
X13320155Y11567000D01*
X13441476Y11796890D01*
X13396825Y11944099D01*
X13394014Y11950000D01*
X17011289Y11950000D01*
X17055226Y11906063D01*
X17224744Y11792795D01*
X17413102Y11714774D01*
X17613061Y11675000D01*
X17816939Y11675000D01*
X18016898Y11714774D01*
X18205256Y11792795D01*
X18374774Y11906063D01*
X18518937Y12050226D01*
X18632205Y12219744D01*
X18710226Y12408102D01*
X18750000Y12608061D01*
X18750000Y12811939D01*
X18710226Y13011898D01*
X18632205Y13200256D01*
X18518937Y13369774D01*
X18374774Y13513937D01*
X18211385Y13623110D01*
X52558524Y13623110D01*
X52603175Y13475901D01*
X52728359Y13213080D01*
X52902412Y12979731D01*
X53118645Y12784822D01*
X53244255Y12710000D01*
X53118645Y12635178D01*
X52902412Y12440269D01*
X52728359Y12206920D01*
X52603175Y11944099D01*
X52558524Y11796890D01*
X52679845Y11567000D01*
X53873000Y11567000D01*
X53873000Y13853000D01*
X54127000Y13853000D01*
X54127000Y11567000D01*
X55320155Y11567000D01*
X55441476Y11796890D01*
X55396825Y11944099D01*
X55271641Y12206920D01*
X55097588Y12440269D01*
X54881355Y12635178D01*
X54755745Y12710000D01*
X54881355Y12784822D01*
X55097588Y12979731D01*
X55271641Y13213080D01*
X55396825Y13475901D01*
X55441476Y13623110D01*
X55320155Y13853000D01*
X54127000Y13853000D01*
X53873000Y13853000D01*
X52679845Y13853000D01*
X52558524Y13623110D01*
X18211385Y13623110D01*
X18205256Y13627205D01*
X18016898Y13705226D01*
X17816939Y13745000D01*
X17613061Y13745000D01*
X17413102Y13705226D01*
X17224744Y13627205D01*
X17055226Y13513937D01*
X17011289Y13470000D01*
X13394014Y13470000D01*
X13396825Y13475901D01*
X13441476Y13623110D01*
X13320155Y13853000D01*
X12127000Y13853000D01*
X12127000Y13833000D01*
X11873000Y13833000D01*
X11873000Y13853000D01*
X10679845Y13853000D01*
X10558524Y13623110D01*
X10603175Y13475901D01*
X10605986Y13470000D01*
X8307169Y13470000D01*
X8361481Y13623109D01*
X8240814Y13853000D01*
X7047000Y13853000D01*
X7047000Y13833000D01*
X6793000Y13833000D01*
X6793000Y13853000D01*
X6773000Y13853000D01*
X6773000Y14107000D01*
X6793000Y14107000D01*
X6793000Y14127000D01*
X7047000Y14127000D01*
X7047000Y14107000D01*
X8240814Y14107000D01*
X8361481Y14336891D01*
X8340868Y14395001D01*
X10576150Y14395001D01*
X10558524Y14336890D01*
X10679845Y14107000D01*
X11873000Y14107000D01*
X11873000Y14127000D01*
X12127000Y14127000D01*
X12127000Y14107000D01*
X13320155Y14107000D01*
X13441476Y14336890D01*
X13423850Y14395001D01*
X17131646Y14395001D01*
X17224744Y14332795D01*
X17413102Y14254774D01*
X17613061Y14215000D01*
X17816939Y14215000D01*
X18016898Y14254774D01*
X18205256Y14332795D01*
X18374774Y14446063D01*
X18518937Y14590226D01*
X18632205Y14759744D01*
X18710226Y14948102D01*
X18750000Y15148061D01*
X18750000Y15351939D01*
X18710226Y15551898D01*
X18632205Y15740256D01*
X18518937Y15909774D01*
X18374774Y16053937D01*
X18205256Y16167205D01*
X18016898Y16245226D01*
X17816939Y16285000D01*
X17613061Y16285000D01*
X17413102Y16245226D01*
X17224744Y16167205D01*
X17055226Y16053937D01*
X16916290Y15915001D01*
X16730801Y15915001D01*
X16810001Y15979999D01*
X16833804Y16009003D01*
X17539802Y16715000D01*
X17601939Y16715000D01*
X17801898Y16754774D01*
X17990256Y16832795D01*
X18159774Y16946063D01*
X18303937Y17090226D01*
X18417205Y17259744D01*
X18495226Y17448102D01*
X18535000Y17648061D01*
X18535000Y17851939D01*
X18495226Y18051898D01*
X18417205Y18240256D01*
X18303937Y18409774D01*
X18159774Y18553937D01*
X17990256Y18667205D01*
X17801898Y18745226D01*
X17601939Y18785000D01*
X17398061Y18785000D01*
X17198102Y18745226D01*
X17009744Y18667205D01*
X16840226Y18553937D01*
X16696063Y18409774D01*
X16582795Y18240256D01*
X16504774Y18051898D01*
X16465000Y17851939D01*
X16465000Y17789802D01*
X15955199Y17280000D01*
X13278178Y17280000D01*
X13153475Y17466632D01*
X12946632Y17673475D01*
X12764466Y17795195D01*
X12881355Y17864822D01*
X13097588Y18059731D01*
X13271641Y18293080D01*
X13396825Y18555901D01*
X13441476Y18703110D01*
X13320155Y18933000D01*
X12127000Y18933000D01*
X12127000Y18913000D01*
X11873000Y18913000D01*
X11873000Y18933000D01*
X10679845Y18933000D01*
X10558524Y18703110D01*
X10603175Y18555901D01*
X10728359Y18293080D01*
X10902412Y18059731D01*
X11118645Y17864822D01*
X11235534Y17795195D01*
X11053368Y17673475D01*
X10846525Y17466632D01*
X10684010Y17223411D01*
X10572068Y16953158D01*
X10515000Y16666260D01*
X10515000Y16373740D01*
X10572068Y16086842D01*
X10643247Y15915001D01*
X8273470Y15915001D01*
X8361481Y16163109D01*
X8240814Y16393000D01*
X7047000Y16393000D01*
X7047000Y16373000D01*
X6793000Y16373000D01*
X6793000Y16393000D01*
X6773000Y16393000D01*
X6773000Y16647000D01*
X6793000Y16647000D01*
X6793000Y17840155D01*
X7047000Y17840155D01*
X7047000Y16647000D01*
X8240814Y16647000D01*
X8361481Y16876891D01*
X8264157Y17151252D01*
X8115178Y17401355D01*
X7920269Y17617588D01*
X7686920Y17791641D01*
X7424099Y17916825D01*
X7276890Y17961476D01*
X7047000Y17840155D01*
X6793000Y17840155D01*
X6563110Y17961476D01*
X6415901Y17916825D01*
X6153080Y17791641D01*
X5919731Y17617588D01*
X5724822Y17401355D01*
X5655195Y17284466D01*
X5533475Y17466632D01*
X5326632Y17673475D01*
X5083411Y17835990D01*
X4813158Y17947932D01*
X4526260Y18005000D01*
X4233740Y18005000D01*
X3946842Y17947932D01*
X3676589Y17835990D01*
X3433368Y17673475D01*
X3301513Y17541620D01*
X3279502Y17614180D01*
X3220537Y17724494D01*
X3141185Y17821185D01*
X3044494Y17900537D01*
X2934180Y17959502D01*
X2814482Y17995812D01*
X2690000Y18008072D01*
X990000Y18008072D01*
X865518Y17995812D01*
X745820Y17959502D01*
X660000Y17913630D01*
X660000Y28101939D01*
X8965012Y28101939D01*
X8965012Y27898061D01*
X9004786Y27698102D01*
X9082807Y27509744D01*
X9196075Y27340226D01*
X9340238Y27196063D01*
X9509756Y27082795D01*
X9698114Y27004774D01*
X9898073Y26965000D01*
X10101951Y26965000D01*
X10301910Y27004774D01*
X10490268Y27082795D01*
X10568397Y27134999D01*
X10581115Y27134999D01*
X10572068Y27113158D01*
X10515000Y26826260D01*
X10515000Y26533740D01*
X10572068Y26246842D01*
X10684010Y25976589D01*
X10846525Y25733368D01*
X11053368Y25526525D01*
X11227760Y25410000D01*
X11053368Y25293475D01*
X10846525Y25086632D01*
X10684010Y24843411D01*
X10572068Y24573158D01*
X10515000Y24286260D01*
X10515000Y23993740D01*
X10572068Y23706842D01*
X10684010Y23436589D01*
X10846525Y23193368D01*
X11053368Y22986525D01*
X11227760Y22870000D01*
X11053368Y22753475D01*
X10846525Y22546632D01*
X10684010Y22303411D01*
X10572068Y22033158D01*
X10515000Y21746260D01*
X10515000Y21453740D01*
X10572068Y21166842D01*
X10684010Y20896589D01*
X10846525Y20653368D01*
X11053368Y20446525D01*
X11235534Y20324805D01*
X11118645Y20255178D01*
X10902412Y20060269D01*
X10728359Y19826920D01*
X10603175Y19564099D01*
X10558524Y19416890D01*
X10679845Y19187000D01*
X11873000Y19187000D01*
X11873000Y19207000D01*
X12127000Y19207000D01*
X12127000Y19187000D01*
X13320155Y19187000D01*
X13441476Y19416890D01*
X13396825Y19564099D01*
X13271641Y19826920D01*
X13097588Y20060269D01*
X13051360Y20101939D01*
X33465000Y20101939D01*
X33465000Y19898061D01*
X33504774Y19698102D01*
X33582795Y19509744D01*
X33696063Y19340226D01*
X33840226Y19196063D01*
X34009744Y19082795D01*
X34198102Y19004774D01*
X34398061Y18965000D01*
X34601939Y18965000D01*
X34801898Y19004774D01*
X34990256Y19082795D01*
X35159774Y19196063D01*
X35303937Y19340226D01*
X35417205Y19509744D01*
X35495226Y19698102D01*
X35535000Y19898061D01*
X35535000Y20101939D01*
X35495226Y20301898D01*
X35417205Y20490256D01*
X35303937Y20659774D01*
X35260000Y20703711D01*
X35260000Y23101939D01*
X37965000Y23101939D01*
X37965000Y22898061D01*
X38004774Y22698102D01*
X38082795Y22509744D01*
X38196063Y22340226D01*
X38340226Y22196063D01*
X38509744Y22082795D01*
X38698102Y22004774D01*
X38898061Y21965000D01*
X39101939Y21965000D01*
X39301898Y22004774D01*
X39490256Y22082795D01*
X39659774Y22196063D01*
X39703711Y22240000D01*
X41546289Y22240000D01*
X41590226Y22196063D01*
X41759744Y22082795D01*
X41948102Y22004774D01*
X42148061Y21965000D01*
X42351939Y21965000D01*
X42551898Y22004774D01*
X42740256Y22082795D01*
X42909774Y22196063D01*
X43053937Y22340226D01*
X43167205Y22509744D01*
X43245226Y22698102D01*
X43285000Y22898061D01*
X43285000Y23101939D01*
X43245226Y23301898D01*
X43167205Y23490256D01*
X43053937Y23659774D01*
X42909774Y23803937D01*
X42740256Y23917205D01*
X42551898Y23995226D01*
X42351939Y24035000D01*
X42148061Y24035000D01*
X41948102Y23995226D01*
X41759744Y23917205D01*
X41590226Y23803937D01*
X41546289Y23760000D01*
X39703711Y23760000D01*
X39659774Y23803937D01*
X39490256Y23917205D01*
X39301898Y23995226D01*
X39101939Y24035000D01*
X38898061Y24035000D01*
X38698102Y23995226D01*
X38509744Y23917205D01*
X38340226Y23803937D01*
X38196063Y23659774D01*
X38082795Y23490256D01*
X38004774Y23301898D01*
X37965000Y23101939D01*
X35260000Y23101939D01*
X35260000Y23185199D01*
X38314803Y26240000D01*
X45546289Y26240000D01*
X45590226Y26196063D01*
X45759744Y26082795D01*
X45948102Y26004774D01*
X46148061Y25965000D01*
X46351939Y25965000D01*
X46551898Y26004774D01*
X46740256Y26082795D01*
X46909774Y26196063D01*
X47053937Y26340226D01*
X47167205Y26509744D01*
X47245226Y26698102D01*
X47270718Y26826260D01*
X52515000Y26826260D01*
X52515000Y26533740D01*
X52572068Y26246842D01*
X52684010Y25976589D01*
X52846525Y25733368D01*
X53053368Y25526525D01*
X53227760Y25410000D01*
X53053368Y25293475D01*
X52846525Y25086632D01*
X52684010Y24843411D01*
X52572068Y24573158D01*
X52515000Y24286260D01*
X52515000Y23993740D01*
X52572068Y23706842D01*
X52684010Y23436589D01*
X52846525Y23193368D01*
X53053368Y22986525D01*
X53227760Y22870000D01*
X53053368Y22753475D01*
X52846525Y22546632D01*
X52684010Y22303411D01*
X52572068Y22033158D01*
X52515000Y21746260D01*
X52515000Y21453740D01*
X52572068Y21166842D01*
X52684010Y20896589D01*
X52846525Y20653368D01*
X53053368Y20446525D01*
X53227760Y20330000D01*
X53053368Y20213475D01*
X52846525Y20006632D01*
X52684010Y19763411D01*
X52572068Y19493158D01*
X52515000Y19206260D01*
X52515000Y18913740D01*
X52572068Y18626842D01*
X52684010Y18356589D01*
X52846525Y18113368D01*
X53053368Y17906525D01*
X53227760Y17790000D01*
X53053368Y17673475D01*
X52846525Y17466632D01*
X52684010Y17223411D01*
X52572068Y16953158D01*
X52515000Y16666260D01*
X52515000Y16373740D01*
X52572068Y16086842D01*
X52684010Y15816589D01*
X52846525Y15573368D01*
X53053368Y15366525D01*
X53235534Y15244805D01*
X53118645Y15175178D01*
X52902412Y14980269D01*
X52728359Y14746920D01*
X52603175Y14484099D01*
X52558524Y14336890D01*
X52679845Y14107000D01*
X53873000Y14107000D01*
X53873000Y14127000D01*
X54127000Y14127000D01*
X54127000Y14107000D01*
X55320155Y14107000D01*
X55441476Y14336890D01*
X55396825Y14484099D01*
X55271641Y14746920D01*
X55097588Y14980269D01*
X54881355Y15175178D01*
X54764466Y15244805D01*
X54946632Y15366525D01*
X55153475Y15573368D01*
X55315990Y15816589D01*
X55427932Y16086842D01*
X55485000Y16373740D01*
X55485000Y16666260D01*
X55427932Y16953158D01*
X55315990Y17223411D01*
X55153475Y17466632D01*
X54946632Y17673475D01*
X54772240Y17790000D01*
X54946632Y17906525D01*
X55153475Y18113368D01*
X55315990Y18356589D01*
X55427932Y18626842D01*
X55485000Y18913740D01*
X55485000Y19206260D01*
X55427932Y19493158D01*
X55315990Y19763411D01*
X55153475Y20006632D01*
X54946632Y20213475D01*
X54772240Y20330000D01*
X54946632Y20446525D01*
X55153475Y20653368D01*
X55315990Y20896589D01*
X55427932Y21166842D01*
X55485000Y21453740D01*
X55485000Y21746260D01*
X55427932Y22033158D01*
X55315990Y22303411D01*
X55153475Y22546632D01*
X54946632Y22753475D01*
X54772240Y22870000D01*
X54946632Y22986525D01*
X55153475Y23193368D01*
X55315990Y23436589D01*
X55427932Y23706842D01*
X55485000Y23993740D01*
X55485000Y24286260D01*
X55427932Y24573158D01*
X55315990Y24843411D01*
X55153475Y25086632D01*
X54946632Y25293475D01*
X54772240Y25410000D01*
X54946632Y25526525D01*
X55153475Y25733368D01*
X55315990Y25976589D01*
X55427932Y26246842D01*
X55485000Y26533740D01*
X55485000Y26826260D01*
X55427932Y27113158D01*
X55315990Y27383411D01*
X55153475Y27626632D01*
X54946632Y27833475D01*
X54764466Y27955195D01*
X54881355Y28024822D01*
X55097588Y28219731D01*
X55271641Y28453080D01*
X55396825Y28715901D01*
X55441476Y28863110D01*
X55320155Y29093000D01*
X54127000Y29093000D01*
X54127000Y29073000D01*
X53873000Y29073000D01*
X53873000Y29093000D01*
X52679845Y29093000D01*
X52558524Y28863110D01*
X52603175Y28715901D01*
X52728359Y28453080D01*
X52902412Y28219731D01*
X53118645Y28024822D01*
X53235534Y27955195D01*
X53053368Y27833475D01*
X52846525Y27626632D01*
X52684010Y27383411D01*
X52572068Y27113158D01*
X52515000Y26826260D01*
X47270718Y26826260D01*
X47285000Y26898061D01*
X47285000Y27101939D01*
X47245226Y27301898D01*
X47167205Y27490256D01*
X47053937Y27659774D01*
X46909774Y27803937D01*
X46740256Y27917205D01*
X46551898Y27995226D01*
X46351939Y28035000D01*
X46148061Y28035000D01*
X45948102Y27995226D01*
X45759744Y27917205D01*
X45590226Y27803937D01*
X45546289Y27760000D01*
X38037322Y27760000D01*
X37999999Y27763676D01*
X37962676Y27760000D01*
X37962667Y27760000D01*
X37851014Y27749003D01*
X37707753Y27705546D01*
X37575724Y27634974D01*
X37575722Y27634973D01*
X37575723Y27634973D01*
X37488996Y27563799D01*
X37488992Y27563795D01*
X37459999Y27540001D01*
X37436205Y27511008D01*
X33989003Y24063804D01*
X33959999Y24040001D01*
X33922034Y23993740D01*
X33865026Y23924276D01*
X33854723Y23905000D01*
X33794454Y23792246D01*
X33750997Y23648985D01*
X33740000Y23537332D01*
X33740000Y23537322D01*
X33736324Y23500000D01*
X33740000Y23462677D01*
X33740001Y20703712D01*
X33696063Y20659774D01*
X33582795Y20490256D01*
X33504774Y20301898D01*
X33465000Y20101939D01*
X13051360Y20101939D01*
X12881355Y20255178D01*
X12764466Y20324805D01*
X12946632Y20446525D01*
X13153475Y20653368D01*
X13315990Y20896589D01*
X13427932Y21166842D01*
X13485000Y21453740D01*
X13485000Y21746260D01*
X13427932Y22033158D01*
X13315990Y22303411D01*
X13153475Y22546632D01*
X12946632Y22753475D01*
X12772240Y22870000D01*
X12946632Y22986525D01*
X13153475Y23193368D01*
X13315990Y23436589D01*
X13427932Y23706842D01*
X13485000Y23993740D01*
X13485000Y24286260D01*
X13427932Y24573158D01*
X13315990Y24843411D01*
X13153475Y25086632D01*
X12946632Y25293475D01*
X12772240Y25410000D01*
X12946632Y25526525D01*
X13153475Y25733368D01*
X13315990Y25976589D01*
X13427932Y26246842D01*
X13485000Y26533740D01*
X13485000Y26826260D01*
X13427932Y27113158D01*
X13418885Y27134999D01*
X13431615Y27134999D01*
X13509744Y27082795D01*
X13698102Y27004774D01*
X13898061Y26965000D01*
X14101939Y26965000D01*
X14301898Y27004774D01*
X14490256Y27082795D01*
X14659774Y27196063D01*
X14803937Y27340226D01*
X14917205Y27509744D01*
X14995226Y27698102D01*
X15035000Y27898061D01*
X15035000Y28101939D01*
X14995226Y28301898D01*
X14917205Y28490256D01*
X14803937Y28659774D01*
X14659774Y28803937D01*
X14490256Y28917205D01*
X14301898Y28995226D01*
X14101939Y29035000D01*
X13898061Y29035000D01*
X13698102Y28995226D01*
X13509744Y28917205D01*
X13445297Y28874143D01*
X13485000Y29073740D01*
X13485000Y29366260D01*
X13427932Y29653158D01*
X13315990Y29923411D01*
X13153475Y30166632D01*
X12946632Y30373475D01*
X12772240Y30490000D01*
X12946632Y30606525D01*
X13153475Y30813368D01*
X13315990Y31056589D01*
X13427932Y31326842D01*
X13485000Y31613740D01*
X13485000Y31906260D01*
X13427932Y32193158D01*
X13362164Y32351939D01*
X27214992Y32351939D01*
X27214992Y32148061D01*
X27254766Y31948102D01*
X27332787Y31759744D01*
X27446055Y31590226D01*
X27590218Y31446063D01*
X27759736Y31332795D01*
X27948094Y31254774D01*
X28148053Y31215000D01*
X28241465Y31215000D01*
X28254774Y31148092D01*
X28332795Y30959734D01*
X28446063Y30790216D01*
X28590226Y30646053D01*
X28759744Y30532785D01*
X28948102Y30454764D01*
X29148061Y30414990D01*
X29351939Y30414990D01*
X29551898Y30454764D01*
X29740256Y30532785D01*
X29909774Y30646053D01*
X29953711Y30689990D01*
X31546289Y30689990D01*
X31590226Y30646053D01*
X31759744Y30532785D01*
X31948102Y30454764D01*
X32148061Y30414990D01*
X32351939Y30414990D01*
X32551898Y30454764D01*
X32740256Y30532785D01*
X32909774Y30646053D01*
X33053937Y30790216D01*
X33167205Y30959734D01*
X33245226Y31148092D01*
X33285000Y31348051D01*
X33285000Y31415000D01*
X34136715Y31415000D01*
X34259744Y31332795D01*
X34448102Y31254774D01*
X34648061Y31215000D01*
X34851939Y31215000D01*
X35051898Y31254774D01*
X35240256Y31332795D01*
X35409774Y31446063D01*
X35553937Y31590226D01*
X35667205Y31759744D01*
X35745226Y31948102D01*
X35785000Y32148061D01*
X35785000Y32351939D01*
X35745226Y32551898D01*
X35667205Y32740256D01*
X35553937Y32909774D01*
X35409774Y33053937D01*
X35240256Y33167205D01*
X35051898Y33245226D01*
X34851939Y33285000D01*
X34648061Y33285000D01*
X34448102Y33245226D01*
X34259744Y33167205D01*
X34136715Y33085000D01*
X28863277Y33085000D01*
X28740248Y33167205D01*
X28551890Y33245226D01*
X28351931Y33285000D01*
X28148053Y33285000D01*
X27948094Y33245226D01*
X27759736Y33167205D01*
X27590218Y33053937D01*
X27446055Y32909774D01*
X27332787Y32740256D01*
X27254766Y32551898D01*
X27214992Y32351939D01*
X13362164Y32351939D01*
X13315990Y32463411D01*
X13153475Y32706632D01*
X12946632Y32913475D01*
X12772240Y33030000D01*
X12946632Y33146525D01*
X13153475Y33353368D01*
X13315990Y33596589D01*
X13427932Y33866842D01*
X13485000Y34153740D01*
X13485000Y34446260D01*
X13427932Y34733158D01*
X13315990Y35003411D01*
X13153475Y35246632D01*
X12946632Y35453475D01*
X12764466Y35575195D01*
X12881355Y35644822D01*
X13097588Y35839731D01*
X13271641Y36073080D01*
X13396825Y36335901D01*
X13441476Y36483110D01*
X13320155Y36713000D01*
X12127000Y36713000D01*
X12127000Y36693000D01*
X11873000Y36693000D01*
X11873000Y36713000D01*
X10679845Y36713000D01*
X10558524Y36483110D01*
X10603175Y36335901D01*
X10728359Y36073080D01*
X10902412Y35839731D01*
X11118645Y35644822D01*
X11235534Y35575195D01*
X11053368Y35453475D01*
X10846525Y35246632D01*
X10684010Y35003411D01*
X10572068Y34733158D01*
X10515000Y34446260D01*
X10515000Y34153740D01*
X10572068Y33866842D01*
X10684010Y33596589D01*
X10846525Y33353368D01*
X11053368Y33146525D01*
X11227760Y33030000D01*
X11053368Y32913475D01*
X10846525Y32706632D01*
X10684010Y32463411D01*
X10572068Y32193158D01*
X10515000Y31906260D01*
X10515000Y31613740D01*
X10572068Y31326842D01*
X10684010Y31056589D01*
X10846525Y30813368D01*
X11053368Y30606525D01*
X11227760Y30490000D01*
X11053368Y30373475D01*
X10846525Y30166632D01*
X10684010Y29923411D01*
X10572068Y29653158D01*
X10515000Y29366260D01*
X10515000Y29073740D01*
X10554701Y28874153D01*
X10490268Y28917205D01*
X10301910Y28995226D01*
X10101951Y29035000D01*
X9898073Y29035000D01*
X9698114Y28995226D01*
X9509756Y28917205D01*
X9340238Y28803937D01*
X9196075Y28659774D01*
X9082807Y28490256D01*
X9004786Y28301898D01*
X8965012Y28101939D01*
X660000Y28101939D01*
X660000Y31636370D01*
X745820Y31590498D01*
X865518Y31554188D01*
X990000Y31541928D01*
X2690000Y31541928D01*
X2814482Y31554188D01*
X2934180Y31590498D01*
X3044494Y31649463D01*
X3141185Y31728815D01*
X3220537Y31825506D01*
X3279502Y31935820D01*
X3301513Y32008380D01*
X3433368Y31876525D01*
X3676589Y31714010D01*
X3946842Y31602068D01*
X4233740Y31545000D01*
X4526260Y31545000D01*
X4813158Y31602068D01*
X5083411Y31714010D01*
X5326632Y31876525D01*
X5533475Y32083368D01*
X5655195Y32265534D01*
X5724822Y32148645D01*
X5919731Y31932412D01*
X6153080Y31758359D01*
X6415901Y31633175D01*
X6563110Y31588524D01*
X6793000Y31709845D01*
X6793000Y32903000D01*
X7047000Y32903000D01*
X7047000Y31709845D01*
X7276890Y31588524D01*
X7424099Y31633175D01*
X7686920Y31758359D01*
X7920269Y31932412D01*
X8115178Y32148645D01*
X8264157Y32398748D01*
X8361481Y32673109D01*
X8240814Y32903000D01*
X7047000Y32903000D01*
X6793000Y32903000D01*
X6773000Y32903000D01*
X6773000Y33157000D01*
X6793000Y33157000D01*
X6793000Y35443000D01*
X7047000Y35443000D01*
X7047000Y33157000D01*
X8240814Y33157000D01*
X8361481Y33386891D01*
X8264157Y33661252D01*
X8115178Y33911355D01*
X7920269Y34127588D01*
X7689120Y34300000D01*
X7920269Y34472412D01*
X8115178Y34688645D01*
X8264157Y34938748D01*
X8361481Y35213109D01*
X8240814Y35443000D01*
X7047000Y35443000D01*
X6793000Y35443000D01*
X6773000Y35443000D01*
X6773000Y35697000D01*
X6793000Y35697000D01*
X6793000Y37983000D01*
X7047000Y37983000D01*
X7047000Y35697000D01*
X8240814Y35697000D01*
X8361481Y35926891D01*
X8264157Y36201252D01*
X8115178Y36451355D01*
X7920269Y36667588D01*
X7689120Y36840000D01*
X7920269Y37012412D01*
X8115178Y37228645D01*
X8264157Y37478748D01*
X8361481Y37753109D01*
X8240814Y37983000D01*
X7047000Y37983000D01*
X6793000Y37983000D01*
X6773000Y37983000D01*
X6773000Y38237000D01*
X6793000Y38237000D01*
X6793000Y40523000D01*
X7047000Y40523000D01*
X7047000Y38237000D01*
X8240814Y38237000D01*
X8361481Y38466891D01*
X8264157Y38741252D01*
X8115178Y38991355D01*
X7920269Y39207588D01*
X7689120Y39380000D01*
X7920269Y39552412D01*
X8115178Y39768645D01*
X8264157Y40018748D01*
X8361481Y40293109D01*
X8240814Y40523000D01*
X7047000Y40523000D01*
X6793000Y40523000D01*
X6773000Y40523000D01*
X6773000Y40777000D01*
X6793000Y40777000D01*
X6793000Y41970155D01*
X7047000Y41970155D01*
X7047000Y40777000D01*
X8240814Y40777000D01*
X8361481Y41006891D01*
X8264157Y41281252D01*
X8115178Y41531355D01*
X7920269Y41747588D01*
X7686920Y41921641D01*
X7424099Y42046825D01*
X7360025Y42066260D01*
X10515000Y42066260D01*
X10515000Y41773740D01*
X10572068Y41486842D01*
X10684010Y41216589D01*
X10846525Y40973368D01*
X11053368Y40766525D01*
X11227760Y40650000D01*
X11053368Y40533475D01*
X10846525Y40326632D01*
X10684010Y40083411D01*
X10572068Y39813158D01*
X10515000Y39526260D01*
X10515000Y39233740D01*
X10572068Y38946842D01*
X10684010Y38676589D01*
X10846525Y38433368D01*
X11053368Y38226525D01*
X11235534Y38104805D01*
X11118645Y38035178D01*
X10902412Y37840269D01*
X10728359Y37606920D01*
X10603175Y37344099D01*
X10558524Y37196890D01*
X10679845Y36967000D01*
X11873000Y36967000D01*
X11873000Y36987000D01*
X12127000Y36987000D01*
X12127000Y36967000D01*
X13320155Y36967000D01*
X13441476Y37196890D01*
X13396825Y37344099D01*
X13271641Y37606920D01*
X13097588Y37840269D01*
X13019083Y37911033D01*
X33365000Y37911033D01*
X33365000Y37588967D01*
X33427832Y37273088D01*
X33551082Y36975537D01*
X33730013Y36707748D01*
X33957748Y36480013D01*
X34225537Y36301082D01*
X34523088Y36177832D01*
X34838967Y36115000D01*
X35161033Y36115000D01*
X35476912Y36177832D01*
X35774463Y36301082D01*
X36042252Y36480013D01*
X36269987Y36707748D01*
X36448918Y36975537D01*
X36572168Y37273088D01*
X36635000Y37588967D01*
X36635000Y37911033D01*
X39865000Y37911033D01*
X39865000Y37588967D01*
X39927832Y37273088D01*
X40051082Y36975537D01*
X40230013Y36707748D01*
X40457748Y36480013D01*
X40725537Y36301082D01*
X41023088Y36177832D01*
X41338967Y36115000D01*
X41661033Y36115000D01*
X41976912Y36177832D01*
X42274463Y36301082D01*
X42542252Y36480013D01*
X42769987Y36707748D01*
X42948918Y36975537D01*
X43072168Y37273088D01*
X43135000Y37588967D01*
X43135000Y37911033D01*
X43072168Y38226912D01*
X42948918Y38524463D01*
X42769987Y38792252D01*
X42542252Y39019987D01*
X42274463Y39198918D01*
X41976912Y39322168D01*
X41661033Y39385000D01*
X41338967Y39385000D01*
X41023088Y39322168D01*
X40725537Y39198918D01*
X40457748Y39019987D01*
X40230013Y38792252D01*
X40051082Y38524463D01*
X39927832Y38226912D01*
X39865000Y37911033D01*
X36635000Y37911033D01*
X36572168Y38226912D01*
X36448918Y38524463D01*
X36269987Y38792252D01*
X36042252Y39019987D01*
X35774463Y39198918D01*
X35476912Y39322168D01*
X35161033Y39385000D01*
X34838967Y39385000D01*
X34523088Y39322168D01*
X34225537Y39198918D01*
X33957748Y39019987D01*
X33730013Y38792252D01*
X33551082Y38524463D01*
X33427832Y38226912D01*
X33365000Y37911033D01*
X13019083Y37911033D01*
X12881355Y38035178D01*
X12764466Y38104805D01*
X12946632Y38226525D01*
X13153475Y38433368D01*
X13315990Y38676589D01*
X13364969Y38794836D01*
X13420001Y38839999D01*
X13443804Y38869003D01*
X15689388Y41114587D01*
X34044192Y41114587D01*
X34139956Y40850186D01*
X34429571Y40709296D01*
X34741108Y40627616D01*
X35062595Y40608282D01*
X35381675Y40652039D01*
X35686088Y40757205D01*
X35860044Y40850186D01*
X35955808Y41114587D01*
X40544192Y41114587D01*
X40639956Y40850186D01*
X40929571Y40709296D01*
X41241108Y40627616D01*
X41562595Y40608282D01*
X41881675Y40652039D01*
X42186088Y40757205D01*
X42360044Y40850186D01*
X42455808Y41114587D01*
X41500000Y42070395D01*
X40544192Y41114587D01*
X35955808Y41114587D01*
X35000000Y42070395D01*
X34044192Y41114587D01*
X15689388Y41114587D01*
X16762206Y42187405D01*
X33358282Y42187405D01*
X33402039Y41868325D01*
X33507205Y41563912D01*
X33600186Y41389956D01*
X33864587Y41294192D01*
X34820395Y42250000D01*
X35179605Y42250000D01*
X36135413Y41294192D01*
X36399814Y41389956D01*
X36540704Y41679571D01*
X36622384Y41991108D01*
X36634189Y42187405D01*
X39858282Y42187405D01*
X39902039Y41868325D01*
X40007205Y41563912D01*
X40100186Y41389956D01*
X40364587Y41294192D01*
X41320395Y42250000D01*
X41679605Y42250000D01*
X42635413Y41294192D01*
X42899814Y41389956D01*
X43040704Y41679571D01*
X43122384Y41991108D01*
X43126903Y42066260D01*
X52515000Y42066260D01*
X52515000Y41773740D01*
X52572068Y41486842D01*
X52684010Y41216589D01*
X52846525Y40973368D01*
X53053368Y40766525D01*
X53227760Y40650000D01*
X53053368Y40533475D01*
X52846525Y40326632D01*
X52684010Y40083411D01*
X52572068Y39813158D01*
X52515000Y39526260D01*
X52515000Y39233740D01*
X52572068Y38946842D01*
X52684010Y38676589D01*
X52846525Y38433368D01*
X53053368Y38226525D01*
X53227760Y38110000D01*
X53053368Y37993475D01*
X52846525Y37786632D01*
X52684010Y37543411D01*
X52572068Y37273158D01*
X52515000Y36986260D01*
X52515000Y36693740D01*
X52572068Y36406842D01*
X52684010Y36136589D01*
X52846525Y35893368D01*
X53053368Y35686525D01*
X53227760Y35570000D01*
X53053368Y35453475D01*
X52846525Y35246632D01*
X52684010Y35003411D01*
X52572068Y34733158D01*
X52515000Y34446260D01*
X52515000Y34153740D01*
X52572068Y33866842D01*
X52684010Y33596589D01*
X52846525Y33353368D01*
X53053368Y33146525D01*
X53227760Y33030000D01*
X53053368Y32913475D01*
X52846525Y32706632D01*
X52684010Y32463411D01*
X52572068Y32193158D01*
X52515000Y31906260D01*
X52515000Y31613740D01*
X52572068Y31326842D01*
X52684010Y31056589D01*
X52846525Y30813368D01*
X53053368Y30606525D01*
X53235534Y30484805D01*
X53118645Y30415178D01*
X52902412Y30220269D01*
X52728359Y29986920D01*
X52603175Y29724099D01*
X52558524Y29576890D01*
X52679845Y29347000D01*
X53873000Y29347000D01*
X53873000Y29367000D01*
X54127000Y29367000D01*
X54127000Y29347000D01*
X55320155Y29347000D01*
X55441476Y29576890D01*
X55396825Y29724099D01*
X55271641Y29986920D01*
X55097588Y30220269D01*
X54881355Y30415178D01*
X54764466Y30484805D01*
X54772240Y30490000D01*
X59882718Y30490000D01*
X59911776Y30194968D01*
X59997834Y29911275D01*
X60137583Y29649821D01*
X60325655Y29420655D01*
X60554821Y29232583D01*
X60578362Y29220000D01*
X60554821Y29207417D01*
X60325655Y29019345D01*
X60137583Y28790179D01*
X59997834Y28528725D01*
X59911776Y28245032D01*
X59882718Y27950000D01*
X59911776Y27654968D01*
X59997834Y27371275D01*
X60137583Y27109821D01*
X60325655Y26880655D01*
X60554821Y26692583D01*
X60578362Y26680000D01*
X60554821Y26667417D01*
X60325655Y26479345D01*
X60137583Y26250179D01*
X59997834Y25988725D01*
X59911776Y25705032D01*
X59882718Y25410000D01*
X59911776Y25114968D01*
X59997834Y24831275D01*
X60137583Y24569821D01*
X60325655Y24340655D01*
X60554821Y24152583D01*
X60578362Y24140000D01*
X60554821Y24127417D01*
X60325655Y23939345D01*
X60137583Y23710179D01*
X59997834Y23448725D01*
X59911776Y23165032D01*
X59882718Y22870000D01*
X59911776Y22574968D01*
X59997834Y22291275D01*
X60137583Y22029821D01*
X60325655Y21800655D01*
X60554821Y21612583D01*
X60816275Y21472834D01*
X61099968Y21386776D01*
X61321064Y21365000D01*
X61918936Y21365000D01*
X62140032Y21386776D01*
X62423725Y21472834D01*
X62685179Y21612583D01*
X62914345Y21800655D01*
X63102417Y22029821D01*
X63242166Y22291275D01*
X63328224Y22574968D01*
X63357282Y22870000D01*
X63328224Y23165032D01*
X63242166Y23448725D01*
X63102417Y23710179D01*
X62914345Y23939345D01*
X62685179Y24127417D01*
X62661638Y24140000D01*
X62685179Y24152583D01*
X62914345Y24340655D01*
X63102417Y24569821D01*
X63242166Y24831275D01*
X63328224Y25114968D01*
X63357282Y25410000D01*
X63328224Y25705032D01*
X63242166Y25988725D01*
X63102417Y26250179D01*
X62914345Y26479345D01*
X62685179Y26667417D01*
X62661638Y26680000D01*
X62685179Y26692583D01*
X62914345Y26880655D01*
X63102417Y27109821D01*
X63242166Y27371275D01*
X63328224Y27654968D01*
X63357282Y27950000D01*
X63328224Y28245032D01*
X63242166Y28528725D01*
X63102417Y28790179D01*
X62914345Y29019345D01*
X62685179Y29207417D01*
X62661638Y29220000D01*
X62685179Y29232583D01*
X62914345Y29420655D01*
X63102417Y29649821D01*
X63242166Y29911275D01*
X63328224Y30194968D01*
X63357282Y30490000D01*
X63328224Y30785032D01*
X63242166Y31068725D01*
X63102417Y31330179D01*
X62914345Y31559345D01*
X62685179Y31747417D01*
X62656848Y31762560D01*
X62797433Y31855292D01*
X63008306Y32063674D01*
X63174474Y32309191D01*
X63289551Y32582409D01*
X63306302Y32669969D01*
X63185246Y32903000D01*
X61747000Y32903000D01*
X61747000Y32883000D01*
X61493000Y32883000D01*
X61493000Y32903000D01*
X60054754Y32903000D01*
X59933698Y32669969D01*
X59950449Y32582409D01*
X60065526Y32309191D01*
X60231694Y32063674D01*
X60442567Y31855292D01*
X60583152Y31762560D01*
X60554821Y31747417D01*
X60325655Y31559345D01*
X60137583Y31330179D01*
X59997834Y31068725D01*
X59911776Y30785032D01*
X59882718Y30490000D01*
X54772240Y30490000D01*
X54946632Y30606525D01*
X55153475Y30813368D01*
X55315990Y31056589D01*
X55427932Y31326842D01*
X55485000Y31613740D01*
X55485000Y31906260D01*
X55427932Y32193158D01*
X55315990Y32463411D01*
X55153475Y32706632D01*
X54946632Y32913475D01*
X54772240Y33030000D01*
X54946632Y33146525D01*
X55153475Y33353368D01*
X55315990Y33596589D01*
X55427932Y33866842D01*
X55485000Y34153740D01*
X55485000Y34446260D01*
X55427932Y34733158D01*
X55315990Y35003411D01*
X55153475Y35246632D01*
X54946632Y35453475D01*
X54772240Y35570000D01*
X54946632Y35686525D01*
X55153475Y35893368D01*
X55315990Y36136589D01*
X55338113Y36190001D01*
X59886928Y36190001D01*
X59886928Y34949999D01*
X59903992Y34776745D01*
X59954528Y34610149D01*
X60036595Y34456613D01*
X60147038Y34322038D01*
X60281613Y34211595D01*
X60390590Y34153345D01*
X60231694Y33996326D01*
X60065526Y33750809D01*
X59950449Y33477591D01*
X59933698Y33390031D01*
X60054754Y33157000D01*
X61493000Y33157000D01*
X61493000Y33177000D01*
X61747000Y33177000D01*
X61747000Y33157000D01*
X63185246Y33157000D01*
X63306302Y33390031D01*
X63289551Y33477591D01*
X63174474Y33750809D01*
X63008306Y33996326D01*
X62849410Y34153345D01*
X62958387Y34211595D01*
X63092962Y34322038D01*
X63203405Y34456613D01*
X63285472Y34610149D01*
X63336008Y34776745D01*
X63353072Y34949999D01*
X63353072Y36190001D01*
X63336008Y36363255D01*
X63285472Y36529851D01*
X63203405Y36683387D01*
X63092962Y36817962D01*
X62958387Y36928405D01*
X62804851Y37010472D01*
X62638255Y37061008D01*
X62465001Y37078072D01*
X60774999Y37078072D01*
X60601745Y37061008D01*
X60435149Y37010472D01*
X60281613Y36928405D01*
X60147038Y36817962D01*
X60036595Y36683387D01*
X59954528Y36529851D01*
X59903992Y36363255D01*
X59886928Y36190001D01*
X55338113Y36190001D01*
X55427932Y36406842D01*
X55485000Y36693740D01*
X55485000Y36986260D01*
X55427932Y37273158D01*
X55315990Y37543411D01*
X55153475Y37786632D01*
X54946632Y37993475D01*
X54772240Y38110000D01*
X54946632Y38226525D01*
X55153475Y38433368D01*
X55315990Y38676589D01*
X55427932Y38946842D01*
X55485000Y39233740D01*
X55485000Y39526260D01*
X55427932Y39813158D01*
X55315990Y40083411D01*
X55153475Y40326632D01*
X54946632Y40533475D01*
X54772240Y40650000D01*
X54946632Y40766525D01*
X55153475Y40973368D01*
X55315990Y41216589D01*
X55427932Y41486842D01*
X55485000Y41773740D01*
X55485000Y42066260D01*
X55427932Y42353158D01*
X55315990Y42623411D01*
X55153475Y42866632D01*
X54946632Y43073475D01*
X54764466Y43195195D01*
X54881355Y43264822D01*
X55097588Y43459731D01*
X55271641Y43693080D01*
X55396825Y43955901D01*
X55441476Y44103110D01*
X55320155Y44333000D01*
X54127000Y44333000D01*
X54127000Y44313000D01*
X53873000Y44313000D01*
X53873000Y44333000D01*
X52679845Y44333000D01*
X52558524Y44103110D01*
X52603175Y43955901D01*
X52728359Y43693080D01*
X52902412Y43459731D01*
X53118645Y43264822D01*
X53235534Y43195195D01*
X53053368Y43073475D01*
X52846525Y42866632D01*
X52684010Y42623411D01*
X52572068Y42353158D01*
X52515000Y42066260D01*
X43126903Y42066260D01*
X43141718Y42312595D01*
X43097961Y42631675D01*
X42992795Y42936088D01*
X42899814Y43110044D01*
X42635413Y43205808D01*
X41679605Y42250000D01*
X41320395Y42250000D01*
X40364587Y43205808D01*
X40100186Y43110044D01*
X39959296Y42820429D01*
X39877616Y42508892D01*
X39858282Y42187405D01*
X36634189Y42187405D01*
X36641718Y42312595D01*
X36597961Y42631675D01*
X36492795Y42936088D01*
X36399814Y43110044D01*
X36135413Y43205808D01*
X35179605Y42250000D01*
X34820395Y42250000D01*
X33864587Y43205808D01*
X33600186Y43110044D01*
X33459296Y42820429D01*
X33377616Y42508892D01*
X33358282Y42187405D01*
X16762206Y42187405D01*
X17539802Y42965000D01*
X17601939Y42965000D01*
X17801898Y43004774D01*
X17990256Y43082795D01*
X18159774Y43196063D01*
X18303937Y43340226D01*
X18334129Y43385413D01*
X34044192Y43385413D01*
X35000000Y42429605D01*
X35955808Y43385413D01*
X40544192Y43385413D01*
X41500000Y42429605D01*
X42455808Y43385413D01*
X42360044Y43649814D01*
X42070429Y43790704D01*
X41758892Y43872384D01*
X41437405Y43891718D01*
X41118325Y43847961D01*
X40813912Y43742795D01*
X40639956Y43649814D01*
X40544192Y43385413D01*
X35955808Y43385413D01*
X35860044Y43649814D01*
X35570429Y43790704D01*
X35258892Y43872384D01*
X34937405Y43891718D01*
X34618325Y43847961D01*
X34313912Y43742795D01*
X34139956Y43649814D01*
X34044192Y43385413D01*
X18334129Y43385413D01*
X18417205Y43509744D01*
X18495226Y43698102D01*
X18535000Y43898061D01*
X18535000Y44101939D01*
X18495226Y44301898D01*
X18417205Y44490256D01*
X18303937Y44659774D01*
X18159774Y44803937D01*
X17990256Y44917205D01*
X17801898Y44995226D01*
X17601939Y45035000D01*
X17398061Y45035000D01*
X17198102Y44995226D01*
X17009744Y44917205D01*
X16840226Y44803937D01*
X16696063Y44659774D01*
X16582795Y44490256D01*
X16504774Y44301898D01*
X16465000Y44101939D01*
X16465000Y44039802D01*
X12952653Y40527454D01*
X12946632Y40533475D01*
X12772240Y40650000D01*
X12946632Y40766525D01*
X13153475Y40973368D01*
X13315990Y41216589D01*
X13427932Y41486842D01*
X13485000Y41773740D01*
X13485000Y42066260D01*
X13427932Y42353158D01*
X13315990Y42623411D01*
X13153475Y42866632D01*
X12946632Y43073475D01*
X12764466Y43195195D01*
X12881355Y43264822D01*
X13097588Y43459731D01*
X13271641Y43693080D01*
X13396825Y43955901D01*
X13441476Y44103110D01*
X13320155Y44333000D01*
X12127000Y44333000D01*
X12127000Y44313000D01*
X11873000Y44313000D01*
X11873000Y44333000D01*
X10679845Y44333000D01*
X10558524Y44103110D01*
X10603175Y43955901D01*
X10728359Y43693080D01*
X10902412Y43459731D01*
X11118645Y43264822D01*
X11235534Y43195195D01*
X11053368Y43073475D01*
X10846525Y42866632D01*
X10684010Y42623411D01*
X10572068Y42353158D01*
X10515000Y42066260D01*
X7360025Y42066260D01*
X7276890Y42091476D01*
X7047000Y41970155D01*
X6793000Y41970155D01*
X6563110Y42091476D01*
X6415901Y42046825D01*
X6153080Y41921641D01*
X5919731Y41747588D01*
X5724822Y41531355D01*
X5655195Y41414466D01*
X5533475Y41596632D01*
X5326632Y41803475D01*
X5083411Y41965990D01*
X4813158Y42077932D01*
X4526260Y42135000D01*
X4233740Y42135000D01*
X3946842Y42077932D01*
X3676589Y41965990D01*
X3433368Y41803475D01*
X3301513Y41671620D01*
X3279502Y41744180D01*
X3220537Y41854494D01*
X3141185Y41951185D01*
X3044494Y42030537D01*
X2934180Y42089502D01*
X2814482Y42125812D01*
X2690000Y42138072D01*
X990000Y42138072D01*
X865518Y42125812D01*
X745820Y42089502D01*
X660000Y42043630D01*
X660000Y46220128D01*
X1765000Y46220128D01*
X1765000Y45779872D01*
X1850890Y45348075D01*
X2019369Y44941331D01*
X2263962Y44575271D01*
X2575271Y44263962D01*
X2941331Y44019369D01*
X3348075Y43850890D01*
X3779872Y43765000D01*
X4220128Y43765000D01*
X4651925Y43850890D01*
X5058669Y44019369D01*
X5424729Y44263962D01*
X5736038Y44575271D01*
X5980631Y44941331D01*
X6149110Y45348075D01*
X6235000Y45779872D01*
X6235000Y46150000D01*
X10511928Y46150000D01*
X10524188Y46025518D01*
X10560498Y45905820D01*
X10619463Y45795506D01*
X10698815Y45698815D01*
X10795506Y45619463D01*
X10905820Y45560498D01*
X10986466Y45536034D01*
X10902412Y45460269D01*
X10728359Y45226920D01*
X10603175Y44964099D01*
X10558524Y44816890D01*
X10679845Y44587000D01*
X11873000Y44587000D01*
X11873000Y46873000D01*
X12127000Y46873000D01*
X12127000Y44587000D01*
X13320155Y44587000D01*
X13441476Y44816890D01*
X13396825Y44964099D01*
X13271641Y45226920D01*
X13142543Y45400000D01*
X33461928Y45400000D01*
X33474188Y45275518D01*
X33510498Y45155820D01*
X33569463Y45045506D01*
X33648815Y44948815D01*
X33745506Y44869463D01*
X33855820Y44810498D01*
X33975518Y44774188D01*
X34100000Y44761928D01*
X34664250Y44765000D01*
X34823000Y44923750D01*
X34823000Y46123000D01*
X33623750Y46123000D01*
X33465000Y45964250D01*
X33461928Y45400000D01*
X13142543Y45400000D01*
X13097588Y45460269D01*
X13013534Y45536034D01*
X13094180Y45560498D01*
X13204494Y45619463D01*
X13301185Y45698815D01*
X13380537Y45795506D01*
X13439502Y45905820D01*
X13475812Y46025518D01*
X13488072Y46150000D01*
X13485000Y46714250D01*
X13326250Y46873000D01*
X12127000Y46873000D01*
X11873000Y46873000D01*
X10673750Y46873000D01*
X10515000Y46714250D01*
X10511928Y46150000D01*
X6235000Y46150000D01*
X6235000Y46220128D01*
X6149110Y46651925D01*
X5980631Y47058669D01*
X5953015Y47100000D01*
X33461928Y47100000D01*
X33465000Y46535750D01*
X33623750Y46377000D01*
X34823000Y46377000D01*
X34823000Y47576250D01*
X35077000Y47576250D01*
X35077000Y46377000D01*
X35097000Y46377000D01*
X35097000Y46123000D01*
X35077000Y46123000D01*
X35077000Y44923750D01*
X35235750Y44765000D01*
X35800000Y44761928D01*
X35924482Y44774188D01*
X36044180Y44810498D01*
X36154494Y44869463D01*
X36251185Y44948815D01*
X36330537Y45045506D01*
X36389502Y45155820D01*
X36411513Y45228380D01*
X36543368Y45096525D01*
X36786589Y44934010D01*
X37056842Y44822068D01*
X37343740Y44765000D01*
X37636260Y44765000D01*
X37923158Y44822068D01*
X38193411Y44934010D01*
X38436632Y45096525D01*
X38643475Y45303368D01*
X38760000Y45477760D01*
X38876525Y45303368D01*
X39083368Y45096525D01*
X39326589Y44934010D01*
X39596842Y44822068D01*
X39883740Y44765000D01*
X40176260Y44765000D01*
X40463158Y44822068D01*
X40733411Y44934010D01*
X40976632Y45096525D01*
X41183475Y45303368D01*
X41300000Y45477760D01*
X41416525Y45303368D01*
X41623368Y45096525D01*
X41866589Y44934010D01*
X42136842Y44822068D01*
X42423740Y44765000D01*
X42716260Y44765000D01*
X43003158Y44822068D01*
X43273411Y44934010D01*
X43516632Y45096525D01*
X43723475Y45303368D01*
X43840000Y45477760D01*
X43956525Y45303368D01*
X44163368Y45096525D01*
X44406589Y44934010D01*
X44676842Y44822068D01*
X44963740Y44765000D01*
X45256260Y44765000D01*
X45543158Y44822068D01*
X45813411Y44934010D01*
X46056632Y45096525D01*
X46263475Y45303368D01*
X46380000Y45477760D01*
X46496525Y45303368D01*
X46703368Y45096525D01*
X46946589Y44934010D01*
X47216842Y44822068D01*
X47503740Y44765000D01*
X47796260Y44765000D01*
X48083158Y44822068D01*
X48353411Y44934010D01*
X48596632Y45096525D01*
X48803475Y45303368D01*
X48965990Y45546589D01*
X49077932Y45816842D01*
X49135000Y46103740D01*
X49135000Y46150000D01*
X52511928Y46150000D01*
X52524188Y46025518D01*
X52560498Y45905820D01*
X52619463Y45795506D01*
X52698815Y45698815D01*
X52795506Y45619463D01*
X52905820Y45560498D01*
X52986466Y45536034D01*
X52902412Y45460269D01*
X52728359Y45226920D01*
X52603175Y44964099D01*
X52558524Y44816890D01*
X52679845Y44587000D01*
X53873000Y44587000D01*
X53873000Y46873000D01*
X54127000Y46873000D01*
X54127000Y44587000D01*
X55320155Y44587000D01*
X55441476Y44816890D01*
X55396825Y44964099D01*
X55271641Y45226920D01*
X55097588Y45460269D01*
X55013534Y45536034D01*
X55094180Y45560498D01*
X55204494Y45619463D01*
X55301185Y45698815D01*
X55380537Y45795506D01*
X55439502Y45905820D01*
X55475812Y46025518D01*
X55488072Y46150000D01*
X55487691Y46220128D01*
X59765000Y46220128D01*
X59765000Y45779872D01*
X59850890Y45348075D01*
X60019369Y44941331D01*
X60263962Y44575271D01*
X60575271Y44263962D01*
X60941331Y44019369D01*
X61348075Y43850890D01*
X61779872Y43765000D01*
X62220128Y43765000D01*
X62651925Y43850890D01*
X63058669Y44019369D01*
X63424729Y44263962D01*
X63736038Y44575271D01*
X63980631Y44941331D01*
X64149110Y45348075D01*
X64235000Y45779872D01*
X64235000Y46220128D01*
X64149110Y46651925D01*
X63980631Y47058669D01*
X63736038Y47424729D01*
X63424729Y47736038D01*
X63058669Y47980631D01*
X62651925Y48149110D01*
X62220128Y48235000D01*
X61779872Y48235000D01*
X61348075Y48149110D01*
X60941331Y47980631D01*
X60575271Y47736038D01*
X60263962Y47424729D01*
X60019369Y47058669D01*
X59850890Y46651925D01*
X59765000Y46220128D01*
X55487691Y46220128D01*
X55485000Y46714250D01*
X55326250Y46873000D01*
X54127000Y46873000D01*
X53873000Y46873000D01*
X52673750Y46873000D01*
X52515000Y46714250D01*
X52511928Y46150000D01*
X49135000Y46150000D01*
X49135000Y46396260D01*
X49077932Y46683158D01*
X48965990Y46953411D01*
X48803475Y47196632D01*
X48596632Y47403475D01*
X48353411Y47565990D01*
X48083158Y47677932D01*
X47796260Y47735000D01*
X47503740Y47735000D01*
X47216842Y47677932D01*
X46946589Y47565990D01*
X46703368Y47403475D01*
X46496525Y47196632D01*
X46380000Y47022240D01*
X46263475Y47196632D01*
X46056632Y47403475D01*
X45813411Y47565990D01*
X45543158Y47677932D01*
X45256260Y47735000D01*
X44963740Y47735000D01*
X44676842Y47677932D01*
X44406589Y47565990D01*
X44163368Y47403475D01*
X43956525Y47196632D01*
X43840000Y47022240D01*
X43723475Y47196632D01*
X43516632Y47403475D01*
X43273411Y47565990D01*
X43003158Y47677932D01*
X42716260Y47735000D01*
X42423740Y47735000D01*
X42136842Y47677932D01*
X41866589Y47565990D01*
X41623368Y47403475D01*
X41416525Y47196632D01*
X41300000Y47022240D01*
X41183475Y47196632D01*
X40976632Y47403475D01*
X40733411Y47565990D01*
X40463158Y47677932D01*
X40176260Y47735000D01*
X39883740Y47735000D01*
X39596842Y47677932D01*
X39326589Y47565990D01*
X39083368Y47403475D01*
X38876525Y47196632D01*
X38760000Y47022240D01*
X38643475Y47196632D01*
X38436632Y47403475D01*
X38193411Y47565990D01*
X37923158Y47677932D01*
X37636260Y47735000D01*
X37343740Y47735000D01*
X37056842Y47677932D01*
X36786589Y47565990D01*
X36543368Y47403475D01*
X36411513Y47271620D01*
X36389502Y47344180D01*
X36330537Y47454494D01*
X36251185Y47551185D01*
X36154494Y47630537D01*
X36044180Y47689502D01*
X35924482Y47725812D01*
X35800000Y47738072D01*
X35235750Y47735000D01*
X35077000Y47576250D01*
X34823000Y47576250D01*
X34664250Y47735000D01*
X34100000Y47738072D01*
X33975518Y47725812D01*
X33855820Y47689502D01*
X33745506Y47630537D01*
X33648815Y47551185D01*
X33569463Y47454494D01*
X33510498Y47344180D01*
X33474188Y47224482D01*
X33461928Y47100000D01*
X5953015Y47100000D01*
X5736038Y47424729D01*
X5424729Y47736038D01*
X5254173Y47850000D01*
X10511928Y47850000D01*
X10515000Y47285750D01*
X10673750Y47127000D01*
X11873000Y47127000D01*
X11873000Y48326250D01*
X12127000Y48326250D01*
X12127000Y47127000D01*
X13326250Y47127000D01*
X13485000Y47285750D01*
X13488072Y47850000D01*
X52511928Y47850000D01*
X52515000Y47285750D01*
X52673750Y47127000D01*
X53873000Y47127000D01*
X53873000Y48326250D01*
X54127000Y48326250D01*
X54127000Y47127000D01*
X55326250Y47127000D01*
X55485000Y47285750D01*
X55488072Y47850000D01*
X55475812Y47974482D01*
X55439502Y48094180D01*
X55380537Y48204494D01*
X55301185Y48301185D01*
X55204494Y48380537D01*
X55094180Y48439502D01*
X54974482Y48475812D01*
X54850000Y48488072D01*
X54285750Y48485000D01*
X54127000Y48326250D01*
X53873000Y48326250D01*
X53714250Y48485000D01*
X53150000Y48488072D01*
X53025518Y48475812D01*
X52905820Y48439502D01*
X52795506Y48380537D01*
X52698815Y48301185D01*
X52619463Y48204494D01*
X52560498Y48094180D01*
X52524188Y47974482D01*
X52511928Y47850000D01*
X13488072Y47850000D01*
X13475812Y47974482D01*
X13439502Y48094180D01*
X13380537Y48204494D01*
X13301185Y48301185D01*
X13204494Y48380537D01*
X13094180Y48439502D01*
X12974482Y48475812D01*
X12850000Y48488072D01*
X12285750Y48485000D01*
X12127000Y48326250D01*
X11873000Y48326250D01*
X11714250Y48485000D01*
X11150000Y48488072D01*
X11025518Y48475812D01*
X10905820Y48439502D01*
X10795506Y48380537D01*
X10698815Y48301185D01*
X10619463Y48204494D01*
X10560498Y48094180D01*
X10524188Y47974482D01*
X10511928Y47850000D01*
X5254173Y47850000D01*
X5058669Y47980631D01*
X4651925Y48149110D01*
X4220128Y48235000D01*
X3779872Y48235000D01*
X3348075Y48149110D01*
X2941331Y47980631D01*
X2575271Y47736038D01*
X2263962Y47424729D01*
X2019369Y47058669D01*
X1850890Y46651925D01*
X1765000Y46220128D01*
X660000Y46220128D01*
X660000Y46967721D01*
X707670Y47453893D01*
X839489Y47890498D01*
X1053600Y48293185D01*
X1341848Y48646612D01*
X1693261Y48937327D01*
X2094439Y49154242D01*
X2530113Y49289106D01*
X3014344Y49340000D01*
X62967721Y49340000D01*
X63453893Y49292330D01*
G37*
X63453893Y49292330D02*
X63890498Y49160511D01*
X64293185Y48946400D01*
X64646612Y48658152D01*
X64937327Y48306739D01*
X65154242Y47905561D01*
X65289106Y47469887D01*
X65340000Y46985656D01*
X65340001Y3032289D01*
X65292330Y2546106D01*
X65160512Y2109503D01*
X64946399Y1706814D01*
X64658150Y1353387D01*
X64306739Y1062673D01*
X63905564Y845760D01*
X63469886Y710894D01*
X62985664Y660000D01*
X3032279Y660000D01*
X2546106Y707670D01*
X2109503Y839488D01*
X1706814Y1053601D01*
X1353387Y1341850D01*
X1062673Y1693261D01*
X845760Y2094436D01*
X710894Y2530114D01*
X660000Y3014336D01*
X660000Y4220128D01*
X1765000Y4220128D01*
X1765000Y3779872D01*
X1850890Y3348075D01*
X2019369Y2941331D01*
X2263962Y2575271D01*
X2575271Y2263962D01*
X2941331Y2019369D01*
X3348075Y1850890D01*
X3779872Y1765000D01*
X4220128Y1765000D01*
X4651925Y1850890D01*
X5058669Y2019369D01*
X5424729Y2263962D01*
X5736038Y2575271D01*
X5980631Y2941331D01*
X6149110Y3348075D01*
X6235000Y3779872D01*
X6235000Y4220128D01*
X6149110Y4651925D01*
X5980631Y5058669D01*
X5736038Y5424729D01*
X5424729Y5736038D01*
X5058669Y5980631D01*
X4651925Y6149110D01*
X4220128Y6235000D01*
X3779872Y6235000D01*
X3348075Y6149110D01*
X2941331Y5980631D01*
X2575271Y5736038D01*
X2263962Y5424729D01*
X2019369Y5058669D01*
X1850890Y4651925D01*
X1765000Y4220128D01*
X660000Y4220128D01*
X660000Y11815630D01*
X10175813Y2299816D01*
X10231708Y2231708D01*
X10503509Y2008646D01*
X10813605Y1842896D01*
X11150079Y1740828D01*
X11412317Y1715000D01*
X11412324Y1715000D01*
X11499999Y1706365D01*
X11587675Y1715000D01*
X18857722Y1715000D01*
X18889528Y1610149D01*
X18971595Y1456613D01*
X19082038Y1322038D01*
X19216613Y1211595D01*
X19370149Y1129528D01*
X19536745Y1078992D01*
X19709999Y1061928D01*
X21290001Y1061928D01*
X21463255Y1078992D01*
X21629851Y1129528D01*
X21783387Y1211595D01*
X21917962Y1322038D01*
X22028405Y1456613D01*
X22110472Y1610149D01*
X22161008Y1776745D01*
X22178072Y1949999D01*
X22178072Y2882727D01*
X22259172Y3150079D01*
X22281127Y3373000D01*
X23905000Y3373000D01*
X23905000Y2613000D01*
X23961961Y2288664D01*
X24081102Y1981673D01*
X24257845Y1703824D01*
X24485398Y1465794D01*
X24755016Y1276731D01*
X25056337Y1143901D01*
X25193290Y1110252D01*
X25453000Y1229078D01*
X25453000Y3373000D01*
X25707000Y3373000D01*
X25707000Y1229078D01*
X25966710Y1110252D01*
X26103663Y1143901D01*
X26404984Y1276731D01*
X26674602Y1465794D01*
X26902155Y1703824D01*
X27078898Y1981673D01*
X27198039Y2288664D01*
X27255000Y2613000D01*
X27255000Y3373000D01*
X28985000Y3373000D01*
X28985000Y2613000D01*
X29041961Y2288664D01*
X29161102Y1981673D01*
X29337845Y1703824D01*
X29565398Y1465794D01*
X29835016Y1276731D01*
X30136337Y1143901D01*
X30273290Y1110252D01*
X30533000Y1229078D01*
X30533000Y3373000D01*
X30787000Y3373000D01*
X30787000Y1229078D01*
X31046710Y1110252D01*
X31183663Y1143901D01*
X31484984Y1276731D01*
X31754602Y1465794D01*
X31982155Y1703824D01*
X32158898Y1981673D01*
X32278039Y2288664D01*
X32335000Y2613000D01*
X32335000Y3373000D01*
X30787000Y3373000D01*
X30533000Y3373000D01*
X28985000Y3373000D01*
X27255000Y3373000D01*
X25707000Y3373000D01*
X25453000Y3373000D01*
X23905000Y3373000D01*
X22281127Y3373000D01*
X22293636Y3500000D01*
X22285000Y3587683D01*
X22285000Y4387000D01*
X23905000Y4387000D01*
X23905000Y3627000D01*
X25453000Y3627000D01*
X25453000Y5770922D01*
X25707000Y5770922D01*
X25707000Y3627000D01*
X27255000Y3627000D01*
X27255000Y4387000D01*
X28985000Y4387000D01*
X28985000Y3627000D01*
X30533000Y3627000D01*
X30533000Y5770922D01*
X30787000Y5770922D01*
X30787000Y3627000D01*
X32335000Y3627000D01*
X32335000Y4342281D01*
X34065000Y4342281D01*
X34065000Y2657718D01*
X34089236Y2411643D01*
X34185016Y2095904D01*
X34340551Y1804918D01*
X34549867Y1549866D01*
X34804919Y1340550D01*
X35095905Y1185015D01*
X35411644Y1089236D01*
X35740000Y1056896D01*
X36068357Y1089236D01*
X36384096Y1185015D01*
X36675082Y1340550D01*
X36930134Y1549866D01*
X37139450Y1804918D01*
X37294985Y2095904D01*
X37390764Y2411643D01*
X37415000Y2657718D01*
X37415000Y4342282D01*
X37390764Y4588357D01*
X37294985Y4904096D01*
X37216998Y5050001D01*
X42321928Y5050001D01*
X42321928Y1949999D01*
X42338992Y1776745D01*
X42389528Y1610149D01*
X42471595Y1456613D01*
X42582038Y1322038D01*
X42716613Y1211595D01*
X42870149Y1129528D01*
X43036745Y1078992D01*
X43209999Y1061928D01*
X44790001Y1061928D01*
X44963255Y1078992D01*
X45129851Y1129528D01*
X45283387Y1211595D01*
X45417962Y1322038D01*
X45528405Y1456613D01*
X45610472Y1610149D01*
X45661008Y1776745D01*
X45678072Y1949999D01*
X45678072Y4342281D01*
X47405000Y4342281D01*
X47405000Y2657718D01*
X47429236Y2411643D01*
X47525016Y2095904D01*
X47680551Y1804918D01*
X47889867Y1549866D01*
X48144919Y1340550D01*
X48435905Y1185015D01*
X48751644Y1089236D01*
X49080000Y1056896D01*
X49408357Y1089236D01*
X49724096Y1185015D01*
X50015082Y1340550D01*
X50270134Y1549866D01*
X50479450Y1804918D01*
X50634985Y2095904D01*
X50730764Y2411643D01*
X50755000Y2657718D01*
X50755000Y4220128D01*
X59765000Y4220128D01*
X59765000Y3779872D01*
X59850890Y3348075D01*
X60019369Y2941331D01*
X60263962Y2575271D01*
X60575271Y2263962D01*
X60941331Y2019369D01*
X61348075Y1850890D01*
X61779872Y1765000D01*
X62220128Y1765000D01*
X62651925Y1850890D01*
X63058669Y2019369D01*
X63424729Y2263962D01*
X63736038Y2575271D01*
X63980631Y2941331D01*
X64149110Y3348075D01*
X64235000Y3779872D01*
X64235000Y4220128D01*
X64149110Y4651925D01*
X63980631Y5058669D01*
X63736038Y5424729D01*
X63424729Y5736038D01*
X63058669Y5980631D01*
X62651925Y6149110D01*
X62220128Y6235000D01*
X61779872Y6235000D01*
X61348075Y6149110D01*
X60941331Y5980631D01*
X60575271Y5736038D01*
X60263962Y5424729D01*
X60019369Y5058669D01*
X59850890Y4651925D01*
X59765000Y4220128D01*
X50755000Y4220128D01*
X50755000Y4342282D01*
X50730764Y4588357D01*
X50634985Y4904096D01*
X50479450Y5195082D01*
X50270134Y5450134D01*
X50015081Y5659450D01*
X49724095Y5814985D01*
X49408356Y5910764D01*
X49080000Y5943104D01*
X48751643Y5910764D01*
X48435904Y5814985D01*
X48144918Y5659450D01*
X47889866Y5450134D01*
X47680550Y5195081D01*
X47525015Y4904095D01*
X47429236Y4588356D01*
X47405000Y4342281D01*
X45678072Y4342281D01*
X45678072Y5050001D01*
X45661008Y5223255D01*
X45610472Y5389851D01*
X45528405Y5543387D01*
X45417962Y5677962D01*
X45283387Y5788405D01*
X45129851Y5870472D01*
X44963255Y5921008D01*
X44790001Y5938072D01*
X43209999Y5938072D01*
X43036745Y5921008D01*
X42870149Y5870472D01*
X42716613Y5788405D01*
X42582038Y5677962D01*
X42471595Y5543387D01*
X42389528Y5389851D01*
X42338992Y5223255D01*
X42321928Y5050001D01*
X37216998Y5050001D01*
X37139450Y5195082D01*
X36930134Y5450134D01*
X36675081Y5659450D01*
X36384095Y5814985D01*
X36068356Y5910764D01*
X35740000Y5943104D01*
X35411643Y5910764D01*
X35095904Y5814985D01*
X34804918Y5659450D01*
X34549866Y5450134D01*
X34340550Y5195081D01*
X34185015Y4904095D01*
X34089236Y4588356D01*
X34065000Y4342281D01*
X32335000Y4342281D01*
X32335000Y4387000D01*
X32278039Y4711336D01*
X32158898Y5018327D01*
X31982155Y5296176D01*
X31754602Y5534206D01*
X31484984Y5723269D01*
X31183663Y5856099D01*
X31046710Y5889748D01*
X30787000Y5770922D01*
X30533000Y5770922D01*
X30273290Y5889748D01*
X30136337Y5856099D01*
X29835016Y5723269D01*
X29565398Y5534206D01*
X29337845Y5296176D01*
X29161102Y5018327D01*
X29041961Y4711336D01*
X28985000Y4387000D01*
X27255000Y4387000D01*
X27198039Y4711336D01*
X27078898Y5018327D01*
X26902155Y5296176D01*
X26674602Y5534206D01*
X26404984Y5723269D01*
X26103663Y5856099D01*
X25966710Y5889748D01*
X25707000Y5770922D01*
X25453000Y5770922D01*
X25193290Y5889748D01*
X25056337Y5856099D01*
X24755016Y5723269D01*
X24485398Y5534206D01*
X24257845Y5296176D01*
X24081102Y5018327D01*
X23961961Y4711336D01*
X23905000Y4387000D01*
X22285000Y4387000D01*
X22285000Y9837683D01*
X22259172Y10099921D01*
X22157104Y10436395D01*
X21991354Y10746491D01*
X21768292Y11018292D01*
X21689312Y11083110D01*
X52558524Y11083110D01*
X52603175Y10935901D01*
X52728359Y10673080D01*
X52902412Y10439731D01*
X53118645Y10244822D01*
X53368748Y10095843D01*
X53643109Y9998519D01*
X53873000Y10119186D01*
X53873000Y11313000D01*
X54127000Y11313000D01*
X54127000Y10119186D01*
X54356891Y9998519D01*
X54631252Y10095843D01*
X54881355Y10244822D01*
X55097588Y10439731D01*
X55271641Y10673080D01*
X55396825Y10935901D01*
X55441476Y11083110D01*
X55320155Y11313000D01*
X54127000Y11313000D01*
X53873000Y11313000D01*
X52679845Y11313000D01*
X52558524Y11083110D01*
X21689312Y11083110D01*
X21496491Y11241354D01*
X21186395Y11407104D01*
X20849921Y11509172D01*
X20500000Y11543636D01*
X20150080Y11509172D01*
X19813606Y11407104D01*
X19503510Y11241354D01*
X19231709Y11018292D01*
X19008647Y10746491D01*
X18842897Y10436395D01*
X18740829Y10099921D01*
X18715001Y9837683D01*
X18715000Y5285000D01*
X12239371Y5285000D01*
X6441261Y11083110D01*
X10558524Y11083110D01*
X10603175Y10935901D01*
X10728359Y10673080D01*
X10902412Y10439731D01*
X11118645Y10244822D01*
X11368748Y10095843D01*
X11643109Y9998519D01*
X11873000Y10119186D01*
X11873000Y11313000D01*
X12127000Y11313000D01*
X12127000Y10119186D01*
X12356891Y9998519D01*
X12631252Y10095843D01*
X12881355Y10244822D01*
X13097588Y10439731D01*
X13271641Y10673080D01*
X13396825Y10935901D01*
X13441476Y11083110D01*
X13320155Y11313000D01*
X12127000Y11313000D01*
X11873000Y11313000D01*
X10679845Y11313000D01*
X10558524Y11083110D01*
X6441261Y11083110D01*
X5570186Y11954184D01*
X5612667Y11950000D01*
X5612676Y11950000D01*
X5649999Y11946324D01*
X5687322Y11950000D01*
X10605986Y11950000D01*
X10603175Y11944099D01*
X10558524Y11796890D01*
X10679845Y11567000D01*
X11873000Y11567000D01*
X11873000Y11587000D01*
X12127000Y11587000D01*
X12127000Y11567000D01*
X13320155Y11567000D01*
X13441476Y11796890D01*
X13396825Y11944099D01*
X13394014Y11950000D01*
X17011289Y11950000D01*
X17055226Y11906063D01*
X17224744Y11792795D01*
X17413102Y11714774D01*
X17613061Y11675000D01*
X17816939Y11675000D01*
X18016898Y11714774D01*
X18205256Y11792795D01*
X18374774Y11906063D01*
X18518937Y12050226D01*
X18632205Y12219744D01*
X18710226Y12408102D01*
X18750000Y12608061D01*
X18750000Y12811939D01*
X18710226Y13011898D01*
X18632205Y13200256D01*
X18518937Y13369774D01*
X18374774Y13513937D01*
X18211385Y13623110D01*
X52558524Y13623110D01*
X52603175Y13475901D01*
X52728359Y13213080D01*
X52902412Y12979731D01*
X53118645Y12784822D01*
X53244255Y12710000D01*
X53118645Y12635178D01*
X52902412Y12440269D01*
X52728359Y12206920D01*
X52603175Y11944099D01*
X52558524Y11796890D01*
X52679845Y11567000D01*
X53873000Y11567000D01*
X53873000Y13853000D01*
X54127000Y13853000D01*
X54127000Y11567000D01*
X55320155Y11567000D01*
X55441476Y11796890D01*
X55396825Y11944099D01*
X55271641Y12206920D01*
X55097588Y12440269D01*
X54881355Y12635178D01*
X54755745Y12710000D01*
X54881355Y12784822D01*
X55097588Y12979731D01*
X55271641Y13213080D01*
X55396825Y13475901D01*
X55441476Y13623110D01*
X55320155Y13853000D01*
X54127000Y13853000D01*
X53873000Y13853000D01*
X52679845Y13853000D01*
X52558524Y13623110D01*
X18211385Y13623110D01*
X18205256Y13627205D01*
X18016898Y13705226D01*
X17816939Y13745000D01*
X17613061Y13745000D01*
X17413102Y13705226D01*
X17224744Y13627205D01*
X17055226Y13513937D01*
X17011289Y13470000D01*
X13394014Y13470000D01*
X13396825Y13475901D01*
X13441476Y13623110D01*
X13320155Y13853000D01*
X12127000Y13853000D01*
X12127000Y13833000D01*
X11873000Y13833000D01*
X11873000Y13853000D01*
X10679845Y13853000D01*
X10558524Y13623110D01*
X10603175Y13475901D01*
X10605986Y13470000D01*
X8307169Y13470000D01*
X8361481Y13623109D01*
X8240814Y13853000D01*
X7047000Y13853000D01*
X7047000Y13833000D01*
X6793000Y13833000D01*
X6793000Y13853000D01*
X6773000Y13853000D01*
X6773000Y14107000D01*
X6793000Y14107000D01*
X6793000Y14127000D01*
X7047000Y14127000D01*
X7047000Y14107000D01*
X8240814Y14107000D01*
X8361481Y14336891D01*
X8340868Y14395001D01*
X10576150Y14395001D01*
X10558524Y14336890D01*
X10679845Y14107000D01*
X11873000Y14107000D01*
X11873000Y14127000D01*
X12127000Y14127000D01*
X12127000Y14107000D01*
X13320155Y14107000D01*
X13441476Y14336890D01*
X13423850Y14395001D01*
X17131646Y14395001D01*
X17224744Y14332795D01*
X17413102Y14254774D01*
X17613061Y14215000D01*
X17816939Y14215000D01*
X18016898Y14254774D01*
X18205256Y14332795D01*
X18374774Y14446063D01*
X18518937Y14590226D01*
X18632205Y14759744D01*
X18710226Y14948102D01*
X18750000Y15148061D01*
X18750000Y15351939D01*
X18710226Y15551898D01*
X18632205Y15740256D01*
X18518937Y15909774D01*
X18374774Y16053937D01*
X18205256Y16167205D01*
X18016898Y16245226D01*
X17816939Y16285000D01*
X17613061Y16285000D01*
X17413102Y16245226D01*
X17224744Y16167205D01*
X17055226Y16053937D01*
X16916290Y15915001D01*
X16730801Y15915001D01*
X16810001Y15979999D01*
X16833804Y16009003D01*
X17539802Y16715000D01*
X17601939Y16715000D01*
X17801898Y16754774D01*
X17990256Y16832795D01*
X18159774Y16946063D01*
X18303937Y17090226D01*
X18417205Y17259744D01*
X18495226Y17448102D01*
X18535000Y17648061D01*
X18535000Y17851939D01*
X18495226Y18051898D01*
X18417205Y18240256D01*
X18303937Y18409774D01*
X18159774Y18553937D01*
X17990256Y18667205D01*
X17801898Y18745226D01*
X17601939Y18785000D01*
X17398061Y18785000D01*
X17198102Y18745226D01*
X17009744Y18667205D01*
X16840226Y18553937D01*
X16696063Y18409774D01*
X16582795Y18240256D01*
X16504774Y18051898D01*
X16465000Y17851939D01*
X16465000Y17789802D01*
X15955199Y17280000D01*
X13278178Y17280000D01*
X13153475Y17466632D01*
X12946632Y17673475D01*
X12764466Y17795195D01*
X12881355Y17864822D01*
X13097588Y18059731D01*
X13271641Y18293080D01*
X13396825Y18555901D01*
X13441476Y18703110D01*
X13320155Y18933000D01*
X12127000Y18933000D01*
X12127000Y18913000D01*
X11873000Y18913000D01*
X11873000Y18933000D01*
X10679845Y18933000D01*
X10558524Y18703110D01*
X10603175Y18555901D01*
X10728359Y18293080D01*
X10902412Y18059731D01*
X11118645Y17864822D01*
X11235534Y17795195D01*
X11053368Y17673475D01*
X10846525Y17466632D01*
X10684010Y17223411D01*
X10572068Y16953158D01*
X10515000Y16666260D01*
X10515000Y16373740D01*
X10572068Y16086842D01*
X10643247Y15915001D01*
X8273470Y15915001D01*
X8361481Y16163109D01*
X8240814Y16393000D01*
X7047000Y16393000D01*
X7047000Y16373000D01*
X6793000Y16373000D01*
X6793000Y16393000D01*
X6773000Y16393000D01*
X6773000Y16647000D01*
X6793000Y16647000D01*
X6793000Y17840155D01*
X7047000Y17840155D01*
X7047000Y16647000D01*
X8240814Y16647000D01*
X8361481Y16876891D01*
X8264157Y17151252D01*
X8115178Y17401355D01*
X7920269Y17617588D01*
X7686920Y17791641D01*
X7424099Y17916825D01*
X7276890Y17961476D01*
X7047000Y17840155D01*
X6793000Y17840155D01*
X6563110Y17961476D01*
X6415901Y17916825D01*
X6153080Y17791641D01*
X5919731Y17617588D01*
X5724822Y17401355D01*
X5655195Y17284466D01*
X5533475Y17466632D01*
X5326632Y17673475D01*
X5083411Y17835990D01*
X4813158Y17947932D01*
X4526260Y18005000D01*
X4233740Y18005000D01*
X3946842Y17947932D01*
X3676589Y17835990D01*
X3433368Y17673475D01*
X3301513Y17541620D01*
X3279502Y17614180D01*
X3220537Y17724494D01*
X3141185Y17821185D01*
X3044494Y17900537D01*
X2934180Y17959502D01*
X2814482Y17995812D01*
X2690000Y18008072D01*
X990000Y18008072D01*
X865518Y17995812D01*
X745820Y17959502D01*
X660000Y17913630D01*
X660000Y28101939D01*
X8965012Y28101939D01*
X8965012Y27898061D01*
X9004786Y27698102D01*
X9082807Y27509744D01*
X9196075Y27340226D01*
X9340238Y27196063D01*
X9509756Y27082795D01*
X9698114Y27004774D01*
X9898073Y26965000D01*
X10101951Y26965000D01*
X10301910Y27004774D01*
X10490268Y27082795D01*
X10568397Y27134999D01*
X10581115Y27134999D01*
X10572068Y27113158D01*
X10515000Y26826260D01*
X10515000Y26533740D01*
X10572068Y26246842D01*
X10684010Y25976589D01*
X10846525Y25733368D01*
X11053368Y25526525D01*
X11227760Y25410000D01*
X11053368Y25293475D01*
X10846525Y25086632D01*
X10684010Y24843411D01*
X10572068Y24573158D01*
X10515000Y24286260D01*
X10515000Y23993740D01*
X10572068Y23706842D01*
X10684010Y23436589D01*
X10846525Y23193368D01*
X11053368Y22986525D01*
X11227760Y22870000D01*
X11053368Y22753475D01*
X10846525Y22546632D01*
X10684010Y22303411D01*
X10572068Y22033158D01*
X10515000Y21746260D01*
X10515000Y21453740D01*
X10572068Y21166842D01*
X10684010Y20896589D01*
X10846525Y20653368D01*
X11053368Y20446525D01*
X11235534Y20324805D01*
X11118645Y20255178D01*
X10902412Y20060269D01*
X10728359Y19826920D01*
X10603175Y19564099D01*
X10558524Y19416890D01*
X10679845Y19187000D01*
X11873000Y19187000D01*
X11873000Y19207000D01*
X12127000Y19207000D01*
X12127000Y19187000D01*
X13320155Y19187000D01*
X13441476Y19416890D01*
X13396825Y19564099D01*
X13271641Y19826920D01*
X13097588Y20060269D01*
X13051360Y20101939D01*
X33465000Y20101939D01*
X33465000Y19898061D01*
X33504774Y19698102D01*
X33582795Y19509744D01*
X33696063Y19340226D01*
X33840226Y19196063D01*
X34009744Y19082795D01*
X34198102Y19004774D01*
X34398061Y18965000D01*
X34601939Y18965000D01*
X34801898Y19004774D01*
X34990256Y19082795D01*
X35159774Y19196063D01*
X35303937Y19340226D01*
X35417205Y19509744D01*
X35495226Y19698102D01*
X35535000Y19898061D01*
X35535000Y20101939D01*
X35495226Y20301898D01*
X35417205Y20490256D01*
X35303937Y20659774D01*
X35260000Y20703711D01*
X35260000Y23101939D01*
X37965000Y23101939D01*
X37965000Y22898061D01*
X38004774Y22698102D01*
X38082795Y22509744D01*
X38196063Y22340226D01*
X38340226Y22196063D01*
X38509744Y22082795D01*
X38698102Y22004774D01*
X38898061Y21965000D01*
X39101939Y21965000D01*
X39301898Y22004774D01*
X39490256Y22082795D01*
X39659774Y22196063D01*
X39703711Y22240000D01*
X41546289Y22240000D01*
X41590226Y22196063D01*
X41759744Y22082795D01*
X41948102Y22004774D01*
X42148061Y21965000D01*
X42351939Y21965000D01*
X42551898Y22004774D01*
X42740256Y22082795D01*
X42909774Y22196063D01*
X43053937Y22340226D01*
X43167205Y22509744D01*
X43245226Y22698102D01*
X43285000Y22898061D01*
X43285000Y23101939D01*
X43245226Y23301898D01*
X43167205Y23490256D01*
X43053937Y23659774D01*
X42909774Y23803937D01*
X42740256Y23917205D01*
X42551898Y23995226D01*
X42351939Y24035000D01*
X42148061Y24035000D01*
X41948102Y23995226D01*
X41759744Y23917205D01*
X41590226Y23803937D01*
X41546289Y23760000D01*
X39703711Y23760000D01*
X39659774Y23803937D01*
X39490256Y23917205D01*
X39301898Y23995226D01*
X39101939Y24035000D01*
X38898061Y24035000D01*
X38698102Y23995226D01*
X38509744Y23917205D01*
X38340226Y23803937D01*
X38196063Y23659774D01*
X38082795Y23490256D01*
X38004774Y23301898D01*
X37965000Y23101939D01*
X35260000Y23101939D01*
X35260000Y23185199D01*
X38314803Y26240000D01*
X45546289Y26240000D01*
X45590226Y26196063D01*
X45759744Y26082795D01*
X45948102Y26004774D01*
X46148061Y25965000D01*
X46351939Y25965000D01*
X46551898Y26004774D01*
X46740256Y26082795D01*
X46909774Y26196063D01*
X47053937Y26340226D01*
X47167205Y26509744D01*
X47245226Y26698102D01*
X47270718Y26826260D01*
X52515000Y26826260D01*
X52515000Y26533740D01*
X52572068Y26246842D01*
X52684010Y25976589D01*
X52846525Y25733368D01*
X53053368Y25526525D01*
X53227760Y25410000D01*
X53053368Y25293475D01*
X52846525Y25086632D01*
X52684010Y24843411D01*
X52572068Y24573158D01*
X52515000Y24286260D01*
X52515000Y23993740D01*
X52572068Y23706842D01*
X52684010Y23436589D01*
X52846525Y23193368D01*
X53053368Y22986525D01*
X53227760Y22870000D01*
X53053368Y22753475D01*
X52846525Y22546632D01*
X52684010Y22303411D01*
X52572068Y22033158D01*
X52515000Y21746260D01*
X52515000Y21453740D01*
X52572068Y21166842D01*
X52684010Y20896589D01*
X52846525Y20653368D01*
X53053368Y20446525D01*
X53227760Y20330000D01*
X53053368Y20213475D01*
X52846525Y20006632D01*
X52684010Y19763411D01*
X52572068Y19493158D01*
X52515000Y19206260D01*
X52515000Y18913740D01*
X52572068Y18626842D01*
X52684010Y18356589D01*
X52846525Y18113368D01*
X53053368Y17906525D01*
X53227760Y17790000D01*
X53053368Y17673475D01*
X52846525Y17466632D01*
X52684010Y17223411D01*
X52572068Y16953158D01*
X52515000Y16666260D01*
X52515000Y16373740D01*
X52572068Y16086842D01*
X52684010Y15816589D01*
X52846525Y15573368D01*
X53053368Y15366525D01*
X53235534Y15244805D01*
X53118645Y15175178D01*
X52902412Y14980269D01*
X52728359Y14746920D01*
X52603175Y14484099D01*
X52558524Y14336890D01*
X52679845Y14107000D01*
X53873000Y14107000D01*
X53873000Y14127000D01*
X54127000Y14127000D01*
X54127000Y14107000D01*
X55320155Y14107000D01*
X55441476Y14336890D01*
X55396825Y14484099D01*
X55271641Y14746920D01*
X55097588Y14980269D01*
X54881355Y15175178D01*
X54764466Y15244805D01*
X54946632Y15366525D01*
X55153475Y15573368D01*
X55315990Y15816589D01*
X55427932Y16086842D01*
X55485000Y16373740D01*
X55485000Y16666260D01*
X55427932Y16953158D01*
X55315990Y17223411D01*
X55153475Y17466632D01*
X54946632Y17673475D01*
X54772240Y17790000D01*
X54946632Y17906525D01*
X55153475Y18113368D01*
X55315990Y18356589D01*
X55427932Y18626842D01*
X55485000Y18913740D01*
X55485000Y19206260D01*
X55427932Y19493158D01*
X55315990Y19763411D01*
X55153475Y20006632D01*
X54946632Y20213475D01*
X54772240Y20330000D01*
X54946632Y20446525D01*
X55153475Y20653368D01*
X55315990Y20896589D01*
X55427932Y21166842D01*
X55485000Y21453740D01*
X55485000Y21746260D01*
X55427932Y22033158D01*
X55315990Y22303411D01*
X55153475Y22546632D01*
X54946632Y22753475D01*
X54772240Y22870000D01*
X54946632Y22986525D01*
X55153475Y23193368D01*
X55315990Y23436589D01*
X55427932Y23706842D01*
X55485000Y23993740D01*
X55485000Y24286260D01*
X55427932Y24573158D01*
X55315990Y24843411D01*
X55153475Y25086632D01*
X54946632Y25293475D01*
X54772240Y25410000D01*
X54946632Y25526525D01*
X55153475Y25733368D01*
X55315990Y25976589D01*
X55427932Y26246842D01*
X55485000Y26533740D01*
X55485000Y26826260D01*
X55427932Y27113158D01*
X55315990Y27383411D01*
X55153475Y27626632D01*
X54946632Y27833475D01*
X54764466Y27955195D01*
X54881355Y28024822D01*
X55097588Y28219731D01*
X55271641Y28453080D01*
X55396825Y28715901D01*
X55441476Y28863110D01*
X55320155Y29093000D01*
X54127000Y29093000D01*
X54127000Y29073000D01*
X53873000Y29073000D01*
X53873000Y29093000D01*
X52679845Y29093000D01*
X52558524Y28863110D01*
X52603175Y28715901D01*
X52728359Y28453080D01*
X52902412Y28219731D01*
X53118645Y28024822D01*
X53235534Y27955195D01*
X53053368Y27833475D01*
X52846525Y27626632D01*
X52684010Y27383411D01*
X52572068Y27113158D01*
X52515000Y26826260D01*
X47270718Y26826260D01*
X47285000Y26898061D01*
X47285000Y27101939D01*
X47245226Y27301898D01*
X47167205Y27490256D01*
X47053937Y27659774D01*
X46909774Y27803937D01*
X46740256Y27917205D01*
X46551898Y27995226D01*
X46351939Y28035000D01*
X46148061Y28035000D01*
X45948102Y27995226D01*
X45759744Y27917205D01*
X45590226Y27803937D01*
X45546289Y27760000D01*
X38037322Y27760000D01*
X37999999Y27763676D01*
X37962676Y27760000D01*
X37962667Y27760000D01*
X37851014Y27749003D01*
X37707753Y27705546D01*
X37575724Y27634974D01*
X37575722Y27634973D01*
X37575723Y27634973D01*
X37488996Y27563799D01*
X37488992Y27563795D01*
X37459999Y27540001D01*
X37436205Y27511008D01*
X33989003Y24063804D01*
X33959999Y24040001D01*
X33922034Y23993740D01*
X33865026Y23924276D01*
X33854723Y23905000D01*
X33794454Y23792246D01*
X33750997Y23648985D01*
X33740000Y23537332D01*
X33740000Y23537322D01*
X33736324Y23500000D01*
X33740000Y23462677D01*
X33740001Y20703712D01*
X33696063Y20659774D01*
X33582795Y20490256D01*
X33504774Y20301898D01*
X33465000Y20101939D01*
X13051360Y20101939D01*
X12881355Y20255178D01*
X12764466Y20324805D01*
X12946632Y20446525D01*
X13153475Y20653368D01*
X13315990Y20896589D01*
X13427932Y21166842D01*
X13485000Y21453740D01*
X13485000Y21746260D01*
X13427932Y22033158D01*
X13315990Y22303411D01*
X13153475Y22546632D01*
X12946632Y22753475D01*
X12772240Y22870000D01*
X12946632Y22986525D01*
X13153475Y23193368D01*
X13315990Y23436589D01*
X13427932Y23706842D01*
X13485000Y23993740D01*
X13485000Y24286260D01*
X13427932Y24573158D01*
X13315990Y24843411D01*
X13153475Y25086632D01*
X12946632Y25293475D01*
X12772240Y25410000D01*
X12946632Y25526525D01*
X13153475Y25733368D01*
X13315990Y25976589D01*
X13427932Y26246842D01*
X13485000Y26533740D01*
X13485000Y26826260D01*
X13427932Y27113158D01*
X13418885Y27134999D01*
X13431615Y27134999D01*
X13509744Y27082795D01*
X13698102Y27004774D01*
X13898061Y26965000D01*
X14101939Y26965000D01*
X14301898Y27004774D01*
X14490256Y27082795D01*
X14659774Y27196063D01*
X14803937Y27340226D01*
X14917205Y27509744D01*
X14995226Y27698102D01*
X15035000Y27898061D01*
X15035000Y28101939D01*
X14995226Y28301898D01*
X14917205Y28490256D01*
X14803937Y28659774D01*
X14659774Y28803937D01*
X14490256Y28917205D01*
X14301898Y28995226D01*
X14101939Y29035000D01*
X13898061Y29035000D01*
X13698102Y28995226D01*
X13509744Y28917205D01*
X13445297Y28874143D01*
X13485000Y29073740D01*
X13485000Y29366260D01*
X13427932Y29653158D01*
X13315990Y29923411D01*
X13153475Y30166632D01*
X12946632Y30373475D01*
X12772240Y30490000D01*
X12946632Y30606525D01*
X13153475Y30813368D01*
X13315990Y31056589D01*
X13427932Y31326842D01*
X13485000Y31613740D01*
X13485000Y31906260D01*
X13427932Y32193158D01*
X13362164Y32351939D01*
X27214992Y32351939D01*
X27214992Y32148061D01*
X27254766Y31948102D01*
X27332787Y31759744D01*
X27446055Y31590226D01*
X27590218Y31446063D01*
X27759736Y31332795D01*
X27948094Y31254774D01*
X28148053Y31215000D01*
X28241465Y31215000D01*
X28254774Y31148092D01*
X28332795Y30959734D01*
X28446063Y30790216D01*
X28590226Y30646053D01*
X28759744Y30532785D01*
X28948102Y30454764D01*
X29148061Y30414990D01*
X29351939Y30414990D01*
X29551898Y30454764D01*
X29740256Y30532785D01*
X29909774Y30646053D01*
X29953711Y30689990D01*
X31546289Y30689990D01*
X31590226Y30646053D01*
X31759744Y30532785D01*
X31948102Y30454764D01*
X32148061Y30414990D01*
X32351939Y30414990D01*
X32551898Y30454764D01*
X32740256Y30532785D01*
X32909774Y30646053D01*
X33053937Y30790216D01*
X33167205Y30959734D01*
X33245226Y31148092D01*
X33285000Y31348051D01*
X33285000Y31415000D01*
X34136715Y31415000D01*
X34259744Y31332795D01*
X34448102Y31254774D01*
X34648061Y31215000D01*
X34851939Y31215000D01*
X35051898Y31254774D01*
X35240256Y31332795D01*
X35409774Y31446063D01*
X35553937Y31590226D01*
X35667205Y31759744D01*
X35745226Y31948102D01*
X35785000Y32148061D01*
X35785000Y32351939D01*
X35745226Y32551898D01*
X35667205Y32740256D01*
X35553937Y32909774D01*
X35409774Y33053937D01*
X35240256Y33167205D01*
X35051898Y33245226D01*
X34851939Y33285000D01*
X34648061Y33285000D01*
X34448102Y33245226D01*
X34259744Y33167205D01*
X34136715Y33085000D01*
X28863277Y33085000D01*
X28740248Y33167205D01*
X28551890Y33245226D01*
X28351931Y33285000D01*
X28148053Y33285000D01*
X27948094Y33245226D01*
X27759736Y33167205D01*
X27590218Y33053937D01*
X27446055Y32909774D01*
X27332787Y32740256D01*
X27254766Y32551898D01*
X27214992Y32351939D01*
X13362164Y32351939D01*
X13315990Y32463411D01*
X13153475Y32706632D01*
X12946632Y32913475D01*
X12772240Y33030000D01*
X12946632Y33146525D01*
X13153475Y33353368D01*
X13315990Y33596589D01*
X13427932Y33866842D01*
X13485000Y34153740D01*
X13485000Y34446260D01*
X13427932Y34733158D01*
X13315990Y35003411D01*
X13153475Y35246632D01*
X12946632Y35453475D01*
X12764466Y35575195D01*
X12881355Y35644822D01*
X13097588Y35839731D01*
X13271641Y36073080D01*
X13396825Y36335901D01*
X13441476Y36483110D01*
X13320155Y36713000D01*
X12127000Y36713000D01*
X12127000Y36693000D01*
X11873000Y36693000D01*
X11873000Y36713000D01*
X10679845Y36713000D01*
X10558524Y36483110D01*
X10603175Y36335901D01*
X10728359Y36073080D01*
X10902412Y35839731D01*
X11118645Y35644822D01*
X11235534Y35575195D01*
X11053368Y35453475D01*
X10846525Y35246632D01*
X10684010Y35003411D01*
X10572068Y34733158D01*
X10515000Y34446260D01*
X10515000Y34153740D01*
X10572068Y33866842D01*
X10684010Y33596589D01*
X10846525Y33353368D01*
X11053368Y33146525D01*
X11227760Y33030000D01*
X11053368Y32913475D01*
X10846525Y32706632D01*
X10684010Y32463411D01*
X10572068Y32193158D01*
X10515000Y31906260D01*
X10515000Y31613740D01*
X10572068Y31326842D01*
X10684010Y31056589D01*
X10846525Y30813368D01*
X11053368Y30606525D01*
X11227760Y30490000D01*
X11053368Y30373475D01*
X10846525Y30166632D01*
X10684010Y29923411D01*
X10572068Y29653158D01*
X10515000Y29366260D01*
X10515000Y29073740D01*
X10554701Y28874153D01*
X10490268Y28917205D01*
X10301910Y28995226D01*
X10101951Y29035000D01*
X9898073Y29035000D01*
X9698114Y28995226D01*
X9509756Y28917205D01*
X9340238Y28803937D01*
X9196075Y28659774D01*
X9082807Y28490256D01*
X9004786Y28301898D01*
X8965012Y28101939D01*
X660000Y28101939D01*
X660000Y31636370D01*
X745820Y31590498D01*
X865518Y31554188D01*
X990000Y31541928D01*
X2690000Y31541928D01*
X2814482Y31554188D01*
X2934180Y31590498D01*
X3044494Y31649463D01*
X3141185Y31728815D01*
X3220537Y31825506D01*
X3279502Y31935820D01*
X3301513Y32008380D01*
X3433368Y31876525D01*
X3676589Y31714010D01*
X3946842Y31602068D01*
X4233740Y31545000D01*
X4526260Y31545000D01*
X4813158Y31602068D01*
X5083411Y31714010D01*
X5326632Y31876525D01*
X5533475Y32083368D01*
X5655195Y32265534D01*
X5724822Y32148645D01*
X5919731Y31932412D01*
X6153080Y31758359D01*
X6415901Y31633175D01*
X6563110Y31588524D01*
X6793000Y31709845D01*
X6793000Y32903000D01*
X7047000Y32903000D01*
X7047000Y31709845D01*
X7276890Y31588524D01*
X7424099Y31633175D01*
X7686920Y31758359D01*
X7920269Y31932412D01*
X8115178Y32148645D01*
X8264157Y32398748D01*
X8361481Y32673109D01*
X8240814Y32903000D01*
X7047000Y32903000D01*
X6793000Y32903000D01*
X6773000Y32903000D01*
X6773000Y33157000D01*
X6793000Y33157000D01*
X6793000Y35443000D01*
X7047000Y35443000D01*
X7047000Y33157000D01*
X8240814Y33157000D01*
X8361481Y33386891D01*
X8264157Y33661252D01*
X8115178Y33911355D01*
X7920269Y34127588D01*
X7689120Y34300000D01*
X7920269Y34472412D01*
X8115178Y34688645D01*
X8264157Y34938748D01*
X8361481Y35213109D01*
X8240814Y35443000D01*
X7047000Y35443000D01*
X6793000Y35443000D01*
X6773000Y35443000D01*
X6773000Y35697000D01*
X6793000Y35697000D01*
X6793000Y37983000D01*
X7047000Y37983000D01*
X7047000Y35697000D01*
X8240814Y35697000D01*
X8361481Y35926891D01*
X8264157Y36201252D01*
X8115178Y36451355D01*
X7920269Y36667588D01*
X7689120Y36840000D01*
X7920269Y37012412D01*
X8115178Y37228645D01*
X8264157Y37478748D01*
X8361481Y37753109D01*
X8240814Y37983000D01*
X7047000Y37983000D01*
X6793000Y37983000D01*
X6773000Y37983000D01*
X6773000Y38237000D01*
X6793000Y38237000D01*
X6793000Y40523000D01*
X7047000Y40523000D01*
X7047000Y38237000D01*
X8240814Y38237000D01*
X8361481Y38466891D01*
X8264157Y38741252D01*
X8115178Y38991355D01*
X7920269Y39207588D01*
X7689120Y39380000D01*
X7920269Y39552412D01*
X8115178Y39768645D01*
X8264157Y40018748D01*
X8361481Y40293109D01*
X8240814Y40523000D01*
X7047000Y40523000D01*
X6793000Y40523000D01*
X6773000Y40523000D01*
X6773000Y40777000D01*
X6793000Y40777000D01*
X6793000Y41970155D01*
X7047000Y41970155D01*
X7047000Y40777000D01*
X8240814Y40777000D01*
X8361481Y41006891D01*
X8264157Y41281252D01*
X8115178Y41531355D01*
X7920269Y41747588D01*
X7686920Y41921641D01*
X7424099Y42046825D01*
X7360025Y42066260D01*
X10515000Y42066260D01*
X10515000Y41773740D01*
X10572068Y41486842D01*
X10684010Y41216589D01*
X10846525Y40973368D01*
X11053368Y40766525D01*
X11227760Y40650000D01*
X11053368Y40533475D01*
X10846525Y40326632D01*
X10684010Y40083411D01*
X10572068Y39813158D01*
X10515000Y39526260D01*
X10515000Y39233740D01*
X10572068Y38946842D01*
X10684010Y38676589D01*
X10846525Y38433368D01*
X11053368Y38226525D01*
X11235534Y38104805D01*
X11118645Y38035178D01*
X10902412Y37840269D01*
X10728359Y37606920D01*
X10603175Y37344099D01*
X10558524Y37196890D01*
X10679845Y36967000D01*
X11873000Y36967000D01*
X11873000Y36987000D01*
X12127000Y36987000D01*
X12127000Y36967000D01*
X13320155Y36967000D01*
X13441476Y37196890D01*
X13396825Y37344099D01*
X13271641Y37606920D01*
X13097588Y37840269D01*
X13019083Y37911033D01*
X33365000Y37911033D01*
X33365000Y37588967D01*
X33427832Y37273088D01*
X33551082Y36975537D01*
X33730013Y36707748D01*
X33957748Y36480013D01*
X34225537Y36301082D01*
X34523088Y36177832D01*
X34838967Y36115000D01*
X35161033Y36115000D01*
X35476912Y36177832D01*
X35774463Y36301082D01*
X36042252Y36480013D01*
X36269987Y36707748D01*
X36448918Y36975537D01*
X36572168Y37273088D01*
X36635000Y37588967D01*
X36635000Y37911033D01*
X39865000Y37911033D01*
X39865000Y37588967D01*
X39927832Y37273088D01*
X40051082Y36975537D01*
X40230013Y36707748D01*
X40457748Y36480013D01*
X40725537Y36301082D01*
X41023088Y36177832D01*
X41338967Y36115000D01*
X41661033Y36115000D01*
X41976912Y36177832D01*
X42274463Y36301082D01*
X42542252Y36480013D01*
X42769987Y36707748D01*
X42948918Y36975537D01*
X43072168Y37273088D01*
X43135000Y37588967D01*
X43135000Y37911033D01*
X43072168Y38226912D01*
X42948918Y38524463D01*
X42769987Y38792252D01*
X42542252Y39019987D01*
X42274463Y39198918D01*
X41976912Y39322168D01*
X41661033Y39385000D01*
X41338967Y39385000D01*
X41023088Y39322168D01*
X40725537Y39198918D01*
X40457748Y39019987D01*
X40230013Y38792252D01*
X40051082Y38524463D01*
X39927832Y38226912D01*
X39865000Y37911033D01*
X36635000Y37911033D01*
X36572168Y38226912D01*
X36448918Y38524463D01*
X36269987Y38792252D01*
X36042252Y39019987D01*
X35774463Y39198918D01*
X35476912Y39322168D01*
X35161033Y39385000D01*
X34838967Y39385000D01*
X34523088Y39322168D01*
X34225537Y39198918D01*
X33957748Y39019987D01*
X33730013Y38792252D01*
X33551082Y38524463D01*
X33427832Y38226912D01*
X33365000Y37911033D01*
X13019083Y37911033D01*
X12881355Y38035178D01*
X12764466Y38104805D01*
X12946632Y38226525D01*
X13153475Y38433368D01*
X13315990Y38676589D01*
X13364969Y38794836D01*
X13420001Y38839999D01*
X13443804Y38869003D01*
X15689388Y41114587D01*
X34044192Y41114587D01*
X34139956Y40850186D01*
X34429571Y40709296D01*
X34741108Y40627616D01*
X35062595Y40608282D01*
X35381675Y40652039D01*
X35686088Y40757205D01*
X35860044Y40850186D01*
X35955808Y41114587D01*
X40544192Y41114587D01*
X40639956Y40850186D01*
X40929571Y40709296D01*
X41241108Y40627616D01*
X41562595Y40608282D01*
X41881675Y40652039D01*
X42186088Y40757205D01*
X42360044Y40850186D01*
X42455808Y41114587D01*
X41500000Y42070395D01*
X40544192Y41114587D01*
X35955808Y41114587D01*
X35000000Y42070395D01*
X34044192Y41114587D01*
X15689388Y41114587D01*
X16762206Y42187405D01*
X33358282Y42187405D01*
X33402039Y41868325D01*
X33507205Y41563912D01*
X33600186Y41389956D01*
X33864587Y41294192D01*
X34820395Y42250000D01*
X35179605Y42250000D01*
X36135413Y41294192D01*
X36399814Y41389956D01*
X36540704Y41679571D01*
X36622384Y41991108D01*
X36634189Y42187405D01*
X39858282Y42187405D01*
X39902039Y41868325D01*
X40007205Y41563912D01*
X40100186Y41389956D01*
X40364587Y41294192D01*
X41320395Y42250000D01*
X41679605Y42250000D01*
X42635413Y41294192D01*
X42899814Y41389956D01*
X43040704Y41679571D01*
X43122384Y41991108D01*
X43126903Y42066260D01*
X52515000Y42066260D01*
X52515000Y41773740D01*
X52572068Y41486842D01*
X52684010Y41216589D01*
X52846525Y40973368D01*
X53053368Y40766525D01*
X53227760Y40650000D01*
X53053368Y40533475D01*
X52846525Y40326632D01*
X52684010Y40083411D01*
X52572068Y39813158D01*
X52515000Y39526260D01*
X52515000Y39233740D01*
X52572068Y38946842D01*
X52684010Y38676589D01*
X52846525Y38433368D01*
X53053368Y38226525D01*
X53227760Y38110000D01*
X53053368Y37993475D01*
X52846525Y37786632D01*
X52684010Y37543411D01*
X52572068Y37273158D01*
X52515000Y36986260D01*
X52515000Y36693740D01*
X52572068Y36406842D01*
X52684010Y36136589D01*
X52846525Y35893368D01*
X53053368Y35686525D01*
X53227760Y35570000D01*
X53053368Y35453475D01*
X52846525Y35246632D01*
X52684010Y35003411D01*
X52572068Y34733158D01*
X52515000Y34446260D01*
X52515000Y34153740D01*
X52572068Y33866842D01*
X52684010Y33596589D01*
X52846525Y33353368D01*
X53053368Y33146525D01*
X53227760Y33030000D01*
X53053368Y32913475D01*
X52846525Y32706632D01*
X52684010Y32463411D01*
X52572068Y32193158D01*
X52515000Y31906260D01*
X52515000Y31613740D01*
X52572068Y31326842D01*
X52684010Y31056589D01*
X52846525Y30813368D01*
X53053368Y30606525D01*
X53235534Y30484805D01*
X53118645Y30415178D01*
X52902412Y30220269D01*
X52728359Y29986920D01*
X52603175Y29724099D01*
X52558524Y29576890D01*
X52679845Y29347000D01*
X53873000Y29347000D01*
X53873000Y29367000D01*
X54127000Y29367000D01*
X54127000Y29347000D01*
X55320155Y29347000D01*
X55441476Y29576890D01*
X55396825Y29724099D01*
X55271641Y29986920D01*
X55097588Y30220269D01*
X54881355Y30415178D01*
X54764466Y30484805D01*
X54772240Y30490000D01*
X59882718Y30490000D01*
X59911776Y30194968D01*
X59997834Y29911275D01*
X60137583Y29649821D01*
X60325655Y29420655D01*
X60554821Y29232583D01*
X60578362Y29220000D01*
X60554821Y29207417D01*
X60325655Y29019345D01*
X60137583Y28790179D01*
X59997834Y28528725D01*
X59911776Y28245032D01*
X59882718Y27950000D01*
X59911776Y27654968D01*
X59997834Y27371275D01*
X60137583Y27109821D01*
X60325655Y26880655D01*
X60554821Y26692583D01*
X60578362Y26680000D01*
X60554821Y26667417D01*
X60325655Y26479345D01*
X60137583Y26250179D01*
X59997834Y25988725D01*
X59911776Y25705032D01*
X59882718Y25410000D01*
X59911776Y25114968D01*
X59997834Y24831275D01*
X60137583Y24569821D01*
X60325655Y24340655D01*
X60554821Y24152583D01*
X60578362Y24140000D01*
X60554821Y24127417D01*
X60325655Y23939345D01*
X60137583Y23710179D01*
X59997834Y23448725D01*
X59911776Y23165032D01*
X59882718Y22870000D01*
X59911776Y22574968D01*
X59997834Y22291275D01*
X60137583Y22029821D01*
X60325655Y21800655D01*
X60554821Y21612583D01*
X60816275Y21472834D01*
X61099968Y21386776D01*
X61321064Y21365000D01*
X61918936Y21365000D01*
X62140032Y21386776D01*
X62423725Y21472834D01*
X62685179Y21612583D01*
X62914345Y21800655D01*
X63102417Y22029821D01*
X63242166Y22291275D01*
X63328224Y22574968D01*
X63357282Y22870000D01*
X63328224Y23165032D01*
X63242166Y23448725D01*
X63102417Y23710179D01*
X62914345Y23939345D01*
X62685179Y24127417D01*
X62661638Y24140000D01*
X62685179Y24152583D01*
X62914345Y24340655D01*
X63102417Y24569821D01*
X63242166Y24831275D01*
X63328224Y25114968D01*
X63357282Y25410000D01*
X63328224Y25705032D01*
X63242166Y25988725D01*
X63102417Y26250179D01*
X62914345Y26479345D01*
X62685179Y26667417D01*
X62661638Y26680000D01*
X62685179Y26692583D01*
X62914345Y26880655D01*
X63102417Y27109821D01*
X63242166Y27371275D01*
X63328224Y27654968D01*
X63357282Y27950000D01*
X63328224Y28245032D01*
X63242166Y28528725D01*
X63102417Y28790179D01*
X62914345Y29019345D01*
X62685179Y29207417D01*
X62661638Y29220000D01*
X62685179Y29232583D01*
X62914345Y29420655D01*
X63102417Y29649821D01*
X63242166Y29911275D01*
X63328224Y30194968D01*
X63357282Y30490000D01*
X63328224Y30785032D01*
X63242166Y31068725D01*
X63102417Y31330179D01*
X62914345Y31559345D01*
X62685179Y31747417D01*
X62656848Y31762560D01*
X62797433Y31855292D01*
X63008306Y32063674D01*
X63174474Y32309191D01*
X63289551Y32582409D01*
X63306302Y32669969D01*
X63185246Y32903000D01*
X61747000Y32903000D01*
X61747000Y32883000D01*
X61493000Y32883000D01*
X61493000Y32903000D01*
X60054754Y32903000D01*
X59933698Y32669969D01*
X59950449Y32582409D01*
X60065526Y32309191D01*
X60231694Y32063674D01*
X60442567Y31855292D01*
X60583152Y31762560D01*
X60554821Y31747417D01*
X60325655Y31559345D01*
X60137583Y31330179D01*
X59997834Y31068725D01*
X59911776Y30785032D01*
X59882718Y30490000D01*
X54772240Y30490000D01*
X54946632Y30606525D01*
X55153475Y30813368D01*
X55315990Y31056589D01*
X55427932Y31326842D01*
X55485000Y31613740D01*
X55485000Y31906260D01*
X55427932Y32193158D01*
X55315990Y32463411D01*
X55153475Y32706632D01*
X54946632Y32913475D01*
X54772240Y33030000D01*
X54946632Y33146525D01*
X55153475Y33353368D01*
X55315990Y33596589D01*
X55427932Y33866842D01*
X55485000Y34153740D01*
X55485000Y34446260D01*
X55427932Y34733158D01*
X55315990Y35003411D01*
X55153475Y35246632D01*
X54946632Y35453475D01*
X54772240Y35570000D01*
X54946632Y35686525D01*
X55153475Y35893368D01*
X55315990Y36136589D01*
X55338113Y36190001D01*
X59886928Y36190001D01*
X59886928Y34949999D01*
X59903992Y34776745D01*
X59954528Y34610149D01*
X60036595Y34456613D01*
X60147038Y34322038D01*
X60281613Y34211595D01*
X60390590Y34153345D01*
X60231694Y33996326D01*
X60065526Y33750809D01*
X59950449Y33477591D01*
X59933698Y33390031D01*
X60054754Y33157000D01*
X61493000Y33157000D01*
X61493000Y33177000D01*
X61747000Y33177000D01*
X61747000Y33157000D01*
X63185246Y33157000D01*
X63306302Y33390031D01*
X63289551Y33477591D01*
X63174474Y33750809D01*
X63008306Y33996326D01*
X62849410Y34153345D01*
X62958387Y34211595D01*
X63092962Y34322038D01*
X63203405Y34456613D01*
X63285472Y34610149D01*
X63336008Y34776745D01*
X63353072Y34949999D01*
X63353072Y36190001D01*
X63336008Y36363255D01*
X63285472Y36529851D01*
X63203405Y36683387D01*
X63092962Y36817962D01*
X62958387Y36928405D01*
X62804851Y37010472D01*
X62638255Y37061008D01*
X62465001Y37078072D01*
X60774999Y37078072D01*
X60601745Y37061008D01*
X60435149Y37010472D01*
X60281613Y36928405D01*
X60147038Y36817962D01*
X60036595Y36683387D01*
X59954528Y36529851D01*
X59903992Y36363255D01*
X59886928Y36190001D01*
X55338113Y36190001D01*
X55427932Y36406842D01*
X55485000Y36693740D01*
X55485000Y36986260D01*
X55427932Y37273158D01*
X55315990Y37543411D01*
X55153475Y37786632D01*
X54946632Y37993475D01*
X54772240Y38110000D01*
X54946632Y38226525D01*
X55153475Y38433368D01*
X55315990Y38676589D01*
X55427932Y38946842D01*
X55485000Y39233740D01*
X55485000Y39526260D01*
X55427932Y39813158D01*
X55315990Y40083411D01*
X55153475Y40326632D01*
X54946632Y40533475D01*
X54772240Y40650000D01*
X54946632Y40766525D01*
X55153475Y40973368D01*
X55315990Y41216589D01*
X55427932Y41486842D01*
X55485000Y41773740D01*
X55485000Y42066260D01*
X55427932Y42353158D01*
X55315990Y42623411D01*
X55153475Y42866632D01*
X54946632Y43073475D01*
X54764466Y43195195D01*
X54881355Y43264822D01*
X55097588Y43459731D01*
X55271641Y43693080D01*
X55396825Y43955901D01*
X55441476Y44103110D01*
X55320155Y44333000D01*
X54127000Y44333000D01*
X54127000Y44313000D01*
X53873000Y44313000D01*
X53873000Y44333000D01*
X52679845Y44333000D01*
X52558524Y44103110D01*
X52603175Y43955901D01*
X52728359Y43693080D01*
X52902412Y43459731D01*
X53118645Y43264822D01*
X53235534Y43195195D01*
X53053368Y43073475D01*
X52846525Y42866632D01*
X52684010Y42623411D01*
X52572068Y42353158D01*
X52515000Y42066260D01*
X43126903Y42066260D01*
X43141718Y42312595D01*
X43097961Y42631675D01*
X42992795Y42936088D01*
X42899814Y43110044D01*
X42635413Y43205808D01*
X41679605Y42250000D01*
X41320395Y42250000D01*
X40364587Y43205808D01*
X40100186Y43110044D01*
X39959296Y42820429D01*
X39877616Y42508892D01*
X39858282Y42187405D01*
X36634189Y42187405D01*
X36641718Y42312595D01*
X36597961Y42631675D01*
X36492795Y42936088D01*
X36399814Y43110044D01*
X36135413Y43205808D01*
X35179605Y42250000D01*
X34820395Y42250000D01*
X33864587Y43205808D01*
X33600186Y43110044D01*
X33459296Y42820429D01*
X33377616Y42508892D01*
X33358282Y42187405D01*
X16762206Y42187405D01*
X17539802Y42965000D01*
X17601939Y42965000D01*
X17801898Y43004774D01*
X17990256Y43082795D01*
X18159774Y43196063D01*
X18303937Y43340226D01*
X18334129Y43385413D01*
X34044192Y43385413D01*
X35000000Y42429605D01*
X35955808Y43385413D01*
X40544192Y43385413D01*
X41500000Y42429605D01*
X42455808Y43385413D01*
X42360044Y43649814D01*
X42070429Y43790704D01*
X41758892Y43872384D01*
X41437405Y43891718D01*
X41118325Y43847961D01*
X40813912Y43742795D01*
X40639956Y43649814D01*
X40544192Y43385413D01*
X35955808Y43385413D01*
X35860044Y43649814D01*
X35570429Y43790704D01*
X35258892Y43872384D01*
X34937405Y43891718D01*
X34618325Y43847961D01*
X34313912Y43742795D01*
X34139956Y43649814D01*
X34044192Y43385413D01*
X18334129Y43385413D01*
X18417205Y43509744D01*
X18495226Y43698102D01*
X18535000Y43898061D01*
X18535000Y44101939D01*
X18495226Y44301898D01*
X18417205Y44490256D01*
X18303937Y44659774D01*
X18159774Y44803937D01*
X17990256Y44917205D01*
X17801898Y44995226D01*
X17601939Y45035000D01*
X17398061Y45035000D01*
X17198102Y44995226D01*
X17009744Y44917205D01*
X16840226Y44803937D01*
X16696063Y44659774D01*
X16582795Y44490256D01*
X16504774Y44301898D01*
X16465000Y44101939D01*
X16465000Y44039802D01*
X12952653Y40527454D01*
X12946632Y40533475D01*
X12772240Y40650000D01*
X12946632Y40766525D01*
X13153475Y40973368D01*
X13315990Y41216589D01*
X13427932Y41486842D01*
X13485000Y41773740D01*
X13485000Y42066260D01*
X13427932Y42353158D01*
X13315990Y42623411D01*
X13153475Y42866632D01*
X12946632Y43073475D01*
X12764466Y43195195D01*
X12881355Y43264822D01*
X13097588Y43459731D01*
X13271641Y43693080D01*
X13396825Y43955901D01*
X13441476Y44103110D01*
X13320155Y44333000D01*
X12127000Y44333000D01*
X12127000Y44313000D01*
X11873000Y44313000D01*
X11873000Y44333000D01*
X10679845Y44333000D01*
X10558524Y44103110D01*
X10603175Y43955901D01*
X10728359Y43693080D01*
X10902412Y43459731D01*
X11118645Y43264822D01*
X11235534Y43195195D01*
X11053368Y43073475D01*
X10846525Y42866632D01*
X10684010Y42623411D01*
X10572068Y42353158D01*
X10515000Y42066260D01*
X7360025Y42066260D01*
X7276890Y42091476D01*
X7047000Y41970155D01*
X6793000Y41970155D01*
X6563110Y42091476D01*
X6415901Y42046825D01*
X6153080Y41921641D01*
X5919731Y41747588D01*
X5724822Y41531355D01*
X5655195Y41414466D01*
X5533475Y41596632D01*
X5326632Y41803475D01*
X5083411Y41965990D01*
X4813158Y42077932D01*
X4526260Y42135000D01*
X4233740Y42135000D01*
X3946842Y42077932D01*
X3676589Y41965990D01*
X3433368Y41803475D01*
X3301513Y41671620D01*
X3279502Y41744180D01*
X3220537Y41854494D01*
X3141185Y41951185D01*
X3044494Y42030537D01*
X2934180Y42089502D01*
X2814482Y42125812D01*
X2690000Y42138072D01*
X990000Y42138072D01*
X865518Y42125812D01*
X745820Y42089502D01*
X660000Y42043630D01*
X660000Y46220128D01*
X1765000Y46220128D01*
X1765000Y45779872D01*
X1850890Y45348075D01*
X2019369Y44941331D01*
X2263962Y44575271D01*
X2575271Y44263962D01*
X2941331Y44019369D01*
X3348075Y43850890D01*
X3779872Y43765000D01*
X4220128Y43765000D01*
X4651925Y43850890D01*
X5058669Y44019369D01*
X5424729Y44263962D01*
X5736038Y44575271D01*
X5980631Y44941331D01*
X6149110Y45348075D01*
X6235000Y45779872D01*
X6235000Y46150000D01*
X10511928Y46150000D01*
X10524188Y46025518D01*
X10560498Y45905820D01*
X10619463Y45795506D01*
X10698815Y45698815D01*
X10795506Y45619463D01*
X10905820Y45560498D01*
X10986466Y45536034D01*
X10902412Y45460269D01*
X10728359Y45226920D01*
X10603175Y44964099D01*
X10558524Y44816890D01*
X10679845Y44587000D01*
X11873000Y44587000D01*
X11873000Y46873000D01*
X12127000Y46873000D01*
X12127000Y44587000D01*
X13320155Y44587000D01*
X13441476Y44816890D01*
X13396825Y44964099D01*
X13271641Y45226920D01*
X13142543Y45400000D01*
X33461928Y45400000D01*
X33474188Y45275518D01*
X33510498Y45155820D01*
X33569463Y45045506D01*
X33648815Y44948815D01*
X33745506Y44869463D01*
X33855820Y44810498D01*
X33975518Y44774188D01*
X34100000Y44761928D01*
X34664250Y44765000D01*
X34823000Y44923750D01*
X34823000Y46123000D01*
X33623750Y46123000D01*
X33465000Y45964250D01*
X33461928Y45400000D01*
X13142543Y45400000D01*
X13097588Y45460269D01*
X13013534Y45536034D01*
X13094180Y45560498D01*
X13204494Y45619463D01*
X13301185Y45698815D01*
X13380537Y45795506D01*
X13439502Y45905820D01*
X13475812Y46025518D01*
X13488072Y46150000D01*
X13485000Y46714250D01*
X13326250Y46873000D01*
X12127000Y46873000D01*
X11873000Y46873000D01*
X10673750Y46873000D01*
X10515000Y46714250D01*
X10511928Y46150000D01*
X6235000Y46150000D01*
X6235000Y46220128D01*
X6149110Y46651925D01*
X5980631Y47058669D01*
X5953015Y47100000D01*
X33461928Y47100000D01*
X33465000Y46535750D01*
X33623750Y46377000D01*
X34823000Y46377000D01*
X34823000Y47576250D01*
X35077000Y47576250D01*
X35077000Y46377000D01*
X35097000Y46377000D01*
X35097000Y46123000D01*
X35077000Y46123000D01*
X35077000Y44923750D01*
X35235750Y44765000D01*
X35800000Y44761928D01*
X35924482Y44774188D01*
X36044180Y44810498D01*
X36154494Y44869463D01*
X36251185Y44948815D01*
X36330537Y45045506D01*
X36389502Y45155820D01*
X36411513Y45228380D01*
X36543368Y45096525D01*
X36786589Y44934010D01*
X37056842Y44822068D01*
X37343740Y44765000D01*
X37636260Y44765000D01*
X37923158Y44822068D01*
X38193411Y44934010D01*
X38436632Y45096525D01*
X38643475Y45303368D01*
X38760000Y45477760D01*
X38876525Y45303368D01*
X39083368Y45096525D01*
X39326589Y44934010D01*
X39596842Y44822068D01*
X39883740Y44765000D01*
X40176260Y44765000D01*
X40463158Y44822068D01*
X40733411Y44934010D01*
X40976632Y45096525D01*
X41183475Y45303368D01*
X41300000Y45477760D01*
X41416525Y45303368D01*
X41623368Y45096525D01*
X41866589Y44934010D01*
X42136842Y44822068D01*
X42423740Y44765000D01*
X42716260Y44765000D01*
X43003158Y44822068D01*
X43273411Y44934010D01*
X43516632Y45096525D01*
X43723475Y45303368D01*
X43840000Y45477760D01*
X43956525Y45303368D01*
X44163368Y45096525D01*
X44406589Y44934010D01*
X44676842Y44822068D01*
X44963740Y44765000D01*
X45256260Y44765000D01*
X45543158Y44822068D01*
X45813411Y44934010D01*
X46056632Y45096525D01*
X46263475Y45303368D01*
X46380000Y45477760D01*
X46496525Y45303368D01*
X46703368Y45096525D01*
X46946589Y44934010D01*
X47216842Y44822068D01*
X47503740Y44765000D01*
X47796260Y44765000D01*
X48083158Y44822068D01*
X48353411Y44934010D01*
X48596632Y45096525D01*
X48803475Y45303368D01*
X48965990Y45546589D01*
X49077932Y45816842D01*
X49135000Y46103740D01*
X49135000Y46150000D01*
X52511928Y46150000D01*
X52524188Y46025518D01*
X52560498Y45905820D01*
X52619463Y45795506D01*
X52698815Y45698815D01*
X52795506Y45619463D01*
X52905820Y45560498D01*
X52986466Y45536034D01*
X52902412Y45460269D01*
X52728359Y45226920D01*
X52603175Y44964099D01*
X52558524Y44816890D01*
X52679845Y44587000D01*
X53873000Y44587000D01*
X53873000Y46873000D01*
X54127000Y46873000D01*
X54127000Y44587000D01*
X55320155Y44587000D01*
X55441476Y44816890D01*
X55396825Y44964099D01*
X55271641Y45226920D01*
X55097588Y45460269D01*
X55013534Y45536034D01*
X55094180Y45560498D01*
X55204494Y45619463D01*
X55301185Y45698815D01*
X55380537Y45795506D01*
X55439502Y45905820D01*
X55475812Y46025518D01*
X55488072Y46150000D01*
X55487691Y46220128D01*
X59765000Y46220128D01*
X59765000Y45779872D01*
X59850890Y45348075D01*
X60019369Y44941331D01*
X60263962Y44575271D01*
X60575271Y44263962D01*
X60941331Y44019369D01*
X61348075Y43850890D01*
X61779872Y43765000D01*
X62220128Y43765000D01*
X62651925Y43850890D01*
X63058669Y44019369D01*
X63424729Y44263962D01*
X63736038Y44575271D01*
X63980631Y44941331D01*
X64149110Y45348075D01*
X64235000Y45779872D01*
X64235000Y46220128D01*
X64149110Y46651925D01*
X63980631Y47058669D01*
X63736038Y47424729D01*
X63424729Y47736038D01*
X63058669Y47980631D01*
X62651925Y48149110D01*
X62220128Y48235000D01*
X61779872Y48235000D01*
X61348075Y48149110D01*
X60941331Y47980631D01*
X60575271Y47736038D01*
X60263962Y47424729D01*
X60019369Y47058669D01*
X59850890Y46651925D01*
X59765000Y46220128D01*
X55487691Y46220128D01*
X55485000Y46714250D01*
X55326250Y46873000D01*
X54127000Y46873000D01*
X53873000Y46873000D01*
X52673750Y46873000D01*
X52515000Y46714250D01*
X52511928Y46150000D01*
X49135000Y46150000D01*
X49135000Y46396260D01*
X49077932Y46683158D01*
X48965990Y46953411D01*
X48803475Y47196632D01*
X48596632Y47403475D01*
X48353411Y47565990D01*
X48083158Y47677932D01*
X47796260Y47735000D01*
X47503740Y47735000D01*
X47216842Y47677932D01*
X46946589Y47565990D01*
X46703368Y47403475D01*
X46496525Y47196632D01*
X46380000Y47022240D01*
X46263475Y47196632D01*
X46056632Y47403475D01*
X45813411Y47565990D01*
X45543158Y47677932D01*
X45256260Y47735000D01*
X44963740Y47735000D01*
X44676842Y47677932D01*
X44406589Y47565990D01*
X44163368Y47403475D01*
X43956525Y47196632D01*
X43840000Y47022240D01*
X43723475Y47196632D01*
X43516632Y47403475D01*
X43273411Y47565990D01*
X43003158Y47677932D01*
X42716260Y47735000D01*
X42423740Y47735000D01*
X42136842Y47677932D01*
X41866589Y47565990D01*
X41623368Y47403475D01*
X41416525Y47196632D01*
X41300000Y47022240D01*
X41183475Y47196632D01*
X40976632Y47403475D01*
X40733411Y47565990D01*
X40463158Y47677932D01*
X40176260Y47735000D01*
X39883740Y47735000D01*
X39596842Y47677932D01*
X39326589Y47565990D01*
X39083368Y47403475D01*
X38876525Y47196632D01*
X38760000Y47022240D01*
X38643475Y47196632D01*
X38436632Y47403475D01*
X38193411Y47565990D01*
X37923158Y47677932D01*
X37636260Y47735000D01*
X37343740Y47735000D01*
X37056842Y47677932D01*
X36786589Y47565990D01*
X36543368Y47403475D01*
X36411513Y47271620D01*
X36389502Y47344180D01*
X36330537Y47454494D01*
X36251185Y47551185D01*
X36154494Y47630537D01*
X36044180Y47689502D01*
X35924482Y47725812D01*
X35800000Y47738072D01*
X35235750Y47735000D01*
X35077000Y47576250D01*
X34823000Y47576250D01*
X34664250Y47735000D01*
X34100000Y47738072D01*
X33975518Y47725812D01*
X33855820Y47689502D01*
X33745506Y47630537D01*
X33648815Y47551185D01*
X33569463Y47454494D01*
X33510498Y47344180D01*
X33474188Y47224482D01*
X33461928Y47100000D01*
X5953015Y47100000D01*
X5736038Y47424729D01*
X5424729Y47736038D01*
X5254173Y47850000D01*
X10511928Y47850000D01*
X10515000Y47285750D01*
X10673750Y47127000D01*
X11873000Y47127000D01*
X11873000Y48326250D01*
X12127000Y48326250D01*
X12127000Y47127000D01*
X13326250Y47127000D01*
X13485000Y47285750D01*
X13488072Y47850000D01*
X52511928Y47850000D01*
X52515000Y47285750D01*
X52673750Y47127000D01*
X53873000Y47127000D01*
X53873000Y48326250D01*
X54127000Y48326250D01*
X54127000Y47127000D01*
X55326250Y47127000D01*
X55485000Y47285750D01*
X55488072Y47850000D01*
X55475812Y47974482D01*
X55439502Y48094180D01*
X55380537Y48204494D01*
X55301185Y48301185D01*
X55204494Y48380537D01*
X55094180Y48439502D01*
X54974482Y48475812D01*
X54850000Y48488072D01*
X54285750Y48485000D01*
X54127000Y48326250D01*
X53873000Y48326250D01*
X53714250Y48485000D01*
X53150000Y48488072D01*
X53025518Y48475812D01*
X52905820Y48439502D01*
X52795506Y48380537D01*
X52698815Y48301185D01*
X52619463Y48204494D01*
X52560498Y48094180D01*
X52524188Y47974482D01*
X52511928Y47850000D01*
X13488072Y47850000D01*
X13475812Y47974482D01*
X13439502Y48094180D01*
X13380537Y48204494D01*
X13301185Y48301185D01*
X13204494Y48380537D01*
X13094180Y48439502D01*
X12974482Y48475812D01*
X12850000Y48488072D01*
X12285750Y48485000D01*
X12127000Y48326250D01*
X11873000Y48326250D01*
X11714250Y48485000D01*
X11150000Y48488072D01*
X11025518Y48475812D01*
X10905820Y48439502D01*
X10795506Y48380537D01*
X10698815Y48301185D01*
X10619463Y48204494D01*
X10560498Y48094180D01*
X10524188Y47974482D01*
X10511928Y47850000D01*
X5254173Y47850000D01*
X5058669Y47980631D01*
X4651925Y48149110D01*
X4220128Y48235000D01*
X3779872Y48235000D01*
X3348075Y48149110D01*
X2941331Y47980631D01*
X2575271Y47736038D01*
X2263962Y47424729D01*
X2019369Y47058669D01*
X1850890Y46651925D01*
X1765000Y46220128D01*
X660000Y46220128D01*
X660000Y46967721D01*
X707670Y47453893D01*
X839489Y47890498D01*
X1053600Y48293185D01*
X1341848Y48646612D01*
X1693261Y48937327D01*
X2094439Y49154242D01*
X2530113Y49289106D01*
X3014344Y49340000D01*
X62967721Y49340000D01*
X63453893Y49292330D01*
M02*
