G04 #@! TF.GenerationSoftware,KiCad,Pcbnew,5.1.6-c6e7f7d~87~ubuntu20.04.1*
G04 #@! TF.CreationDate,2020-09-30T23:59:15+01:00*
G04 #@! TF.ProjectId,motor_board,6d6f746f-725f-4626-9f61-72642e6b6963,1.0*
G04 #@! TF.SameCoordinates,PX55d4a80PY5f5e100*
G04 #@! TF.FileFunction,Soldermask,Bot*
G04 #@! TF.FilePolarity,Negative*
%FSLAX46Y46*%
G04 Gerber Fmt 4.6, Leading zero omitted, Abs format (unit mm)*
G04 Created by KiCad (PCBNEW 5.1.6-c6e7f7d~87~ubuntu20.04.1) date 2020-09-30 23:59:15*
%MOMM*%
%LPD*%
G01*
G04 APERTURE LIST*
%ADD10O,1.800000X1.800000*%
%ADD11R,1.800000X1.800000*%
%ADD12C,2.100000*%
%ADD13O,2.180000X3.700000*%
%ADD14O,2.290000X1.840000*%
%ADD15C,3.300000*%
G04 APERTURE END LIST*
D10*
X54000000Y11440000D03*
X54000000Y13980000D03*
X54000000Y16520000D03*
X54000000Y19060000D03*
X54000000Y21600000D03*
X54000000Y24140000D03*
X54000000Y26680000D03*
X54000000Y29220000D03*
X54000000Y31760000D03*
X54000000Y34300000D03*
X54000000Y36840000D03*
X54000000Y39380000D03*
X54000000Y41920000D03*
X54000000Y44460000D03*
D11*
X54000000Y47000000D03*
D12*
X35000000Y37750000D03*
X35000000Y42250000D03*
X41500000Y37750000D03*
X41500000Y42250000D03*
D13*
X49080000Y3500000D03*
G36*
G01*
X42910000Y1912018D02*
X42910000Y5087982D01*
G75*
G02*
X43172018Y5350000I262018J0D01*
G01*
X44827982Y5350000D01*
G75*
G02*
X45090000Y5087982I0J-262018D01*
G01*
X45090000Y1912018D01*
G75*
G02*
X44827982Y1650000I-262018J0D01*
G01*
X43172018Y1650000D01*
G75*
G02*
X42910000Y1912018I0J262018D01*
G01*
G37*
D10*
X47650000Y46250000D03*
X45110000Y46250000D03*
X42570000Y46250000D03*
X40030000Y46250000D03*
X37490000Y46250000D03*
D11*
X34950000Y46250000D03*
D10*
X6920000Y13980000D03*
X4380000Y13980000D03*
D11*
X1840000Y13980000D03*
D10*
X6920000Y16520000D03*
X4380000Y16520000D03*
D11*
X1840000Y16520000D03*
D13*
X35740000Y3500000D03*
X30660000Y3500000D03*
X25580000Y3500000D03*
G36*
G01*
X19410000Y1912018D02*
X19410000Y5087982D01*
G75*
G02*
X19672018Y5350000I262018J0D01*
G01*
X21327982Y5350000D01*
G75*
G02*
X21590000Y5087982I0J-262018D01*
G01*
X21590000Y1912018D01*
G75*
G02*
X21327982Y1650000I-262018J0D01*
G01*
X19672018Y1650000D01*
G75*
G02*
X19410000Y1912018I0J262018D01*
G01*
G37*
D10*
X12000000Y11440000D03*
X12000000Y13980000D03*
X12000000Y16520000D03*
X12000000Y19060000D03*
X12000000Y21600000D03*
X12000000Y24140000D03*
X12000000Y26680000D03*
X12000000Y29220000D03*
X12000000Y31760000D03*
X12000000Y34300000D03*
X12000000Y36840000D03*
X12000000Y39380000D03*
X12000000Y41920000D03*
X12000000Y44460000D03*
D11*
X12000000Y47000000D03*
D10*
X6920000Y33030000D03*
X4380000Y33030000D03*
D11*
X1840000Y33030000D03*
D10*
X6920000Y35570000D03*
X4380000Y35570000D03*
D11*
X1840000Y35570000D03*
D14*
X61620000Y22870000D03*
X61620000Y25410000D03*
X61620000Y27950000D03*
X61620000Y30490000D03*
X61620000Y33030000D03*
G36*
G01*
X60739367Y36490000D02*
X62500633Y36490000D01*
G75*
G02*
X62765000Y36225633I0J-264367D01*
G01*
X62765000Y34914367D01*
G75*
G02*
X62500633Y34650000I-264367J0D01*
G01*
X60739367Y34650000D01*
G75*
G02*
X60475000Y34914367I0J264367D01*
G01*
X60475000Y36225633D01*
G75*
G02*
X60739367Y36490000I264367J0D01*
G01*
G37*
D10*
X6920000Y38110000D03*
X4380000Y38110000D03*
D11*
X1840000Y38110000D03*
D10*
X6920000Y40650000D03*
X4380000Y40650000D03*
D11*
X1840000Y40650000D03*
D15*
X62000000Y4000000D03*
X4000000Y46000000D03*
X4000000Y4000000D03*
X62000000Y46000000D03*
M02*
