G04 #@! TF.GenerationSoftware,KiCad,Pcbnew,5.1.6-c6e7f7d~87~ubuntu20.04.1*
G04 #@! TF.CreationDate,2020-09-30T23:59:15+01:00*
G04 #@! TF.ProjectId,motor_board,6d6f746f-725f-4626-9f61-72642e6b6963,1.0*
G04 #@! TF.SameCoordinates,PX55d4a80PY5f5e100*
G04 #@! TF.FileFunction,Legend,Top*
G04 #@! TF.FilePolarity,Positive*
%FSLAX46Y46*%
G04 Gerber Fmt 4.6, Leading zero omitted, Abs format (unit mm)*
G04 Created by KiCad (PCBNEW 5.1.6-c6e7f7d~87~ubuntu20.04.1) date 2020-09-30 23:59:15*
%MOMM*%
%LPD*%
G01*
G04 APERTURE LIST*
%ADD10C,0.120000*%
%ADD11C,0.150000*%
%ADD12O,1.800000X1.800000*%
%ADD13R,1.800000X1.800000*%
%ADD14R,0.750000X1.160000*%
%ADD15R,0.750000X0.500000*%
%ADD16C,2.100000*%
%ADD17O,2.180000X3.700000*%
%ADD18R,2.895000X0.840000*%
%ADD19O,2.290000X1.840000*%
%ADD20C,3.300000*%
%ADD21R,1.000000X0.900000*%
G04 APERTURE END LIST*
D10*
X26162779Y16990000D02*
X25837221Y16990000D01*
X26162779Y18010000D02*
X25837221Y18010000D01*
X26162779Y12490000D02*
X25837221Y12490000D01*
X26162779Y13510000D02*
X25837221Y13510000D01*
X2890000Y23900000D02*
X2890000Y21450000D01*
X6110000Y22100000D02*
X6110000Y23900000D01*
X40250000Y14060000D02*
X36800000Y14060000D01*
X40250000Y14060000D02*
X42200000Y14060000D01*
X40250000Y8940000D02*
X38300000Y8940000D01*
X40250000Y8940000D02*
X42200000Y8940000D01*
X39810000Y29110000D02*
X39810000Y30425000D01*
X40110000Y29110000D02*
X39810000Y29110000D01*
X40110000Y28810000D02*
X40110000Y29110000D01*
X40110000Y21890000D02*
X39810000Y21890000D01*
X40110000Y22190000D02*
X40110000Y21890000D01*
X32890000Y29110000D02*
X33190000Y29110000D01*
X32890000Y28810000D02*
X32890000Y29110000D01*
X32890000Y21890000D02*
X33190000Y21890000D01*
X32890000Y22190000D02*
X32890000Y21890000D01*
X26700000Y16410000D02*
X25300000Y16410000D01*
X25300000Y14090000D02*
X27200000Y14090000D01*
X26700000Y20910000D02*
X25300000Y20910000D01*
X25300000Y18590000D02*
X27200000Y18590000D01*
X34750000Y40750000D02*
X34750000Y39250000D01*
X36000000Y36750000D02*
X40500000Y36750000D01*
X41750000Y39250000D02*
X41750000Y40750000D01*
X40500000Y43250000D02*
X36000000Y43250000D01*
X44760000Y36337221D02*
X44760000Y36662779D01*
X43740000Y36337221D02*
X43740000Y36662779D01*
X33760000Y15587221D02*
X33760000Y15912779D01*
X32740000Y15587221D02*
X32740000Y15912779D01*
X31260000Y15587221D02*
X31260000Y15912779D01*
X30240000Y15587221D02*
X30240000Y15912779D01*
X15337779Y36080000D02*
X15012221Y36080000D01*
X15337779Y35060000D02*
X15012221Y35060000D01*
X15337779Y38620000D02*
X15012221Y38620000D01*
X15337779Y37600000D02*
X15012221Y37600000D01*
X15337779Y41160000D02*
X15012221Y41160000D01*
X15337779Y40140000D02*
X15012221Y40140000D01*
X15337779Y43700000D02*
X15012221Y43700000D01*
X15337779Y42680000D02*
X15012221Y42680000D01*
X43700000Y6410000D02*
X44300000Y6410000D01*
X44000000Y5810000D02*
X43700000Y6410000D01*
X44300000Y6410000D02*
X44000000Y5810000D01*
X48330000Y-5110000D02*
X48080000Y-6610000D01*
X49830000Y-5110000D02*
X48330000Y-5110000D01*
X50080000Y-6610000D02*
X49830000Y-5110000D01*
X48080000Y-6610000D02*
X50080000Y-6610000D01*
X43250000Y-5110000D02*
X43000000Y-6610000D01*
X44750000Y-5110000D02*
X43250000Y-5110000D01*
X45000000Y-6610000D02*
X44750000Y-5110000D01*
X43000000Y-6610000D02*
X45000000Y-6610000D01*
X52730000Y-5110000D02*
X40350000Y-5110000D01*
X52730000Y-3310000D02*
X52730000Y-5110000D01*
X40350000Y-3310000D02*
X52730000Y-3310000D01*
X40350000Y-5110000D02*
X40350000Y-3310000D01*
X52730000Y5610000D02*
X40350000Y5610000D01*
X52730000Y-6610000D02*
X52730000Y5610000D01*
X40350000Y-6610000D02*
X52730000Y-6610000D01*
X40350000Y5610000D02*
X40350000Y-6610000D01*
X33620000Y44920000D02*
X33620000Y46250000D01*
X34950000Y44920000D02*
X33620000Y44920000D01*
X36220000Y44920000D02*
X36220000Y47580000D01*
X36220000Y47580000D02*
X48980000Y47580000D01*
X36220000Y44920000D02*
X48980000Y44920000D01*
X48980000Y44920000D02*
X48980000Y47580000D01*
X510000Y12650000D02*
X510000Y13980000D01*
X1840000Y12650000D02*
X510000Y12650000D01*
X3110000Y12650000D02*
X3110000Y15310000D01*
X3110000Y15310000D02*
X8250000Y15310000D01*
X3110000Y12650000D02*
X8250000Y12650000D01*
X8250000Y12650000D02*
X8250000Y15310000D01*
X510000Y15190000D02*
X510000Y16520000D01*
X1840000Y15190000D02*
X510000Y15190000D01*
X3110000Y15190000D02*
X3110000Y17850000D01*
X3110000Y17850000D02*
X8250000Y17850000D01*
X3110000Y15190000D02*
X8250000Y15190000D01*
X8250000Y15190000D02*
X8250000Y17850000D01*
X20200000Y6410000D02*
X20800000Y6410000D01*
X20500000Y5810000D02*
X20200000Y6410000D01*
X20800000Y6410000D02*
X20500000Y5810000D01*
X34990000Y-5110000D02*
X34740000Y-6610000D01*
X36490000Y-5110000D02*
X34990000Y-5110000D01*
X36740000Y-6610000D02*
X36490000Y-5110000D01*
X34740000Y-6610000D02*
X36740000Y-6610000D01*
X29910000Y-5110000D02*
X29660000Y-6610000D01*
X31410000Y-5110000D02*
X29910000Y-5110000D01*
X31660000Y-6610000D02*
X31410000Y-5110000D01*
X29660000Y-6610000D02*
X31660000Y-6610000D01*
X24830000Y-5110000D02*
X24580000Y-6610000D01*
X26330000Y-5110000D02*
X24830000Y-5110000D01*
X26580000Y-6610000D02*
X26330000Y-5110000D01*
X24580000Y-6610000D02*
X26580000Y-6610000D01*
X19750000Y-5110000D02*
X19500000Y-6610000D01*
X21250000Y-5110000D02*
X19750000Y-5110000D01*
X21500000Y-6610000D02*
X21250000Y-5110000D01*
X19500000Y-6610000D02*
X21500000Y-6610000D01*
X39390000Y-5110000D02*
X16850000Y-5110000D01*
X39390000Y-3310000D02*
X39390000Y-5110000D01*
X16850000Y-3310000D02*
X39390000Y-3310000D01*
X16850000Y-5110000D02*
X16850000Y-3310000D01*
X39390000Y5610000D02*
X16850000Y5610000D01*
X39390000Y-6610000D02*
X39390000Y5610000D01*
X16850000Y-6610000D02*
X39390000Y-6610000D01*
X16850000Y5610000D02*
X16850000Y-6610000D01*
X49905000Y12805000D02*
X50794000Y13440000D01*
X50794000Y12170000D02*
X49905000Y12805000D01*
X50800000Y10900000D02*
X50800000Y13900000D01*
X50800000Y23600000D02*
X50800000Y20600000D01*
X45200000Y23600000D02*
X45200000Y20600000D01*
X45200000Y10900000D02*
X45200000Y13900000D01*
X45200000Y10900000D02*
X50800000Y10900000D01*
X50800000Y23600000D02*
X45200000Y23600000D01*
X510000Y31700000D02*
X510000Y33030000D01*
X1840000Y31700000D02*
X510000Y31700000D01*
X3110000Y31700000D02*
X3110000Y34360000D01*
X3110000Y34360000D02*
X8250000Y34360000D01*
X3110000Y31700000D02*
X8250000Y31700000D01*
X8250000Y31700000D02*
X8250000Y34360000D01*
X510000Y34240000D02*
X510000Y35570000D01*
X1840000Y34240000D02*
X510000Y34240000D01*
X3110000Y34240000D02*
X3110000Y36900000D01*
X3110000Y36900000D02*
X8250000Y36900000D01*
X3110000Y34240000D02*
X8250000Y34240000D01*
X8250000Y34240000D02*
X8250000Y36900000D01*
X64050000Y22070000D02*
X64650000Y22070000D01*
X64050000Y23670000D02*
X64050000Y22070000D01*
X64650000Y23670000D02*
X64050000Y23670000D01*
X64050000Y24610000D02*
X64650000Y24610000D01*
X64050000Y26210000D02*
X64050000Y24610000D01*
X64650000Y26210000D02*
X64050000Y26210000D01*
X64050000Y27150000D02*
X64650000Y27150000D01*
X64050000Y28750000D02*
X64050000Y27150000D01*
X64650000Y28750000D02*
X64050000Y28750000D01*
X64050000Y29690000D02*
X64650000Y29690000D01*
X64050000Y31290000D02*
X64050000Y29690000D01*
X64650000Y31290000D02*
X64050000Y31290000D01*
X64050000Y32230000D02*
X64650000Y32230000D01*
X64050000Y33830000D02*
X64050000Y32230000D01*
X64650000Y33830000D02*
X64050000Y33830000D01*
X64050000Y34770000D02*
X64650000Y34770000D01*
X64050000Y36370000D02*
X64050000Y34770000D01*
X64650000Y36370000D02*
X64050000Y36370000D01*
X58630000Y23120000D02*
X59630000Y23120000D01*
X58630000Y35320000D02*
X59630000Y35320000D01*
X60160000Y23120000D02*
X59630000Y22870000D01*
X60160000Y35320000D02*
X60160000Y23120000D01*
X59630000Y35570000D02*
X60160000Y35320000D01*
X59630000Y22870000D02*
X58630000Y22870000D01*
X59630000Y35570000D02*
X59630000Y22870000D01*
X58630000Y35570000D02*
X59630000Y35570000D01*
X63620000Y37240000D02*
X59620000Y37240000D01*
X64650000Y21490000D02*
X64650000Y36950000D01*
X58630000Y21490000D02*
X64650000Y21490000D01*
X58630000Y36950000D02*
X58630000Y21490000D01*
X64650000Y36950000D02*
X58630000Y36950000D01*
X510000Y36780000D02*
X510000Y38110000D01*
X1840000Y36780000D02*
X510000Y36780000D01*
X3110000Y36780000D02*
X3110000Y39440000D01*
X3110000Y39440000D02*
X8250000Y39440000D01*
X3110000Y36780000D02*
X8250000Y36780000D01*
X8250000Y36780000D02*
X8250000Y39440000D01*
X510000Y39320000D02*
X510000Y40650000D01*
X1840000Y39320000D02*
X510000Y39320000D01*
X3110000Y39320000D02*
X3110000Y41980000D01*
X3110000Y41980000D02*
X8250000Y41980000D01*
X3110000Y39320000D02*
X8250000Y39320000D01*
X8250000Y39320000D02*
X8250000Y41980000D01*
X33985000Y10765000D02*
X33985000Y13050000D01*
X32515000Y10765000D02*
X33985000Y10765000D01*
X32515000Y13050000D02*
X32515000Y10765000D01*
X31485000Y10765000D02*
X31485000Y13050000D01*
X30015000Y10765000D02*
X31485000Y10765000D01*
X30015000Y13050000D02*
X30015000Y10765000D01*
X19745000Y33990000D02*
X18285000Y33990000D01*
X19745000Y37150000D02*
X17585000Y37150000D01*
X19745000Y37150000D02*
X19745000Y36220000D01*
X19745000Y33990000D02*
X19745000Y34920000D01*
X23555000Y36530000D02*
X22095000Y36530000D01*
X23555000Y39690000D02*
X21395000Y39690000D01*
X23555000Y39690000D02*
X23555000Y38760000D01*
X23555000Y36530000D02*
X23555000Y37460000D01*
X19745000Y39070000D02*
X18285000Y39070000D01*
X19745000Y42230000D02*
X17585000Y42230000D01*
X19745000Y42230000D02*
X19745000Y41300000D01*
X19745000Y39070000D02*
X19745000Y40000000D01*
X23555000Y41610000D02*
X22095000Y41610000D01*
X23555000Y44770000D02*
X21395000Y44770000D01*
X23555000Y44770000D02*
X23555000Y43840000D01*
X23555000Y41610000D02*
X23555000Y42540000D01*
X4337221Y26990000D02*
X4662779Y26990000D01*
X4337221Y28010000D02*
X4662779Y28010000D01*
X6087221Y25240000D02*
X6412779Y25240000D01*
X6087221Y26260000D02*
X6412779Y26260000D01*
X4337221Y19740000D02*
X4662779Y19740000D01*
X4337221Y20760000D02*
X4662779Y20760000D01*
X41337221Y14740000D02*
X41662779Y14740000D01*
X41337221Y15760000D02*
X41662779Y15760000D01*
X33010000Y39587221D02*
X33010000Y39912779D01*
X31990000Y39587221D02*
X31990000Y39912779D01*
X38087221Y32490000D02*
X38412779Y32490000D01*
X38087221Y33510000D02*
X38412779Y33510000D01*
X37991422Y34290000D02*
X38508578Y34290000D01*
X37991422Y35710000D02*
X38508578Y35710000D01*
D11*
X23333333Y17142858D02*
X23285714Y17095239D01*
X23142857Y17047620D01*
X23047619Y17047620D01*
X22904761Y17095239D01*
X22809523Y17190477D01*
X22761904Y17285715D01*
X22714285Y17476191D01*
X22714285Y17619048D01*
X22761904Y17809524D01*
X22809523Y17904762D01*
X22904761Y18000000D01*
X23047619Y18047620D01*
X23142857Y18047620D01*
X23285714Y18000000D01*
X23333333Y17952381D01*
X23809523Y17047620D02*
X24000000Y17047620D01*
X24095238Y17095239D01*
X24142857Y17142858D01*
X24238095Y17285715D01*
X24285714Y17476191D01*
X24285714Y17857143D01*
X24238095Y17952381D01*
X24190476Y18000000D01*
X24095238Y18047620D01*
X23904761Y18047620D01*
X23809523Y18000000D01*
X23761904Y17952381D01*
X23714285Y17857143D01*
X23714285Y17619048D01*
X23761904Y17523810D01*
X23809523Y17476191D01*
X23904761Y17428572D01*
X24095238Y17428572D01*
X24190476Y17476191D01*
X24238095Y17523810D01*
X24285714Y17619048D01*
X23333333Y12642858D02*
X23285714Y12595239D01*
X23142857Y12547620D01*
X23047619Y12547620D01*
X22904761Y12595239D01*
X22809523Y12690477D01*
X22761904Y12785715D01*
X22714285Y12976191D01*
X22714285Y13119048D01*
X22761904Y13309524D01*
X22809523Y13404762D01*
X22904761Y13500000D01*
X23047619Y13547620D01*
X23142857Y13547620D01*
X23285714Y13500000D01*
X23333333Y13452381D01*
X23904761Y13119048D02*
X23809523Y13166667D01*
X23761904Y13214286D01*
X23714285Y13309524D01*
X23714285Y13357143D01*
X23761904Y13452381D01*
X23809523Y13500000D01*
X23904761Y13547620D01*
X24095238Y13547620D01*
X24190476Y13500000D01*
X24238095Y13452381D01*
X24285714Y13357143D01*
X24285714Y13309524D01*
X24238095Y13214286D01*
X24190476Y13166667D01*
X24095238Y13119048D01*
X23904761Y13119048D01*
X23809523Y13071429D01*
X23761904Y13023810D01*
X23714285Y12928572D01*
X23714285Y12738096D01*
X23761904Y12642858D01*
X23809523Y12595239D01*
X23904761Y12547620D01*
X24095238Y12547620D01*
X24190476Y12595239D01*
X24238095Y12642858D01*
X24285714Y12738096D01*
X24285714Y12928572D01*
X24238095Y13023810D01*
X24190476Y13071429D01*
X24095238Y13119048D01*
X1052380Y22238096D02*
X1861904Y22238096D01*
X1957142Y22285715D01*
X2004761Y22333334D01*
X2052380Y22428572D01*
X2052380Y22619048D01*
X2004761Y22714286D01*
X1957142Y22761905D01*
X1861904Y22809524D01*
X1052380Y22809524D01*
X1052380Y23761905D02*
X1052380Y23285715D01*
X1528571Y23238096D01*
X1480952Y23285715D01*
X1433333Y23380953D01*
X1433333Y23619048D01*
X1480952Y23714286D01*
X1528571Y23761905D01*
X1623809Y23809524D01*
X1861904Y23809524D01*
X1957142Y23761905D01*
X2004761Y23714286D01*
X2052380Y23619048D01*
X2052380Y23380953D01*
X2004761Y23285715D01*
X1957142Y23238096D01*
X37488095Y15547620D02*
X37488095Y14738096D01*
X37535714Y14642858D01*
X37583333Y14595239D01*
X37678571Y14547620D01*
X37869047Y14547620D01*
X37964285Y14595239D01*
X38011904Y14642858D01*
X38059523Y14738096D01*
X38059523Y15547620D01*
X38964285Y15214286D02*
X38964285Y14547620D01*
X38726190Y15595239D02*
X38488095Y14880953D01*
X39107142Y14880953D01*
X41832380Y24738096D02*
X42641904Y24738096D01*
X42737142Y24785715D01*
X42784761Y24833334D01*
X42832380Y24928572D01*
X42832380Y25119048D01*
X42784761Y25214286D01*
X42737142Y25261905D01*
X42641904Y25309524D01*
X41832380Y25309524D01*
X41832380Y25690477D02*
X41832380Y26309524D01*
X42213333Y25976191D01*
X42213333Y26119048D01*
X42260952Y26214286D01*
X42308571Y26261905D01*
X42403809Y26309524D01*
X42641904Y26309524D01*
X42737142Y26261905D01*
X42784761Y26214286D01*
X42832380Y26119048D01*
X42832380Y25833334D01*
X42784761Y25738096D01*
X42737142Y25690477D01*
X22738095Y15797620D02*
X22738095Y14988096D01*
X22785714Y14892858D01*
X22833333Y14845239D01*
X22928571Y14797620D01*
X23119047Y14797620D01*
X23214285Y14845239D01*
X23261904Y14892858D01*
X23309523Y14988096D01*
X23309523Y15797620D01*
X23738095Y15702381D02*
X23785714Y15750000D01*
X23880952Y15797620D01*
X24119047Y15797620D01*
X24214285Y15750000D01*
X24261904Y15702381D01*
X24309523Y15607143D01*
X24309523Y15511905D01*
X24261904Y15369048D01*
X23690476Y14797620D01*
X24309523Y14797620D01*
X22738095Y20297620D02*
X22738095Y19488096D01*
X22785714Y19392858D01*
X22833333Y19345239D01*
X22928571Y19297620D01*
X23119047Y19297620D01*
X23214285Y19345239D01*
X23261904Y19392858D01*
X23309523Y19488096D01*
X23309523Y20297620D01*
X24309523Y19297620D02*
X23738095Y19297620D01*
X24023809Y19297620D02*
X24023809Y20297620D01*
X23928571Y20154762D01*
X23833333Y20059524D01*
X23738095Y20011905D01*
X43166666Y40845239D02*
X43309523Y40797620D01*
X43547619Y40797620D01*
X43642857Y40845239D01*
X43690476Y40892858D01*
X43738095Y40988096D01*
X43738095Y41083334D01*
X43690476Y41178572D01*
X43642857Y41226191D01*
X43547619Y41273810D01*
X43357142Y41321429D01*
X43261904Y41369048D01*
X43214285Y41416667D01*
X43166666Y41511905D01*
X43166666Y41607143D01*
X43214285Y41702381D01*
X43261904Y41750000D01*
X43357142Y41797620D01*
X43595238Y41797620D01*
X43738095Y41750000D01*
X44071428Y41797620D02*
X44309523Y40797620D01*
X44500000Y41511905D01*
X44690476Y40797620D01*
X44928571Y41797620D01*
X45833333Y40797620D02*
X45261904Y40797620D01*
X45547619Y40797620D02*
X45547619Y41797620D01*
X45452380Y41654762D01*
X45357142Y41559524D01*
X45261904Y41511905D01*
X43797619Y39297620D02*
X43464285Y39773810D01*
X43226190Y39297620D02*
X43226190Y40297620D01*
X43607142Y40297620D01*
X43702380Y40250000D01*
X43750000Y40202381D01*
X43797619Y40107143D01*
X43797619Y39964286D01*
X43750000Y39869048D01*
X43702380Y39821429D01*
X43607142Y39773810D01*
X43226190Y39773810D01*
X44226190Y39821429D02*
X44559523Y39821429D01*
X44702380Y39297620D02*
X44226190Y39297620D01*
X44226190Y40297620D01*
X44702380Y40297620D01*
X45083333Y39345239D02*
X45226190Y39297620D01*
X45464285Y39297620D01*
X45559523Y39345239D01*
X45607142Y39392858D01*
X45654761Y39488096D01*
X45654761Y39583334D01*
X45607142Y39678572D01*
X45559523Y39726191D01*
X45464285Y39773810D01*
X45273809Y39821429D01*
X45178571Y39869048D01*
X45130952Y39916667D01*
X45083333Y40011905D01*
X45083333Y40107143D01*
X45130952Y40202381D01*
X45178571Y40250000D01*
X45273809Y40297620D01*
X45511904Y40297620D01*
X45654761Y40250000D01*
X46083333Y39821429D02*
X46416666Y39821429D01*
X46559523Y39297620D02*
X46083333Y39297620D01*
X46083333Y40297620D01*
X46559523Y40297620D01*
X46845238Y40297620D02*
X47416666Y40297620D01*
X47130952Y39297620D02*
X47130952Y40297620D01*
X46202380Y36333334D02*
X45726190Y36000000D01*
X46202380Y35761905D02*
X45202380Y35761905D01*
X45202380Y36142858D01*
X45250000Y36238096D01*
X45297619Y36285715D01*
X45392857Y36333334D01*
X45535714Y36333334D01*
X45630952Y36285715D01*
X45678571Y36238096D01*
X45726190Y36142858D01*
X45726190Y35761905D01*
X45202380Y36666667D02*
X45202380Y37333334D01*
X46202380Y36904762D01*
X35202380Y15583334D02*
X34726190Y15250000D01*
X35202380Y15011905D02*
X34202380Y15011905D01*
X34202380Y15392858D01*
X34250000Y15488096D01*
X34297619Y15535715D01*
X34392857Y15583334D01*
X34535714Y15583334D01*
X34630952Y15535715D01*
X34678571Y15488096D01*
X34726190Y15392858D01*
X34726190Y15011905D01*
X34202380Y16440477D02*
X34202380Y16250000D01*
X34250000Y16154762D01*
X34297619Y16107143D01*
X34440476Y16011905D01*
X34630952Y15964286D01*
X35011904Y15964286D01*
X35107142Y16011905D01*
X35154761Y16059524D01*
X35202380Y16154762D01*
X35202380Y16345239D01*
X35154761Y16440477D01*
X35107142Y16488096D01*
X35011904Y16535715D01*
X34773809Y16535715D01*
X34678571Y16488096D01*
X34630952Y16440477D01*
X34583333Y16345239D01*
X34583333Y16154762D01*
X34630952Y16059524D01*
X34678571Y16011905D01*
X34773809Y15964286D01*
X29772380Y15583334D02*
X29296190Y15250000D01*
X29772380Y15011905D02*
X28772380Y15011905D01*
X28772380Y15392858D01*
X28820000Y15488096D01*
X28867619Y15535715D01*
X28962857Y15583334D01*
X29105714Y15583334D01*
X29200952Y15535715D01*
X29248571Y15488096D01*
X29296190Y15392858D01*
X29296190Y15011905D01*
X28772380Y16488096D02*
X28772380Y16011905D01*
X29248571Y15964286D01*
X29200952Y16011905D01*
X29153333Y16107143D01*
X29153333Y16345239D01*
X29200952Y16440477D01*
X29248571Y16488096D01*
X29343809Y16535715D01*
X29581904Y16535715D01*
X29677142Y16488096D01*
X29724761Y16440477D01*
X29772380Y16345239D01*
X29772380Y16107143D01*
X29724761Y16011905D01*
X29677142Y15964286D01*
X15008333Y33687620D02*
X14675000Y34163810D01*
X14436904Y33687620D02*
X14436904Y34687620D01*
X14817857Y34687620D01*
X14913095Y34640000D01*
X14960714Y34592381D01*
X15008333Y34497143D01*
X15008333Y34354286D01*
X14960714Y34259048D01*
X14913095Y34211429D01*
X14817857Y34163810D01*
X14436904Y34163810D01*
X15865476Y34354286D02*
X15865476Y33687620D01*
X15627380Y34735239D02*
X15389285Y34020953D01*
X16008333Y34020953D01*
X15008333Y36227620D02*
X14675000Y36703810D01*
X14436904Y36227620D02*
X14436904Y37227620D01*
X14817857Y37227620D01*
X14913095Y37180000D01*
X14960714Y37132381D01*
X15008333Y37037143D01*
X15008333Y36894286D01*
X14960714Y36799048D01*
X14913095Y36751429D01*
X14817857Y36703810D01*
X14436904Y36703810D01*
X15341666Y37227620D02*
X15960714Y37227620D01*
X15627380Y36846667D01*
X15770238Y36846667D01*
X15865476Y36799048D01*
X15913095Y36751429D01*
X15960714Y36656191D01*
X15960714Y36418096D01*
X15913095Y36322858D01*
X15865476Y36275239D01*
X15770238Y36227620D01*
X15484523Y36227620D01*
X15389285Y36275239D01*
X15341666Y36322858D01*
X15008333Y38767620D02*
X14675000Y39243810D01*
X14436904Y38767620D02*
X14436904Y39767620D01*
X14817857Y39767620D01*
X14913095Y39720000D01*
X14960714Y39672381D01*
X15008333Y39577143D01*
X15008333Y39434286D01*
X14960714Y39339048D01*
X14913095Y39291429D01*
X14817857Y39243810D01*
X14436904Y39243810D01*
X15389285Y39672381D02*
X15436904Y39720000D01*
X15532142Y39767620D01*
X15770238Y39767620D01*
X15865476Y39720000D01*
X15913095Y39672381D01*
X15960714Y39577143D01*
X15960714Y39481905D01*
X15913095Y39339048D01*
X15341666Y38767620D01*
X15960714Y38767620D01*
X15008333Y41307620D02*
X14675000Y41783810D01*
X14436904Y41307620D02*
X14436904Y42307620D01*
X14817857Y42307620D01*
X14913095Y42260000D01*
X14960714Y42212381D01*
X15008333Y42117143D01*
X15008333Y41974286D01*
X14960714Y41879048D01*
X14913095Y41831429D01*
X14817857Y41783810D01*
X14436904Y41783810D01*
X15960714Y41307620D02*
X15389285Y41307620D01*
X15675000Y41307620D02*
X15675000Y42307620D01*
X15579761Y42164762D01*
X15484523Y42069524D01*
X15389285Y42021905D01*
X41190476Y7297620D02*
X41190476Y6583334D01*
X41142857Y6440477D01*
X41047619Y6345239D01*
X40904761Y6297620D01*
X40809523Y6297620D01*
X42190476Y6297620D02*
X41619047Y6297620D01*
X41904761Y6297620D02*
X41904761Y7297620D01*
X41809523Y7154762D01*
X41714285Y7059524D01*
X41619047Y7011905D01*
X42523809Y7297620D02*
X43142857Y7297620D01*
X42809523Y6916667D01*
X42952380Y6916667D01*
X43047619Y6869048D01*
X43095238Y6821429D01*
X43142857Y6726191D01*
X43142857Y6488096D01*
X43095238Y6392858D01*
X43047619Y6345239D01*
X42952380Y6297620D01*
X42666666Y6297620D01*
X42571428Y6345239D01*
X42523809Y6392858D01*
X48154761Y6297620D02*
X47821428Y6773810D01*
X47583333Y6297620D02*
X47583333Y7297620D01*
X47964285Y7297620D01*
X48059523Y7250000D01*
X48107142Y7202381D01*
X48154761Y7107143D01*
X48154761Y6964286D01*
X48107142Y6869048D01*
X48059523Y6821429D01*
X47964285Y6773810D01*
X47583333Y6773810D01*
X48535714Y6345239D02*
X48678571Y6297620D01*
X48916666Y6297620D01*
X49011904Y6345239D01*
X49059523Y6392858D01*
X49107142Y6488096D01*
X49107142Y6583334D01*
X49059523Y6678572D01*
X49011904Y6726191D01*
X48916666Y6773810D01*
X48726190Y6821429D01*
X48630952Y6869048D01*
X48583333Y6916667D01*
X48535714Y7011905D01*
X48535714Y7107143D01*
X48583333Y7202381D01*
X48630952Y7250000D01*
X48726190Y7297620D01*
X48964285Y7297620D01*
X49107142Y7250000D01*
X49964285Y6964286D02*
X49964285Y6297620D01*
X49726190Y7345239D02*
X49488095Y6630953D01*
X50107142Y6630953D01*
X50630952Y6869048D02*
X50535714Y6916667D01*
X50488095Y6964286D01*
X50440476Y7059524D01*
X50440476Y7107143D01*
X50488095Y7202381D01*
X50535714Y7250000D01*
X50630952Y7297620D01*
X50821428Y7297620D01*
X50916666Y7250000D01*
X50964285Y7202381D01*
X51011904Y7107143D01*
X51011904Y7059524D01*
X50964285Y6964286D01*
X50916666Y6916667D01*
X50821428Y6869048D01*
X50630952Y6869048D01*
X50535714Y6821429D01*
X50488095Y6773810D01*
X50440476Y6678572D01*
X50440476Y6488096D01*
X50488095Y6392858D01*
X50535714Y6345239D01*
X50630952Y6297620D01*
X50821428Y6297620D01*
X50916666Y6345239D01*
X50964285Y6392858D01*
X51011904Y6488096D01*
X51011904Y6678572D01*
X50964285Y6773810D01*
X50916666Y6821429D01*
X50821428Y6869048D01*
X51916666Y7297620D02*
X51440476Y7297620D01*
X51392857Y6821429D01*
X51440476Y6869048D01*
X51535714Y6916667D01*
X51773809Y6916667D01*
X51869047Y6869048D01*
X51916666Y6821429D01*
X51964285Y6726191D01*
X51964285Y6488096D01*
X51916666Y6392858D01*
X51869047Y6345239D01*
X51773809Y6297620D01*
X51535714Y6297620D01*
X51440476Y6345239D01*
X51392857Y6392858D01*
X32072380Y45440477D02*
X32786666Y45440477D01*
X32929523Y45392858D01*
X33024761Y45297620D01*
X33072380Y45154762D01*
X33072380Y45059524D01*
X33072380Y46440477D02*
X33072380Y45869048D01*
X33072380Y46154762D02*
X32072380Y46154762D01*
X32215238Y46059524D01*
X32310476Y45964286D01*
X32358095Y45869048D01*
X32167619Y46821429D02*
X32120000Y46869048D01*
X32072380Y46964286D01*
X32072380Y47202381D01*
X32120000Y47297620D01*
X32167619Y47345239D01*
X32262857Y47392858D01*
X32358095Y47392858D01*
X32500952Y47345239D01*
X33072380Y46773810D01*
X33072380Y47392858D01*
X50432380Y44011905D02*
X49432380Y44011905D01*
X49432380Y44250000D01*
X49480000Y44392858D01*
X49575238Y44488096D01*
X49670476Y44535715D01*
X49860952Y44583334D01*
X50003809Y44583334D01*
X50194285Y44535715D01*
X50289523Y44488096D01*
X50384761Y44392858D01*
X50432380Y44250000D01*
X50432380Y44011905D01*
X49908571Y45011905D02*
X49908571Y45345239D01*
X50432380Y45488096D02*
X50432380Y45011905D01*
X49432380Y45011905D01*
X49432380Y45488096D01*
X49908571Y46250000D02*
X49956190Y46392858D01*
X50003809Y46440477D01*
X50099047Y46488096D01*
X50241904Y46488096D01*
X50337142Y46440477D01*
X50384761Y46392858D01*
X50432380Y46297620D01*
X50432380Y45916667D01*
X49432380Y45916667D01*
X49432380Y46250000D01*
X49480000Y46345239D01*
X49527619Y46392858D01*
X49622857Y46440477D01*
X49718095Y46440477D01*
X49813333Y46392858D01*
X49860952Y46345239D01*
X49908571Y46250000D01*
X49908571Y45916667D01*
X49432380Y46916667D02*
X50241904Y46916667D01*
X50337142Y46964286D01*
X50384761Y47011905D01*
X50432380Y47107143D01*
X50432380Y47297620D01*
X50384761Y47392858D01*
X50337142Y47440477D01*
X50241904Y47488096D01*
X49432380Y47488096D01*
X49480000Y48488096D02*
X49432380Y48392858D01*
X49432380Y48250000D01*
X49480000Y48107143D01*
X49575238Y48011905D01*
X49670476Y47964286D01*
X49860952Y47916667D01*
X50003809Y47916667D01*
X50194285Y47964286D01*
X50289523Y48011905D01*
X50384761Y48107143D01*
X50432380Y48250000D01*
X50432380Y48345239D01*
X50384761Y48488096D01*
X50337142Y48535715D01*
X50003809Y48535715D01*
X50003809Y48345239D01*
X8702380Y13170477D02*
X9416666Y13170477D01*
X9559523Y13122858D01*
X9654761Y13027620D01*
X9702380Y12884762D01*
X9702380Y12789524D01*
X9702380Y14170477D02*
X9702380Y13599048D01*
X9702380Y13884762D02*
X8702380Y13884762D01*
X8845238Y13789524D01*
X8940476Y13694286D01*
X8988095Y13599048D01*
X9702380Y15122858D02*
X9702380Y14551429D01*
X9702380Y14837143D02*
X8702380Y14837143D01*
X8845238Y14741905D01*
X8940476Y14646667D01*
X8988095Y14551429D01*
X1833333Y11095239D02*
X1976190Y11047620D01*
X2214285Y11047620D01*
X2309523Y11095239D01*
X2357142Y11142858D01*
X2404761Y11238096D01*
X2404761Y11333334D01*
X2357142Y11428572D01*
X2309523Y11476191D01*
X2214285Y11523810D01*
X2023809Y11571429D01*
X1928571Y11619048D01*
X1880952Y11666667D01*
X1833333Y11761905D01*
X1833333Y11857143D01*
X1880952Y11952381D01*
X1928571Y12000000D01*
X2023809Y12047620D01*
X2261904Y12047620D01*
X2404761Y12000000D01*
X2833333Y11571429D02*
X3166666Y11571429D01*
X3309523Y11047620D02*
X2833333Y11047620D01*
X2833333Y12047620D01*
X3309523Y12047620D01*
X4309523Y11047620D02*
X3976190Y11523810D01*
X3738095Y11047620D02*
X3738095Y12047620D01*
X4119047Y12047620D01*
X4214285Y12000000D01*
X4261904Y11952381D01*
X4309523Y11857143D01*
X4309523Y11714286D01*
X4261904Y11619048D01*
X4214285Y11571429D01*
X4119047Y11523810D01*
X3738095Y11523810D01*
X4595238Y12047620D02*
X4928571Y11047620D01*
X5261904Y12047620D01*
X5785714Y12047620D02*
X5976190Y12047620D01*
X6071428Y12000000D01*
X6166666Y11904762D01*
X6214285Y11714286D01*
X6214285Y11380953D01*
X6166666Y11190477D01*
X6071428Y11095239D01*
X5976190Y11047620D01*
X5785714Y11047620D01*
X5690476Y11095239D01*
X5595238Y11190477D01*
X5547619Y11380953D01*
X5547619Y11714286D01*
X5595238Y11904762D01*
X5690476Y12000000D01*
X5785714Y12047620D01*
X6595238Y11952381D02*
X6642857Y12000000D01*
X6738095Y12047620D01*
X6976190Y12047620D01*
X7071428Y12000000D01*
X7119047Y11952381D01*
X7166666Y11857143D01*
X7166666Y11761905D01*
X7119047Y11619048D01*
X6547619Y11047620D01*
X7166666Y11047620D01*
X8702380Y15710477D02*
X9416666Y15710477D01*
X9559523Y15662858D01*
X9654761Y15567620D01*
X9702380Y15424762D01*
X9702380Y15329524D01*
X9702380Y16710477D02*
X9702380Y16139048D01*
X9702380Y16424762D02*
X8702380Y16424762D01*
X8845238Y16329524D01*
X8940476Y16234286D01*
X8988095Y16139048D01*
X8702380Y17329524D02*
X8702380Y17424762D01*
X8750000Y17520000D01*
X8797619Y17567620D01*
X8892857Y17615239D01*
X9083333Y17662858D01*
X9321428Y17662858D01*
X9511904Y17615239D01*
X9607142Y17567620D01*
X9654761Y17520000D01*
X9702380Y17424762D01*
X9702380Y17329524D01*
X9654761Y17234286D01*
X9607142Y17186667D01*
X9511904Y17139048D01*
X9321428Y17091429D01*
X9083333Y17091429D01*
X8892857Y17139048D01*
X8797619Y17186667D01*
X8750000Y17234286D01*
X8702380Y17329524D01*
X1833333Y18095239D02*
X1976190Y18047620D01*
X2214285Y18047620D01*
X2309523Y18095239D01*
X2357142Y18142858D01*
X2404761Y18238096D01*
X2404761Y18333334D01*
X2357142Y18428572D01*
X2309523Y18476191D01*
X2214285Y18523810D01*
X2023809Y18571429D01*
X1928571Y18619048D01*
X1880952Y18666667D01*
X1833333Y18761905D01*
X1833333Y18857143D01*
X1880952Y18952381D01*
X1928571Y19000000D01*
X2023809Y19047620D01*
X2261904Y19047620D01*
X2404761Y19000000D01*
X2833333Y18571429D02*
X3166666Y18571429D01*
X3309523Y18047620D02*
X2833333Y18047620D01*
X2833333Y19047620D01*
X3309523Y19047620D01*
X4309523Y18047620D02*
X3976190Y18523810D01*
X3738095Y18047620D02*
X3738095Y19047620D01*
X4119047Y19047620D01*
X4214285Y19000000D01*
X4261904Y18952381D01*
X4309523Y18857143D01*
X4309523Y18714286D01*
X4261904Y18619048D01*
X4214285Y18571429D01*
X4119047Y18523810D01*
X3738095Y18523810D01*
X4595238Y19047620D02*
X4928571Y18047620D01*
X5261904Y19047620D01*
X5785714Y19047620D02*
X5976190Y19047620D01*
X6071428Y19000000D01*
X6166666Y18904762D01*
X6214285Y18714286D01*
X6214285Y18380953D01*
X6166666Y18190477D01*
X6071428Y18095239D01*
X5976190Y18047620D01*
X5785714Y18047620D01*
X5690476Y18095239D01*
X5595238Y18190477D01*
X5547619Y18380953D01*
X5547619Y18714286D01*
X5595238Y18904762D01*
X5690476Y19000000D01*
X5785714Y19047620D01*
X7166666Y18047620D02*
X6595238Y18047620D01*
X6880952Y18047620D02*
X6880952Y19047620D01*
X6785714Y18904762D01*
X6690476Y18809524D01*
X6595238Y18761905D01*
X22916666Y7297620D02*
X22916666Y6583334D01*
X22869047Y6440477D01*
X22773809Y6345239D01*
X22630952Y6297620D01*
X22535714Y6297620D01*
X23440476Y6297620D02*
X23630952Y6297620D01*
X23726190Y6345239D01*
X23773809Y6392858D01*
X23869047Y6535715D01*
X23916666Y6726191D01*
X23916666Y7107143D01*
X23869047Y7202381D01*
X23821428Y7250000D01*
X23726190Y7297620D01*
X23535714Y7297620D01*
X23440476Y7250000D01*
X23392857Y7202381D01*
X23345238Y7107143D01*
X23345238Y6869048D01*
X23392857Y6773810D01*
X23440476Y6726191D01*
X23535714Y6678572D01*
X23726190Y6678572D01*
X23821428Y6726191D01*
X23869047Y6773810D01*
X23916666Y6869048D01*
X27940476Y6297620D02*
X27940476Y7297620D01*
X28321428Y7297620D01*
X28416666Y7250000D01*
X28464285Y7202381D01*
X28511904Y7107143D01*
X28511904Y6964286D01*
X28464285Y6869048D01*
X28416666Y6821429D01*
X28321428Y6773810D01*
X27940476Y6773810D01*
X29130952Y7297620D02*
X29321428Y7297620D01*
X29416666Y7250000D01*
X29511904Y7154762D01*
X29559523Y6964286D01*
X29559523Y6630953D01*
X29511904Y6440477D01*
X29416666Y6345239D01*
X29321428Y6297620D01*
X29130952Y6297620D01*
X29035714Y6345239D01*
X28940476Y6440477D01*
X28892857Y6630953D01*
X28892857Y6964286D01*
X28940476Y7154762D01*
X29035714Y7250000D01*
X29130952Y7297620D01*
X29892857Y7297620D02*
X30130952Y6297620D01*
X30321428Y7011905D01*
X30511904Y6297620D01*
X30750000Y7297620D01*
X31130952Y6821429D02*
X31464285Y6821429D01*
X31607142Y6297620D02*
X31130952Y6297620D01*
X31130952Y7297620D01*
X31607142Y7297620D01*
X32607142Y6297620D02*
X32273809Y6773810D01*
X32035714Y6297620D02*
X32035714Y7297620D01*
X32416666Y7297620D01*
X32511904Y7250000D01*
X32559523Y7202381D01*
X32607142Y7107143D01*
X32607142Y6964286D01*
X32559523Y6869048D01*
X32511904Y6821429D01*
X32416666Y6773810D01*
X32035714Y6773810D01*
D10*
X51202380Y11166667D02*
X51916666Y11166667D01*
X52059523Y11119048D01*
X52154761Y11023810D01*
X52202380Y10880953D01*
X52202380Y10785715D01*
X51202380Y11547620D02*
X51202380Y12214286D01*
X52202380Y11785715D01*
X52154761Y21642858D02*
X52202380Y21785715D01*
X52202380Y22023810D01*
X52154761Y22119048D01*
X52107142Y22166667D01*
X52011904Y22214286D01*
X51916666Y22214286D01*
X51821428Y22166667D01*
X51773809Y22119048D01*
X51726190Y22023810D01*
X51678571Y21833334D01*
X51630952Y21738096D01*
X51583333Y21690477D01*
X51488095Y21642858D01*
X51392857Y21642858D01*
X51297619Y21690477D01*
X51250000Y21738096D01*
X51202380Y21833334D01*
X51202380Y22071429D01*
X51250000Y22214286D01*
X51202380Y22547620D02*
X52202380Y22785715D01*
X51488095Y22976191D01*
X52202380Y23166667D01*
X51202380Y23404762D01*
X52202380Y23785715D02*
X51202380Y23785715D01*
X51202380Y24023810D01*
X51250000Y24166667D01*
X51345238Y24261905D01*
X51440476Y24309524D01*
X51630952Y24357143D01*
X51773809Y24357143D01*
X51964285Y24309524D01*
X52059523Y24261905D01*
X52154761Y24166667D01*
X52202380Y24023810D01*
X52202380Y23785715D01*
D11*
X8702380Y32696667D02*
X9416666Y32696667D01*
X9559523Y32649048D01*
X9654761Y32553810D01*
X9702380Y32410953D01*
X9702380Y32315715D01*
X8702380Y33601429D02*
X8702380Y33410953D01*
X8750000Y33315715D01*
X8797619Y33268096D01*
X8940476Y33172858D01*
X9130952Y33125239D01*
X9511904Y33125239D01*
X9607142Y33172858D01*
X9654761Y33220477D01*
X9702380Y33315715D01*
X9702380Y33506191D01*
X9654761Y33601429D01*
X9607142Y33649048D01*
X9511904Y33696667D01*
X9273809Y33696667D01*
X9178571Y33649048D01*
X9130952Y33601429D01*
X9083333Y33506191D01*
X9083333Y33315715D01*
X9130952Y33220477D01*
X9178571Y33172858D01*
X9273809Y33125239D01*
X8702380Y35236667D02*
X9416666Y35236667D01*
X9559523Y35189048D01*
X9654761Y35093810D01*
X9702380Y34950953D01*
X9702380Y34855715D01*
X8702380Y36189048D02*
X8702380Y35712858D01*
X9178571Y35665239D01*
X9130952Y35712858D01*
X9083333Y35808096D01*
X9083333Y36046191D01*
X9130952Y36141429D01*
X9178571Y36189048D01*
X9273809Y36236667D01*
X9511904Y36236667D01*
X9607142Y36189048D01*
X9654761Y36141429D01*
X9702380Y36046191D01*
X9702380Y35808096D01*
X9654761Y35712858D01*
X9607142Y35665239D01*
X61202380Y19666667D02*
X61916666Y19666667D01*
X62059523Y19619048D01*
X62154761Y19523810D01*
X62202380Y19380953D01*
X62202380Y19285715D01*
X61535714Y20571429D02*
X62202380Y20571429D01*
X61154761Y20333334D02*
X61869047Y20095239D01*
X61869047Y20714286D01*
X57992380Y26958096D02*
X56992380Y26958096D01*
X57706666Y27291429D01*
X56992380Y27624762D01*
X57992380Y27624762D01*
X56992380Y28291429D02*
X56992380Y28481905D01*
X57040000Y28577143D01*
X57135238Y28672381D01*
X57325714Y28720000D01*
X57659047Y28720000D01*
X57849523Y28672381D01*
X57944761Y28577143D01*
X57992380Y28481905D01*
X57992380Y28291429D01*
X57944761Y28196191D01*
X57849523Y28100953D01*
X57659047Y28053334D01*
X57325714Y28053334D01*
X57135238Y28100953D01*
X57040000Y28196191D01*
X56992380Y28291429D01*
X56992380Y29005715D02*
X56992380Y29577143D01*
X57992380Y29291429D02*
X56992380Y29291429D01*
X56992380Y30100953D02*
X56992380Y30291429D01*
X57040000Y30386667D01*
X57135238Y30481905D01*
X57325714Y30529524D01*
X57659047Y30529524D01*
X57849523Y30481905D01*
X57944761Y30386667D01*
X57992380Y30291429D01*
X57992380Y30100953D01*
X57944761Y30005715D01*
X57849523Y29910477D01*
X57659047Y29862858D01*
X57325714Y29862858D01*
X57135238Y29910477D01*
X57040000Y30005715D01*
X56992380Y30100953D01*
X57992380Y31529524D02*
X57516190Y31196191D01*
X57992380Y30958096D02*
X56992380Y30958096D01*
X56992380Y31339048D01*
X57040000Y31434286D01*
X57087619Y31481905D01*
X57182857Y31529524D01*
X57325714Y31529524D01*
X57420952Y31481905D01*
X57468571Y31434286D01*
X57516190Y31339048D01*
X57516190Y30958096D01*
X8702380Y37916667D02*
X9416666Y37916667D01*
X9559523Y37869048D01*
X9654761Y37773810D01*
X9702380Y37630953D01*
X9702380Y37535715D01*
X8797619Y38345239D02*
X8750000Y38392858D01*
X8702380Y38488096D01*
X8702380Y38726191D01*
X8750000Y38821429D01*
X8797619Y38869048D01*
X8892857Y38916667D01*
X8988095Y38916667D01*
X9130952Y38869048D01*
X9702380Y38297620D01*
X9702380Y38916667D01*
X8702380Y40316667D02*
X9416666Y40316667D01*
X9559523Y40269048D01*
X9654761Y40173810D01*
X9702380Y40030953D01*
X9702380Y39935715D01*
X9702380Y41316667D02*
X9702380Y40745239D01*
X9702380Y41030953D02*
X8702380Y41030953D01*
X8845238Y40935715D01*
X8940476Y40840477D01*
X8988095Y40745239D01*
X35202380Y11511905D02*
X34202380Y11511905D01*
X34202380Y11750000D01*
X34250000Y11892858D01*
X34345238Y11988096D01*
X34440476Y12035715D01*
X34630952Y12083334D01*
X34773809Y12083334D01*
X34964285Y12035715D01*
X35059523Y11988096D01*
X35154761Y11892858D01*
X35202380Y11750000D01*
X35202380Y11511905D01*
X34202380Y12940477D02*
X34202380Y12750000D01*
X34250000Y12654762D01*
X34297619Y12607143D01*
X34440476Y12511905D01*
X34630952Y12464286D01*
X35011904Y12464286D01*
X35107142Y12511905D01*
X35154761Y12559524D01*
X35202380Y12654762D01*
X35202380Y12845239D01*
X35154761Y12940477D01*
X35107142Y12988096D01*
X35011904Y13035715D01*
X34773809Y13035715D01*
X34678571Y12988096D01*
X34630952Y12940477D01*
X34583333Y12845239D01*
X34583333Y12654762D01*
X34630952Y12559524D01*
X34678571Y12511905D01*
X34773809Y12464286D01*
X29772380Y11511905D02*
X28772380Y11511905D01*
X28772380Y11750000D01*
X28820000Y11892858D01*
X28915238Y11988096D01*
X29010476Y12035715D01*
X29200952Y12083334D01*
X29343809Y12083334D01*
X29534285Y12035715D01*
X29629523Y11988096D01*
X29724761Y11892858D01*
X29772380Y11750000D01*
X29772380Y11511905D01*
X28772380Y12988096D02*
X28772380Y12511905D01*
X29248571Y12464286D01*
X29200952Y12511905D01*
X29153333Y12607143D01*
X29153333Y12845239D01*
X29200952Y12940477D01*
X29248571Y12988096D01*
X29343809Y13035715D01*
X29581904Y13035715D01*
X29677142Y12988096D01*
X29724761Y12940477D01*
X29772380Y12845239D01*
X29772380Y12607143D01*
X29724761Y12511905D01*
X29677142Y12464286D01*
X18246904Y37617620D02*
X18246904Y38617620D01*
X18485000Y38617620D01*
X18627857Y38570000D01*
X18723095Y38474762D01*
X18770714Y38379524D01*
X18818333Y38189048D01*
X18818333Y38046191D01*
X18770714Y37855715D01*
X18723095Y37760477D01*
X18627857Y37665239D01*
X18485000Y37617620D01*
X18246904Y37617620D01*
X19675476Y38284286D02*
X19675476Y37617620D01*
X19437380Y38665239D02*
X19199285Y37950953D01*
X19818333Y37950953D01*
X22056904Y40157620D02*
X22056904Y41157620D01*
X22295000Y41157620D01*
X22437857Y41110000D01*
X22533095Y41014762D01*
X22580714Y40919524D01*
X22628333Y40729048D01*
X22628333Y40586191D01*
X22580714Y40395715D01*
X22533095Y40300477D01*
X22437857Y40205239D01*
X22295000Y40157620D01*
X22056904Y40157620D01*
X22961666Y41157620D02*
X23580714Y41157620D01*
X23247380Y40776667D01*
X23390238Y40776667D01*
X23485476Y40729048D01*
X23533095Y40681429D01*
X23580714Y40586191D01*
X23580714Y40348096D01*
X23533095Y40252858D01*
X23485476Y40205239D01*
X23390238Y40157620D01*
X23104523Y40157620D01*
X23009285Y40205239D01*
X22961666Y40252858D01*
X18246904Y42697620D02*
X18246904Y43697620D01*
X18485000Y43697620D01*
X18627857Y43650000D01*
X18723095Y43554762D01*
X18770714Y43459524D01*
X18818333Y43269048D01*
X18818333Y43126191D01*
X18770714Y42935715D01*
X18723095Y42840477D01*
X18627857Y42745239D01*
X18485000Y42697620D01*
X18246904Y42697620D01*
X19199285Y43602381D02*
X19246904Y43650000D01*
X19342142Y43697620D01*
X19580238Y43697620D01*
X19675476Y43650000D01*
X19723095Y43602381D01*
X19770714Y43507143D01*
X19770714Y43411905D01*
X19723095Y43269048D01*
X19151666Y42697620D01*
X19770714Y42697620D01*
X22056904Y45237620D02*
X22056904Y46237620D01*
X22295000Y46237620D01*
X22437857Y46190000D01*
X22533095Y46094762D01*
X22580714Y45999524D01*
X22628333Y45809048D01*
X22628333Y45666191D01*
X22580714Y45475715D01*
X22533095Y45380477D01*
X22437857Y45285239D01*
X22295000Y45237620D01*
X22056904Y45237620D01*
X23580714Y45237620D02*
X23009285Y45237620D01*
X23295000Y45237620D02*
X23295000Y46237620D01*
X23199761Y46094762D01*
X23104523Y45999524D01*
X23009285Y45951905D01*
X4333333Y28572858D02*
X4285714Y28525239D01*
X4142857Y28477620D01*
X4047619Y28477620D01*
X3904761Y28525239D01*
X3809523Y28620477D01*
X3761904Y28715715D01*
X3714285Y28906191D01*
X3714285Y29049048D01*
X3761904Y29239524D01*
X3809523Y29334762D01*
X3904761Y29430000D01*
X4047619Y29477620D01*
X4142857Y29477620D01*
X4285714Y29430000D01*
X4333333Y29382381D01*
X4666666Y29477620D02*
X5333333Y29477620D01*
X4904761Y28477620D01*
X3333333Y25392858D02*
X3285714Y25345239D01*
X3142857Y25297620D01*
X3047619Y25297620D01*
X2904761Y25345239D01*
X2809523Y25440477D01*
X2761904Y25535715D01*
X2714285Y25726191D01*
X2714285Y25869048D01*
X2761904Y26059524D01*
X2809523Y26154762D01*
X2904761Y26250000D01*
X3047619Y26297620D01*
X3142857Y26297620D01*
X3285714Y26250000D01*
X3333333Y26202381D01*
X4190476Y26297620D02*
X4000000Y26297620D01*
X3904761Y26250000D01*
X3857142Y26202381D01*
X3761904Y26059524D01*
X3714285Y25869048D01*
X3714285Y25488096D01*
X3761904Y25392858D01*
X3809523Y25345239D01*
X3904761Y25297620D01*
X4095238Y25297620D01*
X4190476Y25345239D01*
X4238095Y25392858D01*
X4285714Y25488096D01*
X4285714Y25726191D01*
X4238095Y25821429D01*
X4190476Y25869048D01*
X4095238Y25916667D01*
X3904761Y25916667D01*
X3809523Y25869048D01*
X3761904Y25821429D01*
X3714285Y25726191D01*
X1583333Y19892858D02*
X1535714Y19845239D01*
X1392857Y19797620D01*
X1297619Y19797620D01*
X1154761Y19845239D01*
X1059523Y19940477D01*
X1011904Y20035715D01*
X964285Y20226191D01*
X964285Y20369048D01*
X1011904Y20559524D01*
X1059523Y20654762D01*
X1154761Y20750000D01*
X1297619Y20797620D01*
X1392857Y20797620D01*
X1535714Y20750000D01*
X1583333Y20702381D01*
X2488095Y20797620D02*
X2011904Y20797620D01*
X1964285Y20321429D01*
X2011904Y20369048D01*
X2107142Y20416667D01*
X2345238Y20416667D01*
X2440476Y20369048D01*
X2488095Y20321429D01*
X2535714Y20226191D01*
X2535714Y19988096D01*
X2488095Y19892858D01*
X2440476Y19845239D01*
X2345238Y19797620D01*
X2107142Y19797620D01*
X2011904Y19845239D01*
X1964285Y19892858D01*
X41333333Y16322858D02*
X41285714Y16275239D01*
X41142857Y16227620D01*
X41047619Y16227620D01*
X40904761Y16275239D01*
X40809523Y16370477D01*
X40761904Y16465715D01*
X40714285Y16656191D01*
X40714285Y16799048D01*
X40761904Y16989524D01*
X40809523Y17084762D01*
X40904761Y17180000D01*
X41047619Y17227620D01*
X41142857Y17227620D01*
X41285714Y17180000D01*
X41333333Y17132381D01*
X42190476Y16894286D02*
X42190476Y16227620D01*
X41952380Y17275239D02*
X41714285Y16560953D01*
X42333333Y16560953D01*
X31427142Y39583334D02*
X31474761Y39535715D01*
X31522380Y39392858D01*
X31522380Y39297620D01*
X31474761Y39154762D01*
X31379523Y39059524D01*
X31284285Y39011905D01*
X31093809Y38964286D01*
X30950952Y38964286D01*
X30760476Y39011905D01*
X30665238Y39059524D01*
X30570000Y39154762D01*
X30522380Y39297620D01*
X30522380Y39392858D01*
X30570000Y39535715D01*
X30617619Y39583334D01*
X30522380Y39916667D02*
X30522380Y40535715D01*
X30903333Y40202381D01*
X30903333Y40345239D01*
X30950952Y40440477D01*
X30998571Y40488096D01*
X31093809Y40535715D01*
X31331904Y40535715D01*
X31427142Y40488096D01*
X31474761Y40440477D01*
X31522380Y40345239D01*
X31522380Y40059524D01*
X31474761Y39964286D01*
X31427142Y39916667D01*
X35333333Y32642858D02*
X35285714Y32595239D01*
X35142857Y32547620D01*
X35047619Y32547620D01*
X34904761Y32595239D01*
X34809523Y32690477D01*
X34761904Y32785715D01*
X34714285Y32976191D01*
X34714285Y33119048D01*
X34761904Y33309524D01*
X34809523Y33404762D01*
X34904761Y33500000D01*
X35047619Y33547620D01*
X35142857Y33547620D01*
X35285714Y33500000D01*
X35333333Y33452381D01*
X35714285Y33452381D02*
X35761904Y33500000D01*
X35857142Y33547620D01*
X36095238Y33547620D01*
X36190476Y33500000D01*
X36238095Y33452381D01*
X36285714Y33357143D01*
X36285714Y33261905D01*
X36238095Y33119048D01*
X35666666Y32547620D01*
X36285714Y32547620D01*
X35333333Y34642858D02*
X35285714Y34595239D01*
X35142857Y34547620D01*
X35047619Y34547620D01*
X34904761Y34595239D01*
X34809523Y34690477D01*
X34761904Y34785715D01*
X34714285Y34976191D01*
X34714285Y35119048D01*
X34761904Y35309524D01*
X34809523Y35404762D01*
X34904761Y35500000D01*
X35047619Y35547620D01*
X35142857Y35547620D01*
X35285714Y35500000D01*
X35333333Y35452381D01*
X36285714Y34547620D02*
X35714285Y34547620D01*
X36000000Y34547620D02*
X36000000Y35547620D01*
X35904761Y35404762D01*
X35809523Y35309524D01*
X35714285Y35261905D01*
%LPC*%
G36*
G01*
X25700000Y17781250D02*
X25700000Y17218750D01*
G75*
G02*
X25456250Y16975000I-243750J0D01*
G01*
X24968750Y16975000D01*
G75*
G02*
X24725000Y17218750I0J243750D01*
G01*
X24725000Y17781250D01*
G75*
G02*
X24968750Y18025000I243750J0D01*
G01*
X25456250Y18025000D01*
G75*
G02*
X25700000Y17781250I0J-243750D01*
G01*
G37*
G36*
G01*
X27275000Y17781250D02*
X27275000Y17218750D01*
G75*
G02*
X27031250Y16975000I-243750J0D01*
G01*
X26543750Y16975000D01*
G75*
G02*
X26300000Y17218750I0J243750D01*
G01*
X26300000Y17781250D01*
G75*
G02*
X26543750Y18025000I243750J0D01*
G01*
X27031250Y18025000D01*
G75*
G02*
X27275000Y17781250I0J-243750D01*
G01*
G37*
G36*
G01*
X25700000Y13281250D02*
X25700000Y12718750D01*
G75*
G02*
X25456250Y12475000I-243750J0D01*
G01*
X24968750Y12475000D01*
G75*
G02*
X24725000Y12718750I0J243750D01*
G01*
X24725000Y13281250D01*
G75*
G02*
X24968750Y13525000I243750J0D01*
G01*
X25456250Y13525000D01*
G75*
G02*
X25700000Y13281250I0J-243750D01*
G01*
G37*
G36*
G01*
X27275000Y13281250D02*
X27275000Y12718750D01*
G75*
G02*
X27031250Y12475000I-243750J0D01*
G01*
X26543750Y12475000D01*
G75*
G02*
X26300000Y12718750I0J243750D01*
G01*
X26300000Y13281250D01*
G75*
G02*
X26543750Y13525000I243750J0D01*
G01*
X27031250Y13525000D01*
G75*
G02*
X27275000Y13281250I0J-243750D01*
G01*
G37*
D12*
X54000000Y11440000D03*
X54000000Y13980000D03*
X54000000Y16520000D03*
X54000000Y19060000D03*
X54000000Y21600000D03*
X54000000Y24140000D03*
X54000000Y26680000D03*
X54000000Y29220000D03*
X54000000Y31760000D03*
X54000000Y34300000D03*
X54000000Y36840000D03*
X54000000Y39380000D03*
X54000000Y41920000D03*
X54000000Y44460000D03*
D13*
X54000000Y47000000D03*
D14*
X3550000Y24100000D03*
X5450000Y24100000D03*
X5450000Y21900000D03*
X4500000Y21900000D03*
X3550000Y21900000D03*
G36*
G01*
X41700000Y13230000D02*
X41700000Y13580000D01*
G75*
G02*
X41875000Y13755000I175000J0D01*
G01*
X43575000Y13755000D01*
G75*
G02*
X43750000Y13580000I0J-175000D01*
G01*
X43750000Y13230000D01*
G75*
G02*
X43575000Y13055000I-175000J0D01*
G01*
X41875000Y13055000D01*
G75*
G02*
X41700000Y13230000I0J175000D01*
G01*
G37*
G36*
G01*
X41700000Y11960000D02*
X41700000Y12310000D01*
G75*
G02*
X41875000Y12485000I175000J0D01*
G01*
X43575000Y12485000D01*
G75*
G02*
X43750000Y12310000I0J-175000D01*
G01*
X43750000Y11960000D01*
G75*
G02*
X43575000Y11785000I-175000J0D01*
G01*
X41875000Y11785000D01*
G75*
G02*
X41700000Y11960000I0J175000D01*
G01*
G37*
G36*
G01*
X41700000Y10690000D02*
X41700000Y11040000D01*
G75*
G02*
X41875000Y11215000I175000J0D01*
G01*
X43575000Y11215000D01*
G75*
G02*
X43750000Y11040000I0J-175000D01*
G01*
X43750000Y10690000D01*
G75*
G02*
X43575000Y10515000I-175000J0D01*
G01*
X41875000Y10515000D01*
G75*
G02*
X41700000Y10690000I0J175000D01*
G01*
G37*
G36*
G01*
X41700000Y9420000D02*
X41700000Y9770000D01*
G75*
G02*
X41875000Y9945000I175000J0D01*
G01*
X43575000Y9945000D01*
G75*
G02*
X43750000Y9770000I0J-175000D01*
G01*
X43750000Y9420000D01*
G75*
G02*
X43575000Y9245000I-175000J0D01*
G01*
X41875000Y9245000D01*
G75*
G02*
X41700000Y9420000I0J175000D01*
G01*
G37*
G36*
G01*
X36750000Y9420000D02*
X36750000Y9770000D01*
G75*
G02*
X36925000Y9945000I175000J0D01*
G01*
X38625000Y9945000D01*
G75*
G02*
X38800000Y9770000I0J-175000D01*
G01*
X38800000Y9420000D01*
G75*
G02*
X38625000Y9245000I-175000J0D01*
G01*
X36925000Y9245000D01*
G75*
G02*
X36750000Y9420000I0J175000D01*
G01*
G37*
G36*
G01*
X36750000Y10690000D02*
X36750000Y11040000D01*
G75*
G02*
X36925000Y11215000I175000J0D01*
G01*
X38625000Y11215000D01*
G75*
G02*
X38800000Y11040000I0J-175000D01*
G01*
X38800000Y10690000D01*
G75*
G02*
X38625000Y10515000I-175000J0D01*
G01*
X36925000Y10515000D01*
G75*
G02*
X36750000Y10690000I0J175000D01*
G01*
G37*
G36*
G01*
X36750000Y11960000D02*
X36750000Y12310000D01*
G75*
G02*
X36925000Y12485000I175000J0D01*
G01*
X38625000Y12485000D01*
G75*
G02*
X38800000Y12310000I0J-175000D01*
G01*
X38800000Y11960000D01*
G75*
G02*
X38625000Y11785000I-175000J0D01*
G01*
X36925000Y11785000D01*
G75*
G02*
X36750000Y11960000I0J175000D01*
G01*
G37*
G36*
G01*
X36750000Y13230000D02*
X36750000Y13580000D01*
G75*
G02*
X36925000Y13755000I175000J0D01*
G01*
X38625000Y13755000D01*
G75*
G02*
X38800000Y13580000I0J-175000D01*
G01*
X38800000Y13230000D01*
G75*
G02*
X38625000Y13055000I-175000J0D01*
G01*
X36925000Y13055000D01*
G75*
G02*
X36750000Y13230000I0J175000D01*
G01*
G37*
G36*
G01*
X40025000Y28600000D02*
X41325000Y28600000D01*
G75*
G02*
X41475000Y28450000I0J-150000D01*
G01*
X41475000Y28150000D01*
G75*
G02*
X41325000Y28000000I-150000J0D01*
G01*
X40025000Y28000000D01*
G75*
G02*
X39875000Y28150000I0J150000D01*
G01*
X39875000Y28450000D01*
G75*
G02*
X40025000Y28600000I150000J0D01*
G01*
G37*
G36*
G01*
X40025000Y27800000D02*
X41325000Y27800000D01*
G75*
G02*
X41475000Y27650000I0J-150000D01*
G01*
X41475000Y27350000D01*
G75*
G02*
X41325000Y27200000I-150000J0D01*
G01*
X40025000Y27200000D01*
G75*
G02*
X39875000Y27350000I0J150000D01*
G01*
X39875000Y27650000D01*
G75*
G02*
X40025000Y27800000I150000J0D01*
G01*
G37*
G36*
G01*
X40025000Y27000000D02*
X41325000Y27000000D01*
G75*
G02*
X41475000Y26850000I0J-150000D01*
G01*
X41475000Y26550000D01*
G75*
G02*
X41325000Y26400000I-150000J0D01*
G01*
X40025000Y26400000D01*
G75*
G02*
X39875000Y26550000I0J150000D01*
G01*
X39875000Y26850000D01*
G75*
G02*
X40025000Y27000000I150000J0D01*
G01*
G37*
G36*
G01*
X40025000Y26200000D02*
X41325000Y26200000D01*
G75*
G02*
X41475000Y26050000I0J-150000D01*
G01*
X41475000Y25750000D01*
G75*
G02*
X41325000Y25600000I-150000J0D01*
G01*
X40025000Y25600000D01*
G75*
G02*
X39875000Y25750000I0J150000D01*
G01*
X39875000Y26050000D01*
G75*
G02*
X40025000Y26200000I150000J0D01*
G01*
G37*
G36*
G01*
X40025000Y25400000D02*
X41325000Y25400000D01*
G75*
G02*
X41475000Y25250000I0J-150000D01*
G01*
X41475000Y24950000D01*
G75*
G02*
X41325000Y24800000I-150000J0D01*
G01*
X40025000Y24800000D01*
G75*
G02*
X39875000Y24950000I0J150000D01*
G01*
X39875000Y25250000D01*
G75*
G02*
X40025000Y25400000I150000J0D01*
G01*
G37*
G36*
G01*
X40025000Y24600000D02*
X41325000Y24600000D01*
G75*
G02*
X41475000Y24450000I0J-150000D01*
G01*
X41475000Y24150000D01*
G75*
G02*
X41325000Y24000000I-150000J0D01*
G01*
X40025000Y24000000D01*
G75*
G02*
X39875000Y24150000I0J150000D01*
G01*
X39875000Y24450000D01*
G75*
G02*
X40025000Y24600000I150000J0D01*
G01*
G37*
G36*
G01*
X40025000Y23800000D02*
X41325000Y23800000D01*
G75*
G02*
X41475000Y23650000I0J-150000D01*
G01*
X41475000Y23350000D01*
G75*
G02*
X41325000Y23200000I-150000J0D01*
G01*
X40025000Y23200000D01*
G75*
G02*
X39875000Y23350000I0J150000D01*
G01*
X39875000Y23650000D01*
G75*
G02*
X40025000Y23800000I150000J0D01*
G01*
G37*
G36*
G01*
X40025000Y23000000D02*
X41325000Y23000000D01*
G75*
G02*
X41475000Y22850000I0J-150000D01*
G01*
X41475000Y22550000D01*
G75*
G02*
X41325000Y22400000I-150000J0D01*
G01*
X40025000Y22400000D01*
G75*
G02*
X39875000Y22550000I0J150000D01*
G01*
X39875000Y22850000D01*
G75*
G02*
X40025000Y23000000I150000J0D01*
G01*
G37*
G36*
G01*
X39150000Y22125000D02*
X39450000Y22125000D01*
G75*
G02*
X39600000Y21975000I0J-150000D01*
G01*
X39600000Y20675000D01*
G75*
G02*
X39450000Y20525000I-150000J0D01*
G01*
X39150000Y20525000D01*
G75*
G02*
X39000000Y20675000I0J150000D01*
G01*
X39000000Y21975000D01*
G75*
G02*
X39150000Y22125000I150000J0D01*
G01*
G37*
G36*
G01*
X38350000Y22125000D02*
X38650000Y22125000D01*
G75*
G02*
X38800000Y21975000I0J-150000D01*
G01*
X38800000Y20675000D01*
G75*
G02*
X38650000Y20525000I-150000J0D01*
G01*
X38350000Y20525000D01*
G75*
G02*
X38200000Y20675000I0J150000D01*
G01*
X38200000Y21975000D01*
G75*
G02*
X38350000Y22125000I150000J0D01*
G01*
G37*
G36*
G01*
X37550000Y22125000D02*
X37850000Y22125000D01*
G75*
G02*
X38000000Y21975000I0J-150000D01*
G01*
X38000000Y20675000D01*
G75*
G02*
X37850000Y20525000I-150000J0D01*
G01*
X37550000Y20525000D01*
G75*
G02*
X37400000Y20675000I0J150000D01*
G01*
X37400000Y21975000D01*
G75*
G02*
X37550000Y22125000I150000J0D01*
G01*
G37*
G36*
G01*
X36750000Y22125000D02*
X37050000Y22125000D01*
G75*
G02*
X37200000Y21975000I0J-150000D01*
G01*
X37200000Y20675000D01*
G75*
G02*
X37050000Y20525000I-150000J0D01*
G01*
X36750000Y20525000D01*
G75*
G02*
X36600000Y20675000I0J150000D01*
G01*
X36600000Y21975000D01*
G75*
G02*
X36750000Y22125000I150000J0D01*
G01*
G37*
G36*
G01*
X35950000Y22125000D02*
X36250000Y22125000D01*
G75*
G02*
X36400000Y21975000I0J-150000D01*
G01*
X36400000Y20675000D01*
G75*
G02*
X36250000Y20525000I-150000J0D01*
G01*
X35950000Y20525000D01*
G75*
G02*
X35800000Y20675000I0J150000D01*
G01*
X35800000Y21975000D01*
G75*
G02*
X35950000Y22125000I150000J0D01*
G01*
G37*
G36*
G01*
X35150000Y22125000D02*
X35450000Y22125000D01*
G75*
G02*
X35600000Y21975000I0J-150000D01*
G01*
X35600000Y20675000D01*
G75*
G02*
X35450000Y20525000I-150000J0D01*
G01*
X35150000Y20525000D01*
G75*
G02*
X35000000Y20675000I0J150000D01*
G01*
X35000000Y21975000D01*
G75*
G02*
X35150000Y22125000I150000J0D01*
G01*
G37*
G36*
G01*
X34350000Y22125000D02*
X34650000Y22125000D01*
G75*
G02*
X34800000Y21975000I0J-150000D01*
G01*
X34800000Y20675000D01*
G75*
G02*
X34650000Y20525000I-150000J0D01*
G01*
X34350000Y20525000D01*
G75*
G02*
X34200000Y20675000I0J150000D01*
G01*
X34200000Y21975000D01*
G75*
G02*
X34350000Y22125000I150000J0D01*
G01*
G37*
G36*
G01*
X33550000Y22125000D02*
X33850000Y22125000D01*
G75*
G02*
X34000000Y21975000I0J-150000D01*
G01*
X34000000Y20675000D01*
G75*
G02*
X33850000Y20525000I-150000J0D01*
G01*
X33550000Y20525000D01*
G75*
G02*
X33400000Y20675000I0J150000D01*
G01*
X33400000Y21975000D01*
G75*
G02*
X33550000Y22125000I150000J0D01*
G01*
G37*
G36*
G01*
X31675000Y23000000D02*
X32975000Y23000000D01*
G75*
G02*
X33125000Y22850000I0J-150000D01*
G01*
X33125000Y22550000D01*
G75*
G02*
X32975000Y22400000I-150000J0D01*
G01*
X31675000Y22400000D01*
G75*
G02*
X31525000Y22550000I0J150000D01*
G01*
X31525000Y22850000D01*
G75*
G02*
X31675000Y23000000I150000J0D01*
G01*
G37*
G36*
G01*
X31675000Y23800000D02*
X32975000Y23800000D01*
G75*
G02*
X33125000Y23650000I0J-150000D01*
G01*
X33125000Y23350000D01*
G75*
G02*
X32975000Y23200000I-150000J0D01*
G01*
X31675000Y23200000D01*
G75*
G02*
X31525000Y23350000I0J150000D01*
G01*
X31525000Y23650000D01*
G75*
G02*
X31675000Y23800000I150000J0D01*
G01*
G37*
G36*
G01*
X31675000Y24600000D02*
X32975000Y24600000D01*
G75*
G02*
X33125000Y24450000I0J-150000D01*
G01*
X33125000Y24150000D01*
G75*
G02*
X32975000Y24000000I-150000J0D01*
G01*
X31675000Y24000000D01*
G75*
G02*
X31525000Y24150000I0J150000D01*
G01*
X31525000Y24450000D01*
G75*
G02*
X31675000Y24600000I150000J0D01*
G01*
G37*
G36*
G01*
X31675000Y25400000D02*
X32975000Y25400000D01*
G75*
G02*
X33125000Y25250000I0J-150000D01*
G01*
X33125000Y24950000D01*
G75*
G02*
X32975000Y24800000I-150000J0D01*
G01*
X31675000Y24800000D01*
G75*
G02*
X31525000Y24950000I0J150000D01*
G01*
X31525000Y25250000D01*
G75*
G02*
X31675000Y25400000I150000J0D01*
G01*
G37*
G36*
G01*
X31675000Y26200000D02*
X32975000Y26200000D01*
G75*
G02*
X33125000Y26050000I0J-150000D01*
G01*
X33125000Y25750000D01*
G75*
G02*
X32975000Y25600000I-150000J0D01*
G01*
X31675000Y25600000D01*
G75*
G02*
X31525000Y25750000I0J150000D01*
G01*
X31525000Y26050000D01*
G75*
G02*
X31675000Y26200000I150000J0D01*
G01*
G37*
G36*
G01*
X31675000Y27000000D02*
X32975000Y27000000D01*
G75*
G02*
X33125000Y26850000I0J-150000D01*
G01*
X33125000Y26550000D01*
G75*
G02*
X32975000Y26400000I-150000J0D01*
G01*
X31675000Y26400000D01*
G75*
G02*
X31525000Y26550000I0J150000D01*
G01*
X31525000Y26850000D01*
G75*
G02*
X31675000Y27000000I150000J0D01*
G01*
G37*
G36*
G01*
X31675000Y27800000D02*
X32975000Y27800000D01*
G75*
G02*
X33125000Y27650000I0J-150000D01*
G01*
X33125000Y27350000D01*
G75*
G02*
X32975000Y27200000I-150000J0D01*
G01*
X31675000Y27200000D01*
G75*
G02*
X31525000Y27350000I0J150000D01*
G01*
X31525000Y27650000D01*
G75*
G02*
X31675000Y27800000I150000J0D01*
G01*
G37*
G36*
G01*
X31675000Y28600000D02*
X32975000Y28600000D01*
G75*
G02*
X33125000Y28450000I0J-150000D01*
G01*
X33125000Y28150000D01*
G75*
G02*
X32975000Y28000000I-150000J0D01*
G01*
X31675000Y28000000D01*
G75*
G02*
X31525000Y28150000I0J150000D01*
G01*
X31525000Y28450000D01*
G75*
G02*
X31675000Y28600000I150000J0D01*
G01*
G37*
G36*
G01*
X33550000Y30475000D02*
X33850000Y30475000D01*
G75*
G02*
X34000000Y30325000I0J-150000D01*
G01*
X34000000Y29025000D01*
G75*
G02*
X33850000Y28875000I-150000J0D01*
G01*
X33550000Y28875000D01*
G75*
G02*
X33400000Y29025000I0J150000D01*
G01*
X33400000Y30325000D01*
G75*
G02*
X33550000Y30475000I150000J0D01*
G01*
G37*
G36*
G01*
X34350000Y30475000D02*
X34650000Y30475000D01*
G75*
G02*
X34800000Y30325000I0J-150000D01*
G01*
X34800000Y29025000D01*
G75*
G02*
X34650000Y28875000I-150000J0D01*
G01*
X34350000Y28875000D01*
G75*
G02*
X34200000Y29025000I0J150000D01*
G01*
X34200000Y30325000D01*
G75*
G02*
X34350000Y30475000I150000J0D01*
G01*
G37*
G36*
G01*
X35150000Y30475000D02*
X35450000Y30475000D01*
G75*
G02*
X35600000Y30325000I0J-150000D01*
G01*
X35600000Y29025000D01*
G75*
G02*
X35450000Y28875000I-150000J0D01*
G01*
X35150000Y28875000D01*
G75*
G02*
X35000000Y29025000I0J150000D01*
G01*
X35000000Y30325000D01*
G75*
G02*
X35150000Y30475000I150000J0D01*
G01*
G37*
G36*
G01*
X35950000Y30475000D02*
X36250000Y30475000D01*
G75*
G02*
X36400000Y30325000I0J-150000D01*
G01*
X36400000Y29025000D01*
G75*
G02*
X36250000Y28875000I-150000J0D01*
G01*
X35950000Y28875000D01*
G75*
G02*
X35800000Y29025000I0J150000D01*
G01*
X35800000Y30325000D01*
G75*
G02*
X35950000Y30475000I150000J0D01*
G01*
G37*
G36*
G01*
X36750000Y30475000D02*
X37050000Y30475000D01*
G75*
G02*
X37200000Y30325000I0J-150000D01*
G01*
X37200000Y29025000D01*
G75*
G02*
X37050000Y28875000I-150000J0D01*
G01*
X36750000Y28875000D01*
G75*
G02*
X36600000Y29025000I0J150000D01*
G01*
X36600000Y30325000D01*
G75*
G02*
X36750000Y30475000I150000J0D01*
G01*
G37*
G36*
G01*
X37550000Y30475000D02*
X37850000Y30475000D01*
G75*
G02*
X38000000Y30325000I0J-150000D01*
G01*
X38000000Y29025000D01*
G75*
G02*
X37850000Y28875000I-150000J0D01*
G01*
X37550000Y28875000D01*
G75*
G02*
X37400000Y29025000I0J150000D01*
G01*
X37400000Y30325000D01*
G75*
G02*
X37550000Y30475000I150000J0D01*
G01*
G37*
G36*
G01*
X38350000Y30475000D02*
X38650000Y30475000D01*
G75*
G02*
X38800000Y30325000I0J-150000D01*
G01*
X38800000Y29025000D01*
G75*
G02*
X38650000Y28875000I-150000J0D01*
G01*
X38350000Y28875000D01*
G75*
G02*
X38200000Y29025000I0J150000D01*
G01*
X38200000Y30325000D01*
G75*
G02*
X38350000Y30475000I150000J0D01*
G01*
G37*
G36*
G01*
X39150000Y30475000D02*
X39450000Y30475000D01*
G75*
G02*
X39600000Y30325000I0J-150000D01*
G01*
X39600000Y29025000D01*
G75*
G02*
X39450000Y28875000I-150000J0D01*
G01*
X39150000Y28875000D01*
G75*
G02*
X39000000Y29025000I0J150000D01*
G01*
X39000000Y30325000D01*
G75*
G02*
X39150000Y30475000I150000J0D01*
G01*
G37*
D15*
X25050000Y14600000D03*
X25050000Y15900000D03*
X26950000Y15250000D03*
X26950000Y15900000D03*
X26950000Y14600000D03*
X25050000Y19100000D03*
X25050000Y20400000D03*
X26950000Y19750000D03*
X26950000Y20400000D03*
X26950000Y19100000D03*
D16*
X35000000Y37750000D03*
X35000000Y42250000D03*
X41500000Y37750000D03*
X41500000Y42250000D03*
G36*
G01*
X44531250Y36800000D02*
X43968750Y36800000D01*
G75*
G02*
X43725000Y37043750I0J243750D01*
G01*
X43725000Y37531250D01*
G75*
G02*
X43968750Y37775000I243750J0D01*
G01*
X44531250Y37775000D01*
G75*
G02*
X44775000Y37531250I0J-243750D01*
G01*
X44775000Y37043750D01*
G75*
G02*
X44531250Y36800000I-243750J0D01*
G01*
G37*
G36*
G01*
X44531250Y35225000D02*
X43968750Y35225000D01*
G75*
G02*
X43725000Y35468750I0J243750D01*
G01*
X43725000Y35956250D01*
G75*
G02*
X43968750Y36200000I243750J0D01*
G01*
X44531250Y36200000D01*
G75*
G02*
X44775000Y35956250I0J-243750D01*
G01*
X44775000Y35468750D01*
G75*
G02*
X44531250Y35225000I-243750J0D01*
G01*
G37*
G36*
G01*
X33531250Y16050000D02*
X32968750Y16050000D01*
G75*
G02*
X32725000Y16293750I0J243750D01*
G01*
X32725000Y16781250D01*
G75*
G02*
X32968750Y17025000I243750J0D01*
G01*
X33531250Y17025000D01*
G75*
G02*
X33775000Y16781250I0J-243750D01*
G01*
X33775000Y16293750D01*
G75*
G02*
X33531250Y16050000I-243750J0D01*
G01*
G37*
G36*
G01*
X33531250Y14475000D02*
X32968750Y14475000D01*
G75*
G02*
X32725000Y14718750I0J243750D01*
G01*
X32725000Y15206250D01*
G75*
G02*
X32968750Y15450000I243750J0D01*
G01*
X33531250Y15450000D01*
G75*
G02*
X33775000Y15206250I0J-243750D01*
G01*
X33775000Y14718750D01*
G75*
G02*
X33531250Y14475000I-243750J0D01*
G01*
G37*
G36*
G01*
X31031250Y16050000D02*
X30468750Y16050000D01*
G75*
G02*
X30225000Y16293750I0J243750D01*
G01*
X30225000Y16781250D01*
G75*
G02*
X30468750Y17025000I243750J0D01*
G01*
X31031250Y17025000D01*
G75*
G02*
X31275000Y16781250I0J-243750D01*
G01*
X31275000Y16293750D01*
G75*
G02*
X31031250Y16050000I-243750J0D01*
G01*
G37*
G36*
G01*
X31031250Y14475000D02*
X30468750Y14475000D01*
G75*
G02*
X30225000Y14718750I0J243750D01*
G01*
X30225000Y15206250D01*
G75*
G02*
X30468750Y15450000I243750J0D01*
G01*
X31031250Y15450000D01*
G75*
G02*
X31275000Y15206250I0J-243750D01*
G01*
X31275000Y14718750D01*
G75*
G02*
X31031250Y14475000I-243750J0D01*
G01*
G37*
G36*
G01*
X14875000Y35851250D02*
X14875000Y35288750D01*
G75*
G02*
X14631250Y35045000I-243750J0D01*
G01*
X14143750Y35045000D01*
G75*
G02*
X13900000Y35288750I0J243750D01*
G01*
X13900000Y35851250D01*
G75*
G02*
X14143750Y36095000I243750J0D01*
G01*
X14631250Y36095000D01*
G75*
G02*
X14875000Y35851250I0J-243750D01*
G01*
G37*
G36*
G01*
X16450000Y35851250D02*
X16450000Y35288750D01*
G75*
G02*
X16206250Y35045000I-243750J0D01*
G01*
X15718750Y35045000D01*
G75*
G02*
X15475000Y35288750I0J243750D01*
G01*
X15475000Y35851250D01*
G75*
G02*
X15718750Y36095000I243750J0D01*
G01*
X16206250Y36095000D01*
G75*
G02*
X16450000Y35851250I0J-243750D01*
G01*
G37*
G36*
G01*
X14875000Y38391250D02*
X14875000Y37828750D01*
G75*
G02*
X14631250Y37585000I-243750J0D01*
G01*
X14143750Y37585000D01*
G75*
G02*
X13900000Y37828750I0J243750D01*
G01*
X13900000Y38391250D01*
G75*
G02*
X14143750Y38635000I243750J0D01*
G01*
X14631250Y38635000D01*
G75*
G02*
X14875000Y38391250I0J-243750D01*
G01*
G37*
G36*
G01*
X16450000Y38391250D02*
X16450000Y37828750D01*
G75*
G02*
X16206250Y37585000I-243750J0D01*
G01*
X15718750Y37585000D01*
G75*
G02*
X15475000Y37828750I0J243750D01*
G01*
X15475000Y38391250D01*
G75*
G02*
X15718750Y38635000I243750J0D01*
G01*
X16206250Y38635000D01*
G75*
G02*
X16450000Y38391250I0J-243750D01*
G01*
G37*
G36*
G01*
X14875000Y40931250D02*
X14875000Y40368750D01*
G75*
G02*
X14631250Y40125000I-243750J0D01*
G01*
X14143750Y40125000D01*
G75*
G02*
X13900000Y40368750I0J243750D01*
G01*
X13900000Y40931250D01*
G75*
G02*
X14143750Y41175000I243750J0D01*
G01*
X14631250Y41175000D01*
G75*
G02*
X14875000Y40931250I0J-243750D01*
G01*
G37*
G36*
G01*
X16450000Y40931250D02*
X16450000Y40368750D01*
G75*
G02*
X16206250Y40125000I-243750J0D01*
G01*
X15718750Y40125000D01*
G75*
G02*
X15475000Y40368750I0J243750D01*
G01*
X15475000Y40931250D01*
G75*
G02*
X15718750Y41175000I243750J0D01*
G01*
X16206250Y41175000D01*
G75*
G02*
X16450000Y40931250I0J-243750D01*
G01*
G37*
G36*
G01*
X14875000Y43471250D02*
X14875000Y42908750D01*
G75*
G02*
X14631250Y42665000I-243750J0D01*
G01*
X14143750Y42665000D01*
G75*
G02*
X13900000Y42908750I0J243750D01*
G01*
X13900000Y43471250D01*
G75*
G02*
X14143750Y43715000I243750J0D01*
G01*
X14631250Y43715000D01*
G75*
G02*
X14875000Y43471250I0J-243750D01*
G01*
G37*
G36*
G01*
X16450000Y43471250D02*
X16450000Y42908750D01*
G75*
G02*
X16206250Y42665000I-243750J0D01*
G01*
X15718750Y42665000D01*
G75*
G02*
X15475000Y42908750I0J243750D01*
G01*
X15475000Y43471250D01*
G75*
G02*
X15718750Y43715000I243750J0D01*
G01*
X16206250Y43715000D01*
G75*
G02*
X16450000Y43471250I0J-243750D01*
G01*
G37*
D17*
X49080000Y3500000D03*
G36*
G01*
X42910000Y1912018D02*
X42910000Y5087982D01*
G75*
G02*
X43172018Y5350000I262018J0D01*
G01*
X44827982Y5350000D01*
G75*
G02*
X45090000Y5087982I0J-262018D01*
G01*
X45090000Y1912018D01*
G75*
G02*
X44827982Y1650000I-262018J0D01*
G01*
X43172018Y1650000D01*
G75*
G02*
X42910000Y1912018I0J262018D01*
G01*
G37*
D12*
X47650000Y46250000D03*
X45110000Y46250000D03*
X42570000Y46250000D03*
X40030000Y46250000D03*
X37490000Y46250000D03*
D13*
X34950000Y46250000D03*
D12*
X6920000Y13980000D03*
X4380000Y13980000D03*
D13*
X1840000Y13980000D03*
D12*
X6920000Y16520000D03*
X4380000Y16520000D03*
D13*
X1840000Y16520000D03*
D17*
X35740000Y3500000D03*
X30660000Y3500000D03*
X25580000Y3500000D03*
G36*
G01*
X19410000Y1912018D02*
X19410000Y5087982D01*
G75*
G02*
X19672018Y5350000I262018J0D01*
G01*
X21327982Y5350000D01*
G75*
G02*
X21590000Y5087982I0J-262018D01*
G01*
X21590000Y1912018D01*
G75*
G02*
X21327982Y1650000I-262018J0D01*
G01*
X19672018Y1650000D01*
G75*
G02*
X19410000Y1912018I0J262018D01*
G01*
G37*
D12*
X12000000Y11440000D03*
X12000000Y13980000D03*
X12000000Y16520000D03*
X12000000Y19060000D03*
X12000000Y21600000D03*
X12000000Y24140000D03*
X12000000Y26680000D03*
X12000000Y29220000D03*
X12000000Y31760000D03*
X12000000Y34300000D03*
X12000000Y36840000D03*
X12000000Y39380000D03*
X12000000Y41920000D03*
X12000000Y44460000D03*
D13*
X12000000Y47000000D03*
D18*
X45968000Y19790000D03*
X50032000Y19790000D03*
X45968000Y18520000D03*
X50032000Y18520000D03*
X45968000Y17250000D03*
X50032000Y17250000D03*
X45968000Y15980000D03*
X50032000Y15980000D03*
X45968000Y14710000D03*
X50032000Y14710000D03*
D12*
X6920000Y33030000D03*
X4380000Y33030000D03*
D13*
X1840000Y33030000D03*
D12*
X6920000Y35570000D03*
X4380000Y35570000D03*
D13*
X1840000Y35570000D03*
D19*
X61620000Y22870000D03*
X61620000Y25410000D03*
X61620000Y27950000D03*
X61620000Y30490000D03*
X61620000Y33030000D03*
G36*
G01*
X60739367Y36490000D02*
X62500633Y36490000D01*
G75*
G02*
X62765000Y36225633I0J-264367D01*
G01*
X62765000Y34914367D01*
G75*
G02*
X62500633Y34650000I-264367J0D01*
G01*
X60739367Y34650000D01*
G75*
G02*
X60475000Y34914367I0J264367D01*
G01*
X60475000Y36225633D01*
G75*
G02*
X60739367Y36490000I264367J0D01*
G01*
G37*
D12*
X6920000Y38110000D03*
X4380000Y38110000D03*
D13*
X1840000Y38110000D03*
D12*
X6920000Y40650000D03*
X4380000Y40650000D03*
D13*
X1840000Y40650000D03*
D20*
X62000000Y4000000D03*
X4000000Y46000000D03*
X4000000Y4000000D03*
X62000000Y46000000D03*
G36*
G01*
X33531250Y12550000D02*
X32968750Y12550000D01*
G75*
G02*
X32725000Y12793750I0J243750D01*
G01*
X32725000Y13281250D01*
G75*
G02*
X32968750Y13525000I243750J0D01*
G01*
X33531250Y13525000D01*
G75*
G02*
X33775000Y13281250I0J-243750D01*
G01*
X33775000Y12793750D01*
G75*
G02*
X33531250Y12550000I-243750J0D01*
G01*
G37*
G36*
G01*
X33531250Y10975000D02*
X32968750Y10975000D01*
G75*
G02*
X32725000Y11218750I0J243750D01*
G01*
X32725000Y11706250D01*
G75*
G02*
X32968750Y11950000I243750J0D01*
G01*
X33531250Y11950000D01*
G75*
G02*
X33775000Y11706250I0J-243750D01*
G01*
X33775000Y11218750D01*
G75*
G02*
X33531250Y10975000I-243750J0D01*
G01*
G37*
G36*
G01*
X31031250Y12550000D02*
X30468750Y12550000D01*
G75*
G02*
X30225000Y12793750I0J243750D01*
G01*
X30225000Y13281250D01*
G75*
G02*
X30468750Y13525000I243750J0D01*
G01*
X31031250Y13525000D01*
G75*
G02*
X31275000Y13281250I0J-243750D01*
G01*
X31275000Y12793750D01*
G75*
G02*
X31031250Y12550000I-243750J0D01*
G01*
G37*
G36*
G01*
X31031250Y10975000D02*
X30468750Y10975000D01*
G75*
G02*
X30225000Y11218750I0J243750D01*
G01*
X30225000Y11706250D01*
G75*
G02*
X30468750Y11950000I243750J0D01*
G01*
X31031250Y11950000D01*
G75*
G02*
X31275000Y11706250I0J-243750D01*
G01*
X31275000Y11218750D01*
G75*
G02*
X31031250Y10975000I-243750J0D01*
G01*
G37*
D21*
X19985000Y35570000D03*
X17985000Y34620000D03*
X17985000Y36520000D03*
X23795000Y38110000D03*
X21795000Y37160000D03*
X21795000Y39060000D03*
X19985000Y40650000D03*
X17985000Y39700000D03*
X17985000Y41600000D03*
X23795000Y43190000D03*
X21795000Y42240000D03*
X21795000Y44140000D03*
G36*
G01*
X4800000Y27218750D02*
X4800000Y27781250D01*
G75*
G02*
X5043750Y28025000I243750J0D01*
G01*
X5531250Y28025000D01*
G75*
G02*
X5775000Y27781250I0J-243750D01*
G01*
X5775000Y27218750D01*
G75*
G02*
X5531250Y26975000I-243750J0D01*
G01*
X5043750Y26975000D01*
G75*
G02*
X4800000Y27218750I0J243750D01*
G01*
G37*
G36*
G01*
X3225000Y27218750D02*
X3225000Y27781250D01*
G75*
G02*
X3468750Y28025000I243750J0D01*
G01*
X3956250Y28025000D01*
G75*
G02*
X4200000Y27781250I0J-243750D01*
G01*
X4200000Y27218750D01*
G75*
G02*
X3956250Y26975000I-243750J0D01*
G01*
X3468750Y26975000D01*
G75*
G02*
X3225000Y27218750I0J243750D01*
G01*
G37*
G36*
G01*
X6550000Y25468750D02*
X6550000Y26031250D01*
G75*
G02*
X6793750Y26275000I243750J0D01*
G01*
X7281250Y26275000D01*
G75*
G02*
X7525000Y26031250I0J-243750D01*
G01*
X7525000Y25468750D01*
G75*
G02*
X7281250Y25225000I-243750J0D01*
G01*
X6793750Y25225000D01*
G75*
G02*
X6550000Y25468750I0J243750D01*
G01*
G37*
G36*
G01*
X4975000Y25468750D02*
X4975000Y26031250D01*
G75*
G02*
X5218750Y26275000I243750J0D01*
G01*
X5706250Y26275000D01*
G75*
G02*
X5950000Y26031250I0J-243750D01*
G01*
X5950000Y25468750D01*
G75*
G02*
X5706250Y25225000I-243750J0D01*
G01*
X5218750Y25225000D01*
G75*
G02*
X4975000Y25468750I0J243750D01*
G01*
G37*
G36*
G01*
X4800000Y19968750D02*
X4800000Y20531250D01*
G75*
G02*
X5043750Y20775000I243750J0D01*
G01*
X5531250Y20775000D01*
G75*
G02*
X5775000Y20531250I0J-243750D01*
G01*
X5775000Y19968750D01*
G75*
G02*
X5531250Y19725000I-243750J0D01*
G01*
X5043750Y19725000D01*
G75*
G02*
X4800000Y19968750I0J243750D01*
G01*
G37*
G36*
G01*
X3225000Y19968750D02*
X3225000Y20531250D01*
G75*
G02*
X3468750Y20775000I243750J0D01*
G01*
X3956250Y20775000D01*
G75*
G02*
X4200000Y20531250I0J-243750D01*
G01*
X4200000Y19968750D01*
G75*
G02*
X3956250Y19725000I-243750J0D01*
G01*
X3468750Y19725000D01*
G75*
G02*
X3225000Y19968750I0J243750D01*
G01*
G37*
G36*
G01*
X41800000Y14968750D02*
X41800000Y15531250D01*
G75*
G02*
X42043750Y15775000I243750J0D01*
G01*
X42531250Y15775000D01*
G75*
G02*
X42775000Y15531250I0J-243750D01*
G01*
X42775000Y14968750D01*
G75*
G02*
X42531250Y14725000I-243750J0D01*
G01*
X42043750Y14725000D01*
G75*
G02*
X41800000Y14968750I0J243750D01*
G01*
G37*
G36*
G01*
X40225000Y14968750D02*
X40225000Y15531250D01*
G75*
G02*
X40468750Y15775000I243750J0D01*
G01*
X40956250Y15775000D01*
G75*
G02*
X41200000Y15531250I0J-243750D01*
G01*
X41200000Y14968750D01*
G75*
G02*
X40956250Y14725000I-243750J0D01*
G01*
X40468750Y14725000D01*
G75*
G02*
X40225000Y14968750I0J243750D01*
G01*
G37*
G36*
G01*
X32781250Y40050000D02*
X32218750Y40050000D01*
G75*
G02*
X31975000Y40293750I0J243750D01*
G01*
X31975000Y40781250D01*
G75*
G02*
X32218750Y41025000I243750J0D01*
G01*
X32781250Y41025000D01*
G75*
G02*
X33025000Y40781250I0J-243750D01*
G01*
X33025000Y40293750D01*
G75*
G02*
X32781250Y40050000I-243750J0D01*
G01*
G37*
G36*
G01*
X32781250Y38475000D02*
X32218750Y38475000D01*
G75*
G02*
X31975000Y38718750I0J243750D01*
G01*
X31975000Y39206250D01*
G75*
G02*
X32218750Y39450000I243750J0D01*
G01*
X32781250Y39450000D01*
G75*
G02*
X33025000Y39206250I0J-243750D01*
G01*
X33025000Y38718750D01*
G75*
G02*
X32781250Y38475000I-243750J0D01*
G01*
G37*
G36*
G01*
X38550000Y32718750D02*
X38550000Y33281250D01*
G75*
G02*
X38793750Y33525000I243750J0D01*
G01*
X39281250Y33525000D01*
G75*
G02*
X39525000Y33281250I0J-243750D01*
G01*
X39525000Y32718750D01*
G75*
G02*
X39281250Y32475000I-243750J0D01*
G01*
X38793750Y32475000D01*
G75*
G02*
X38550000Y32718750I0J243750D01*
G01*
G37*
G36*
G01*
X36975000Y32718750D02*
X36975000Y33281250D01*
G75*
G02*
X37218750Y33525000I243750J0D01*
G01*
X37706250Y33525000D01*
G75*
G02*
X37950000Y33281250I0J-243750D01*
G01*
X37950000Y32718750D01*
G75*
G02*
X37706250Y32475000I-243750J0D01*
G01*
X37218750Y32475000D01*
G75*
G02*
X36975000Y32718750I0J243750D01*
G01*
G37*
G36*
G01*
X38650000Y34518750D02*
X38650000Y35481250D01*
G75*
G02*
X38918750Y35750000I268750J0D01*
G01*
X39456250Y35750000D01*
G75*
G02*
X39725000Y35481250I0J-268750D01*
G01*
X39725000Y34518750D01*
G75*
G02*
X39456250Y34250000I-268750J0D01*
G01*
X38918750Y34250000D01*
G75*
G02*
X38650000Y34518750I0J268750D01*
G01*
G37*
G36*
G01*
X36775000Y34518750D02*
X36775000Y35481250D01*
G75*
G02*
X37043750Y35750000I268750J0D01*
G01*
X37581250Y35750000D01*
G75*
G02*
X37850000Y35481250I0J-268750D01*
G01*
X37850000Y34518750D01*
G75*
G02*
X37581250Y34250000I-268750J0D01*
G01*
X37043750Y34250000D01*
G75*
G02*
X36775000Y34518750I0J268750D01*
G01*
G37*
M02*
